<?xml version="1.0" encoding="UTF-8" standalone="no"?>
<!-- This is a Stata 16.1 generated SVG file (http://www.stata.com) -->

<svg version="1.1" width="5.50in" height="4.00in" viewBox="0 0 3960 2880" xmlns="http://www.w3.org/2000/svg" xmlns:xlink="http://www.w3.org/1999/xlink">
	<desc>Stata Graph - s_diff</desc>
	<rect x="0" y="0" width="3960" height="2880" style="fill:#FFFFFF;stroke:none"/>
	<rect x="0.00" y="0.00" width="3959.88" height="2880.00" style="fill:#FFFFFF"/>
	<rect x="2.88" y="2.88" width="3954.12" height="2874.24" style="fill:none;stroke:#FFFFFF;stroke-width:5.76"/>
	<rect x="390.80" y="100.86" width="3468.22" height="2388.33" style="fill:#FFFFFF"/>
	<rect x="393.68" y="103.74" width="3462.46" height="2382.57" style="fill:none;stroke:#FFFFFF;stroke-width:5.76"/>
	<line x1="390.80" y1="2425.82" x2="3859.02" y2="2425.82" style="stroke:#EAF2F3;stroke-width:8.64"/>
	<line x1="390.80" y1="1862.50" x2="3859.02" y2="1862.50" style="stroke:#EAF2F3;stroke-width:8.64"/>
	<line x1="390.80" y1="1299.17" x2="3859.02" y2="1299.17" style="stroke:#EAF2F3;stroke-width:8.64"/>
	<line x1="390.80" y1="735.84" x2="3859.02" y2="735.84" style="stroke:#EAF2F3;stroke-width:8.64"/>
	<line x1="390.80" y1="172.51" x2="3859.02" y2="172.51" style="stroke:#EAF2F3;stroke-width:8.64"/>
	<defs>
		<path id="path_XcOcjHOD" d="M454.16 735.84 L454.16 735.84 L562.44 978.77 L670.73 1124.18 L779.01 1240.26 L887.29 1338.89 L995.57 1423.66 L1103.85 1495.32 L1212.13 1556.08 L1320.54 1610.16 L1428.82 1660.16 L1537.10 1707.56 L1645.38 1752.73 L1753.66 1794.93 L1861.94 1833.91 L1970.22 1869.43 L2078.51 1901.35 L2186.79 1930.07 L2295.07 1955.81 L2403.35 1979.20 L2511.63 2000.48 L2620.03 2020.16 L2728.32 2038.23 L2836.60 2055.18 L2944.88 2070.90 L3053.16 2085.75 L3161.44 2099.73 L3269.72 2113.10 L3378.00 2125.72 L3378.00 1736.39 L3269.72 1731.56 L3161.44 1726.12 L3053.16 1719.93 L2944.88 1712.88 L2836.60 1704.96 L2728.32 1696.05 L2620.03 1685.90 L2511.63 1674.39 L2403.35 1661.15 L2295.07 1646.17 L2186.79 1629.10 L2078.51 1609.42 L1970.22 1586.90 L1861.94 1561.03 L1753.66 1532.07 L1645.38 1499.90 L1537.10 1465.00 L1428.82 1427.87 L1320.54 1388.15 L1212.13 1344.71 L1103.85 1295.46 L995.57 1237.79 L887.29 1170.22 L779.01 1092.25 L670.73 1002.78 L562.44 894.00 L454.16 735.84 L454.16 735.84 Z" stroke-linejoin="round"/>
	</defs>
	<defs>
		<clipPath id="clipPath_nQJoIhoz">
			<use xlink:href="#path_XcOcjHOD"/>
		</clipPath>
	</defs>
	<use xlink:href="#path_XcOcjHOD" style="stroke:none;fill:#4D4D4D;fill-opacity:0.35"/>
	<use xlink:href="#path_XcOcjHOD" style="fill:none;stroke:#202020;stroke-opacity:0.35;stroke-width:17.28" clip-path="url(#clipPath_nQJoIhoz)"/>
	<path d=" M454.04 735.84 L562.32 936.45 L670.60 1063.54 L779.01 1166.26 L887.29 1254.62 L995.57 1330.85 L1103.85 1395.45 L1212.13 1450.52 L1320.41 1499.28 L1428.69 1544.08 L1536.97 1586.40 L1645.26 1626.37 L1753.54 1663.50 L1861.82 1697.53 L1970.22 1728.22 L2078.51 1755.45 L2186.79 1779.58 L2295.07 1801.11 L2403.35 1820.30 L2511.63 1837.50 L2619.91 1853.09 L2728.19 1867.20 L2836.47 1880.07 L2944.76 1891.95 L3053.04 1902.84 L3161.32 1912.99 L3269.72 1922.39 L3378.00 1931.18" stroke-linejoin="round" style="fill:none;stroke:#202020;stroke-width:8.64"/>
	<defs>
		<path id="path_kpMsimnE" d="M454.16 735.84 L454.16 735.84 L562.44 897.46 L670.73 996.22 L779.01 1075.30 L887.29 1142.74 L995.57 1200.66 L1103.85 1249.79 L1212.13 1291.62 L1320.54 1328.75 L1428.82 1363.15 L1537.10 1395.82 L1645.38 1427.01 L1753.66 1456.34 L1861.94 1483.44 L1970.22 1508.06 L2078.51 1530.46 L2186.79 1550.51 L2295.07 1568.70 L2403.35 1585.16 L2511.63 1600.39 L2620.03 1614.37 L2728.32 1627.36 L2836.60 1639.49 L2944.88 1650.88 L3053.16 1661.64 L3161.44 1671.79 L3269.72 1681.57 L3378.00 1690.85 L3378.00 1361.29 L3269.72 1359.06 L3161.44 1356.47 L3053.16 1353.37 L2944.88 1349.78 L2836.60 1345.58 L2728.32 1340.50 L2620.03 1334.69 L2511.63 1328.00 L2403.35 1320.21 L2295.07 1311.17 L2186.79 1300.65 L2078.51 1288.40 L1970.22 1274.17 L1861.94 1257.83 L1753.66 1239.39 L1645.38 1218.85 L1537.10 1196.45 L1428.82 1172.57 L1320.54 1147.07 L1212.13 1118.98 L1103.85 1087.30 L995.57 1050.30 L887.29 1006.99 L779.01 957.24 L670.73 900.56 L562.44 832.49 L454.16 735.84 L454.16 735.84 Z" stroke-linejoin="round"/>
	</defs>
	<defs>
		<clipPath id="clipPath_cQhsrkwt">
			<use xlink:href="#path_kpMsimnE"/>
		</clipPath>
	</defs>
	<use xlink:href="#path_kpMsimnE" style="stroke:none;fill:#808080;fill-opacity:0.35"/>
	<use xlink:href="#path_kpMsimnE" style="fill:none;stroke:#606060;stroke-opacity:0.35;stroke-width:17.28" clip-path="url(#clipPath_cQhsrkwt)"/>
	<path d=" M454.04 735.84 L562.32 865.04 L670.60 948.45 L779.01 1016.27 L887.29 1074.93 L995.57 1125.54 L1103.85 1168.61 L1212.13 1205.36 L1320.41 1237.91 L1428.69 1267.98 L1536.97 1296.20 L1645.26 1323.05 L1753.54 1347.93 L1861.82 1370.70 L1970.22 1391.24 L2078.51 1409.43 L2186.79 1425.64 L2295.07 1440.00 L2403.35 1452.75 L2511.63 1464.26 L2619.91 1474.65 L2728.19 1484.06 L2836.47 1492.60 L2944.76 1500.39 L3053.04 1507.57 L3161.32 1514.25 L3269.72 1520.44 L3378.00 1526.13" stroke-linejoin="round" style="fill:none;stroke:#606060;stroke-width:8.64"/>
	<defs>
		<path id="path_RUApLEqR" d="M454.16 735.84 L454.16 735.84 L562.44 705.15 L670.73 678.29 L779.01 654.91 L887.29 634.11 L995.57 615.80 L1103.85 600.08 L1212.13 586.59 L1320.54 574.84 L1428.82 564.32 L1537.10 554.54 L1645.38 545.63 L1753.66 537.46 L1861.94 530.41 L1970.22 524.22 L2078.51 518.90 L2186.79 514.44 L2295.07 510.73 L2403.35 507.76 L2511.63 505.16 L2620.03 503.18 L2728.32 501.45 L2836.60 500.21 L2944.88 499.10 L3053.16 498.36 L3161.44 497.86 L3269.72 497.61 L3378.00 497.49 L3378.00 164.22 L3269.72 170.04 L3161.44 176.23 L3053.16 182.66 L2944.88 189.34 L2836.60 196.40 L2728.32 203.82 L2620.03 211.62 L2511.63 220.03 L2403.35 228.94 L2295.07 238.60 L2186.79 249.24 L2078.51 260.75 L1970.22 273.50 L1861.94 287.60 L1753.66 302.83 L1645.38 319.41 L1537.10 336.86 L1428.82 355.05 L1320.54 374.23 L1212.13 394.77 L1103.85 417.92 L995.57 445.27 L887.29 478.06 L779.01 516.80 L670.73 563.20 L562.44 623.72 L454.16 735.84 L454.16 735.84 Z" stroke-linejoin="round"/>
	</defs>
	<defs>
		<clipPath id="clipPath_KmPfDtne">
			<use xlink:href="#path_RUApLEqR"/>
		</clipPath>
	</defs>
	<use xlink:href="#path_RUApLEqR" style="stroke:none;fill:#B3B3B3;fill-opacity:0.35"/>
	<use xlink:href="#path_RUApLEqR" style="fill:none;stroke:#A0A0A0;stroke-opacity:0.35;stroke-width:17.28" clip-path="url(#clipPath_KmPfDtne)"/>
	<path d=" M454.04 735.84 L562.32 664.43 L670.60 620.75 L779.01 585.85 L887.29 556.15 L995.57 530.66 L1103.85 509.00 L1212.13 490.81 L1320.41 474.60 L1428.69 459.75 L1536.97 445.76 L1645.26 432.52 L1753.54 420.27 L1861.82 409.01 L1970.22 398.86 L2078.51 389.95 L2186.79 381.90 L2295.07 374.73 L2403.35 368.42 L2511.63 362.60 L2619.91 357.40 L2728.19 352.70 L2836.47 348.37 L2944.76 344.28 L3053.04 340.57 L3161.32 337.11 L3269.72 333.89 L3378.00 330.92" stroke-linejoin="round" style="fill:none;stroke:#A0A0A0;stroke-width:8.64"/>
	<path d=" M454.04 735.84 L562.32 735.84 L670.60 735.84 L779.01 735.84 L887.29 735.84 L995.57 735.84 L1103.85 735.84 L1212.13 735.84 L1320.41 735.84 L1428.69 735.84 L1536.97 735.84 L1645.26 735.84 L1753.54 735.84 L1861.82 735.84 L1970.22 735.84 L2078.51 735.84 L2186.79 735.84 L2295.07 735.84 L2403.35 735.84 L2511.63 735.84 L2619.91 735.84 L2728.19 735.84 L2836.47 735.84 L2944.76 735.84 L3053.04 735.84 L3161.32 735.84 L3269.72 735.84 L3378.00 735.84" stroke-linejoin="round" style="fill:none;stroke:#000000;stroke-opacity:0.20;stroke-width:23.04"/>
	<line x1="390.80" y1="2489.19" x2="390.80" y2="100.86" style="stroke:#000000;stroke-width:5.76"/>
	<line x1="390.80" y1="2425.82" x2="350.83" y2="2425.82" style="stroke:#000000;stroke-width:5.76"/>
	<text x="300.72" y="2425.82" style="font-family:'Helvetica';font-size:99.99px;fill:#000000" transform="rotate(-90 300.72,2425.82)" text-anchor="middle">-0.06</text>
	<line x1="390.80" y1="1862.50" x2="350.83" y2="1862.50" style="stroke:#000000;stroke-width:5.76"/>
	<text x="300.72" y="1862.50" style="font-family:'Helvetica';font-size:99.99px;fill:#000000" transform="rotate(-90 300.72,1862.50)" text-anchor="middle">-0.04</text>
	<line x1="390.80" y1="1299.17" x2="350.83" y2="1299.17" style="stroke:#000000;stroke-width:5.76"/>
	<text x="300.72" y="1299.17" style="font-family:'Helvetica';font-size:99.99px;fill:#000000" transform="rotate(-90 300.72,1299.17)" text-anchor="middle">-0.02</text>
	<line x1="390.80" y1="735.84" x2="350.83" y2="735.84" style="stroke:#000000;stroke-width:5.76"/>
	<text x="300.72" y="735.84" style="font-family:'Helvetica';font-size:99.99px;fill:#000000" transform="rotate(-90 300.72,735.84)" text-anchor="middle">0.00</text>
	<line x1="390.80" y1="172.51" x2="350.83" y2="172.51" style="stroke:#000000;stroke-width:5.76"/>
	<text x="300.72" y="172.51" style="font-family:'Helvetica';font-size:99.99px;fill:#000000" transform="rotate(-90 300.72,172.51)" text-anchor="middle">0.02</text>
	<text x="190.71" y="1294.96" style="font-family:'Helvetica';font-size:99.99px;fill:#000000" transform="rotate(-90 190.71,1294.96)" text-anchor="middle">Difference in Survival (years)</text>
	<line x1="390.80" y1="2489.19" x2="3859.02" y2="2489.19" style="stroke:#000000;stroke-width:5.76"/>
	<line x1="454.16" y1="2489.19" x2="454.16" y2="2529.16" style="stroke:#000000;stroke-width:5.76"/>
	<text x="454.16" y="2619.14" style="font-family:'Helvetica';font-size:99.99px;fill:#000000" text-anchor="middle">0</text>
	<line x1="1289.47" y1="2489.19" x2="1289.47" y2="2529.16" style="stroke:#000000;stroke-width:5.76"/>
	<text x="1289.47" y="2619.14" style="font-family:'Helvetica';font-size:99.99px;fill:#000000" text-anchor="middle">2</text>
	<line x1="2124.91" y1="2489.19" x2="2124.91" y2="2529.16" style="stroke:#000000;stroke-width:5.76"/>
	<text x="2124.91" y="2619.14" style="font-family:'Helvetica';font-size:99.99px;fill:#000000" text-anchor="middle">4</text>
	<line x1="2960.35" y1="2489.19" x2="2960.35" y2="2529.16" style="stroke:#000000;stroke-width:5.76"/>
	<text x="2960.35" y="2619.14" style="font-family:'Helvetica';font-size:99.99px;fill:#000000" text-anchor="middle">6</text>
	<line x1="3795.66" y1="2489.19" x2="3795.66" y2="2529.16" style="stroke:#000000;stroke-width:5.76"/>
	<text x="3795.66" y="2619.14" style="font-family:'Helvetica';font-size:99.99px;fill:#000000" text-anchor="middle">8</text>
	<text x="2124.91" y="2729.16" style="font-family:'Helvetica';font-size:99.99px;fill:#000000" text-anchor="middle">Years from baseline treatment outcome</text>
	<rect x="468.52" y="2031.42" width="374.47" height="99.99" style="fill:#4D4D4D;fill-opacity:0.35"/>
	<rect x="472.84" y="2035.74" width="365.83" height="91.35" style="fill:none;stroke:#202020;stroke-opacity:0.35;stroke-width:8.64"/>
	<rect x="468.52" y="2171.51" width="374.47" height="99.99" style="fill:#808080;fill-opacity:0.35"/>
	<rect x="472.84" y="2175.83" width="365.83" height="91.35" style="fill:none;stroke:#606060;stroke-opacity:0.35;stroke-width:8.64"/>
	<rect x="468.52" y="2311.47" width="374.47" height="99.99" style="fill:#B3B3B3;fill-opacity:0.35"/>
	<rect x="472.84" y="2315.79" width="365.83" height="91.35" style="fill:none;stroke:#A0A0A0;stroke-opacity:0.35;stroke-width:8.64"/>
	<text x="902.88" y="2116.44" style="font-family:'Helvetica';font-size:99.99px;fill:#000000">Early vs. Tr. completion</text>
	<text x="902.88" y="2256.53" style="font-family:'Helvetica';font-size:99.99px;fill:#000000">Late vs. Tr. completion</text>
	<text x="902.88" y="2396.50" style="font-family:'Helvetica';font-size:99.99px;fill:#000000">Late vs. Early dropout</text>
</svg>
