<?xml version="1.0" encoding="UTF-8" standalone="no"?>
<!-- This is a Stata 16.1 generated SVG file (http://www.stata.com) -->

<svg version="1.1" width="5.50in" height="4.00in" viewBox="0 0 3960 2880" xmlns="http://www.w3.org/2000/svg" xmlns:xlink="http://www.w3.org/1999/xlink">
	<desc>Stata Graph - hazards_in_zeros</desc>
	<rect x="0" y="0" width="3960" height="2880" style="fill:#FFFFFF;stroke:none"/>
	<rect x="0.00" y="0.00" width="3959.88" height="2880.00" style="fill:#FFFFFF"/>
	<rect x="2.88" y="2.88" width="3954.12" height="2874.24" style="fill:none;stroke:#FFFFFF;stroke-width:5.76"/>
	<rect x="390.80" y="100.86" width="3468.22" height="2388.33" style="fill:#FFFFFF"/>
	<rect x="393.68" y="103.74" width="3462.46" height="2382.57" style="fill:none;stroke:#FFFFFF;stroke-width:5.76"/>
	<line x1="390.80" y1="2313.70" x2="3859.02" y2="2313.70" style="stroke:#EAF2F3;stroke-width:8.64"/>
	<line x1="390.80" y1="1883.78" x2="3859.02" y2="1883.78" style="stroke:#EAF2F3;stroke-width:8.64"/>
	<line x1="390.80" y1="1453.86" x2="3859.02" y2="1453.86" style="stroke:#EAF2F3;stroke-width:8.64"/>
	<line x1="390.80" y1="1023.94" x2="3859.02" y2="1023.94" style="stroke:#EAF2F3;stroke-width:8.64"/>
	<line x1="390.80" y1="594.02" x2="3859.02" y2="594.02" style="stroke:#EAF2F3;stroke-width:8.64"/>
	<line x1="390.80" y1="164.22" x2="3859.02" y2="164.22" style="stroke:#EAF2F3;stroke-width:8.64"/>
	<path d=" M562.32 1457.57 L670.60 1626.50 L779.01 1707.31 L887.29 1775.37 L995.57 1836.26 L1103.85 1889.23 L1212.13 1935.88 L1320.41 1978.70 L1428.69 2021.89 L1536.97 2065.08 L1645.26 2107.53 L1753.54 2148.86 L1861.82 2186.48 L1970.22 2219.40 L2078.51 2248.24 L2186.79 2273.61 L2295.07 2296.13 L2403.35 2316.05 L2511.63 2334.00 L2619.91 2349.96 L2728.19 2364.19 L2836.47 2377.19 L2944.76 2388.82 L3053.04 2399.46 L3161.32 2409.12 L3269.72 2417.90 L3378.00 2425.95" stroke-linejoin="round" style="fill:none;stroke:#FF0000;stroke-width:23.04"/>
	<path d=" M562.32 384.01 L670.60 812.32 L779.01 1009.83 L887.29 1162.54 L995.57 1290.63 L1103.85 1397.80 L1212.13 1489.25 L1320.41 1570.68 L1428.69 1650.38 L1536.97 1727.85 L1645.26 1802.48 L1753.54 1873.63 L1861.82 1937.74 L1970.22 1992.93 L2078.51 2040.95 L2186.79 2082.78 L2295.07 2119.53 L2403.35 2151.96 L2511.63 2180.54 L2619.91 2206.04 L2728.19 2228.81 L2836.47 2249.10 L2944.76 2267.42 L3053.04 2283.88 L3161.32 2298.85 L3269.72 2312.34 L3378.00 2324.59" stroke-linejoin="round" style="fill:none;stroke:#0000FF;stroke-width:23.04"/>
	<path d=" M562.32 648.72 L670.60 1000.43 L779.01 1164.28 L887.29 1293.72 L995.57 1403.86 L1103.85 1496.93 L1212.13 1577.00 L1320.41 1648.90 L1428.69 1719.68 L1536.97 1789.11 L1645.26 1856.18 L1753.54 1920.66 L1861.82 1978.82 L1970.22 2029.19 L2078.51 2073.00 L2186.79 2111.36 L2295.07 2145.03 L2403.35 2174.85 L2511.63 2201.33 L2619.91 2224.85 L2728.19 2245.89 L2836.47 2264.82 L2944.76 2281.77 L3053.04 2297.24 L3161.32 2311.10 L3269.72 2323.73 L3378.00 2335.24" stroke-linejoin="round" style="fill:none;stroke:#008000;stroke-width:23.04"/>
	<line x1="390.80" y1="2489.19" x2="390.80" y2="100.86" style="stroke:#000000;stroke-width:5.76"/>
	<line x1="390.80" y1="2313.70" x2="350.83" y2="2313.70" style="stroke:#000000;stroke-width:5.76"/>
	<text x="300.72" y="2313.70" style="font-family:'Helvetica';font-size:99.99px;fill:#000000" transform="rotate(-90 300.72,2313.70)" text-anchor="middle">1.0e+129</text>
	<line x1="390.80" y1="1883.78" x2="350.83" y2="1883.78" style="stroke:#000000;stroke-width:5.76"/>
	<text x="300.72" y="1883.78" style="font-family:'Helvetica';font-size:99.99px;fill:#000000" transform="rotate(-90 300.72,1883.78)" text-anchor="middle">2.0e+129</text>
	<line x1="390.80" y1="1453.86" x2="350.83" y2="1453.86" style="stroke:#000000;stroke-width:5.76"/>
	<text x="300.72" y="1453.86" style="font-family:'Helvetica';font-size:99.99px;fill:#000000" transform="rotate(-90 300.72,1453.86)" text-anchor="middle">3.0e+129</text>
	<line x1="390.80" y1="1023.94" x2="350.83" y2="1023.94" style="stroke:#000000;stroke-width:5.76"/>
	<text x="300.72" y="1023.94" style="font-family:'Helvetica';font-size:99.99px;fill:#000000" transform="rotate(-90 300.72,1023.94)" text-anchor="middle">4.0e+129</text>
	<line x1="390.80" y1="594.02" x2="350.83" y2="594.02" style="stroke:#000000;stroke-width:5.76"/>
	<text x="300.72" y="594.02" style="font-family:'Helvetica';font-size:99.99px;fill:#000000" transform="rotate(-90 300.72,594.02)" text-anchor="middle">5.0e+129</text>
	<line x1="390.80" y1="164.22" x2="350.83" y2="164.22" style="stroke:#000000;stroke-width:5.76"/>
	<text x="300.72" y="164.22" style="font-family:'Helvetica';font-size:99.99px;fill:#000000" transform="rotate(-90 300.72,164.22)" text-anchor="middle">6.0e+129</text>
	<text x="190.71" y="1294.96" style="font-family:'Helvetica';font-size:99.99px;fill:#000000" transform="rotate(-90 190.71,1294.96)" text-anchor="middle">Condemnatory sentence rate (per 1000 py) (covariates at 0)</text>
	<line x1="390.80" y1="2489.19" x2="3859.02" y2="2489.19" style="stroke:#000000;stroke-width:5.76"/>
	<line x1="454.16" y1="2489.19" x2="454.16" y2="2529.16" style="stroke:#000000;stroke-width:5.76"/>
	<text x="454.16" y="2619.14" style="font-family:'Helvetica';font-size:99.99px;fill:#000000" text-anchor="middle">0</text>
	<line x1="1289.47" y1="2489.19" x2="1289.47" y2="2529.16" style="stroke:#000000;stroke-width:5.76"/>
	<text x="1289.47" y="2619.14" style="font-family:'Helvetica';font-size:99.99px;fill:#000000" text-anchor="middle">2</text>
	<line x1="2124.91" y1="2489.19" x2="2124.91" y2="2529.16" style="stroke:#000000;stroke-width:5.76"/>
	<text x="2124.91" y="2619.14" style="font-family:'Helvetica';font-size:99.99px;fill:#000000" text-anchor="middle">4</text>
	<line x1="2960.35" y1="2489.19" x2="2960.35" y2="2529.16" style="stroke:#000000;stroke-width:5.76"/>
	<text x="2960.35" y="2619.14" style="font-family:'Helvetica';font-size:99.99px;fill:#000000" text-anchor="middle">6</text>
	<line x1="3795.66" y1="2489.19" x2="3795.66" y2="2529.16" style="stroke:#000000;stroke-width:5.76"/>
	<text x="3795.66" y="2619.14" style="font-family:'Helvetica';font-size:99.99px;fill:#000000" text-anchor="middle">8</text>
	<text x="2124.91" y="2729.16" style="font-family:'Helvetica';font-size:99.99px;fill:#000000" text-anchor="middle">Years from treatment outcome</text>
	<line x1="2690.70" y1="228.57" x2="3065.04" y2="228.57" style="stroke:#FF0000;stroke-width:23.04"/>
	<line x1="2690.70" y1="368.54" x2="3065.04" y2="368.54" style="stroke:#0000FF;stroke-width:23.04"/>
	<line x1="2690.70" y1="508.50" x2="3065.04" y2="508.50" style="stroke:#008000;stroke-width:23.04"/>
	<text x="3125.06" y="263.60" style="font-family:'Helvetica';font-size:99.99px;fill:#000000">Tr. completion</text>
	<text x="3125.06" y="403.57" style="font-family:'Helvetica';font-size:99.99px;fill:#000000">Early dropout</text>
	<text x="3125.06" y="543.53" style="font-family:'Helvetica';font-size:99.99px;fill:#000000">Late dropout</text>
</svg>
