<?xml version="1.0" encoding="UTF-8" standalone="no"?>
<!-- This is a Stata 16.1 generated SVG file (http://www.stata.com) -->

<svg version="1.1" width="5.50in" height="4.00in" viewBox="0 0 3960 2880" xmlns="http://www.w3.org/2000/svg" xmlns:xlink="http://www.w3.org/1999/xlink">
	<desc>Stata Graph - RMSTdiff</desc>
	<rect x="0" y="0" width="3960" height="2880" style="fill:#FFFFFF;stroke:none"/>
	<rect x="0.00" y="0.00" width="3959.88" height="2880.00" style="fill:#FFFFFF"/>
	<rect x="2.88" y="2.88" width="3954.12" height="2874.24" style="fill:none;stroke:#FFFFFF;stroke-width:5.76"/>
	<rect x="390.80" y="100.86" width="3468.22" height="2388.33" style="fill:#FFFFFF"/>
	<rect x="393.68" y="103.74" width="3462.46" height="2382.57" style="fill:none;stroke:#FFFFFF;stroke-width:5.76"/>
	<line x1="390.80" y1="2425.82" x2="3859.02" y2="2425.82" style="stroke:#EAF2F3;stroke-width:8.64"/>
	<line x1="390.80" y1="1862.87" x2="3859.02" y2="1862.87" style="stroke:#EAF2F3;stroke-width:8.64"/>
	<line x1="390.80" y1="1299.91" x2="3859.02" y2="1299.91" style="stroke:#EAF2F3;stroke-width:8.64"/>
	<line x1="390.80" y1="736.83" x2="3859.02" y2="736.83" style="stroke:#EAF2F3;stroke-width:8.64"/>
	<line x1="390.80" y1="173.87" x2="3859.02" y2="173.87" style="stroke:#EAF2F3;stroke-width:8.64"/>
	<defs>
		<path id="path_HiWHcnre" d="M562.44 744.13 L562.44 744.13 L670.73 760.59 L779.01 783.86 L887.29 812.44 L995.57 845.86 L1103.85 883.36 L1212.13 924.19 L1320.54 967.88 L1428.82 1014.29 L1537.10 1063.17 L1645.38 1114.40 L1753.66 1167.87 L1861.94 1223.43 L1970.22 1280.85 L2078.51 1340.01 L2186.79 1400.77 L2295.07 1462.77 L2403.35 1526.13 L2511.63 1590.48 L2620.03 1655.95 L2728.32 1722.41 L2836.60 1789.73 L2944.88 1857.79 L3053.16 1926.60 L3161.44 1996.27 L3269.72 2066.57 L3378.00 2137.48 L3378.00 1788.00 L3269.72 1735.52 L3161.44 1683.42 L3053.16 1631.45 L2944.88 1579.97 L2836.60 1528.86 L2728.32 1478.24 L2620.03 1428.12 L2511.63 1378.62 L2403.35 1329.74 L2295.07 1281.60 L2186.79 1234.32 L2078.51 1188.16 L1970.22 1142.99 L1861.94 1099.18 L1753.66 1056.73 L1645.38 1016.02 L1537.10 977.04 L1428.82 939.91 L1320.54 904.89 L1212.13 871.97 L1103.85 841.53 L995.57 813.81 L887.29 789.43 L779.01 768.88 L670.73 752.55 L562.44 741.41 L562.44 744.13 Z" stroke-linejoin="round"/>
	</defs>
	<defs>
		<clipPath id="clipPath_FJcmWddR">
			<use xlink:href="#path_HiWHcnre"/>
		</clipPath>
	</defs>
	<use xlink:href="#path_HiWHcnre" style="stroke:none;fill:#4D4D4D;fill-opacity:0.35"/>
	<use xlink:href="#path_HiWHcnre" style="fill:none;stroke:#202020;stroke-opacity:0.35;stroke-width:17.28" clip-path="url(#clipPath_FJcmWddR)"/>
	<path d=" M454.04 736.95 L562.32 742.77 L670.60 756.63 L779.01 776.43 L887.29 801.06 L995.57 829.89 L1103.85 862.44 L1212.13 898.08 L1320.41 936.45 L1428.69 977.16 L1536.97 1020.10 L1645.26 1065.27 L1753.54 1112.42 L1861.82 1161.31 L1970.22 1212.05 L2078.51 1264.15 L2186.79 1317.61 L2295.07 1372.31 L2403.35 1428.00 L2511.63 1484.68 L2619.91 1542.10 L2728.19 1600.39 L2836.47 1659.29 L2944.76 1718.94 L3053.04 1779.09 L3161.32 1839.85 L3269.72 1901.11 L3378.00 1962.86" stroke-linejoin="round" style="fill:none;stroke:#202020;stroke-width:8.64"/>
	<defs>
		<path id="path_AdQHGnTZ" d="M562.44 741.66 L562.44 741.66 L670.73 752.67 L779.01 768.26 L887.29 787.57 L995.57 810.09 L1103.85 835.46 L1212.13 863.06 L1320.54 892.76 L1428.82 924.19 L1537.10 957.36 L1645.38 992.13 L1753.66 1028.52 L1861.94 1066.26 L1970.22 1105.37 L2078.51 1145.59 L2186.79 1186.92 L2295.07 1229.12 L2403.35 1272.31 L2511.63 1316.25 L2620.03 1360.92 L2728.32 1406.22 L2836.60 1452.13 L2944.88 1498.66 L3053.16 1545.81 L3161.44 1593.45 L3269.72 1641.60 L3378.00 1690.11 L3378.00 1400.65 L3269.72 1367.60 L3161.44 1334.81 L3053.16 1302.01 L2944.88 1269.59 L2836.60 1237.29 L2728.32 1205.24 L2620.03 1173.43 L2511.63 1142.12 L2403.35 1111.19 L2295.07 1080.62 L2186.79 1050.67 L2078.51 1021.34 L1970.22 992.75 L1861.94 964.91 L1753.66 938.05 L1645.38 912.19 L1537.10 887.56 L1428.82 864.05 L1320.54 841.90 L1212.13 821.23 L1103.85 802.05 L995.57 784.60 L887.29 769.38 L779.01 756.51 L670.73 746.48 L562.44 739.68 L562.44 741.66 Z" stroke-linejoin="round"/>
	</defs>
	<defs>
		<clipPath id="clipPath_gmMlrduA">
			<use xlink:href="#path_AdQHGnTZ"/>
		</clipPath>
	</defs>
	<use xlink:href="#path_AdQHGnTZ" style="stroke:none;fill:#808080;fill-opacity:0.35"/>
	<use xlink:href="#path_AdQHGnTZ" style="fill:none;stroke:#606060;stroke-opacity:0.35;stroke-width:17.28" clip-path="url(#clipPath_gmMlrduA)"/>
	<path d=" M454.04 736.95 L562.32 740.67 L670.60 749.70 L779.01 762.45 L887.29 778.54 L995.57 797.47 L1103.85 818.76 L1212.13 842.15 L1320.41 867.39 L1428.69 894.25 L1536.97 922.46 L1645.26 952.29 L1753.54 983.35 L1861.82 1015.65 L1970.22 1049.06 L2078.51 1083.47 L2186.79 1118.86 L2295.07 1154.99 L2403.35 1191.75 L2511.63 1229.25 L2619.91 1267.24 L2728.19 1305.73 L2836.47 1344.71 L2944.76 1384.19 L3053.04 1424.04 L3161.32 1464.13 L3269.72 1504.60 L3378.00 1545.44" stroke-linejoin="round" style="fill:none;stroke:#606060;stroke-width:8.64"/>
	<defs>
		<path id="path_ppNnGigC" d="M562.44 736.09 L562.44 736.09 L670.73 733.74 L779.01 730.15 L887.29 725.32 L995.57 719.50 L1103.85 712.82 L1212.13 705.27 L1320.54 697.11 L1428.82 688.32 L1537.10 678.91 L1645.38 669.01 L1753.66 658.74 L1861.94 647.98 L1970.22 636.84 L2078.51 625.33 L2186.79 613.57 L2295.07 601.57 L2403.35 589.44 L2511.63 577.06 L2620.03 564.57 L2728.32 551.94 L2836.60 539.20 L2944.88 526.45 L3053.16 513.58 L3161.44 500.71 L3269.72 487.71 L3378.00 474.84 L3378.00 164.22 L3269.72 193.06 L3161.44 221.64 L3053.16 249.86 L2944.88 277.70 L2836.60 305.30 L2728.32 332.53 L2620.03 359.50 L2511.63 385.86 L2403.35 411.98 L2295.07 437.47 L2186.79 462.59 L2078.51 487.10 L1970.22 511.10 L1861.94 534.37 L1753.66 556.89 L1645.38 578.55 L1537.10 599.46 L1428.82 619.51 L1320.54 638.57 L1212.13 656.64 L1103.85 673.59 L995.57 689.31 L887.29 703.42 L779.01 715.79 L670.73 725.94 L562.44 733.37 L562.44 736.09 Z" stroke-linejoin="round"/>
	</defs>
	<defs>
		<clipPath id="clipPath_rQZqyahR">
			<use xlink:href="#path_ppNnGigC"/>
		</clipPath>
	</defs>
	<use xlink:href="#path_ppNnGigC" style="stroke:none;fill:#B3B3B3;fill-opacity:0.35"/>
	<use xlink:href="#path_ppNnGigC" style="fill:none;stroke:#A0A0A0;stroke-opacity:0.35;stroke-width:17.28" clip-path="url(#clipPath_rQZqyahR)"/>
	<path d=" M454.04 736.95 L562.32 734.85 L670.60 729.90 L779.01 722.97 L887.29 714.43 L995.57 704.41 L1103.85 693.27 L1212.13 681.02 L1320.41 667.90 L1428.69 653.92 L1536.97 639.31 L1645.26 623.84 L1753.54 607.88 L1861.82 591.17 L1970.22 573.97 L2078.51 556.27 L2186.79 538.21 L2295.07 519.64 L2403.35 500.71 L2511.63 481.53 L2619.91 462.10 L2728.19 442.30 L2836.47 422.37 L2944.76 402.20 L3053.04 381.78 L3161.32 361.24 L3269.72 340.45 L3378.00 319.53" stroke-linejoin="round" style="fill:none;stroke:#A0A0A0;stroke-width:8.64"/>
	<path d=" M454.04 736.95 L562.32 736.95 L670.60 736.95 L779.01 736.95 L887.29 736.95 L995.57 736.95 L1103.85 736.95 L1212.13 736.95 L1320.41 736.95 L1428.69 736.95 L1536.97 736.95 L1645.26 736.95 L1753.54 736.95 L1861.82 736.95 L1970.22 736.95 L2078.51 736.95 L2186.79 736.95 L2295.07 736.95 L2403.35 736.95 L2511.63 736.95 L2619.91 736.95 L2728.19 736.95 L2836.47 736.95 L2944.76 736.95 L3053.04 736.95 L3161.32 736.95 L3269.72 736.95 L3378.00 736.95" stroke-linejoin="round" style="fill:none;stroke:#000000;stroke-opacity:0.20;stroke-width:23.04"/>
	<line x1="390.80" y1="2489.19" x2="390.80" y2="100.86" style="stroke:#000000;stroke-width:5.76"/>
	<line x1="390.80" y1="2425.82" x2="350.83" y2="2425.82" style="stroke:#000000;stroke-width:5.76"/>
	<text x="300.72" y="2425.82" style="font-family:'Helvetica';font-size:99.99px;fill:#000000" transform="rotate(-90 300.72,2425.82)" text-anchor="middle">-0.3</text>
	<line x1="390.80" y1="1862.87" x2="350.83" y2="1862.87" style="stroke:#000000;stroke-width:5.76"/>
	<text x="300.72" y="1862.87" style="font-family:'Helvetica';font-size:99.99px;fill:#000000" transform="rotate(-90 300.72,1862.87)" text-anchor="middle">-0.2</text>
	<line x1="390.80" y1="1299.91" x2="350.83" y2="1299.91" style="stroke:#000000;stroke-width:5.76"/>
	<text x="300.72" y="1299.91" style="font-family:'Helvetica';font-size:99.99px;fill:#000000" transform="rotate(-90 300.72,1299.91)" text-anchor="middle">-0.1</text>
	<line x1="390.80" y1="736.83" x2="350.83" y2="736.83" style="stroke:#000000;stroke-width:5.76"/>
	<text x="300.72" y="736.83" style="font-family:'Helvetica';font-size:99.99px;fill:#000000" transform="rotate(-90 300.72,736.83)" text-anchor="middle">0.0</text>
	<line x1="390.80" y1="173.87" x2="350.83" y2="173.87" style="stroke:#000000;stroke-width:5.76"/>
	<text x="300.72" y="173.87" style="font-family:'Helvetica';font-size:99.99px;fill:#000000" transform="rotate(-90 300.72,173.87)" text-anchor="middle">0.1</text>
	<text x="190.71" y="1294.96" style="font-family:'Helvetica';font-size:99.99px;fill:#000000" transform="rotate(-90 190.71,1294.96)" text-anchor="middle">Difference in RMST (years)</text>
	<line x1="390.80" y1="2489.19" x2="3859.02" y2="2489.19" style="stroke:#000000;stroke-width:5.76"/>
	<line x1="454.16" y1="2489.19" x2="454.16" y2="2529.16" style="stroke:#000000;stroke-width:5.76"/>
	<text x="454.16" y="2619.14" style="font-family:'Helvetica';font-size:99.99px;fill:#000000" text-anchor="middle">0</text>
	<line x1="1289.47" y1="2489.19" x2="1289.47" y2="2529.16" style="stroke:#000000;stroke-width:5.76"/>
	<text x="1289.47" y="2619.14" style="font-family:'Helvetica';font-size:99.99px;fill:#000000" text-anchor="middle">2</text>
	<line x1="2124.91" y1="2489.19" x2="2124.91" y2="2529.16" style="stroke:#000000;stroke-width:5.76"/>
	<text x="2124.91" y="2619.14" style="font-family:'Helvetica';font-size:99.99px;fill:#000000" text-anchor="middle">4</text>
	<line x1="2960.35" y1="2489.19" x2="2960.35" y2="2529.16" style="stroke:#000000;stroke-width:5.76"/>
	<text x="2960.35" y="2619.14" style="font-family:'Helvetica';font-size:99.99px;fill:#000000" text-anchor="middle">6</text>
	<line x1="3795.66" y1="2489.19" x2="3795.66" y2="2529.16" style="stroke:#000000;stroke-width:5.76"/>
	<text x="3795.66" y="2619.14" style="font-family:'Helvetica';font-size:99.99px;fill:#000000" text-anchor="middle">8</text>
	<text x="2124.91" y="2729.16" style="font-family:'Helvetica';font-size:99.99px;fill:#000000" text-anchor="middle">Years from baseline treatment outcome</text>
	<rect x="468.52" y="2031.42" width="374.47" height="99.99" style="fill:#4D4D4D;fill-opacity:0.35"/>
	<rect x="472.84" y="2035.74" width="365.83" height="91.35" style="fill:none;stroke:#202020;stroke-opacity:0.35;stroke-width:8.64"/>
	<rect x="468.52" y="2171.51" width="374.47" height="99.99" style="fill:#808080;fill-opacity:0.35"/>
	<rect x="472.84" y="2175.83" width="365.83" height="91.35" style="fill:none;stroke:#606060;stroke-opacity:0.35;stroke-width:8.64"/>
	<rect x="468.52" y="2311.47" width="374.47" height="99.99" style="fill:#B3B3B3;fill-opacity:0.35"/>
	<rect x="472.84" y="2315.79" width="365.83" height="91.35" style="fill:none;stroke:#A0A0A0;stroke-opacity:0.35;stroke-width:8.64"/>
	<text x="902.88" y="2116.44" style="font-family:'Helvetica';font-size:99.99px;fill:#000000">Early vs. Tr. completion</text>
	<text x="902.88" y="2256.53" style="font-family:'Helvetica';font-size:99.99px;fill:#000000">Late vs. Tr. completion</text>
	<text x="902.88" y="2396.50" style="font-family:'Helvetica';font-size:99.99px;fill:#000000">Late vs. Early dropout</text>
</svg>
