<?xml version="1.0" encoding="UTF-8" standalone="no"?>
<!-- This is a Stata 16.1 generated SVG file (http://www.stata.com) -->

<svg version="1.1" width="5.50in" height="4.00in" viewBox="0 0 3960 2880" xmlns="http://www.w3.org/2000/svg" xmlns:xlink="http://www.w3.org/1999/xlink">
	<desc>Stata Graph - RMTLdiff</desc>
	<rect x="0" y="0" width="3960" height="2880" style="fill:#FFFFFF;stroke:none"/>
	<rect x="0.00" y="0.00" width="3959.88" height="2880.00" style="fill:#FFFFFF"/>
	<rect x="2.88" y="2.88" width="3954.12" height="2874.24" style="fill:none;stroke:#FFFFFF;stroke-width:5.76"/>
	<rect x="390.80" y="100.86" width="3468.22" height="2388.33" style="fill:#FFFFFF"/>
	<rect x="393.68" y="103.74" width="3462.46" height="2382.57" style="fill:none;stroke:#FFFFFF;stroke-opacity:0.00;stroke-width:5.76"/>
	<defs>
		<path id="path_abpGhkot" d="M507.25 1844.80 L507.25 1844.80 L560.46 1839.72 L613.68 1832.42 L666.76 1823.27 L719.98 1812.50 L773.07 1800.25 L826.28 1786.76 L879.49 1772.03 L932.58 1756.07 L985.79 1738.99 L1038.88 1721.05 L1092.09 1702.23 L1145.18 1682.43 L1198.39 1662.01 L1251.61 1640.85 L1304.70 1618.95 L1357.91 1596.42 L1411.00 1573.41 L1464.21 1549.65 L1517.42 1525.39 L1570.51 1500.64 L1623.72 1475.27 L1676.81 1449.28 L1730.03 1422.80 L1783.24 1395.82 L1836.33 1368.35 L1889.54 1340.38 L1942.63 1311.91 L1995.84 1283.08 L2048.93 1253.75 L2102.14 1224.05 L2155.35 1193.98 L2208.44 1163.53 L2261.66 1132.84 L2314.74 1101.78 L2367.96 1070.35 L2421.17 1038.67 L2474.26 1006.74 L2527.47 974.56 L2580.56 942.14 L2633.77 909.47 L2686.98 876.55 L2740.07 843.51 L2793.28 810.22 L2846.37 776.68 L2899.59 743.02 L2952.68 709.11 L3005.89 675.08 L3059.10 640.92 L3112.19 606.52 L3165.40 571.99 L3218.49 537.34 L3271.70 502.56 L3324.91 467.54 L3378.00 432.52 L3378.00 803.04 L3324.91 828.53 L3271.70 854.03 L3218.49 879.52 L3165.40 904.76 L3112.19 930.13 L3059.10 955.26 L3005.89 980.38 L2952.68 1005.38 L2899.59 1030.37 L2846.37 1055.13 L2793.28 1079.88 L2740.07 1104.50 L2686.98 1129.01 L2633.77 1153.26 L2580.56 1177.52 L2527.47 1201.53 L2474.26 1225.53 L2421.17 1249.30 L2367.96 1272.81 L2314.74 1296.20 L2261.66 1319.34 L2208.44 1342.36 L2155.35 1365.01 L2102.14 1387.53 L2048.93 1409.68 L1995.84 1431.58 L1942.63 1453.12 L1889.54 1474.40 L1836.33 1495.32 L1783.24 1515.86 L1730.03 1536.16 L1676.81 1555.83 L1623.72 1575.26 L1570.51 1594.20 L1517.42 1612.76 L1464.21 1630.83 L1411.00 1648.53 L1357.91 1665.60 L1304.70 1682.31 L1251.61 1698.52 L1198.39 1714.24 L1145.18 1729.34 L1092.09 1743.82 L1038.88 1757.68 L985.79 1770.79 L932.58 1783.17 L879.49 1794.68 L826.28 1805.20 L773.07 1814.97 L719.98 1823.51 L666.76 1831.06 L613.68 1837.37 L560.46 1842.32 L507.25 1845.67 L507.25 1844.80 Z" stroke-linejoin="round"/>
	</defs>
	<defs>
		<clipPath id="clipPath_rzLnzpnc">
			<use xlink:href="#path_abpGhkot"/>
		</clipPath>
	</defs>
	<use xlink:href="#path_abpGhkot" style="stroke:none;fill:#4D4D4D;fill-opacity:0.35"/>
	<use xlink:href="#path_abpGhkot" style="fill:none;stroke:#202020;stroke-opacity:0.35;stroke-width:17.28" clip-path="url(#clipPath_rzLnzpnc)"/>
	<path d=" M454.04 1847.03 L507.25 1845.29 L560.34 1841.09 L613.55 1834.90 L666.76 1827.23 L719.85 1818.07 L773.07 1807.67 L826.15 1796.04 L879.37 1783.42 L932.58 1769.68 L985.67 1754.95 L1038.88 1739.36 L1091.97 1723.03 L1145.18 1705.95 L1198.39 1688.13 L1251.48 1669.69 L1304.70 1650.75 L1357.79 1631.08 L1411.00 1611.03 L1464.09 1590.36 L1517.30 1569.20 L1570.51 1547.42 L1623.60 1525.27 L1676.81 1502.62 L1729.90 1479.48 L1783.11 1455.96 L1836.33 1431.96 L1889.41 1407.45 L1942.63 1382.58 L1995.72 1357.33 L2048.93 1331.84 L2102.14 1305.85 L2155.23 1279.61 L2208.44 1253.01 L2261.53 1226.15 L2314.74 1199.05 L2367.83 1171.70 L2421.05 1143.98 L2474.26 1116.14 L2527.35 1088.17 L2580.56 1059.83 L2633.65 1031.49 L2686.86 1002.78 L2740.07 974.07 L2793.16 945.11 L2846.37 916.03 L2899.46 886.70 L2952.68 857.37 L3005.89 827.79 L3058.98 798.09 L3112.19 768.39 L3165.28 738.44 L3218.49 708.49 L3271.58 678.29 L3324.79 648.10 L3378.00 617.78" stroke-linejoin="round" style="fill:none;stroke:#202020;stroke-width:8.64"/>
	<defs>
		<path id="path_knyuZnEq" d="M507.25 1845.54 L507.25 1845.54 L560.46 1842.20 L613.68 1837.37 L666.76 1831.31 L719.98 1824.13 L773.07 1815.96 L826.28 1806.93 L879.49 1797.03 L932.58 1786.39 L985.79 1775.00 L1038.88 1763.00 L1092.09 1750.25 L1145.18 1737.01 L1198.39 1723.27 L1251.61 1709.04 L1304.70 1694.44 L1357.91 1679.34 L1411.00 1663.75 L1464.21 1647.91 L1517.42 1631.57 L1570.51 1614.86 L1623.72 1597.79 L1676.81 1580.34 L1730.03 1562.52 L1783.24 1544.32 L1836.33 1525.76 L1889.54 1506.95 L1942.63 1487.77 L1995.84 1468.22 L2048.93 1448.54 L2102.14 1428.49 L2155.35 1408.20 L2208.44 1387.65 L2261.66 1366.86 L2314.74 1345.82 L2367.96 1324.66 L2421.17 1303.25 L2474.26 1281.60 L2527.47 1259.94 L2580.56 1237.91 L2633.77 1215.88 L2686.98 1193.61 L2740.07 1171.21 L2793.28 1148.56 L2846.37 1125.91 L2899.59 1103.14 L2952.68 1080.12 L3005.89 1057.11 L3059.10 1033.84 L3112.19 1010.57 L3165.40 987.06 L3218.49 963.55 L3271.70 939.91 L3324.91 916.15 L3378.00 892.27 L3378.00 1163.41 L3324.91 1180.36 L3271.70 1197.07 L3218.49 1213.90 L3165.40 1230.61 L3112.19 1247.32 L3059.10 1263.90 L3005.89 1280.48 L2952.68 1296.94 L2899.59 1313.40 L2846.37 1329.86 L2793.28 1346.19 L2740.07 1362.41 L2686.98 1378.49 L2633.77 1394.58 L2580.56 1410.55 L2527.47 1426.51 L2474.26 1442.23 L2421.17 1457.94 L2367.96 1473.41 L2314.74 1488.88 L2261.66 1504.10 L2208.44 1519.33 L2155.35 1534.18 L2102.14 1549.03 L2048.93 1563.63 L1995.84 1577.99 L1942.63 1592.22 L1889.54 1606.20 L1836.33 1619.94 L1783.24 1633.43 L1730.03 1646.55 L1676.81 1659.54 L1623.72 1672.16 L1570.51 1684.54 L1517.42 1696.67 L1464.21 1708.42 L1411.00 1719.93 L1357.91 1731.07 L1304.70 1741.96 L1251.61 1752.35 L1198.39 1762.50 L1145.18 1772.28 L1092.09 1781.56 L1038.88 1790.47 L985.79 1798.89 L932.58 1806.81 L879.49 1814.11 L826.28 1820.91 L773.07 1826.98 L719.98 1832.42 L666.76 1837.13 L613.68 1841.09 L560.46 1844.06 L507.25 1846.16 L507.25 1845.54 Z" stroke-linejoin="round"/>
	</defs>
	<defs>
		<clipPath id="clipPath_vMiyMXKs">
			<use xlink:href="#path_knyuZnEq"/>
		</clipPath>
	</defs>
	<use xlink:href="#path_knyuZnEq" style="stroke:none;fill:#808080;fill-opacity:0.35"/>
	<use xlink:href="#path_knyuZnEq" style="fill:none;stroke:#606060;stroke-opacity:0.35;stroke-width:17.28" clip-path="url(#clipPath_vMiyMXKs)"/>
	<path d=" M454.04 1847.03 L507.25 1845.91 L560.34 1843.19 L613.55 1839.23 L666.76 1834.28 L719.85 1828.34 L773.07 1821.53 L826.15 1813.98 L879.37 1805.69 L932.58 1796.66 L985.67 1787.01 L1038.88 1776.73 L1091.97 1765.97 L1145.18 1754.71 L1198.39 1742.95 L1251.48 1730.82 L1304.70 1718.20 L1357.79 1705.20 L1411.00 1691.96 L1464.09 1678.23 L1517.30 1664.12 L1570.51 1649.76 L1623.60 1635.04 L1676.81 1619.94 L1729.90 1604.59 L1783.11 1588.88 L1836.33 1572.91 L1889.41 1556.58 L1942.63 1539.99 L1995.72 1523.16 L2048.93 1506.08 L2102.14 1488.76 L2155.23 1471.31 L2208.44 1453.49 L2261.53 1435.54 L2314.74 1417.48 L2367.83 1399.16 L2421.05 1380.60 L2474.26 1362.04 L2527.35 1343.22 L2580.56 1324.29 L2633.65 1305.23 L2686.86 1286.17 L2740.07 1266.87 L2793.16 1247.44 L2846.37 1227.89 L2899.46 1208.33 L2952.68 1188.66 L3005.89 1168.86 L3058.98 1148.93 L3112.19 1129.01 L3165.28 1108.96 L3218.49 1088.79 L3271.58 1068.61 L3324.79 1048.32 L3378.00 1027.90" stroke-linejoin="round" style="fill:none;stroke:#606060;stroke-width:8.64"/>
	<defs>
		<path id="path_DbSaoMMG" d="M507.25 1847.15 L507.25 1847.15 L560.46 1847.77 L613.68 1848.88 L666.76 1850.24 L719.98 1851.85 L773.07 1853.83 L826.28 1855.94 L879.49 1858.41 L932.58 1861.13 L985.79 1863.98 L1038.88 1866.95 L1092.09 1870.29 L1145.18 1873.63 L1198.39 1877.22 L1251.61 1880.94 L1304.70 1884.77 L1357.91 1888.61 L1411.00 1892.69 L1464.21 1896.90 L1517.42 1901.23 L1570.51 1905.56 L1623.72 1910.02 L1676.81 1914.60 L1730.03 1919.30 L1783.24 1924.13 L1836.33 1928.95 L1889.54 1933.90 L1942.63 1938.85 L1995.84 1943.93 L2048.93 1949.12 L2102.14 1954.32 L2155.35 1959.64 L2208.44 1964.84 L2261.66 1970.29 L2314.74 1975.61 L2367.96 1981.05 L2421.17 1986.62 L2474.26 1992.07 L2527.47 1997.63 L2580.56 2003.20 L2633.77 2008.77 L2686.98 2014.34 L2740.07 2020.03 L2793.28 2025.60 L2846.37 2031.30 L2899.59 2036.99 L2952.68 2042.68 L3005.89 2048.25 L3059.10 2053.94 L3112.19 2059.76 L3165.40 2065.45 L3218.49 2071.14 L3271.70 2076.84 L3324.91 2082.53 L3378.00 2088.22 L3378.00 2425.82 L3324.91 2411.59 L3271.70 2397.48 L3218.49 2383.38 L3165.40 2369.27 L3112.19 2355.28 L3059.10 2341.42 L3005.89 2327.56 L2952.68 2313.83 L2899.59 2300.09 L2846.37 2286.48 L2793.28 2272.99 L2740.07 2259.50 L2686.98 2246.13 L2633.77 2232.77 L2580.56 2219.53 L2527.47 2206.41 L2474.26 2193.41 L2421.17 2180.54 L2367.96 2167.67 L2314.74 2155.05 L2261.66 2142.43 L2208.44 2129.93 L2155.35 2117.68 L2102.14 2105.42 L2048.93 2093.42 L1995.84 2081.54 L1942.63 2069.78 L1889.54 2058.27 L1836.33 2046.89 L1783.24 2035.63 L1730.03 2024.61 L1676.81 2013.85 L1623.72 2003.20 L1570.51 1992.81 L1517.42 1982.66 L1464.21 1972.76 L1411.00 1962.98 L1357.91 1953.45 L1304.70 1944.17 L1251.61 1935.14 L1198.39 1926.35 L1145.18 1917.81 L1092.09 1909.52 L1038.88 1901.60 L985.79 1894.05 L932.58 1886.75 L879.49 1880.07 L826.28 1873.63 L773.07 1867.82 L719.98 1862.50 L666.76 1857.79 L613.68 1853.71 L560.46 1850.37 L507.25 1848.02 L507.25 1847.15 Z" stroke-linejoin="round"/>
	</defs>
	<defs>
		<clipPath id="clipPath_uThgFtJm">
			<use xlink:href="#path_DbSaoMMG"/>
		</clipPath>
	</defs>
	<use xlink:href="#path_DbSaoMMG" style="stroke:none;fill:#B3B3B3;fill-opacity:0.35"/>
	<use xlink:href="#path_DbSaoMMG" style="fill:none;stroke:#A0A0A0;stroke-opacity:0.35;stroke-width:17.28" clip-path="url(#clipPath_uThgFtJm)"/>
	<path d=" M454.04 1847.03 L507.25 1847.65 L560.34 1849.13 L613.55 1851.36 L666.76 1854.08 L719.85 1857.30 L773.07 1860.89 L826.15 1864.85 L879.37 1869.30 L932.58 1874.00 L985.67 1879.08 L1038.88 1884.40 L1091.97 1889.97 L1145.18 1895.79 L1198.39 1901.85 L1251.48 1908.04 L1304.70 1914.47 L1357.79 1921.16 L1411.00 1927.96 L1464.09 1934.89 L1517.30 1941.95 L1570.51 1949.25 L1623.60 1956.67 L1676.81 1964.35 L1729.90 1972.02 L1783.11 1979.94 L1836.33 1987.98 L1889.41 1996.15 L1942.63 2004.44 L1995.72 2012.86 L2048.93 2021.27 L2102.14 2029.93 L2155.23 2038.72 L2208.44 2047.51 L2261.53 2056.42 L2314.74 2065.45 L2367.83 2074.49 L2421.05 2083.64 L2474.26 2092.80 L2527.35 2102.08 L2580.56 2111.49 L2633.65 2120.89 L2686.86 2130.30 L2740.07 2139.83 L2793.16 2149.36 L2846.37 2158.89 L2899.46 2168.54 L2952.68 2178.32 L3005.89 2187.97 L3058.98 2197.74 L3112.19 2207.65 L3165.28 2217.42 L3218.49 2227.32 L3271.58 2237.22 L3324.79 2247.12 L3378.00 2257.15" stroke-linejoin="round" style="fill:none;stroke:#A0A0A0;stroke-width:8.64"/>
	<path d=" M454.04 1847.03 L507.25 1847.03 L560.34 1847.03 L613.55 1847.03 L666.76 1847.03 L719.85 1847.03 L773.07 1847.03 L826.15 1847.03 L879.37 1847.03 L932.58 1847.03 L985.67 1847.03 L1038.88 1847.03 L1091.97 1847.03 L1145.18 1847.03 L1198.39 1847.03 L1251.48 1847.03 L1304.70 1847.03 L1357.79 1847.03 L1411.00 1847.03 L1464.09 1847.03 L1517.30 1847.03 L1570.51 1847.03 L1623.60 1847.03 L1676.81 1847.03 L1729.90 1847.03 L1783.11 1847.03 L1836.33 1847.03 L1889.41 1847.03 L1942.63 1847.03 L1995.72 1847.03 L2048.93 1847.03 L2102.14 1847.03 L2155.23 1847.03 L2208.44 1847.03 L2261.53 1847.03 L2314.74 1847.03 L2367.83 1847.03 L2421.05 1847.03 L2474.26 1847.03 L2527.35 1847.03 L2580.56 1847.03 L2633.65 1847.03 L2686.86 1847.03 L2740.07 1847.03 L2793.16 1847.03 L2846.37 1847.03 L2899.46 1847.03 L2952.68 1847.03 L3005.89 1847.03 L3058.98 1847.03 L3112.19 1847.03 L3165.28 1847.03 L3218.49 1847.03 L3271.58 1847.03 L3324.79 1847.03 L3378.00 1847.03" stroke-linejoin="round" style="fill:none;stroke:#000000;stroke-opacity:0.20;stroke-width:23.04"/>
	<line x1="390.80" y1="2489.19" x2="390.80" y2="100.86" style="stroke:#000000;stroke-width:5.76"/>
	<line x1="390.80" y1="2407.88" x2="350.83" y2="2407.88" style="stroke:#000000;stroke-width:5.76"/>
	<text x="300.72" y="2407.88" style="font-family:'Helvetica';font-size:99.99px;fill:#000000" transform="rotate(-90 300.72,2407.88)" text-anchor="middle">-0.1</text>
	<line x1="390.80" y1="1846.90" x2="350.83" y2="1846.90" style="stroke:#000000;stroke-width:5.76"/>
	<text x="300.72" y="1846.90" style="font-family:'Helvetica';font-size:99.99px;fill:#000000" transform="rotate(-90 300.72,1846.90)" text-anchor="middle">0.0</text>
	<line x1="390.80" y1="1286.05" x2="350.83" y2="1286.05" style="stroke:#000000;stroke-width:5.76"/>
	<text x="300.72" y="1286.05" style="font-family:'Helvetica';font-size:99.99px;fill:#000000" transform="rotate(-90 300.72,1286.05)" text-anchor="middle">0.1</text>
	<line x1="390.80" y1="725.07" x2="350.83" y2="725.07" style="stroke:#000000;stroke-width:5.76"/>
	<text x="300.72" y="725.07" style="font-family:'Helvetica';font-size:99.99px;fill:#000000" transform="rotate(-90 300.72,725.07)" text-anchor="middle">0.2</text>
	<line x1="390.80" y1="164.22" x2="350.83" y2="164.22" style="stroke:#000000;stroke-width:5.76"/>
	<text x="300.72" y="164.22" style="font-family:'Helvetica';font-size:99.99px;fill:#000000" transform="rotate(-90 300.72,164.22)" text-anchor="middle">0.3</text>
	<text x="190.71" y="1294.96" style="font-family:'Helvetica';font-size:99.99px;fill:#000000" transform="rotate(-90 190.71,1294.96)" text-anchor="middle">Difference in RMTL (years)</text>
	<line x1="390.80" y1="2489.19" x2="3859.02" y2="2489.19" style="stroke:#000000;stroke-width:5.76"/>
	<line x1="454.16" y1="2489.19" x2="454.16" y2="2529.16" style="stroke:#000000;stroke-width:5.76"/>
	<text x="454.16" y="2619.14" style="font-family:'Helvetica';font-size:99.99px;fill:#000000" text-anchor="middle">0</text>
	<line x1="1289.47" y1="2489.19" x2="1289.47" y2="2529.16" style="stroke:#000000;stroke-width:5.76"/>
	<text x="1289.47" y="2619.14" style="font-family:'Helvetica';font-size:99.99px;fill:#000000" text-anchor="middle">2</text>
	<line x1="2124.91" y1="2489.19" x2="2124.91" y2="2529.16" style="stroke:#000000;stroke-width:5.76"/>
	<text x="2124.91" y="2619.14" style="font-family:'Helvetica';font-size:99.99px;fill:#000000" text-anchor="middle">4</text>
	<line x1="2960.35" y1="2489.19" x2="2960.35" y2="2529.16" style="stroke:#000000;stroke-width:5.76"/>
	<text x="2960.35" y="2619.14" style="font-family:'Helvetica';font-size:99.99px;fill:#000000" text-anchor="middle">6</text>
	<line x1="3795.66" y1="2489.19" x2="3795.66" y2="2529.16" style="stroke:#000000;stroke-width:5.76"/>
	<text x="3795.66" y="2619.14" style="font-family:'Helvetica';font-size:99.99px;fill:#000000" text-anchor="middle">8</text>
	<text x="2124.91" y="2729.16" style="font-family:'Helvetica';font-size:99.99px;fill:#000000" text-anchor="middle">Years from baseline treatment outcome</text>
	<rect x="468.52" y="178.58" width="374.47" height="99.99" style="fill:#4D4D4D;fill-opacity:0.35"/>
	<rect x="472.84" y="182.90" width="365.83" height="91.35" style="fill:none;stroke:#202020;stroke-opacity:0.35;stroke-width:8.64"/>
	<rect x="468.52" y="318.54" width="374.47" height="99.99" style="fill:#808080;fill-opacity:0.35"/>
	<rect x="472.84" y="322.86" width="365.83" height="91.35" style="fill:none;stroke:#606060;stroke-opacity:0.35;stroke-width:8.64"/>
	<rect x="468.52" y="458.51" width="374.47" height="99.99" style="fill:#B3B3B3;fill-opacity:0.35"/>
	<rect x="472.84" y="462.83" width="365.83" height="91.35" style="fill:none;stroke:#A0A0A0;stroke-opacity:0.35;stroke-width:8.64"/>
	<text x="902.88" y="263.60" style="font-family:'Helvetica';font-size:99.99px;fill:#000000">Early vs. Tr. completion</text>
	<text x="902.88" y="403.57" style="font-family:'Helvetica';font-size:99.99px;fill:#000000">Late vs. Tr. completion</text>
	<text x="902.88" y="543.53" style="font-family:'Helvetica';font-size:99.99px;fill:#000000">Late vs. Early dropout</text>
</svg>
