<?xml version="1.0" encoding="UTF-8" standalone="no"?>
<!-- This is a Stata 16.1 generated SVG file (http://www.stata.com) -->

<svg version="1.1" width="5.50in" height="4.00in" viewBox="0 0 3960 2880" xmlns="http://www.w3.org/2000/svg" xmlns:xlink="http://www.w3.org/1999/xlink">
	<desc>Stata Graph - RMSTdiff</desc>
	<rect x="0" y="0" width="3960" height="2880" style="fill:#FFFFFF;stroke:none"/>
	<rect x="0.00" y="0.00" width="3959.88" height="2880.00" style="fill:#FFFFFF"/>
	<rect x="2.88" y="2.88" width="3954.12" height="2874.24" style="fill:none;stroke:#FFFFFF;stroke-width:5.76"/>
	<rect x="390.80" y="100.86" width="3468.22" height="2388.33" style="fill:#FFFFFF"/>
	<rect x="393.68" y="103.74" width="3462.46" height="2382.57" style="fill:none;stroke:#FFFFFF;stroke-width:5.76"/>
	<line x1="390.80" y1="2425.82" x2="3859.02" y2="2425.82" style="stroke:#EAF2F3;stroke-width:8.64"/>
	<line x1="390.80" y1="1860.39" x2="3859.02" y2="1860.39" style="stroke:#EAF2F3;stroke-width:8.64"/>
	<line x1="390.80" y1="1294.96" x2="3859.02" y2="1294.96" style="stroke:#EAF2F3;stroke-width:8.64"/>
	<line x1="390.80" y1="729.53" x2="3859.02" y2="729.53" style="stroke:#EAF2F3;stroke-width:8.64"/>
	<line x1="390.80" y1="164.22" x2="3859.02" y2="164.22" style="stroke:#EAF2F3;stroke-width:8.64"/>
	<defs>
		<path id="path_xYoZvTyU" d="M562.44 736.58 L562.44 736.58 L670.73 752.67 L779.01 775.32 L887.29 803.41 L995.57 835.83 L1103.85 872.09 L1212.13 911.45 L1320.54 953.89 L1428.82 999.19 L1537.10 1046.96 L1645.38 1097.08 L1753.66 1149.30 L1861.94 1203.51 L1970.22 1259.44 L2078.51 1316.99 L2186.79 1375.90 L2295.07 1436.04 L2403.35 1497.42 L2511.63 1559.79 L2620.03 1623.16 L2728.32 1687.38 L2836.60 1752.60 L2944.88 1818.44 L3053.16 1885.14 L3161.44 1952.59 L3269.72 2020.65 L3378.00 2089.34 L3378.00 1687.01 L3269.72 1639.74 L3161.44 1592.71 L3053.16 1545.93 L2944.88 1499.53 L2836.60 1453.37 L2728.32 1407.70 L2620.03 1362.41 L2511.63 1317.61 L2403.35 1273.43 L2295.07 1229.87 L2186.79 1186.92 L2078.51 1144.97 L1970.22 1103.76 L1861.94 1063.66 L1753.66 1024.81 L1645.38 987.31 L1537.10 951.42 L1428.82 917.26 L1320.54 884.96 L1212.13 854.77 L1103.85 826.80 L995.57 801.43 L887.29 778.78 L779.01 759.60 L670.73 744.26 L562.44 733.86 L562.44 736.58 Z" stroke-linejoin="round"/>
	</defs>
	<defs>
		<clipPath id="clipPath_SagXzuEQ">
			<use xlink:href="#path_xYoZvTyU"/>
		</clipPath>
	</defs>
	<use xlink:href="#path_xYoZvTyU" style="stroke:none;fill:#4D4D4D;fill-opacity:0.35"/>
	<use xlink:href="#path_xYoZvTyU" style="fill:none;stroke:#202020;stroke-opacity:0.35;stroke-width:17.28" clip-path="url(#clipPath_SagXzuEQ)"/>
	<path d=" M454.04 729.65 L562.32 735.22 L670.60 748.59 L779.01 767.52 L887.29 791.16 L995.57 818.63 L1103.85 849.45 L1212.13 883.23 L1320.41 919.49 L1428.69 958.23 L1536.97 999.19 L1645.26 1042.26 L1753.54 1087.18 L1861.82 1133.71 L1970.22 1181.73 L2078.51 1230.98 L2186.79 1281.47 L2295.07 1332.95 L2403.35 1385.42 L2511.63 1438.76 L2619.91 1492.84 L2728.19 1547.67 L2836.47 1602.98 L2944.76 1659.04 L3053.04 1715.60 L3161.32 1772.65 L3269.72 1830.32 L3378.00 1888.24" stroke-linejoin="round" style="fill:none;stroke:#202020;stroke-width:8.64"/>
	<defs>
		<path id="path_HMjOBMXl" d="M562.44 734.36 L562.44 734.36 L670.73 745.49 L779.01 761.21 L887.29 780.76 L995.57 803.41 L1103.85 828.78 L1212.13 856.38 L1320.54 885.95 L1428.82 917.63 L1537.10 951.05 L1645.38 986.19 L1753.66 1022.70 L1861.94 1060.69 L1970.22 1099.92 L2078.51 1140.27 L2186.79 1181.60 L2295.07 1223.80 L2403.35 1266.99 L2511.63 1310.80 L2620.03 1355.35 L2728.32 1400.65 L2836.60 1446.44 L2944.88 1492.97 L3053.16 1539.87 L3161.44 1587.51 L3269.72 1635.53 L3378.00 1684.04 L3378.00 1390.62 L3269.72 1357.83 L3161.44 1325.16 L3053.16 1292.73 L2944.88 1260.43 L2836.60 1228.38 L2728.32 1196.70 L2620.03 1165.14 L2511.63 1134.08 L2403.35 1103.27 L2295.07 1072.95 L2186.79 1043.25 L2078.51 1014.04 L1970.22 985.45 L1861.94 957.73 L1753.66 930.75 L1645.38 904.89 L1537.10 880.14 L1428.82 856.62 L1320.54 834.47 L1212.13 813.81 L1103.85 794.75 L995.57 777.55 L887.29 762.32 L779.01 749.33 L670.73 739.18 L562.44 732.38 L562.44 734.36 Z" stroke-linejoin="round"/>
	</defs>
	<defs>
		<clipPath id="clipPath_tfRvoUBl">
			<use xlink:href="#path_HMjOBMXl"/>
		</clipPath>
	</defs>
	<use xlink:href="#path_HMjOBMXl" style="stroke:none;fill:#808080;fill-opacity:0.35"/>
	<use xlink:href="#path_HMjOBMXl" style="fill:none;stroke:#606060;stroke-opacity:0.35;stroke-width:17.28" clip-path="url(#clipPath_tfRvoUBl)"/>
	<path d=" M454.04 729.65 L562.32 733.37 L670.60 742.40 L779.01 755.39 L887.29 771.61 L995.57 790.54 L1103.85 811.83 L1212.13 835.09 L1320.41 860.34 L1428.69 887.19 L1536.97 915.65 L1645.26 945.60 L1753.54 976.79 L1861.82 1009.34 L1970.22 1042.75 L2078.51 1077.15 L2186.79 1112.42 L2295.07 1148.44 L2403.35 1185.19 L2511.63 1222.44 L2619.91 1260.31 L2728.19 1298.67 L2836.47 1337.53 L2944.76 1376.76 L3053.04 1416.36 L3161.32 1456.34 L3269.72 1496.80 L3378.00 1537.39" stroke-linejoin="round" style="fill:none;stroke:#606060;stroke-width:8.64"/>
	<defs>
		<path id="path_dqobKiYY" d="M562.44 729.03 L562.44 729.03 L670.73 727.55 L779.01 725.07 L887.29 721.86 L995.57 717.90 L1103.85 713.44 L1212.13 708.37 L1320.54 702.92 L1428.82 697.11 L1537.10 690.92 L1645.38 684.36 L1753.66 677.55 L1861.94 670.50 L1970.22 663.32 L2078.51 655.90 L2186.79 648.47 L2295.07 640.80 L2403.35 633.12 L2511.63 625.33 L2620.03 617.53 L2728.32 609.74 L2836.60 601.94 L2944.88 594.02 L3053.16 586.22 L3161.44 578.43 L3269.72 570.51 L3378.00 562.83 L3378.00 194.66 L3269.72 221.52 L3161.44 248.13 L3053.16 274.49 L2944.88 300.47 L2836.60 326.22 L2728.32 351.58 L2620.03 376.58 L2511.63 401.21 L2403.35 425.47 L2295.07 449.35 L2186.79 472.74 L2078.51 495.63 L1970.22 518.03 L1861.94 539.81 L1753.66 560.98 L1645.38 581.40 L1537.10 601.07 L1428.82 619.88 L1320.54 637.70 L1212.13 654.66 L1103.85 670.37 L995.57 684.98 L887.29 698.22 L779.01 709.85 L670.73 719.38 L562.44 726.31 L562.44 729.03 Z" stroke-linejoin="round"/>
	</defs>
	<defs>
		<clipPath id="clipPath_vGKMlWdL">
			<use xlink:href="#path_dqobKiYY"/>
		</clipPath>
	</defs>
	<use xlink:href="#path_dqobKiYY" style="stroke:none;fill:#B3B3B3;fill-opacity:0.35"/>
	<use xlink:href="#path_dqobKiYY" style="fill:none;stroke:#A0A0A0;stroke-opacity:0.35;stroke-width:17.28" clip-path="url(#clipPath_vGKMlWdL)"/>
	<path d=" M454.04 729.65 L562.32 727.80 L670.60 723.47 L779.01 717.52 L887.29 710.10 L995.57 701.56 L1103.85 691.91 L1212.13 681.51 L1320.41 670.37 L1428.69 658.62 L1536.97 646.12 L1645.26 633.00 L1753.54 619.39 L1861.82 605.28 L1970.22 590.80 L2078.51 575.83 L2186.79 560.61 L2295.07 545.14 L2403.35 529.42 L2511.63 513.33 L2619.91 497.12 L2728.19 480.66 L2836.47 464.08 L2944.76 447.37 L3053.04 430.42 L3161.32 413.34 L3269.72 396.14 L3378.00 378.81" stroke-linejoin="round" style="fill:none;stroke:#A0A0A0;stroke-width:8.64"/>
	<path d=" M454.04 729.65 L562.32 729.65 L670.60 729.65 L779.01 729.65 L887.29 729.65 L995.57 729.65 L1103.85 729.65 L1212.13 729.65 L1320.41 729.65 L1428.69 729.65 L1536.97 729.65 L1645.26 729.65 L1753.54 729.65 L1861.82 729.65 L1970.22 729.65 L2078.51 729.65 L2186.79 729.65 L2295.07 729.65 L2403.35 729.65 L2511.63 729.65 L2619.91 729.65 L2728.19 729.65 L2836.47 729.65 L2944.76 729.65 L3053.04 729.65 L3161.32 729.65 L3269.72 729.65 L3378.00 729.65" stroke-linejoin="round" style="fill:none;stroke:#000000;stroke-opacity:0.20;stroke-width:23.04"/>
	<line x1="390.80" y1="2489.19" x2="390.80" y2="100.86" style="stroke:#000000;stroke-width:5.76"/>
	<line x1="390.80" y1="2425.82" x2="350.83" y2="2425.82" style="stroke:#000000;stroke-width:5.76"/>
	<text x="300.72" y="2425.82" style="font-family:'Helvetica';font-size:99.99px;fill:#000000" transform="rotate(-90 300.72,2425.82)" text-anchor="middle">-0.3</text>
	<line x1="390.80" y1="1860.39" x2="350.83" y2="1860.39" style="stroke:#000000;stroke-width:5.76"/>
	<text x="300.72" y="1860.39" style="font-family:'Helvetica';font-size:99.99px;fill:#000000" transform="rotate(-90 300.72,1860.39)" text-anchor="middle">-0.2</text>
	<line x1="390.80" y1="1294.96" x2="350.83" y2="1294.96" style="stroke:#000000;stroke-width:5.76"/>
	<text x="300.72" y="1294.96" style="font-family:'Helvetica';font-size:99.99px;fill:#000000" transform="rotate(-90 300.72,1294.96)" text-anchor="middle">-0.1</text>
	<line x1="390.80" y1="729.53" x2="350.83" y2="729.53" style="stroke:#000000;stroke-width:5.76"/>
	<text x="300.72" y="729.53" style="font-family:'Helvetica';font-size:99.99px;fill:#000000" transform="rotate(-90 300.72,729.53)" text-anchor="middle">0.0</text>
	<line x1="390.80" y1="164.22" x2="350.83" y2="164.22" style="stroke:#000000;stroke-width:5.76"/>
	<text x="300.72" y="164.22" style="font-family:'Helvetica';font-size:99.99px;fill:#000000" transform="rotate(-90 300.72,164.22)" text-anchor="middle">0.1</text>
	<text x="190.71" y="1294.96" style="font-family:'Helvetica';font-size:99.99px;fill:#000000" transform="rotate(-90 190.71,1294.96)" text-anchor="middle">Difference in RMST (years)</text>
	<line x1="390.80" y1="2489.19" x2="3859.02" y2="2489.19" style="stroke:#000000;stroke-width:5.76"/>
	<line x1="454.16" y1="2489.19" x2="454.16" y2="2529.16" style="stroke:#000000;stroke-width:5.76"/>
	<text x="454.16" y="2619.14" style="font-family:'Helvetica';font-size:99.99px;fill:#000000" text-anchor="middle">0</text>
	<line x1="1289.47" y1="2489.19" x2="1289.47" y2="2529.16" style="stroke:#000000;stroke-width:5.76"/>
	<text x="1289.47" y="2619.14" style="font-family:'Helvetica';font-size:99.99px;fill:#000000" text-anchor="middle">2</text>
	<line x1="2124.91" y1="2489.19" x2="2124.91" y2="2529.16" style="stroke:#000000;stroke-width:5.76"/>
	<text x="2124.91" y="2619.14" style="font-family:'Helvetica';font-size:99.99px;fill:#000000" text-anchor="middle">4</text>
	<line x1="2960.35" y1="2489.19" x2="2960.35" y2="2529.16" style="stroke:#000000;stroke-width:5.76"/>
	<text x="2960.35" y="2619.14" style="font-family:'Helvetica';font-size:99.99px;fill:#000000" text-anchor="middle">6</text>
	<line x1="3795.66" y1="2489.19" x2="3795.66" y2="2529.16" style="stroke:#000000;stroke-width:5.76"/>
	<text x="3795.66" y="2619.14" style="font-family:'Helvetica';font-size:99.99px;fill:#000000" text-anchor="middle">8</text>
	<text x="2124.91" y="2729.16" style="font-family:'Helvetica';font-size:99.99px;fill:#000000" text-anchor="middle">Years from baseline treatment outcome</text>
	<rect x="468.52" y="2031.42" width="374.47" height="99.99" style="fill:#4D4D4D;fill-opacity:0.35"/>
	<rect x="472.84" y="2035.74" width="365.83" height="91.35" style="fill:none;stroke:#202020;stroke-opacity:0.35;stroke-width:8.64"/>
	<rect x="468.52" y="2171.51" width="374.47" height="99.99" style="fill:#808080;fill-opacity:0.35"/>
	<rect x="472.84" y="2175.83" width="365.83" height="91.35" style="fill:none;stroke:#606060;stroke-opacity:0.35;stroke-width:8.64"/>
	<rect x="468.52" y="2311.47" width="374.47" height="99.99" style="fill:#B3B3B3;fill-opacity:0.35"/>
	<rect x="472.84" y="2315.79" width="365.83" height="91.35" style="fill:none;stroke:#A0A0A0;stroke-opacity:0.35;stroke-width:8.64"/>
	<text x="902.88" y="2116.44" style="font-family:'Helvetica';font-size:99.99px;fill:#000000">Early vs. Tr. completion</text>
	<text x="902.88" y="2256.53" style="font-family:'Helvetica';font-size:99.99px;fill:#000000">Late vs. Tr. completion</text>
	<text x="902.88" y="2396.50" style="font-family:'Helvetica';font-size:99.99px;fill:#000000">Late vs. Early dropout</text>
</svg>
