<?xml version="1.0" encoding="UTF-8" standalone="no"?>
<!-- This is a Stata 16.1 generated SVG file (http://www.stata.com) -->

<svg version="1.1" width="5.50in" height="4.00in" viewBox="0 0 3960 2880" xmlns="http://www.w3.org/2000/svg" xmlns:xlink="http://www.w3.org/1999/xlink">
	<desc>Stata Graph - RMSTdiff</desc>
	<rect x="0" y="0" width="3960" height="2880" style="fill:#FFFFFF;stroke:none"/>
	<rect x="0.00" y="0.00" width="3959.88" height="2880.00" style="fill:#FFFFFF"/>
	<rect x="2.88" y="2.88" width="3954.12" height="2874.24" style="fill:none;stroke:#FFFFFF;stroke-width:5.76"/>
	<rect x="390.80" y="100.86" width="3468.22" height="2388.33" style="fill:#FFFFFF"/>
	<rect x="393.68" y="103.74" width="3462.46" height="2382.57" style="fill:none;stroke:#FFFFFF;stroke-width:5.76"/>
	<line x1="390.80" y1="2425.82" x2="3859.02" y2="2425.82" style="stroke:#EAF2F3;stroke-width:8.64"/>
	<line x1="390.80" y1="1973.50" x2="3859.02" y2="1973.50" style="stroke:#EAF2F3;stroke-width:8.64"/>
	<line x1="390.80" y1="1521.18" x2="3859.02" y2="1521.18" style="stroke:#EAF2F3;stroke-width:8.64"/>
	<line x1="390.80" y1="1068.86" x2="3859.02" y2="1068.86" style="stroke:#EAF2F3;stroke-width:8.64"/>
	<line x1="390.80" y1="616.54" x2="3859.02" y2="616.54" style="stroke:#EAF2F3;stroke-width:8.64"/>
	<line x1="390.80" y1="164.22" x2="3859.02" y2="164.22" style="stroke:#EAF2F3;stroke-width:8.64"/>
	<defs>
		<path id="path_gSBYNRKc" d="M507.25 619.76 L507.25 619.76 L560.46 627.80 L613.68 639.31 L666.76 653.67 L719.98 670.37 L773.07 689.06 L826.28 709.48 L879.49 731.51 L932.58 754.65 L985.79 779.03 L1038.88 804.40 L1092.09 830.76 L1145.18 857.99 L1198.39 885.95 L1251.61 914.54 L1304.70 943.75 L1357.91 973.45 L1411.00 1003.77 L1464.21 1034.58 L1517.42 1065.77 L1570.51 1097.33 L1623.72 1129.38 L1676.81 1161.68 L1730.03 1194.35 L1783.24 1227.27 L1836.33 1260.56 L1889.54 1293.97 L1942.63 1327.76 L1995.84 1361.66 L2048.93 1395.82 L2102.14 1430.10 L2155.35 1464.50 L2208.44 1499.15 L2261.66 1533.81 L2314.74 1568.70 L2367.96 1603.60 L2421.17 1638.62 L2474.26 1673.77 L2527.47 1708.92 L2580.56 1744.19 L2633.77 1779.46 L2686.98 1814.85 L2740.07 1850.24 L2793.28 1885.76 L2846.37 1921.16 L2899.59 1956.80 L2952.68 1992.31 L3005.89 2027.95 L3059.10 2063.60 L3112.19 2099.24 L3165.40 2134.88 L3218.49 2170.52 L3271.70 2206.28 L3324.91 2241.93 L3378.00 2277.69 L3378.00 1996.40 L3324.91 1967.32 L3271.70 1938.11 L3218.49 1908.90 L3165.40 1879.70 L3112.19 1850.49 L3059.10 1821.16 L3005.89 1791.96 L2952.68 1762.63 L2899.59 1733.42 L2846.37 1704.09 L2793.28 1674.76 L2740.07 1645.56 L2686.98 1616.23 L2633.77 1586.90 L2580.56 1557.69 L2527.47 1528.48 L2474.26 1499.15 L2421.17 1470.07 L2367.96 1440.87 L2314.74 1411.78 L2261.66 1382.83 L2208.44 1353.74 L2155.35 1324.91 L2102.14 1296.07 L2048.93 1267.49 L1995.84 1238.90 L1942.63 1210.44 L1889.54 1182.22 L1836.33 1154.13 L1783.24 1126.16 L1730.03 1098.56 L1676.81 1071.09 L1623.72 1043.86 L1570.51 1017.01 L1517.42 990.40 L1464.21 964.29 L1411.00 938.43 L1357.91 912.93 L1304.70 887.93 L1251.61 863.31 L1198.39 839.30 L1145.18 815.91 L1092.09 793.14 L1038.88 771.11 L985.79 749.95 L932.58 729.53 L879.49 710.22 L826.28 692.16 L773.07 675.20 L719.98 659.86 L666.76 646.24 L613.68 634.61 L560.46 625.33 L507.25 619.02 L507.25 619.76 Z" stroke-linejoin="round"/>
	</defs>
	<defs>
		<clipPath id="clipPath_tKdaSjXM">
			<use xlink:href="#path_gSBYNRKc"/>
		</clipPath>
	</defs>
	<use xlink:href="#path_gSBYNRKc" style="stroke:none;fill:#4D4D4D;fill-opacity:0.35"/>
	<use xlink:href="#path_gSBYNRKc" style="fill:none;stroke:#202020;stroke-opacity:0.35;stroke-width:17.28" clip-path="url(#clipPath_tKdaSjXM)"/>
	<path d=" M454.04 616.54 L507.25 619.51 L560.34 626.69 L613.55 636.96 L666.76 649.96 L719.85 665.18 L773.07 682.26 L826.15 700.94 L879.37 720.87 L932.58 742.15 L985.67 764.55 L1038.88 787.82 L1091.97 812.07 L1145.18 837.07 L1198.39 862.69 L1251.48 889.05 L1304.70 915.90 L1357.79 943.25 L1411.00 971.10 L1464.09 999.44 L1517.30 1028.15 L1570.51 1057.23 L1623.60 1086.68 L1676.81 1116.38 L1729.90 1146.46 L1783.11 1176.78 L1836.33 1207.34 L1889.41 1238.16 L1942.63 1269.22 L1995.72 1300.28 L2048.93 1331.72 L2102.14 1363.15 L2155.23 1394.83 L2208.44 1426.51 L2261.53 1458.32 L2314.74 1490.24 L2367.83 1522.30 L2421.05 1554.35 L2474.26 1586.52 L2527.35 1618.70 L2580.56 1651.00 L2633.65 1683.30 L2686.86 1715.60 L2740.07 1747.90 L2793.16 1780.32 L2846.37 1812.75 L2899.46 1845.17 L2952.68 1877.59 L3005.89 1910.02 L3058.98 1942.44 L3112.19 1974.86 L3165.28 2007.29 L3218.49 2039.83 L3271.58 2072.26 L3324.79 2104.68 L3378.00 2137.11" stroke-linejoin="round" style="fill:none;stroke:#202020;stroke-width:8.64"/>
	<defs>
		<path id="path_NppmqwJI" d="M507.25 618.77 L507.25 618.77 L560.46 624.46 L613.68 632.88 L666.76 643.40 L719.98 655.90 L773.07 670.00 L826.28 685.60 L879.49 702.30 L932.58 720.25 L985.79 739.06 L1038.88 758.86 L1092.09 779.53 L1145.18 800.81 L1198.39 822.84 L1251.61 845.61 L1304.70 868.75 L1357.91 892.51 L1411.00 916.77 L1464.21 941.40 L1517.42 966.52 L1570.51 992.01 L1623.72 1018.00 L1676.81 1044.24 L1730.03 1070.72 L1783.24 1097.57 L1836.33 1124.80 L1889.54 1152.15 L1942.63 1179.87 L1995.84 1207.71 L2048.93 1235.81 L2102.14 1264.15 L2155.35 1292.61 L2208.44 1321.32 L2261.66 1350.15 L2314.74 1378.99 L2367.96 1408.07 L2421.17 1437.28 L2474.26 1466.61 L2527.47 1496.06 L2580.56 1525.64 L2633.77 1555.21 L2686.98 1584.92 L2740.07 1614.74 L2793.28 1644.57 L2846.37 1674.51 L2899.59 1704.59 L2952.68 1734.66 L3005.89 1764.85 L3059.10 1795.05 L3112.19 1825.25 L3165.40 1855.57 L3218.49 1886.01 L3271.70 1916.45 L3324.91 1946.90 L3378.00 1977.34 L3378.00 1770.67 L3324.91 1745.05 L3271.70 1719.44 L3218.49 1693.82 L3165.40 1668.20 L3112.19 1642.71 L3059.10 1617.09 L3005.89 1591.60 L2952.68 1566.11 L2899.59 1540.61 L2846.37 1515.24 L2793.28 1489.87 L2740.07 1464.50 L2686.98 1439.13 L2633.77 1413.89 L2580.56 1388.64 L2527.47 1363.52 L2474.26 1338.52 L2421.17 1313.40 L2367.96 1288.53 L2314.74 1263.65 L2261.66 1239.02 L2208.44 1214.40 L2155.35 1189.89 L2102.14 1165.51 L2048.93 1141.26 L1995.84 1117.13 L1942.63 1093.24 L1889.54 1069.60 L1836.33 1046.09 L1783.24 1022.83 L1730.03 999.81 L1676.81 977.04 L1623.72 954.51 L1570.51 932.36 L1517.42 910.58 L1464.21 889.05 L1411.00 868.01 L1357.91 847.34 L1304.70 827.05 L1251.61 807.25 L1198.39 788.06 L1145.18 769.25 L1092.09 751.19 L1038.88 733.86 L985.79 717.15 L932.58 701.31 L879.49 686.34 L826.28 672.35 L773.07 659.61 L719.98 647.98 L666.76 637.83 L613.68 629.29 L560.46 622.61 L507.25 618.15 L507.25 618.77 Z" stroke-linejoin="round"/>
	</defs>
	<defs>
		<clipPath id="clipPath_soKpcOvg">
			<use xlink:href="#path_NppmqwJI"/>
		</clipPath>
	</defs>
	<use xlink:href="#path_NppmqwJI" style="stroke:none;fill:#808080;fill-opacity:0.35"/>
	<use xlink:href="#path_NppmqwJI" style="fill:none;stroke:#606060;stroke-opacity:0.35;stroke-width:17.28" clip-path="url(#clipPath_soKpcOvg)"/>
	<path d=" M454.04 616.54 L507.25 618.52 L560.34 623.60 L613.55 631.14 L666.76 640.67 L719.85 651.94 L773.07 664.81 L826.15 679.04 L879.37 694.38 L932.58 710.84 L985.67 728.17 L1038.88 746.36 L1091.97 765.42 L1145.18 785.09 L1198.39 805.51 L1251.48 826.43 L1304.70 847.96 L1357.79 869.99 L1411.00 892.39 L1464.09 915.28 L1517.30 938.67 L1570.51 962.31 L1623.60 986.32 L1676.81 1010.70 L1729.90 1035.32 L1783.11 1060.32 L1836.33 1085.45 L1889.41 1110.94 L1942.63 1136.68 L1995.72 1162.54 L2048.93 1188.66 L2102.14 1214.89 L2155.23 1241.25 L2208.44 1267.86 L2261.53 1294.59 L2314.74 1321.44 L2367.83 1348.42 L2421.05 1375.40 L2474.26 1402.63 L2527.35 1429.85 L2580.56 1457.20 L2633.65 1484.68 L2686.86 1512.15 L2740.07 1539.62 L2793.16 1567.22 L2846.37 1594.94 L2899.46 1622.66 L2952.68 1650.51 L3005.89 1678.23 L3058.98 1706.19 L3112.19 1734.04 L3165.28 1762.01 L3218.49 1789.98 L3271.58 1817.94 L3324.79 1846.04 L3378.00 1874.13" stroke-linejoin="round" style="fill:none;stroke:#606060;stroke-width:8.64"/>
	<defs>
		<path id="path_SfHkvAxr" d="M507.25 615.92 L507.25 615.92 L560.46 614.69 L613.68 612.83 L666.76 610.73 L719.98 608.25 L773.07 605.65 L826.28 602.81 L879.49 599.83 L932.58 596.86 L985.79 593.65 L1038.88 590.55 L1092.09 587.34 L1145.18 583.99 L1198.39 580.78 L1251.61 577.44 L1304.70 574.22 L1357.91 570.88 L1411.00 567.66 L1464.21 564.44 L1517.42 561.22 L1570.51 558.01 L1623.72 554.79 L1676.81 551.69 L1730.03 548.60 L1783.24 545.63 L1836.33 542.54 L1889.54 539.57 L1942.63 536.72 L1995.84 533.87 L2048.93 531.03 L2102.14 528.18 L2155.35 525.46 L2208.44 522.86 L2261.66 520.14 L2314.74 517.66 L2367.96 515.06 L2421.17 512.59 L2474.26 510.24 L2527.47 507.89 L2580.56 505.53 L2633.77 503.31 L2686.98 501.08 L2740.07 498.85 L2793.28 496.75 L2846.37 494.77 L2899.59 492.79 L2952.68 490.81 L3005.89 488.95 L3059.10 487.10 L3112.19 485.24 L3165.40 483.51 L3218.49 481.77 L3271.70 480.17 L3324.91 478.56 L3378.00 476.95 L3378.00 229.93 L3324.91 237.11 L3271.70 244.41 L3218.49 251.59 L3165.40 258.77 L3112.19 266.07 L3059.10 273.37 L3005.89 280.67 L2952.68 287.98 L2899.59 295.40 L2846.37 302.70 L2793.28 310.13 L2740.07 317.55 L2686.98 324.98 L2633.77 332.40 L2580.56 339.95 L2527.47 347.38 L2474.26 354.93 L2421.17 362.48 L2367.96 370.02 L2314.74 377.70 L2261.66 385.25 L2208.44 392.92 L2155.35 400.47 L2102.14 408.14 L2048.93 415.81 L1995.84 423.49 L1942.63 431.28 L1889.54 438.95 L1836.33 446.63 L1783.24 454.30 L1730.03 462.10 L1676.81 469.77 L1623.72 477.44 L1570.51 485.12 L1517.42 492.79 L1464.21 500.34 L1411.00 508.01 L1357.91 515.56 L1304.70 522.98 L1251.61 530.53 L1198.39 537.96 L1145.18 545.26 L1092.09 552.44 L1038.88 559.61 L985.79 566.55 L932.58 573.48 L879.49 580.03 L826.28 586.47 L773.07 592.53 L719.98 598.35 L666.76 603.55 L613.68 608.25 L560.46 612.21 L507.25 615.18 L507.25 615.92 Z" stroke-linejoin="round"/>
	</defs>
	<defs>
		<clipPath id="clipPath_lrKjjsHJ">
			<use xlink:href="#path_SfHkvAxr"/>
		</clipPath>
	</defs>
	<use xlink:href="#path_SfHkvAxr" style="stroke:none;fill:#B3B3B3;fill-opacity:0.35"/>
	<use xlink:href="#path_SfHkvAxr" style="fill:none;stroke:#A0A0A0;stroke-opacity:0.35;stroke-width:17.28" clip-path="url(#clipPath_lrKjjsHJ)"/>
	<path d=" M454.04 616.54 L507.25 615.68 L560.34 613.57 L613.55 610.60 L666.76 607.26 L719.85 603.30 L773.07 599.22 L826.15 594.76 L879.37 590.06 L932.58 585.23 L985.67 580.16 L1038.88 575.08 L1091.97 569.89 L1145.18 564.69 L1198.39 559.37 L1251.48 554.05 L1304.70 548.72 L1357.79 543.28 L1411.00 537.83 L1464.09 532.39 L1517.30 527.07 L1570.51 521.62 L1623.60 516.18 L1676.81 510.73 L1729.90 505.41 L1783.11 499.97 L1836.33 494.64 L1889.41 489.32 L1942.63 484.00 L1995.72 478.80 L2048.93 473.48 L2102.14 468.28 L2155.23 463.09 L2208.44 457.89 L2261.53 452.82 L2314.74 447.74 L2367.83 442.67 L2421.05 437.59 L2474.26 432.64 L2527.35 427.69 L2580.56 422.74 L2633.65 417.92 L2686.86 413.09 L2740.07 408.26 L2793.16 403.56 L2846.37 398.73 L2899.46 394.16 L2952.68 389.45 L3005.89 384.87 L3058.98 380.30 L3112.19 375.72 L3165.28 371.26 L3218.49 366.68 L3271.58 362.35 L3324.79 357.90 L3378.00 353.56" stroke-linejoin="round" style="fill:none;stroke:#A0A0A0;stroke-width:8.64"/>
	<path d=" M454.04 616.54 L507.25 616.54 L560.34 616.54 L613.55 616.54 L666.76 616.54 L719.85 616.54 L773.07 616.54 L826.15 616.54 L879.37 616.54 L932.58 616.54 L985.67 616.54 L1038.88 616.54 L1091.97 616.54 L1145.18 616.54 L1198.39 616.54 L1251.48 616.54 L1304.70 616.54 L1357.79 616.54 L1411.00 616.54 L1464.09 616.54 L1517.30 616.54 L1570.51 616.54 L1623.60 616.54 L1676.81 616.54 L1729.90 616.54 L1783.11 616.54 L1836.33 616.54 L1889.41 616.54 L1942.63 616.54 L1995.72 616.54 L2048.93 616.54 L2102.14 616.54 L2155.23 616.54 L2208.44 616.54 L2261.53 616.54 L2314.74 616.54 L2367.83 616.54 L2421.05 616.54 L2474.26 616.54 L2527.35 616.54 L2580.56 616.54 L2633.65 616.54 L2686.86 616.54 L2740.07 616.54 L2793.16 616.54 L2846.37 616.54 L2899.46 616.54 L2952.68 616.54 L3005.89 616.54 L3058.98 616.54 L3112.19 616.54 L3165.28 616.54 L3218.49 616.54 L3271.58 616.54 L3324.79 616.54 L3378.00 616.54" stroke-linejoin="round" style="fill:none;stroke:#000000;stroke-opacity:0.20;stroke-width:23.04"/>
	<line x1="390.80" y1="2489.19" x2="390.80" y2="100.86" style="stroke:#000000;stroke-width:5.76"/>
	<line x1="390.80" y1="2425.82" x2="350.83" y2="2425.82" style="stroke:#000000;stroke-width:5.76"/>
	<text x="300.72" y="2425.82" style="font-family:'Helvetica';font-size:99.99px;fill:#000000" transform="rotate(-90 300.72,2425.82)" text-anchor="middle">-0.8</text>
	<line x1="390.80" y1="1973.50" x2="350.83" y2="1973.50" style="stroke:#000000;stroke-width:5.76"/>
	<text x="300.72" y="1973.50" style="font-family:'Helvetica';font-size:99.99px;fill:#000000" transform="rotate(-90 300.72,1973.50)" text-anchor="middle">-0.6</text>
	<line x1="390.80" y1="1521.18" x2="350.83" y2="1521.18" style="stroke:#000000;stroke-width:5.76"/>
	<text x="300.72" y="1521.18" style="font-family:'Helvetica';font-size:99.99px;fill:#000000" transform="rotate(-90 300.72,1521.18)" text-anchor="middle">-0.4</text>
	<line x1="390.80" y1="1068.86" x2="350.83" y2="1068.86" style="stroke:#000000;stroke-width:5.76"/>
	<text x="300.72" y="1068.86" style="font-family:'Helvetica';font-size:99.99px;fill:#000000" transform="rotate(-90 300.72,1068.86)" text-anchor="middle">-0.2</text>
	<line x1="390.80" y1="616.54" x2="350.83" y2="616.54" style="stroke:#000000;stroke-width:5.76"/>
	<text x="300.72" y="616.54" style="font-family:'Helvetica';font-size:99.99px;fill:#000000" transform="rotate(-90 300.72,616.54)" text-anchor="middle">0.0</text>
	<line x1="390.80" y1="164.22" x2="350.83" y2="164.22" style="stroke:#000000;stroke-width:5.76"/>
	<text x="300.72" y="164.22" style="font-family:'Helvetica';font-size:99.99px;fill:#000000" transform="rotate(-90 300.72,164.22)" text-anchor="middle">0.2</text>
	<text x="190.71" y="1294.96" style="font-family:'Helvetica';font-size:99.99px;fill:#000000" transform="rotate(-90 190.71,1294.96)" text-anchor="middle">Difference in RMST (years)</text>
	<line x1="390.80" y1="2489.19" x2="3859.02" y2="2489.19" style="stroke:#000000;stroke-width:5.76"/>
	<line x1="454.16" y1="2489.19" x2="454.16" y2="2529.16" style="stroke:#000000;stroke-width:5.76"/>
	<text x="454.16" y="2619.14" style="font-family:'Helvetica';font-size:99.99px;fill:#000000" text-anchor="middle">0</text>
	<line x1="1289.47" y1="2489.19" x2="1289.47" y2="2529.16" style="stroke:#000000;stroke-width:5.76"/>
	<text x="1289.47" y="2619.14" style="font-family:'Helvetica';font-size:99.99px;fill:#000000" text-anchor="middle">2</text>
	<line x1="2124.91" y1="2489.19" x2="2124.91" y2="2529.16" style="stroke:#000000;stroke-width:5.76"/>
	<text x="2124.91" y="2619.14" style="font-family:'Helvetica';font-size:99.99px;fill:#000000" text-anchor="middle">4</text>
	<line x1="2960.35" y1="2489.19" x2="2960.35" y2="2529.16" style="stroke:#000000;stroke-width:5.76"/>
	<text x="2960.35" y="2619.14" style="font-family:'Helvetica';font-size:99.99px;fill:#000000" text-anchor="middle">6</text>
	<line x1="3795.66" y1="2489.19" x2="3795.66" y2="2529.16" style="stroke:#000000;stroke-width:5.76"/>
	<text x="3795.66" y="2619.14" style="font-family:'Helvetica';font-size:99.99px;fill:#000000" text-anchor="middle">8</text>
	<text x="2124.91" y="2729.16" style="font-family:'Helvetica';font-size:99.99px;fill:#000000" text-anchor="middle">Years from baseline treatment outcome</text>
	<rect x="468.52" y="2031.42" width="374.47" height="99.99" style="fill:#4D4D4D;fill-opacity:0.35"/>
	<rect x="472.84" y="2035.74" width="365.83" height="91.35" style="fill:none;stroke:#202020;stroke-opacity:0.35;stroke-width:8.64"/>
	<rect x="468.52" y="2171.51" width="374.47" height="99.99" style="fill:#808080;fill-opacity:0.35"/>
	<rect x="472.84" y="2175.83" width="365.83" height="91.35" style="fill:none;stroke:#606060;stroke-opacity:0.35;stroke-width:8.64"/>
	<rect x="468.52" y="2311.47" width="374.47" height="99.99" style="fill:#B3B3B3;fill-opacity:0.35"/>
	<rect x="472.84" y="2315.79" width="365.83" height="91.35" style="fill:none;stroke:#A0A0A0;stroke-opacity:0.35;stroke-width:8.64"/>
	<text x="902.88" y="2116.44" style="font-family:'Helvetica';font-size:99.99px;fill:#000000">Early vs. Tr. completion</text>
	<text x="902.88" y="2256.53" style="font-family:'Helvetica';font-size:99.99px;fill:#000000">Late vs. Tr. completion</text>
	<text x="902.88" y="2396.50" style="font-family:'Helvetica';font-size:99.99px;fill:#000000">Late vs. Early dropout</text>
</svg>
