<?xml version="1.0" encoding="UTF-8" standalone="no"?>
<!-- This is a Stata 16.1 generated SVG file (http://www.stata.com) -->

<svg version="1.1" width="5.50in" height="4.00in" viewBox="0 0 3960 2880" xmlns="http://www.w3.org/2000/svg" xmlns:xlink="http://www.w3.org/1999/xlink">
	<desc>Stata Graph - Graph</desc>
	<rect x="0" y="0" width="3960" height="2880" style="fill:#FFFFFF;stroke:none"/>
	<rect x="0.00" y="0.00" width="3959.88" height="2880.00" style="fill:#FFFFFF"/>
	<rect x="2.88" y="2.88" width="3954.12" height="2874.24" style="fill:none;stroke:#FFFFFF;stroke-width:5.76"/>
	<rect x="490.79" y="100.86" width="3368.23" height="2388.33" style="fill:#FFFFFF"/>
	<rect x="493.67" y="103.74" width="3362.47" height="2382.57" style="fill:none;stroke:#FFFFFF;stroke-width:5.76"/>
	<line x1="490.79" y1="2425.82" x2="3859.02" y2="2425.82" style="stroke:#EAF2F3;stroke-width:8.64"/>
	<line x1="490.79" y1="1671.91" x2="3859.02" y2="1671.91" style="stroke:#EAF2F3;stroke-width:8.64"/>
	<line x1="490.79" y1="918.01" x2="3859.02" y2="918.01" style="stroke:#EAF2F3;stroke-width:8.64"/>
	<line x1="490.79" y1="164.22" x2="3859.02" y2="164.22" style="stroke:#EAF2F3;stroke-width:8.64"/>
	<line x1="608.97" y1="1448.04" x2="608.97" y2="1244.22" style="stroke:#202020;stroke-opacity:0.75;stroke-width:8.64"/>
	<line x1="586.95" y1="1244.22" x2="631.00" y2="1244.22" stroke-linecap="round" style="stroke:#202020;stroke-opacity:0.75;stroke-width:8.64"/>
	<line x1="586.95" y1="1448.04" x2="631.00" y2="1448.04" stroke-linecap="round" style="stroke:#202020;stroke-opacity:0.75;stroke-width:8.64"/>
	<line x1="2174.91" y1="982.36" x2="2174.91" y2="692.90" style="stroke:#202020;stroke-opacity:0.75;stroke-width:8.64"/>
	<line x1="2152.88" y1="692.90" x2="2196.93" y2="692.90" stroke-linecap="round" style="stroke:#202020;stroke-opacity:0.75;stroke-width:8.64"/>
	<line x1="2152.88" y1="982.36" x2="2196.93" y2="982.36" stroke-linecap="round" style="stroke:#202020;stroke-opacity:0.75;stroke-width:8.64"/>
	<line x1="3740.96" y1="897.34" x2="3740.96" y2="562.46" style="stroke:#202020;stroke-opacity:0.75;stroke-width:8.64"/>
	<line x1="3718.93" y1="562.46" x2="3762.99" y2="562.46" stroke-linecap="round" style="stroke:#202020;stroke-opacity:0.75;stroke-width:8.64"/>
	<line x1="3718.93" y1="897.34" x2="3762.99" y2="897.34" stroke-linecap="round" style="stroke:#202020;stroke-opacity:0.75;stroke-width:8.64"/>
	<line x1="554.15" y1="1652.86" x2="554.15" y2="1500.02" style="stroke:#606060;stroke-opacity:0.75;stroke-width:8.64"/>
	<line x1="532.13" y1="1500.02" x2="576.18" y2="1500.02" stroke-linecap="round" style="stroke:#606060;stroke-opacity:0.75;stroke-width:8.64"/>
	<line x1="532.13" y1="1652.86" x2="576.18" y2="1652.86" stroke-linecap="round" style="stroke:#606060;stroke-opacity:0.75;stroke-width:8.64"/>
	<line x1="2120.09" y1="1195.71" x2="2120.09" y2="983.60" style="stroke:#606060;stroke-opacity:0.75;stroke-width:8.64"/>
	<line x1="2098.06" y1="983.60" x2="2142.11" y2="983.60" stroke-linecap="round" style="stroke:#606060;stroke-opacity:0.75;stroke-width:8.64"/>
	<line x1="2098.06" y1="1195.71" x2="2142.11" y2="1195.71" stroke-linecap="round" style="stroke:#606060;stroke-opacity:0.75;stroke-width:8.64"/>
	<line x1="3686.14" y1="1075.67" x2="3686.14" y2="827.42" style="stroke:#606060;stroke-opacity:0.75;stroke-width:8.64"/>
	<line x1="3664.11" y1="827.42" x2="3708.17" y2="827.42" stroke-linecap="round" style="stroke:#606060;stroke-opacity:0.75;stroke-width:8.64"/>
	<line x1="3664.11" y1="1075.67" x2="3708.17" y2="1075.67" stroke-linecap="round" style="stroke:#606060;stroke-opacity:0.75;stroke-width:8.64"/>
	<line x1="663.79" y1="2289.69" x2="663.79" y2="2101.34" style="stroke:#A0A0A0;stroke-opacity:0.75;stroke-width:8.64"/>
	<line x1="641.77" y1="2101.34" x2="685.82" y2="2101.34" stroke-linecap="round" style="stroke:#A0A0A0;stroke-opacity:0.75;stroke-width:8.64"/>
	<line x1="641.77" y1="2289.69" x2="685.82" y2="2289.69" stroke-linecap="round" style="stroke:#A0A0A0;stroke-opacity:0.75;stroke-width:8.64"/>
	<line x1="2229.73" y1="2302.44" x2="2229.73" y2="2045.16" style="stroke:#A0A0A0;stroke-opacity:0.75;stroke-width:8.64"/>
	<line x1="2207.70" y1="2045.16" x2="2251.76" y2="2045.16" stroke-linecap="round" style="stroke:#A0A0A0;stroke-opacity:0.75;stroke-width:8.64"/>
	<line x1="2207.70" y1="2302.44" x2="2251.76" y2="2302.44" stroke-linecap="round" style="stroke:#A0A0A0;stroke-opacity:0.75;stroke-width:8.64"/>
	<line x1="3795.66" y1="2350.09" x2="3795.66" y2="2058.27" style="stroke:#A0A0A0;stroke-opacity:0.75;stroke-width:8.64"/>
	<line x1="3773.63" y1="2058.27" x2="3817.69" y2="2058.27" stroke-linecap="round" style="stroke:#A0A0A0;stroke-opacity:0.75;stroke-width:8.64"/>
	<line x1="3773.63" y1="2350.09" x2="3817.69" y2="2350.09" stroke-linecap="round" style="stroke:#A0A0A0;stroke-opacity:0.75;stroke-width:8.64"/>
	<circle cx="608.85" cy="1346.19" r="26.35" style="fill:#202020"/>
	<circle cx="608.85" cy="1346.19" r="22.03" style="fill:none;stroke:#202020;stroke-width:8.64"/>
	<circle cx="2174.91" cy="837.69" r="26.35" style="fill:#202020"/>
	<circle cx="2174.91" cy="837.69" r="22.03" style="fill:none;stroke:#202020;stroke-width:8.64"/>
	<circle cx="3740.84" cy="729.90" r="26.35" style="fill:#202020"/>
	<circle cx="3740.84" cy="729.90" r="22.03" style="fill:none;stroke:#202020;stroke-width:8.64"/>
	<circle cx="554.03" cy="1576.50" r="26.35" style="fill:#606060"/>
	<circle cx="554.03" cy="1576.50" r="22.03" style="fill:none;stroke:#202020;stroke-width:8.64"/>
	<circle cx="2120.09" cy="1089.78" r="26.35" style="fill:#606060"/>
	<circle cx="2120.09" cy="1089.78" r="22.03" style="fill:none;stroke:#202020;stroke-width:8.64"/>
	<circle cx="3686.02" cy="951.67" r="26.35" style="fill:#606060"/>
	<circle cx="3686.02" cy="951.67" r="22.03" style="fill:none;stroke:#202020;stroke-width:8.64"/>
	<circle cx="663.67" cy="2195.52" r="26.35" style="fill:#A0A0A0"/>
	<circle cx="663.67" cy="2195.52" r="22.03" style="fill:none;stroke:#202020;stroke-width:8.64"/>
	<circle cx="2229.73" cy="2173.86" r="26.35" style="fill:#A0A0A0"/>
	<circle cx="2229.73" cy="2173.86" r="22.03" style="fill:none;stroke:#202020;stroke-width:8.64"/>
	<circle cx="3795.66" cy="2204.18" r="26.35" style="fill:#A0A0A0"/>
	<circle cx="3795.66" cy="2204.18" r="22.03" style="fill:none;stroke:#202020;stroke-width:8.64"/>
	<line x1="490.79" y1="2489.19" x2="490.79" y2="100.86" style="stroke:#000000;stroke-width:5.76"/>
	<line x1="490.79" y1="2425.82" x2="450.82" y2="2425.82" style="stroke:#000000;stroke-width:5.76"/>
	<text x="400.71" y="2425.82" style="font-family:'Helvetica';font-size:99.99px;fill:#000000" transform="rotate(-90 400.71,2425.82)" text-anchor="middle">0</text>
	<line x1="490.79" y1="1671.91" x2="450.82" y2="1671.91" style="stroke:#000000;stroke-width:5.76"/>
	<text x="400.71" y="1671.91" style="font-family:'Helvetica';font-size:99.99px;fill:#000000" transform="rotate(-90 400.71,1671.91)" text-anchor="middle">.05</text>
	<line x1="490.79" y1="918.01" x2="450.82" y2="918.01" style="stroke:#000000;stroke-width:5.76"/>
	<text x="400.71" y="918.01" style="font-family:'Helvetica';font-size:99.99px;fill:#000000" transform="rotate(-90 400.71,918.01)" text-anchor="middle">.1</text>
	<line x1="490.79" y1="164.22" x2="450.82" y2="164.22" style="stroke:#000000;stroke-width:5.76"/>
	<text x="400.71" y="164.22" style="font-family:'Helvetica';font-size:99.99px;fill:#000000" transform="rotate(-90 400.71,164.22)" text-anchor="middle">.15</text>
	<text x="190.71" y="1294.96" style="font-family:'Helvetica';font-size:99.99px;fill:#000000" transform="rotate(-90 190.71,1294.96)" text-anchor="middle">Standardized differences in the probability</text>
	<text x="290.70" y="1294.96" style="font-family:'Helvetica';font-size:99.99px;fill:#000000" transform="rotate(-90 290.70,1294.96)" text-anchor="middle">of contact with the justice system</text>
	<line x1="490.79" y1="2489.19" x2="3859.02" y2="2489.19" style="stroke:#000000;stroke-width:5.76"/>
	<line x1="608.97" y1="2489.19" x2="608.97" y2="2529.16" style="stroke:#000000;stroke-width:5.76"/>
	<text x="608.97" y="2619.14" style="font-family:'Helvetica';font-size:99.99px;fill:#000000" text-anchor="middle">1</text>
	<line x1="1391.94" y1="2489.19" x2="1391.94" y2="2529.16" style="stroke:#000000;stroke-width:5.76"/>
	<text x="1391.94" y="2619.14" style="font-family:'Helvetica';font-size:99.99px;fill:#000000" text-anchor="middle">2</text>
	<line x1="2174.91" y1="2489.19" x2="2174.91" y2="2529.16" style="stroke:#000000;stroke-width:5.76"/>
	<text x="2174.91" y="2619.14" style="font-family:'Helvetica';font-size:99.99px;fill:#000000" text-anchor="middle">3</text>
	<line x1="2957.87" y1="2489.19" x2="2957.87" y2="2529.16" style="stroke:#000000;stroke-width:5.76"/>
	<text x="2957.87" y="2619.14" style="font-family:'Helvetica';font-size:99.99px;fill:#000000" text-anchor="middle">4</text>
	<line x1="3740.96" y1="2489.19" x2="3740.96" y2="2529.16" style="stroke:#000000;stroke-width:5.76"/>
	<text x="3740.96" y="2619.14" style="font-family:'Helvetica';font-size:99.99px;fill:#000000" text-anchor="middle">5</text>
	<text x="2174.91" y="2729.16" style="font-family:'Helvetica';font-size:99.99px;fill:#000000" text-anchor="middle">Years from treatment outcome</text>
	<circle cx="590.53" cy="228.57" r="26.35" style="fill:#202020"/>
	<circle cx="590.53" cy="228.57" r="22.03" style="fill:none;stroke:#202020;stroke-width:8.64"/>
	<circle cx="590.53" cy="368.54" r="26.35" style="fill:#606060"/>
	<circle cx="590.53" cy="368.54" r="22.03" style="fill:none;stroke:#202020;stroke-width:8.64"/>
	<circle cx="590.53" cy="508.50" r="26.35" style="fill:#A0A0A0"/>
	<circle cx="590.53" cy="508.50" r="22.03" style="fill:none;stroke:#202020;stroke-width:8.64"/>
	<text x="672.58" y="263.60" style="font-family:'Helvetica';font-size:99.99px;fill:#000000">Early dropout vs. Tr. completion</text>
	<text x="672.58" y="403.57" style="font-family:'Helvetica';font-size:99.99px;fill:#000000">Late dropout vs. Tr. completion</text>
	<text x="672.58" y="543.53" style="font-family:'Helvetica';font-size:99.99px;fill:#000000">Late vs. early dropout</text>
</svg>
