<?xml version="1.0" encoding="UTF-8" standalone="no"?>
<!-- This is a Stata 16.1 generated SVG file (http://www.stata.com) -->

<svg version="1.1" width="5.50in" height="4.00in" viewBox="0 0 3960 2880" xmlns="http://www.w3.org/2000/svg" xmlns:xlink="http://www.w3.org/1999/xlink">
	<desc>Stata Graph - s_diff_fin_abc</desc>
	<rect x="0" y="0" width="3960" height="2880" style="fill:#FFFFFF;stroke:none"/>
	<rect x="0.00" y="0.00" width="3959.88" height="2880.00" style="fill:#FFFFFF"/>
	<rect x="2.88" y="2.88" width="3954.12" height="2874.24" style="fill:none;stroke:#FFFFFF;stroke-width:5.76"/>
	<rect x="390.80" y="100.86" width="3468.22" height="2388.33" style="fill:#FFFFFF"/>
	<rect x="393.68" y="103.74" width="3462.46" height="2382.57" style="fill:none;stroke:#FFFFFF;stroke-width:5.76"/>
	<line x1="390.80" y1="2425.82" x2="3859.02" y2="2425.82" style="stroke:#EAF2F3;stroke-width:8.64"/>
	<line x1="390.80" y1="1988.11" x2="3859.02" y2="1988.11" style="stroke:#EAF2F3;stroke-width:8.64"/>
	<line x1="390.80" y1="1550.26" x2="3859.02" y2="1550.26" style="stroke:#EAF2F3;stroke-width:8.64"/>
	<line x1="390.80" y1="1112.55" x2="3859.02" y2="1112.55" style="stroke:#EAF2F3;stroke-width:8.64"/>
	<line x1="390.80" y1="674.71" x2="3859.02" y2="674.71" style="stroke:#EAF2F3;stroke-width:8.64"/>
	<line x1="390.80" y1="236.86" x2="3859.02" y2="236.86" style="stroke:#EAF2F3;stroke-width:8.64"/>
	<defs>
		<path id="path_nZtdlWQs" d="M454.16 236.86 L454.16 236.86 L562.44 725.69 L670.73 1013.92 L887.29 1387.65 L995.57 1520.07 L1103.85 1629.47 L1212.13 1720.92 L1320.54 1798.14 L1753.66 2009.02 L1861.94 2045.53 L1970.22 2077.70 L2078.51 2106.29 L2186.79 2131.78 L2295.07 2154.80 L2403.35 2175.59 L2511.63 2194.28 L2620.03 2211.36 L2728.32 2226.95 L2836.60 2241.18 L2944.88 2254.18 L3053.16 2266.18 L3269.72 2287.22 L3378.00 2296.50 L3378.00 1757.80 L3269.72 1760.89 L3053.16 1764.61 L2944.88 1765.23 L2836.60 1764.73 L2728.32 1763.12 L2620.03 1760.15 L2511.63 1755.70 L2403.35 1749.38 L2295.07 1741.22 L2186.79 1730.70 L2078.51 1717.46 L1970.22 1701.12 L1861.94 1681.07 L1753.66 1656.69 L1320.54 1495.19 L1212.13 1431.58 L1103.85 1354.61 L995.57 1261.67 L887.29 1148.68 L670.73 834.72 L562.44 601.44 L454.16 236.86 L454.16 236.86 Z" stroke-linejoin="round"/>
	</defs>
	<defs>
		<clipPath id="clipPath_xxMvZnGW">
			<use xlink:href="#path_nZtdlWQs"/>
		</clipPath>
	</defs>
	<use xlink:href="#path_nZtdlWQs" style="stroke:none;fill:#4D4D4D;fill-opacity:0.35"/>
	<use xlink:href="#path_nZtdlWQs" style="fill:none;stroke:#202020;stroke-opacity:0.35;stroke-width:17.28" clip-path="url(#clipPath_xxMvZnGW)"/>
	<path d=" M454.04 236.99 L562.32 663.69 L670.60 924.32 L887.29 1268.23 L995.57 1390.87 L1103.85 1492.10 L1212.13 1576.38 L1320.41 1646.79 L1753.54 1832.92 L1861.82 1863.36 L1970.22 1889.47 L2078.51 1912.00 L2186.79 1931.30 L2295.07 1948.13 L2403.35 1962.61 L2511.63 1975.11 L2619.91 1985.88 L2728.19 1995.04 L2836.47 2002.96 L2944.76 2009.76 L3053.04 2015.46 L3269.72 2024.12 L3378.00 2027.21" stroke-linejoin="round" style="fill:none;stroke:#202020;stroke-width:8.64"/>
	<defs>
		<path id="path_zYKRIDLe" d="M454.16 236.86 L454.16 236.86 L670.73 1015.90 L779.01 1219.97 L995.57 1534.92 L1428.82 1933.04 L1537.10 2005.80 L1645.38 2066.57 L1753.66 2114.95 L2186.79 2172.50 L2295.07 2164.58 L2728.32 2110.37 L3053.16 2079.56 L3161.44 2073.74 L3161.44 682.63 L3053.16 750.57 L2728.32 919.49 L2295.07 1042.38 L2186.79 1052.53 L1753.66 1000.92 L1645.38 960.95 L1537.10 909.59 L1428.82 847.34 L995.57 554.66 L779.01 278.94 L670.73 214.09 L454.16 236.86 L454.16 236.86 Z" stroke-linejoin="round"/>
	</defs>
	<defs>
		<clipPath id="clipPath_guBLGAyg">
			<use xlink:href="#path_zYKRIDLe"/>
		</clipPath>
	</defs>
	<use xlink:href="#path_zYKRIDLe" style="stroke:none;fill:#808080;fill-opacity:0.35"/>
	<use xlink:href="#path_zYKRIDLe" style="fill:none;stroke:#606060;stroke-opacity:0.35;stroke-width:17.28" clip-path="url(#clipPath_guBLGAyg)"/>
	<path d=" M454.04 236.99 L670.60 615.06 L779.01 749.58 L995.57 1044.85 L1428.69 1390.25 L1536.97 1457.82 L1645.26 1513.76 L1753.54 1558.06 L2186.79 1612.51 L2295.07 1603.60 L2728.19 1514.99 L3053.04 1415.13 L3161.32 1378.25" stroke-linejoin="round" style="fill:none;stroke:#606060;stroke-width:8.64"/>
	<defs>
		<path id="path_HCseTnaI" d="M562.44 517.29 L562.44 517.29 L779.01 702.80 L887.29 741.90 L1103.85 781.75 L1212.13 792.40 L1320.54 799.20 L1428.82 803.16 L1537.10 804.90 L1645.38 805.02 L1861.94 801.80 L1970.22 799.20 L2078.51 796.11 L2403.35 785.59 L2511.63 781.88 L2620.03 778.16 L2728.32 774.33 L2836.60 770.62 L2944.88 766.78 L3161.44 759.35 L3269.72 755.76 L3378.00 752.05 L3378.00 164.22 L3269.72 177.71 L3161.44 191.57 L2944.88 219.79 L2836.60 234.27 L2728.32 248.75 L2620.03 263.47 L2511.63 278.32 L2403.35 293.17 L2078.51 337.85 L1970.22 352.57 L1861.94 366.81 L1645.38 393.66 L1537.10 405.67 L1428.82 416.31 L1320.54 425.09 L1212.13 431.65 L1103.85 435.12 L887.29 429.05 L779.01 414.95 L562.44 338.34 L562.44 517.29 Z" stroke-linejoin="round"/>
	</defs>
	<defs>
		<clipPath id="clipPath_QTRVmWRr">
			<use xlink:href="#path_HCseTnaI"/>
		</clipPath>
	</defs>
	<use xlink:href="#path_HCseTnaI" style="stroke:none;fill:#B3B3B3;fill-opacity:0.35"/>
	<use xlink:href="#path_HCseTnaI" style="fill:none;stroke:#A0A0A0;stroke-opacity:0.35;stroke-width:17.28" clip-path="url(#clipPath_QTRVmWRr)"/>
	<path d=" M562.32 427.94 L779.01 559.00 L887.29 585.48 L1103.85 608.50 L1212.13 612.09 L1320.41 612.21 L1428.69 609.74 L1536.97 605.28 L1645.26 599.34 L1861.82 584.37 L1970.22 575.95 L2078.51 567.04 L2403.35 539.44 L2511.63 530.16 L2619.91 520.88 L2728.19 511.60 L2836.47 502.44 L2944.76 493.41 L3161.32 475.59 L3269.72 466.80 L3378.00 458.14" stroke-linejoin="round" style="fill:none;stroke:#A0A0A0;stroke-width:8.64"/>
	<path d=" M454.04 236.99 L562.32 236.99 L670.60 236.99 L779.01 236.99 L887.29 236.99 L995.57 236.99 L1103.85 236.99 L1212.13 236.99 L1320.41 236.99 L1428.69 236.99 L1536.97 236.99 L1645.26 236.99 L1753.54 236.99 L1861.82 236.99 L1970.22 236.99 L2078.51 236.99 L2186.79 236.99 L2295.07 236.99 L2403.35 236.99 L2511.63 236.99 L2619.91 236.99 L2728.19 236.99 L2836.47 236.99 L2944.76 236.99 L3053.04 236.99 L3161.32 236.99 L3269.72 236.99 L3378.00 236.99" stroke-linejoin="round" style="fill:none;stroke:#000000;stroke-opacity:0.20;stroke-width:23.04"/>
	<line x1="390.80" y1="2489.19" x2="390.80" y2="100.86" style="stroke:#000000;stroke-width:5.76"/>
	<line x1="390.80" y1="2425.82" x2="350.83" y2="2425.82" style="stroke:#000000;stroke-width:5.76"/>
	<text x="300.72" y="2425.82" style="font-family:'Helvetica';font-size:99.99px;fill:#000000" transform="rotate(-90 300.72,2425.82)" text-anchor="middle">-0.10</text>
	<line x1="390.80" y1="1988.11" x2="350.83" y2="1988.11" style="stroke:#000000;stroke-width:5.76"/>
	<text x="300.72" y="1988.11" style="font-family:'Helvetica';font-size:99.99px;fill:#000000" transform="rotate(-90 300.72,1988.11)" text-anchor="middle">-0.08</text>
	<line x1="390.80" y1="1550.26" x2="350.83" y2="1550.26" style="stroke:#000000;stroke-width:5.76"/>
	<text x="300.72" y="1550.26" style="font-family:'Helvetica';font-size:99.99px;fill:#000000" transform="rotate(-90 300.72,1550.26)" text-anchor="middle">-0.06</text>
	<line x1="390.80" y1="1112.55" x2="350.83" y2="1112.55" style="stroke:#000000;stroke-width:5.76"/>
	<text x="300.72" y="1112.55" style="font-family:'Helvetica';font-size:99.99px;fill:#000000" transform="rotate(-90 300.72,1112.55)" text-anchor="middle">-0.04</text>
	<line x1="390.80" y1="674.71" x2="350.83" y2="674.71" style="stroke:#000000;stroke-width:5.76"/>
	<text x="300.72" y="674.71" style="font-family:'Helvetica';font-size:99.99px;fill:#000000" transform="rotate(-90 300.72,674.71)" text-anchor="middle">-0.02</text>
	<line x1="390.80" y1="236.86" x2="350.83" y2="236.86" style="stroke:#000000;stroke-width:5.76"/>
	<text x="300.72" y="236.86" style="font-family:'Helvetica';font-size:99.99px;fill:#000000" transform="rotate(-90 300.72,236.86)" text-anchor="middle">0.00</text>
	<text x="190.71" y="1294.96" style="font-family:'Helvetica';font-size:99.99px;fill:#000000" transform="rotate(-90 190.71,1294.96)" text-anchor="middle">Difference in Survival (years)</text>
	<line x1="390.80" y1="2489.19" x2="3859.02" y2="2489.19" style="stroke:#000000;stroke-width:5.76"/>
	<line x1="454.16" y1="2489.19" x2="454.16" y2="2529.16" style="stroke:#000000;stroke-width:5.76"/>
	<text x="454.16" y="2619.14" style="font-family:'Helvetica';font-size:99.99px;fill:#000000" text-anchor="middle">0</text>
	<line x1="1289.47" y1="2489.19" x2="1289.47" y2="2529.16" style="stroke:#000000;stroke-width:5.76"/>
	<text x="1289.47" y="2619.14" style="font-family:'Helvetica';font-size:99.99px;fill:#000000" text-anchor="middle">2</text>
	<line x1="2124.91" y1="2489.19" x2="2124.91" y2="2529.16" style="stroke:#000000;stroke-width:5.76"/>
	<text x="2124.91" y="2619.14" style="font-family:'Helvetica';font-size:99.99px;fill:#000000" text-anchor="middle">4</text>
	<line x1="2960.35" y1="2489.19" x2="2960.35" y2="2529.16" style="stroke:#000000;stroke-width:5.76"/>
	<text x="2960.35" y="2619.14" style="font-family:'Helvetica';font-size:99.99px;fill:#000000" text-anchor="middle">6</text>
	<line x1="3795.66" y1="2489.19" x2="3795.66" y2="2529.16" style="stroke:#000000;stroke-width:5.76"/>
	<text x="3795.66" y="2619.14" style="font-family:'Helvetica';font-size:99.99px;fill:#000000" text-anchor="middle">8</text>
	<text x="2124.91" y="2729.16" style="font-family:'Helvetica';font-size:99.99px;fill:#000000" text-anchor="middle">Years from baseline treatment outcome</text>
	<rect x="1885.70" y="1105.00" width="374.47" height="99.99" style="fill:#4D4D4D;fill-opacity:0.35"/>
	<rect x="1890.02" y="1109.32" width="365.83" height="91.35" style="fill:none;stroke:#202020;stroke-opacity:0.35;stroke-width:8.64"/>
	<rect x="1885.70" y="1244.96" width="374.47" height="99.99" style="fill:#808080;fill-opacity:0.35"/>
	<rect x="1890.02" y="1249.28" width="365.83" height="91.35" style="fill:none;stroke:#606060;stroke-opacity:0.35;stroke-width:8.64"/>
	<rect x="1885.70" y="1385.05" width="374.47" height="99.99" style="fill:#B3B3B3;fill-opacity:0.35"/>
	<rect x="1890.02" y="1389.37" width="365.83" height="91.35" style="fill:none;stroke:#A0A0A0;stroke-opacity:0.35;stroke-width:8.64"/>
	<text x="2320.07" y="1190.02" style="font-family:'Helvetica';font-size:99.99px;fill:#000000">Late dropout vs. Tr. completion</text>
	<text x="2320.07" y="1329.99" style="font-family:'Helvetica';font-size:99.99px;fill:#000000">Early dropout vs. Tr. completion</text>
	<text x="2320.07" y="1470.08" style="font-family:'Helvetica';font-size:99.99px;fill:#000000">Early vs. late dropout</text>
</svg>
