<?xml version="1.0" encoding="UTF-8" standalone="no"?>
<!-- This is a Stata 16.1 generated SVG file (http://www.stata.com) -->

<svg version="1.1" width="5.50in" height="4.00in" viewBox="0 0 3960 2880" xmlns="http://www.w3.org/2000/svg" xmlns:xlink="http://www.w3.org/1999/xlink">
	<desc>Stata Graph - rmst_std_fin_c</desc>
	<rect x="0" y="0" width="3960" height="2880" style="fill:#FFFFFF;stroke:none"/>
	<rect x="0.00" y="0.00" width="3959.88" height="2880.00" style="fill:#FFFFFF"/>
	<rect x="2.88" y="2.88" width="3954.12" height="2874.24" style="fill:none;stroke:#FFFFFF;stroke-width:5.76"/>
	<rect x="390.80" y="100.86" width="3468.22" height="2388.33" style="fill:#FFFFFF"/>
	<rect x="393.68" y="103.74" width="3462.46" height="2382.57" style="fill:none;stroke:#FFFFFF;stroke-width:5.76"/>
	<line x1="390.80" y1="2425.82" x2="3859.02" y2="2425.82" style="stroke:#EAF2F3;stroke-width:8.64"/>
	<line x1="390.80" y1="1973.50" x2="3859.02" y2="1973.50" style="stroke:#EAF2F3;stroke-width:8.64"/>
	<line x1="390.80" y1="1521.18" x2="3859.02" y2="1521.18" style="stroke:#EAF2F3;stroke-width:8.64"/>
	<line x1="390.80" y1="1068.86" x2="3859.02" y2="1068.86" style="stroke:#EAF2F3;stroke-width:8.64"/>
	<line x1="390.80" y1="616.54" x2="3859.02" y2="616.54" style="stroke:#EAF2F3;stroke-width:8.64"/>
	<line x1="390.80" y1="164.22" x2="3859.02" y2="164.22" style="stroke:#EAF2F3;stroke-width:8.64"/>
	<defs>
		<path id="path_dsBWMZHl" d="M562.44 2312.09 L562.44 2312.09 L779.01 2100.60 L887.29 2001.22 L1103.85 1811.76 L1212.13 1721.17 L1320.54 1632.93 L1428.82 1546.92 L1537.10 1463.02 L1645.38 1380.85 L1861.94 1221.70 L1970.22 1144.35 L2078.51 1068.37 L2403.35 847.84 L2511.63 776.56 L2620.03 706.26 L2728.32 636.96 L2836.60 568.65 L2944.88 501.20 L3161.44 368.91 L3269.72 303.94 L3378.00 239.83 L3378.00 204.19 L3269.72 270.03 L3161.44 336.61 L2944.88 472.12 L2836.60 541.18 L2728.32 611.10 L2620.03 681.88 L2511.63 753.66 L2403.35 826.43 L2078.51 1051.29 L1970.22 1128.76 L1861.94 1207.47 L1645.38 1369.34 L1537.10 1452.75 L1428.82 1538.01 L1320.54 1625.26 L1212.13 1714.73 L1103.85 1806.44 L887.29 1998.13 L779.01 2098.62 L562.44 2311.72 L562.44 2312.09 Z" stroke-linejoin="round"/>
	</defs>
	<defs>
		<clipPath id="clipPath_YvEQSeZO">
			<use xlink:href="#path_dsBWMZHl"/>
		</clipPath>
	</defs>
	<use xlink:href="#path_dsBWMZHl" style="stroke:none;fill:#8D8D8D;fill-opacity:0.35"/>
	<use xlink:href="#path_dsBWMZHl" style="fill:none;stroke:#707070;stroke-opacity:0.35;stroke-width:17.28" clip-path="url(#clipPath_YvEQSeZO)"/>
	<defs>
		<path id="path_LiESBhZo" d="M562.44 2312.84 L562.44 2312.84 L779.01 2104.81 L887.29 2007.54 L1103.85 1822.65 L1212.13 1734.41 L1320.54 1648.53 L1428.82 1564.99 L1537.10 1483.31 L1645.38 1403.62 L1861.94 1249.05 L1970.22 1173.93 L2078.51 1100.30 L2403.35 886.20 L2511.63 817.02 L2620.03 748.83 L2728.32 681.64 L2836.60 615.30 L2944.88 549.84 L3161.44 421.38 L3269.72 358.27 L3378.00 296.02 L3378.00 236.25 L3269.72 301.59 L3161.44 367.55 L2944.88 501.70 L2836.60 569.89 L2728.32 638.94 L2620.03 708.74 L2511.63 779.53 L2403.35 851.18 L2078.51 1072.57 L1970.22 1148.56 L1861.94 1225.91 L1645.38 1384.93 L1537.10 1466.73 L1428.82 1550.39 L1320.54 1636.03 L1212.13 1723.77 L1103.85 1813.98 L887.29 2002.46 L779.01 2101.46 L562.44 2312.22 L562.44 2312.84 Z" stroke-linejoin="round"/>
	</defs>
	<defs>
		<clipPath id="clipPath_TvhbJVLX">
			<use xlink:href="#path_LiESBhZo"/>
		</clipPath>
	</defs>
	<use xlink:href="#path_LiESBhZo" style="stroke:none;fill:#4D4D4D;fill-opacity:0.35"/>
	<use xlink:href="#path_LiESBhZo" style="fill:none;stroke:#202020;stroke-opacity:0.35;stroke-width:17.28" clip-path="url(#clipPath_TvhbJVLX)"/>
	<path d=" M562.32 2311.97 L779.01 2099.73 L887.29 1999.74 L1103.85 1809.16 L1212.13 1717.95 L1320.41 1629.22 L1428.69 1542.59 L1536.97 1457.94 L1645.26 1375.15 L1861.82 1214.64 L1970.22 1136.68 L2078.51 1059.95 L2403.35 837.19 L2511.63 765.17 L2619.91 694.14 L2728.19 624.09 L2836.47 555.04 L2944.76 486.85 L3161.32 352.95 L3269.72 287.11 L3378.00 222.14" stroke-linejoin="round" style="fill:none;stroke:#707070;stroke-width:23.04"/>
	<path d=" M562.32 2312.59 L779.01 2103.20 L887.29 2005.06 L1103.85 1818.32 L1212.13 1729.21 L1320.41 1642.34 L1428.69 1557.81 L1536.97 1475.15 L1645.26 1394.33 L1861.82 1237.66 L1970.22 1161.43 L2078.51 1086.56 L2403.35 868.88 L2511.63 798.46 L2619.91 729.03 L2728.19 660.47 L2836.47 592.78 L2944.76 525.95 L3161.32 394.65 L3269.72 330.18 L3378.00 266.44" stroke-linejoin="round" style="fill:none;stroke:#202020;stroke-width:23.04"/>
	<line x1="390.80" y1="2489.19" x2="390.80" y2="100.86" style="stroke:#000000;stroke-width:5.76"/>
	<line x1="390.80" y1="2425.82" x2="350.83" y2="2425.82" style="stroke:#000000;stroke-width:5.76"/>
	<text x="300.72" y="2425.82" style="font-family:'Helvetica';font-size:99.99px;fill:#000000" transform="rotate(-90 300.72,2425.82)" text-anchor="middle">0</text>
	<line x1="390.80" y1="1973.50" x2="350.83" y2="1973.50" style="stroke:#000000;stroke-width:5.76"/>
	<text x="300.72" y="1973.50" style="font-family:'Helvetica';font-size:99.99px;fill:#000000" transform="rotate(-90 300.72,1973.50)" text-anchor="middle">1</text>
	<line x1="390.80" y1="1521.18" x2="350.83" y2="1521.18" style="stroke:#000000;stroke-width:5.76"/>
	<text x="300.72" y="1521.18" style="font-family:'Helvetica';font-size:99.99px;fill:#000000" transform="rotate(-90 300.72,1521.18)" text-anchor="middle">2</text>
	<line x1="390.80" y1="1068.86" x2="350.83" y2="1068.86" style="stroke:#000000;stroke-width:5.76"/>
	<text x="300.72" y="1068.86" style="font-family:'Helvetica';font-size:99.99px;fill:#000000" transform="rotate(-90 300.72,1068.86)" text-anchor="middle">3</text>
	<line x1="390.80" y1="616.54" x2="350.83" y2="616.54" style="stroke:#000000;stroke-width:5.76"/>
	<text x="300.72" y="616.54" style="font-family:'Helvetica';font-size:99.99px;fill:#000000" transform="rotate(-90 300.72,616.54)" text-anchor="middle">4</text>
	<line x1="390.80" y1="164.22" x2="350.83" y2="164.22" style="stroke:#000000;stroke-width:5.76"/>
	<text x="300.72" y="164.22" style="font-family:'Helvetica';font-size:99.99px;fill:#000000" transform="rotate(-90 300.72,164.22)" text-anchor="middle">5</text>
	<text x="190.71" y="1294.96" style="font-family:'Helvetica';font-size:99.99px;fill:#000000" transform="rotate(-90 190.71,1294.96)" text-anchor="middle">Restricted Mean Survival Times (standardized)</text>
	<line x1="390.80" y1="2489.19" x2="3859.02" y2="2489.19" style="stroke:#000000;stroke-width:5.76"/>
	<line x1="454.16" y1="2489.19" x2="454.16" y2="2529.16" style="stroke:#000000;stroke-width:5.76"/>
	<text x="454.16" y="2619.14" style="font-family:'Helvetica';font-size:99.99px;fill:#000000" text-anchor="middle">0</text>
	<line x1="1289.47" y1="2489.19" x2="1289.47" y2="2529.16" style="stroke:#000000;stroke-width:5.76"/>
	<text x="1289.47" y="2619.14" style="font-family:'Helvetica';font-size:99.99px;fill:#000000" text-anchor="middle">2</text>
	<line x1="2124.91" y1="2489.19" x2="2124.91" y2="2529.16" style="stroke:#000000;stroke-width:5.76"/>
	<text x="2124.91" y="2619.14" style="font-family:'Helvetica';font-size:99.99px;fill:#000000" text-anchor="middle">4</text>
	<line x1="2960.35" y1="2489.19" x2="2960.35" y2="2529.16" style="stroke:#000000;stroke-width:5.76"/>
	<text x="2960.35" y="2619.14" style="font-family:'Helvetica';font-size:99.99px;fill:#000000" text-anchor="middle">6</text>
	<line x1="3795.66" y1="2489.19" x2="3795.66" y2="2529.16" style="stroke:#000000;stroke-width:5.76"/>
	<text x="3795.66" y="2619.14" style="font-family:'Helvetica';font-size:99.99px;fill:#000000" text-anchor="middle">8</text>
	<text x="2124.91" y="2729.16" style="font-family:'Helvetica';font-size:99.99px;fill:#000000" text-anchor="middle">Years from treatment outcome</text>
	<line x1="2731.53" y1="2221.51" x2="3105.88" y2="2221.51" style="stroke:#707070;stroke-width:23.04"/>
	<line x1="2731.53" y1="2361.47" x2="3105.88" y2="2361.47" style="stroke:#202020;stroke-width:23.04"/>
	<text x="3165.90" y="2256.53" style="font-family:'Helvetica';font-size:99.99px;fill:#000000">Late dropout</text>
	<text x="3165.90" y="2396.50" style="font-family:'Helvetica';font-size:99.99px;fill:#000000">Early dropout</text>
</svg>
