<?xml version="1.0" encoding="UTF-8" standalone="no"?>
<!-- This is a Stata 16.1 generated SVG file (http://www.stata.com) -->

<svg version="1.1" width="5.50in" height="4.00in" viewBox="0 0 3960 2880" xmlns="http://www.w3.org/2000/svg" xmlns:xlink="http://www.w3.org/1999/xlink">
	<desc>Stata Graph - s_diff</desc>
	<rect x="0" y="0" width="3960" height="2880" style="fill:#FFFFFF;stroke:none"/>
	<rect x="0.00" y="0.00" width="3959.88" height="2880.00" style="fill:#FFFFFF"/>
	<rect x="2.88" y="2.88" width="3954.12" height="2874.24" style="fill:none;stroke:#FFFFFF;stroke-width:5.76"/>
	<rect x="390.80" y="100.86" width="3468.22" height="2388.33" style="fill:#FFFFFF"/>
	<rect x="393.68" y="103.74" width="3462.46" height="2382.57" style="fill:none;stroke:#FFFFFF;stroke-width:5.76"/>
	<line x1="390.80" y1="1860.39" x2="3859.02" y2="1860.39" style="stroke:#EAF2F3;stroke-width:8.64"/>
	<line x1="390.80" y1="1294.96" x2="3859.02" y2="1294.96" style="stroke:#EAF2F3;stroke-width:8.64"/>
	<line x1="390.80" y1="729.53" x2="3859.02" y2="729.53" style="stroke:#EAF2F3;stroke-width:8.64"/>
	<defs>
		<path id="path_ngSEaFDc" d="M454.16 729.53 L454.16 729.53 L562.44 1094.73 L670.73 1300.53 L779.01 1446.81 L887.29 1556.70 L995.57 1641.35 L1103.85 1708.79 L1212.13 1764.73 L1320.54 1812.25 L1428.82 1852.84 L1537.10 1887.12 L1645.38 1915.83 L1753.66 1939.84 L1861.94 1959.64 L1970.22 1976.10 L2078.51 1989.96 L2186.79 2001.60 L2295.07 2011.50 L2403.35 2019.79 L2511.63 2026.96 L2620.03 2033.03 L2728.32 2038.10 L2836.60 2042.56 L2944.88 2046.27 L3053.16 2049.49 L3161.44 2052.09 L3269.72 2054.44 L3378.00 2056.29 L3378.00 1756.31 L3269.72 1759.53 L3161.44 1762.50 L3053.16 1765.23 L2944.88 1767.45 L2836.60 1769.06 L2728.32 1770.18 L2620.03 1770.67 L2511.63 1770.30 L2403.35 1768.94 L2295.07 1766.46 L2186.79 1762.50 L2078.51 1756.81 L1970.22 1749.14 L1861.94 1738.87 L1753.66 1725.50 L1645.38 1708.30 L1537.10 1686.39 L1428.82 1659.29 L1320.54 1626.25 L1212.13 1586.40 L1103.85 1538.76 L995.57 1480.34 L887.29 1406.71 L779.01 1311.17 L670.73 1185.31 L562.44 1012.80 L454.16 729.53 L454.16 729.53 Z" stroke-linejoin="round"/>
	</defs>
	<defs>
		<clipPath id="clipPath_yUEasstC">
			<use xlink:href="#path_ngSEaFDc"/>
		</clipPath>
	</defs>
	<use xlink:href="#path_ngSEaFDc" style="stroke:none;fill:#3333FF;fill-opacity:0.20"/>
	<use xlink:href="#path_ngSEaFDc" style="fill:none;stroke:#0000FF;stroke-opacity:0.20;stroke-width:17.28" clip-path="url(#clipPath_yUEasstC)"/>
	<path d=" M454.04 729.65 L562.32 1053.89 L670.60 1242.98 L779.01 1378.99 L887.29 1481.71 L995.57 1560.91 L1103.85 1623.90 L1212.13 1675.63 L1320.41 1719.31 L1428.69 1756.07 L1536.97 1786.76 L1645.26 1812.13 L1753.54 1832.67 L1861.82 1849.38 L1970.22 1862.74 L2078.51 1873.51 L2186.79 1882.05 L2295.07 1888.98 L2403.35 1894.42 L2511.63 1898.63 L2619.91 1901.85 L2728.19 1904.20 L2836.47 1905.93 L2944.76 1906.92 L3053.04 1907.42 L3161.32 1907.42 L3269.72 1907.05 L3378.00 1906.30" stroke-linejoin="round" style="fill:none;stroke:#0000FF;stroke-width:8.64"/>
	<defs>
		<path id="path_YwDHCobJ" d="M454.16 729.53 L454.16 729.53 L562.44 1017.63 L670.73 1194.22 L779.01 1325.03 L887.29 1426.51 L995.57 1506.83 L1103.85 1572.54 L1212.13 1628.23 L1320.54 1676.49 L1428.82 1718.45 L1537.10 1754.83 L1645.38 1786.14 L1753.66 1812.99 L1861.94 1835.89 L1970.22 1855.69 L2078.51 1872.89 L2186.79 1887.99 L2295.07 1901.23 L2403.35 1913.11 L2511.63 1923.51 L2620.03 1933.04 L2728.32 1941.45 L2836.60 1949.12 L2944.88 1956.05 L3053.16 1962.37 L3161.44 1968.18 L3269.72 1973.38 L3378.00 1978.21 L3378.00 1717.95 L3269.72 1717.95 L3161.44 1717.46 L3053.16 1716.59 L2944.88 1715.23 L2836.60 1713.25 L2728.32 1710.65 L2620.03 1707.31 L2511.63 1703.10 L2403.35 1697.78 L2295.07 1691.22 L2186.79 1683.30 L2078.51 1673.52 L1970.22 1661.77 L1861.94 1647.54 L1753.66 1630.33 L1645.38 1609.30 L1537.10 1584.05 L1428.82 1553.98 L1320.54 1518.46 L1212.13 1477.00 L1103.85 1428.49 L995.57 1370.82 L887.29 1300.28 L779.01 1211.80 L670.73 1099.18 L562.44 951.42 L454.16 729.53 L454.16 729.53 Z" stroke-linejoin="round"/>
	</defs>
	<defs>
		<clipPath id="clipPath_KmRqUcAe">
			<use xlink:href="#path_YwDHCobJ"/>
		</clipPath>
	</defs>
	<use xlink:href="#path_YwDHCobJ" style="stroke:none;fill:#FF3333;fill-opacity:0.20"/>
	<use xlink:href="#path_YwDHCobJ" style="fill:none;stroke:#FF0000;stroke-opacity:0.20;stroke-width:17.28" clip-path="url(#clipPath_KmRqUcAe)"/>
	<path d=" M454.04 729.65 L562.32 984.59 L670.60 1146.83 L779.01 1268.48 L887.29 1363.40 L995.57 1438.89 L1103.85 1500.64 L1212.13 1552.62 L1320.41 1597.54 L1428.69 1636.27 L1536.97 1669.56 L1645.26 1697.78 L1753.54 1721.66 L1861.82 1741.84 L1970.22 1758.79 L2078.51 1773.27 L2186.79 1785.64 L2295.07 1796.29 L2403.35 1805.45 L2511.63 1813.37 L2619.91 1820.17 L2728.19 1826.11 L2836.47 1831.31 L2944.76 1835.76 L3053.04 1839.60 L3161.32 1842.82 L3269.72 1845.67 L3378.00 1848.14" stroke-linejoin="round" style="fill:none;stroke:#FF0000;stroke-width:8.64"/>
	<defs>
		<path id="path_rrNGjARM" d="M454.16 729.53 L454.16 729.53 L562.44 699.46 L670.73 686.83 L779.01 680.89 L887.29 678.79 L995.57 679.28 L1103.85 681.51 L1212.13 684.85 L1320.54 688.94 L1428.82 693.76 L1537.10 698.84 L1645.38 704.41 L1753.66 710.22 L1861.94 716.04 L1970.22 721.98 L2078.51 727.92 L2186.79 733.86 L2295.07 739.80 L2403.35 745.62 L2511.63 751.31 L2620.03 757.00 L2728.32 762.57 L2836.60 768.02 L2944.88 773.34 L3053.16 778.54 L3161.44 783.73 L3269.72 788.81 L3378.00 793.76 L3378.00 549.10 L3269.72 547.73 L3161.44 546.37 L3053.16 544.89 L2944.88 543.40 L2836.60 541.92 L2728.32 540.43 L2620.03 538.82 L2511.63 537.22 L2403.35 535.61 L2295.07 534.00 L2186.79 532.39 L2078.51 530.90 L1970.22 529.42 L1861.94 528.06 L1753.66 526.94 L1645.38 526.08 L1537.10 525.71 L1428.82 525.83 L1320.54 526.70 L1212.13 528.31 L1103.85 531.15 L995.57 535.73 L887.29 543.65 L779.01 557.02 L670.73 579.91 L562.44 621.24 L454.16 729.53 L454.16 729.53 Z" stroke-linejoin="round"/>
	</defs>
	<defs>
		<clipPath id="clipPath_VaanQtUe">
			<use xlink:href="#path_rrNGjARM"/>
		</clipPath>
	</defs>
	<use xlink:href="#path_rrNGjARM" style="stroke:none;fill:#339933;fill-opacity:0.20"/>
	<use xlink:href="#path_rrNGjARM" style="fill:none;stroke:#008000;stroke-opacity:0.20;stroke-width:17.28" clip-path="url(#clipPath_VaanQtUe)"/>
	<path d=" M454.04 729.65 L562.32 660.35 L670.60 633.50 L779.01 619.02 L887.29 611.34 L995.57 607.63 L1103.85 606.39 L1212.13 606.64 L1320.41 607.88 L1428.69 609.86 L1536.97 612.33 L1645.26 615.30 L1753.54 618.65 L1861.82 622.11 L1970.22 625.70 L2078.51 629.41 L2186.79 633.25 L2295.07 636.96 L2403.35 640.67 L2511.63 644.39 L2619.91 647.98 L2728.19 651.56 L2836.47 655.03 L2944.76 658.49 L3053.04 661.84 L3161.32 665.05 L3269.72 668.27 L3378.00 671.49" stroke-linejoin="round" style="fill:none;stroke:#008000;stroke-width:8.64"/>
	<path d=" M454.04 729.65 L562.32 729.65 L670.60 729.65 L779.01 729.65 L887.29 729.65 L995.57 729.65 L1103.85 729.65 L1212.13 729.65 L1320.41 729.65 L1428.69 729.65 L1536.97 729.65 L1645.26 729.65 L1753.54 729.65 L1861.82 729.65 L1970.22 729.65 L2078.51 729.65 L2186.79 729.65 L2295.07 729.65 L2403.35 729.65 L2511.63 729.65 L2619.91 729.65 L2728.19 729.65 L2836.47 729.65 L2944.76 729.65 L3053.04 729.65 L3161.32 729.65 L3269.72 729.65 L3378.00 729.65" stroke-linejoin="round" style="fill:none;stroke:#000000;stroke-opacity:0.20;stroke-width:23.04"/>
	<line x1="390.80" y1="2489.19" x2="390.80" y2="100.86" style="stroke:#000000;stroke-width:5.76"/>
	<line x1="390.80" y1="2425.82" x2="350.83" y2="2425.82" style="stroke:#000000;stroke-width:5.76"/>
	<text x="300.72" y="2425.82" style="font-family:'Helvetica';font-size:99.99px;fill:#000000" transform="rotate(-90 300.72,2425.82)" text-anchor="middle">-0.15</text>
	<line x1="390.80" y1="1860.39" x2="350.83" y2="1860.39" style="stroke:#000000;stroke-width:5.76"/>
	<text x="300.72" y="1860.39" style="font-family:'Helvetica';font-size:99.99px;fill:#000000" transform="rotate(-90 300.72,1860.39)" text-anchor="middle">-0.10</text>
	<line x1="390.80" y1="1294.96" x2="350.83" y2="1294.96" style="stroke:#000000;stroke-width:5.76"/>
	<text x="300.72" y="1294.96" style="font-family:'Helvetica';font-size:99.99px;fill:#000000" transform="rotate(-90 300.72,1294.96)" text-anchor="middle">-0.05</text>
	<line x1="390.80" y1="729.53" x2="350.83" y2="729.53" style="stroke:#000000;stroke-width:5.76"/>
	<text x="300.72" y="729.53" style="font-family:'Helvetica';font-size:99.99px;fill:#000000" transform="rotate(-90 300.72,729.53)" text-anchor="middle">0.00</text>
	<line x1="390.80" y1="164.22" x2="350.83" y2="164.22" style="stroke:#000000;stroke-width:5.76"/>
	<text x="300.72" y="164.22" style="font-family:'Helvetica';font-size:99.99px;fill:#000000" transform="rotate(-90 300.72,164.22)" text-anchor="middle">0.05</text>
	<text x="190.71" y="1294.96" style="font-family:'Helvetica';font-size:99.99px;fill:#000000" transform="rotate(-90 190.71,1294.96)" text-anchor="middle">Difference in Survival (years)</text>
	<line x1="390.80" y1="2489.19" x2="3859.02" y2="2489.19" style="stroke:#000000;stroke-width:5.76"/>
	<line x1="454.16" y1="2489.19" x2="454.16" y2="2529.16" style="stroke:#000000;stroke-width:5.76"/>
	<text x="454.16" y="2619.14" style="font-family:'Helvetica';font-size:99.99px;fill:#000000" text-anchor="middle">0</text>
	<line x1="1289.47" y1="2489.19" x2="1289.47" y2="2529.16" style="stroke:#000000;stroke-width:5.76"/>
	<text x="1289.47" y="2619.14" style="font-family:'Helvetica';font-size:99.99px;fill:#000000" text-anchor="middle">2</text>
	<line x1="2124.91" y1="2489.19" x2="2124.91" y2="2529.16" style="stroke:#000000;stroke-width:5.76"/>
	<text x="2124.91" y="2619.14" style="font-family:'Helvetica';font-size:99.99px;fill:#000000" text-anchor="middle">4</text>
	<line x1="2960.35" y1="2489.19" x2="2960.35" y2="2529.16" style="stroke:#000000;stroke-width:5.76"/>
	<text x="2960.35" y="2619.14" style="font-family:'Helvetica';font-size:99.99px;fill:#000000" text-anchor="middle">6</text>
	<line x1="3795.66" y1="2489.19" x2="3795.66" y2="2529.16" style="stroke:#000000;stroke-width:5.76"/>
	<text x="3795.66" y="2619.14" style="font-family:'Helvetica';font-size:99.99px;fill:#000000" text-anchor="middle">8</text>
	<text x="2124.91" y="2729.16" style="font-family:'Helvetica';font-size:99.99px;fill:#000000" text-anchor="middle">Years from baseline treatment outcome</text>
	<rect x="468.52" y="2031.42" width="374.47" height="99.99" style="fill:#3333FF;fill-opacity:0.20"/>
	<rect x="472.84" y="2035.74" width="365.83" height="91.35" style="fill:none;stroke:#0000FF;stroke-opacity:0.20;stroke-width:8.64"/>
	<rect x="468.52" y="2171.51" width="374.47" height="99.99" style="fill:#FF3333;fill-opacity:0.20"/>
	<rect x="472.84" y="2175.83" width="365.83" height="91.35" style="fill:none;stroke:#FF0000;stroke-opacity:0.20;stroke-width:8.64"/>
	<rect x="468.52" y="2311.47" width="374.47" height="99.99" style="fill:#339933;fill-opacity:0.20"/>
	<rect x="472.84" y="2315.79" width="365.83" height="91.35" style="fill:none;stroke:#008000;stroke-opacity:0.20;stroke-width:8.64"/>
	<text x="902.88" y="2116.44" style="font-family:'Helvetica';font-size:99.99px;fill:#000000">Early vs. Tr. completion</text>
	<text x="902.88" y="2256.53" style="font-family:'Helvetica';font-size:99.99px;fill:#000000">Late vs. Tr. completion</text>
	<text x="902.88" y="2396.50" style="font-family:'Helvetica';font-size:99.99px;fill:#000000">Late vs. Early dropout</text>
</svg>
