<?xml version="1.0" encoding="UTF-8" standalone="no"?>
<!-- This is a Stata 16.1 generated SVG file (http://www.stata.com) -->

<svg version="1.1" width="5.50in" height="4.00in" viewBox="0 0 3960 2880" xmlns="http://www.w3.org/2000/svg" xmlns:xlink="http://www.w3.org/1999/xlink">
	<desc>Stata Graph - rmst_std_fin_c</desc>
	<rect x="0" y="0" width="3960" height="2880" style="fill:#FFFFFF;stroke:none"/>
	<rect x="0.00" y="0.00" width="3959.88" height="2880.00" style="fill:#FFFFFF"/>
	<rect x="2.88" y="2.88" width="3954.12" height="2874.24" style="fill:none;stroke:#FFFFFF;stroke-width:5.76"/>
	<rect x="390.80" y="100.86" width="3468.22" height="2388.33" style="fill:#FFFFFF"/>
	<rect x="393.68" y="103.74" width="3462.46" height="2382.57" style="fill:none;stroke:#FFFFFF;stroke-width:5.76"/>
	<line x1="390.80" y1="2425.82" x2="3859.02" y2="2425.82" style="stroke:#EAF2F3;stroke-width:8.64"/>
	<line x1="390.80" y1="1860.39" x2="3859.02" y2="1860.39" style="stroke:#EAF2F3;stroke-width:8.64"/>
	<line x1="390.80" y1="1294.96" x2="3859.02" y2="1294.96" style="stroke:#EAF2F3;stroke-width:8.64"/>
	<line x1="390.80" y1="729.53" x2="3859.02" y2="729.53" style="stroke:#EAF2F3;stroke-width:8.64"/>
	<defs>
		<path id="path_IZdTXVuG" d="M562.44 2352.93 L562.44 2352.93 L779.01 2209.01 L887.29 2137.85 L1103.85 1996.77 L1212.13 1926.85 L1320.54 1857.17 L1428.82 1787.87 L1537.10 1718.94 L1645.38 1650.26 L1861.94 1513.76 L1970.22 1445.94 L2078.51 1378.25 L2403.35 1176.78 L2511.63 1109.95 L2620.03 1043.49 L2728.32 977.04 L2836.60 910.95 L2944.88 844.99 L3161.44 713.56 L3269.72 648.10 L3378.00 582.88 L3378.00 572.11 L3269.72 637.95 L3161.44 704.04 L2944.88 836.45 L2836.60 903.03 L2728.32 969.61 L2620.03 1036.44 L2511.63 1103.51 L2403.35 1170.71 L2078.51 1373.67 L1970.22 1441.73 L1861.94 1509.92 L1645.38 1647.29 L1537.10 1716.34 L1428.82 1785.64 L1320.54 1855.32 L1212.13 1925.24 L1103.85 1995.53 L887.29 2137.11 L779.01 2208.64 L562.44 2352.93 L562.44 2352.93 Z" stroke-linejoin="round"/>
	</defs>
	<defs>
		<clipPath id="clipPath_zucYIFGJ">
			<use xlink:href="#path_IZdTXVuG"/>
		</clipPath>
	</defs>
	<use xlink:href="#path_IZdTXVuG" style="stroke:none;fill:#8D8D8D;fill-opacity:0.35"/>
	<use xlink:href="#path_IZdTXVuG" style="fill:none;stroke:#707070;stroke-opacity:0.35;stroke-width:17.28" clip-path="url(#clipPath_zucYIFGJ)"/>
	<defs>
		<path id="path_iSLpXMrB" d="M562.44 2353.06 L562.44 2353.06 L779.01 2209.75 L887.29 2139.09 L1103.85 1999.12 L1212.13 1929.82 L1320.54 1860.89 L1428.82 1792.33 L1537.10 1724.14 L1645.38 1656.32 L1861.94 1521.55 L1970.22 1454.73 L2078.51 1388.02 L2403.35 1189.65 L2511.63 1123.93 L2620.03 1058.47 L2728.32 993.25 L2836.60 928.28 L2944.88 863.43 L3161.44 734.48 L3269.72 670.25 L3378.00 606.27 L3378.00 590.31 L3269.72 655.15 L3161.44 720.25 L2944.88 850.81 L2836.60 916.40 L2728.32 982.23 L2620.03 1048.20 L2511.63 1114.40 L2403.35 1180.74 L2078.51 1381.22 L1970.22 1448.42 L1861.94 1515.98 L1645.38 1651.87 L1537.10 1720.30 L1428.82 1788.99 L1320.54 1858.04 L1212.13 1927.34 L1103.85 1997.14 L887.29 2137.97 L779.01 2209.13 L562.44 2352.93 L562.44 2353.06 Z" stroke-linejoin="round"/>
	</defs>
	<defs>
		<clipPath id="clipPath_ZyPKZgyK">
			<use xlink:href="#path_iSLpXMrB"/>
		</clipPath>
	</defs>
	<use xlink:href="#path_iSLpXMrB" style="stroke:none;fill:#4D4D4D;fill-opacity:0.35"/>
	<use xlink:href="#path_iSLpXMrB" style="fill:none;stroke:#202020;stroke-opacity:0.35;stroke-width:17.28" clip-path="url(#clipPath_ZyPKZgyK)"/>
	<path d=" M562.32 2352.93 L779.01 2208.88 L887.29 2137.60 L1103.85 1996.15 L1212.13 1926.11 L1320.41 1856.31 L1428.69 1786.88 L1536.97 1717.70 L1645.26 1648.90 L1861.82 1511.90 L1970.22 1443.84 L2078.51 1376.02 L2403.35 1173.81 L2511.63 1106.85 L2619.91 1040.03 L2728.19 973.45 L2836.47 906.99 L2944.76 840.78 L3161.32 708.86 L3269.72 643.15 L3378.00 577.56" stroke-linejoin="round" style="fill:none;stroke:#707070;stroke-width:23.04"/>
	<path d=" M562.32 2353.06 L779.01 2209.50 L887.29 2138.59 L1103.85 1998.13 L1212.13 1928.70 L1320.41 1859.53 L1428.69 1790.72 L1536.97 1722.28 L1645.26 1654.22 L1861.82 1518.83 L1970.22 1451.63 L2078.51 1384.68 L2403.35 1185.19 L2511.63 1119.23 L2619.91 1053.39 L2728.19 987.80 L2836.47 922.46 L2944.76 857.24 L3161.32 727.43 L3269.72 662.83 L3378.00 598.35" stroke-linejoin="round" style="fill:none;stroke:#202020;stroke-width:23.04"/>
	<line x1="390.80" y1="2489.19" x2="390.80" y2="100.86" style="stroke:#000000;stroke-width:5.76"/>
	<line x1="390.80" y1="2425.82" x2="350.83" y2="2425.82" style="stroke:#000000;stroke-width:5.76"/>
	<text x="300.72" y="2425.82" style="font-family:'Helvetica';font-size:99.99px;fill:#000000" transform="rotate(-90 300.72,2425.82)" text-anchor="middle">0</text>
	<line x1="390.80" y1="1860.39" x2="350.83" y2="1860.39" style="stroke:#000000;stroke-width:5.76"/>
	<text x="300.72" y="1860.39" style="font-family:'Helvetica';font-size:99.99px;fill:#000000" transform="rotate(-90 300.72,1860.39)" text-anchor="middle">2</text>
	<line x1="390.80" y1="1294.96" x2="350.83" y2="1294.96" style="stroke:#000000;stroke-width:5.76"/>
	<text x="300.72" y="1294.96" style="font-family:'Helvetica';font-size:99.99px;fill:#000000" transform="rotate(-90 300.72,1294.96)" text-anchor="middle">4</text>
	<line x1="390.80" y1="729.53" x2="350.83" y2="729.53" style="stroke:#000000;stroke-width:5.76"/>
	<text x="300.72" y="729.53" style="font-family:'Helvetica';font-size:99.99px;fill:#000000" transform="rotate(-90 300.72,729.53)" text-anchor="middle">6</text>
	<line x1="390.80" y1="164.22" x2="350.83" y2="164.22" style="stroke:#000000;stroke-width:5.76"/>
	<text x="300.72" y="164.22" style="font-family:'Helvetica';font-size:99.99px;fill:#000000" transform="rotate(-90 300.72,164.22)" text-anchor="middle">8</text>
	<text x="190.71" y="1294.96" style="font-family:'Helvetica';font-size:99.99px;fill:#000000" transform="rotate(-90 190.71,1294.96)" text-anchor="middle">Restricted Mean Survival Times (standardized)</text>
	<line x1="390.80" y1="2489.19" x2="3859.02" y2="2489.19" style="stroke:#000000;stroke-width:5.76"/>
	<line x1="454.16" y1="2489.19" x2="454.16" y2="2529.16" style="stroke:#000000;stroke-width:5.76"/>
	<text x="454.16" y="2619.14" style="font-family:'Helvetica';font-size:99.99px;fill:#000000" text-anchor="middle">0</text>
	<line x1="1289.47" y1="2489.19" x2="1289.47" y2="2529.16" style="stroke:#000000;stroke-width:5.76"/>
	<text x="1289.47" y="2619.14" style="font-family:'Helvetica';font-size:99.99px;fill:#000000" text-anchor="middle">2</text>
	<line x1="2124.91" y1="2489.19" x2="2124.91" y2="2529.16" style="stroke:#000000;stroke-width:5.76"/>
	<text x="2124.91" y="2619.14" style="font-family:'Helvetica';font-size:99.99px;fill:#000000" text-anchor="middle">4</text>
	<line x1="2960.35" y1="2489.19" x2="2960.35" y2="2529.16" style="stroke:#000000;stroke-width:5.76"/>
	<text x="2960.35" y="2619.14" style="font-family:'Helvetica';font-size:99.99px;fill:#000000" text-anchor="middle">6</text>
	<line x1="3795.66" y1="2489.19" x2="3795.66" y2="2529.16" style="stroke:#000000;stroke-width:5.76"/>
	<text x="3795.66" y="2619.14" style="font-family:'Helvetica';font-size:99.99px;fill:#000000" text-anchor="middle">8</text>
	<text x="2124.91" y="2729.16" style="font-family:'Helvetica';font-size:99.99px;fill:#000000" text-anchor="middle">Years from treatment outcome</text>
	<line x1="2731.53" y1="2221.51" x2="3105.88" y2="2221.51" style="stroke:#707070;stroke-width:23.04"/>
	<line x1="2731.53" y1="2361.47" x2="3105.88" y2="2361.47" style="stroke:#202020;stroke-width:23.04"/>
	<text x="3165.90" y="2256.53" style="font-family:'Helvetica';font-size:99.99px;fill:#000000">Late dropout</text>
	<text x="3165.90" y="2396.50" style="font-family:'Helvetica';font-size:99.99px;fill:#000000">Early dropout</text>
</svg>
