<?xml version="1.0" encoding="UTF-8" standalone="no"?>
<!-- This is a Stata 16.1 generated SVG file (http://www.stata.com) -->

<svg version="1.1" width="5.50in" height="4.00in" viewBox="0 0 3960 2880" xmlns="http://www.w3.org/2000/svg" xmlns:xlink="http://www.w3.org/1999/xlink">
	<desc>Stata Graph - RMSTdiff</desc>
	<rect x="0" y="0" width="3960" height="2880" style="fill:#FFFFFF;stroke:none"/>
	<rect x="0.00" y="0.00" width="3959.88" height="2880.00" style="fill:#FFFFFF"/>
	<rect x="2.88" y="2.88" width="3954.12" height="2874.24" style="fill:none;stroke:#FFFFFF;stroke-width:5.76"/>
	<rect x="390.80" y="100.86" width="3468.22" height="2388.33" style="fill:#FFFFFF"/>
	<rect x="393.68" y="103.74" width="3462.46" height="2382.57" style="fill:none;stroke:#FFFFFF;stroke-width:5.76"/>
	<line x1="390.80" y1="2425.82" x2="3859.02" y2="2425.82" style="stroke:#EAF2F3;stroke-width:8.64"/>
	<line x1="390.80" y1="1864.97" x2="3859.02" y2="1864.97" style="stroke:#EAF2F3;stroke-width:8.64"/>
	<line x1="390.80" y1="1303.99" x2="3859.02" y2="1303.99" style="stroke:#EAF2F3;stroke-width:8.64"/>
	<line x1="390.80" y1="743.14" x2="3859.02" y2="743.14" style="stroke:#EAF2F3;stroke-width:8.64"/>
	<line x1="390.80" y1="182.17" x2="3859.02" y2="182.17" style="stroke:#EAF2F3;stroke-width:8.64"/>
	<defs>
		<path id="path_FMpYBGaB" d="M507.25 745.25 L507.25 745.25 L560.46 750.32 L613.68 757.62 L666.76 766.78 L719.98 777.55 L773.07 789.67 L826.28 803.29 L879.49 818.01 L932.58 833.98 L985.79 850.93 L1038.88 868.88 L1092.09 887.81 L1145.18 907.49 L1198.39 928.03 L1251.61 949.19 L1304.70 971.10 L1357.91 993.50 L1411.00 1016.64 L1464.21 1040.28 L1517.42 1064.53 L1570.51 1089.41 L1623.72 1114.77 L1676.81 1140.76 L1730.03 1167.12 L1783.24 1194.22 L1836.33 1221.70 L1889.54 1249.67 L1942.63 1278.01 L1995.84 1306.96 L2048.93 1336.29 L2102.14 1365.87 L2155.35 1395.94 L2208.44 1426.39 L2261.66 1457.20 L2314.74 1488.26 L2367.96 1519.70 L2421.17 1551.38 L2474.26 1583.31 L2527.47 1615.48 L2580.56 1647.91 L2633.77 1680.58 L2686.98 1713.50 L2740.07 1746.54 L2793.28 1779.83 L2846.37 1813.37 L2899.59 1847.03 L2952.68 1880.94 L3005.89 1914.97 L3059.10 1949.12 L3112.19 1983.53 L3165.40 2018.05 L3218.49 2052.71 L3271.70 2087.48 L3324.91 2122.50 L3378.00 2157.52 L3378.00 1787.01 L3324.91 1761.39 L3271.70 1735.90 L3218.49 1710.53 L3165.40 1685.16 L3112.19 1659.91 L3059.10 1634.79 L3005.89 1609.67 L2952.68 1584.54 L2899.59 1559.67 L2846.37 1534.92 L2793.28 1510.17 L2740.07 1485.54 L2686.98 1461.04 L2633.77 1436.66 L2580.56 1412.53 L2527.47 1388.39 L2474.26 1364.51 L2421.17 1340.75 L2367.96 1317.24 L2314.74 1293.85 L2261.66 1270.70 L2208.44 1247.69 L2155.35 1225.04 L2102.14 1202.52 L2048.93 1180.36 L1995.84 1158.46 L1942.63 1136.80 L1889.54 1115.52 L1836.33 1094.60 L1783.24 1074.06 L1730.03 1053.89 L1676.81 1034.09 L1623.72 1014.78 L1570.51 995.85 L1517.42 977.28 L1464.21 959.22 L1411.00 941.52 L1357.91 924.32 L1304.70 907.61 L1251.61 891.52 L1198.39 875.81 L1145.18 860.71 L1092.09 846.23 L1038.88 832.37 L985.79 819.25 L932.58 806.88 L879.49 795.37 L826.28 784.72 L773.07 775.07 L719.98 766.41 L666.76 758.98 L613.68 752.67 L560.46 747.72 L507.25 744.38 L507.25 745.25 Z" stroke-linejoin="round"/>
	</defs>
	<defs>
		<clipPath id="clipPath_tORvXwrP">
			<use xlink:href="#path_FMpYBGaB"/>
		</clipPath>
	</defs>
	<use xlink:href="#path_FMpYBGaB" style="stroke:none;fill:#4D4D4D;fill-opacity:0.35"/>
	<use xlink:href="#path_FMpYBGaB" style="fill:none;stroke:#202020;stroke-opacity:0.35;stroke-width:17.28" clip-path="url(#clipPath_tORvXwrP)"/>
	<path d=" M454.04 743.14 L507.25 744.87 L560.34 749.08 L613.55 755.15 L666.76 762.94 L719.85 772.10 L773.07 782.50 L826.15 794.00 L879.37 806.75 L932.58 820.49 L985.67 835.21 L1038.88 850.68 L1091.97 867.02 L1145.18 884.22 L1198.39 901.92 L1251.48 920.36 L1304.70 939.42 L1357.79 958.97 L1411.00 979.14 L1464.09 999.81 L1517.30 1020.97 L1570.51 1042.63 L1623.60 1064.78 L1676.81 1087.43 L1729.90 1110.57 L1783.11 1134.20 L1836.33 1158.21 L1889.41 1182.72 L1942.63 1207.47 L1995.72 1232.71 L2048.93 1258.33 L2102.14 1284.32 L2155.23 1310.55 L2208.44 1337.16 L2261.53 1364.02 L2314.74 1391.12 L2367.83 1418.47 L2421.05 1446.06 L2474.26 1473.91 L2527.35 1502.00 L2580.56 1530.22 L2633.65 1558.68 L2686.86 1587.27 L2740.07 1616.10 L2793.16 1645.06 L2846.37 1674.14 L2899.46 1703.47 L2952.68 1732.80 L3005.89 1762.38 L3058.98 1791.96 L3112.19 1821.78 L3165.28 1851.61 L3218.49 1881.68 L3271.58 1911.75 L3324.79 1941.95 L3378.00 1972.27" stroke-linejoin="round" style="fill:none;stroke:#202020;stroke-width:8.64"/>
	<defs>
		<path id="path_bDtYPwnb" d="M507.25 744.50 L507.25 744.50 L560.46 747.84 L613.68 752.67 L666.76 758.73 L719.98 765.91 L773.07 774.08 L826.28 783.11 L879.49 793.01 L932.58 803.66 L985.79 815.04 L1038.88 827.05 L1092.09 839.67 L1145.18 852.91 L1198.39 866.65 L1251.61 880.88 L1304.70 895.61 L1357.91 910.70 L1411.00 926.17 L1464.21 942.14 L1517.42 958.47 L1570.51 975.18 L1623.72 992.26 L1676.81 1009.71 L1730.03 1027.53 L1783.24 1045.72 L1836.33 1064.28 L1889.54 1083.09 L1942.63 1102.28 L1995.84 1121.71 L2048.93 1141.51 L2102.14 1161.55 L2155.35 1181.85 L2208.44 1202.39 L2261.66 1223.18 L2314.74 1244.10 L2367.96 1265.38 L2421.17 1286.79 L2474.26 1308.33 L2527.47 1330.11 L2580.56 1352.01 L2633.77 1374.16 L2686.98 1396.44 L2740.07 1418.84 L2793.28 1441.36 L2846.37 1464.13 L2899.59 1486.90 L2952.68 1509.92 L3005.89 1532.94 L3059.10 1556.20 L3112.19 1579.47 L3165.40 1602.86 L3218.49 1626.50 L3271.70 1650.13 L3324.91 1673.77 L3378.00 1697.66 L3378.00 1426.51 L3324.91 1409.68 L3271.70 1392.85 L3218.49 1376.14 L3165.40 1359.44 L3112.19 1342.73 L3059.10 1326.15 L3005.89 1309.56 L2952.68 1292.98 L2899.59 1276.52 L2846.37 1260.19 L2793.28 1243.85 L2740.07 1227.64 L2686.98 1211.43 L2633.77 1195.34 L2580.56 1179.37 L2527.47 1163.53 L2474.26 1147.69 L2421.17 1132.10 L2367.96 1116.51 L2314.74 1101.16 L2261.66 1085.82 L2208.44 1070.72 L2155.35 1055.74 L2102.14 1041.02 L2048.93 1026.41 L1995.84 1011.94 L1942.63 997.83 L1889.54 983.84 L1836.33 970.11 L1783.24 956.62 L1730.03 943.38 L1676.81 930.51 L1623.72 917.76 L1570.51 905.38 L1517.42 893.38 L1464.21 881.50 L1411.00 870.11 L1357.91 858.85 L1304.70 848.09 L1251.61 837.57 L1198.39 827.42 L1145.18 817.77 L1092.09 808.36 L1038.88 799.45 L985.79 791.03 L932.58 783.24 L879.49 775.81 L826.28 769.13 L773.07 763.07 L719.98 757.62 L666.76 752.92 L613.68 748.96 L560.46 745.86 L507.25 743.88 L507.25 744.50 Z" stroke-linejoin="round"/>
	</defs>
	<defs>
		<clipPath id="clipPath_nVVncUKY">
			<use xlink:href="#path_bDtYPwnb"/>
		</clipPath>
	</defs>
	<use xlink:href="#path_bDtYPwnb" style="stroke:none;fill:#808080;fill-opacity:0.35"/>
	<use xlink:href="#path_bDtYPwnb" style="fill:none;stroke:#606060;stroke-opacity:0.35;stroke-width:17.28" clip-path="url(#clipPath_nVVncUKY)"/>
	<path d=" M454.04 743.14 L507.25 744.26 L560.34 746.98 L613.55 750.81 L666.76 755.89 L719.85 761.83 L773.07 768.64 L826.15 776.18 L879.37 784.48 L932.58 793.51 L985.67 803.16 L1038.88 813.31 L1091.97 824.08 L1145.18 835.34 L1198.39 847.10 L1251.48 859.35 L1304.70 871.85 L1357.79 884.84 L1411.00 898.21 L1464.09 911.94 L1517.30 925.93 L1570.51 940.41 L1623.60 955.13 L1676.81 970.11 L1729.90 985.58 L1783.11 1001.29 L1836.33 1017.26 L1889.41 1033.47 L1942.63 1050.05 L1995.72 1066.88 L2048.93 1083.96 L2102.14 1101.29 L2155.23 1118.86 L2208.44 1136.68 L2261.53 1154.62 L2314.74 1172.69 L2367.83 1191.01 L2421.05 1209.45 L2474.26 1228.13 L2527.35 1246.94 L2580.56 1265.75 L2633.65 1284.81 L2686.86 1303.99 L2740.07 1323.30 L2793.16 1342.73 L2846.37 1362.16 L2899.46 1381.84 L2952.68 1401.51 L3005.89 1421.31 L3058.98 1441.24 L3112.19 1461.16 L3165.28 1481.21 L3218.49 1501.38 L3271.58 1521.55 L3324.79 1541.85 L3378.00 1562.15" stroke-linejoin="round" style="fill:none;stroke:#606060;stroke-width:8.64"/>
	<defs>
		<path id="path_tDOqdGHA" d="M507.25 742.89 L507.25 742.89 L560.46 742.15 L613.68 741.16 L666.76 739.80 L719.98 738.19 L773.07 736.21 L826.28 733.98 L879.49 731.63 L932.58 728.91 L985.79 726.06 L1038.88 722.97 L1092.09 719.75 L1145.18 716.41 L1198.39 712.82 L1251.61 709.11 L1304.70 705.27 L1357.91 701.31 L1411.00 697.23 L1464.21 693.15 L1517.42 688.81 L1570.51 684.48 L1623.72 679.90 L1676.81 675.32 L1730.03 670.62 L1783.24 665.92 L1836.33 661.09 L1889.54 656.14 L1942.63 651.07 L1995.84 646.00 L2048.93 640.92 L2102.14 635.72 L2155.35 630.40 L2208.44 625.08 L2261.66 619.76 L2314.74 614.31 L2367.96 608.87 L2421.17 603.42 L2474.26 597.98 L2527.47 592.41 L2580.56 586.84 L2633.77 581.27 L2686.98 575.70 L2740.07 570.01 L2793.28 564.44 L2846.37 558.75 L2899.59 553.06 L2952.68 547.36 L3005.89 541.67 L3059.10 535.98 L3112.19 530.29 L3165.40 524.59 L3218.49 518.90 L3271.70 513.21 L3324.91 507.51 L3378.00 501.70 L3378.00 164.22 L3324.91 178.33 L3271.70 192.56 L3218.49 206.67 L3165.40 220.65 L3112.19 234.64 L3059.10 248.62 L3005.89 262.48 L2952.68 276.22 L2899.59 289.96 L2846.37 303.57 L2793.28 317.06 L2740.07 330.55 L2686.98 343.91 L2633.77 357.28 L2580.56 370.40 L2527.47 383.51 L2474.26 396.63 L2421.17 409.50 L2367.96 422.25 L2314.74 434.99 L2261.66 447.62 L2208.44 459.99 L2155.35 472.37 L2102.14 484.62 L2048.93 496.62 L1995.84 508.50 L1942.63 520.26 L1889.54 531.77 L1836.33 543.16 L1783.24 554.42 L1730.03 565.31 L1676.81 576.20 L1623.72 586.72 L1570.51 597.11 L1517.42 607.38 L1464.21 617.28 L1411.00 627.06 L1357.91 636.59 L1304.70 645.87 L1251.61 654.91 L1198.39 663.69 L1145.18 672.23 L1092.09 680.52 L1038.88 688.44 L985.79 695.99 L932.58 703.17 L879.49 709.98 L826.28 716.29 L773.07 722.23 L719.98 727.55 L666.76 732.25 L613.68 736.34 L560.46 739.68 L507.25 742.03 L507.25 742.89 Z" stroke-linejoin="round"/>
	</defs>
	<defs>
		<clipPath id="clipPath_PziGvMOM">
			<use xlink:href="#path_tDOqdGHA"/>
		</clipPath>
	</defs>
	<use xlink:href="#path_tDOqdGHA" style="stroke:none;fill:#B3B3B3;fill-opacity:0.35"/>
	<use xlink:href="#path_tDOqdGHA" style="fill:none;stroke:#A0A0A0;stroke-opacity:0.35;stroke-width:17.28" clip-path="url(#clipPath_PziGvMOM)"/>
	<path d=" M454.04 743.14 L507.25 742.52 L560.34 741.04 L613.55 738.81 L666.76 736.09 L719.85 732.87 L773.07 729.28 L826.15 725.20 L879.37 720.87 L932.58 716.16 L985.67 711.09 L1038.88 705.77 L1091.97 700.20 L1145.18 694.38 L1198.39 688.32 L1251.48 682.13 L1304.70 675.70 L1357.79 669.01 L1411.00 662.21 L1464.09 655.28 L1517.30 648.10 L1570.51 640.80 L1623.60 633.37 L1676.81 625.82 L1729.90 618.03 L1783.11 610.23 L1836.33 602.19 L1889.41 594.02 L1942.63 585.73 L1995.72 577.31 L2048.93 568.77 L2102.14 560.23 L2155.23 551.45 L2208.44 542.66 L2261.53 533.75 L2314.74 524.72 L2367.83 515.68 L2421.05 506.52 L2474.26 497.37 L2527.35 488.09 L2580.56 478.68 L2633.65 469.27 L2686.86 459.87 L2740.07 450.34 L2793.16 440.81 L2846.37 431.16 L2899.46 421.51 L2952.68 411.85 L3005.89 402.08 L3058.98 392.30 L3112.19 382.52 L3165.28 372.75 L3218.49 362.85 L3271.58 352.95 L3324.79 342.92 L3378.00 333.02" stroke-linejoin="round" style="fill:none;stroke:#A0A0A0;stroke-width:8.64"/>
	<path d=" M454.04 743.14 L507.25 743.14 L560.34 743.14 L613.55 743.14 L666.76 743.14 L719.85 743.14 L773.07 743.14 L826.15 743.14 L879.37 743.14 L932.58 743.14 L985.67 743.14 L1038.88 743.14 L1091.97 743.14 L1145.18 743.14 L1198.39 743.14 L1251.48 743.14 L1304.70 743.14 L1357.79 743.14 L1411.00 743.14 L1464.09 743.14 L1517.30 743.14 L1570.51 743.14 L1623.60 743.14 L1676.81 743.14 L1729.90 743.14 L1783.11 743.14 L1836.33 743.14 L1889.41 743.14 L1942.63 743.14 L1995.72 743.14 L2048.93 743.14 L2102.14 743.14 L2155.23 743.14 L2208.44 743.14 L2261.53 743.14 L2314.74 743.14 L2367.83 743.14 L2421.05 743.14 L2474.26 743.14 L2527.35 743.14 L2580.56 743.14 L2633.65 743.14 L2686.86 743.14 L2740.07 743.14 L2793.16 743.14 L2846.37 743.14 L2899.46 743.14 L2952.68 743.14 L3005.89 743.14 L3058.98 743.14 L3112.19 743.14 L3165.28 743.14 L3218.49 743.14 L3271.58 743.14 L3324.79 743.14 L3378.00 743.14" stroke-linejoin="round" style="fill:none;stroke:#000000;stroke-opacity:0.20;stroke-width:23.04"/>
	<line x1="390.80" y1="2489.19" x2="390.80" y2="100.86" style="stroke:#000000;stroke-width:5.76"/>
	<line x1="390.80" y1="2425.82" x2="350.83" y2="2425.82" style="stroke:#000000;stroke-width:5.76"/>
	<text x="300.72" y="2425.82" style="font-family:'Helvetica';font-size:99.99px;fill:#000000" transform="rotate(-90 300.72,2425.82)" text-anchor="middle">-0.3</text>
	<line x1="390.80" y1="1864.97" x2="350.83" y2="1864.97" style="stroke:#000000;stroke-width:5.76"/>
	<text x="300.72" y="1864.97" style="font-family:'Helvetica';font-size:99.99px;fill:#000000" transform="rotate(-90 300.72,1864.97)" text-anchor="middle">-0.2</text>
	<line x1="390.80" y1="1303.99" x2="350.83" y2="1303.99" style="stroke:#000000;stroke-width:5.76"/>
	<text x="300.72" y="1303.99" style="font-family:'Helvetica';font-size:99.99px;fill:#000000" transform="rotate(-90 300.72,1303.99)" text-anchor="middle">-0.1</text>
	<line x1="390.80" y1="743.14" x2="350.83" y2="743.14" style="stroke:#000000;stroke-width:5.76"/>
	<text x="300.72" y="743.14" style="font-family:'Helvetica';font-size:99.99px;fill:#000000" transform="rotate(-90 300.72,743.14)" text-anchor="middle">0.0</text>
	<line x1="390.80" y1="182.17" x2="350.83" y2="182.17" style="stroke:#000000;stroke-width:5.76"/>
	<text x="300.72" y="182.17" style="font-family:'Helvetica';font-size:99.99px;fill:#000000" transform="rotate(-90 300.72,182.17)" text-anchor="middle">0.1</text>
	<text x="190.71" y="1294.96" style="font-family:'Helvetica';font-size:99.99px;fill:#000000" transform="rotate(-90 190.71,1294.96)" text-anchor="middle">Difference in RMST (years)</text>
	<line x1="390.80" y1="2489.19" x2="3859.02" y2="2489.19" style="stroke:#000000;stroke-width:5.76"/>
	<line x1="454.16" y1="2489.19" x2="454.16" y2="2529.16" style="stroke:#000000;stroke-width:5.76"/>
	<text x="454.16" y="2619.14" style="font-family:'Helvetica';font-size:99.99px;fill:#000000" text-anchor="middle">0</text>
	<line x1="1289.47" y1="2489.19" x2="1289.47" y2="2529.16" style="stroke:#000000;stroke-width:5.76"/>
	<text x="1289.47" y="2619.14" style="font-family:'Helvetica';font-size:99.99px;fill:#000000" text-anchor="middle">2</text>
	<line x1="2124.91" y1="2489.19" x2="2124.91" y2="2529.16" style="stroke:#000000;stroke-width:5.76"/>
	<text x="2124.91" y="2619.14" style="font-family:'Helvetica';font-size:99.99px;fill:#000000" text-anchor="middle">4</text>
	<line x1="2960.35" y1="2489.19" x2="2960.35" y2="2529.16" style="stroke:#000000;stroke-width:5.76"/>
	<text x="2960.35" y="2619.14" style="font-family:'Helvetica';font-size:99.99px;fill:#000000" text-anchor="middle">6</text>
	<line x1="3795.66" y1="2489.19" x2="3795.66" y2="2529.16" style="stroke:#000000;stroke-width:5.76"/>
	<text x="3795.66" y="2619.14" style="font-family:'Helvetica';font-size:99.99px;fill:#000000" text-anchor="middle">8</text>
	<text x="2124.91" y="2729.16" style="font-family:'Helvetica';font-size:99.99px;fill:#000000" text-anchor="middle">Years from baseline treatment outcome</text>
	<rect x="468.52" y="2031.42" width="374.47" height="99.99" style="fill:#4D4D4D;fill-opacity:0.35"/>
	<rect x="472.84" y="2035.74" width="365.83" height="91.35" style="fill:none;stroke:#202020;stroke-opacity:0.35;stroke-width:8.64"/>
	<rect x="468.52" y="2171.51" width="374.47" height="99.99" style="fill:#808080;fill-opacity:0.35"/>
	<rect x="472.84" y="2175.83" width="365.83" height="91.35" style="fill:none;stroke:#606060;stroke-opacity:0.35;stroke-width:8.64"/>
	<rect x="468.52" y="2311.47" width="374.47" height="99.99" style="fill:#B3B3B3;fill-opacity:0.35"/>
	<rect x="472.84" y="2315.79" width="365.83" height="91.35" style="fill:none;stroke:#A0A0A0;stroke-opacity:0.35;stroke-width:8.64"/>
	<text x="902.88" y="2116.44" style="font-family:'Helvetica';font-size:99.99px;fill:#000000">Early vs. Tr. completion</text>
	<text x="902.88" y="2256.53" style="font-family:'Helvetica';font-size:99.99px;fill:#000000">Late vs. Tr. completion</text>
	<text x="902.88" y="2396.50" style="font-family:'Helvetica';font-size:99.99px;fill:#000000">Late vs. Early dropout</text>
</svg>
