<?xml version="1.0" encoding="UTF-8" standalone="no"?>
<!-- This is a Stata 16.1 generated SVG file (http://www.stata.com) -->

<svg version="1.1" width="5.50in" height="4.00in" viewBox="0 0 3960 2880" xmlns="http://www.w3.org/2000/svg" xmlns:xlink="http://www.w3.org/1999/xlink">
	<desc>Stata Graph - RMSTdiff_fin_abc</desc>
	<rect x="0" y="0" width="3960" height="2880" style="fill:#FFFFFF;stroke:none"/>
	<rect x="0.00" y="0.00" width="3959.88" height="2880.00" style="fill:#FFFFFF"/>
	<rect x="2.88" y="2.88" width="3954.12" height="2874.24" style="fill:none;stroke:#FFFFFF;stroke-width:5.76"/>
	<rect x="390.80" y="100.86" width="3468.22" height="2388.33" style="fill:#FFFFFF"/>
	<rect x="393.68" y="103.74" width="3462.46" height="2382.57" style="fill:none;stroke:#000000;stroke-width:5.76"/>
	<defs>
		<path id="path_IjeQYEZQ" d="M562.44 178.45 L562.44 178.45 L670.73 211.50 L887.29 312.11 L995.57 374.60 L1103.85 443.16 L1212.13 516.92 L1320.54 594.76 L1753.66 937.06 L1861.94 1028.27 L1970.22 1121.21 L2078.51 1215.63 L2186.79 1311.42 L2295.07 1408.44 L2403.35 1506.46 L2511.63 1605.58 L2620.03 1705.58 L2728.32 1806.44 L2836.60 1908.16 L2944.88 2010.38 L3053.16 2113.47 L3269.72 2321.13 L3378.00 2425.82 L3378.00 1891.08 L3269.72 1815.10 L3053.16 1662.63 L2944.88 1586.28 L2836.60 1509.92 L2728.32 1433.56 L2620.03 1357.33 L2511.63 1281.22 L2403.35 1205.36 L2295.07 1129.87 L2186.79 1054.88 L2078.51 980.50 L1970.22 906.87 L1861.94 834.22 L1753.66 762.70 L1320.54 493.53 L1212.13 432.52 L1103.85 374.97 L995.57 321.76 L887.29 273.74 L670.73 198.01 L562.44 174.00 L562.44 178.45 Z" stroke-linejoin="round"/>
	</defs>
	<defs>
		<clipPath id="clipPath_SDbvhybN">
			<use xlink:href="#path_IjeQYEZQ"/>
		</clipPath>
	</defs>
	<use xlink:href="#path_IjeQYEZQ" style="stroke:none;fill:#4D4D4D;fill-opacity:0.35"/>
	<use xlink:href="#path_IjeQYEZQ" style="fill:none;stroke:#202020;stroke-opacity:0.35;stroke-width:17.28" clip-path="url(#clipPath_SDbvhybN)"/>
	<path d=" M454.04 164.22 L562.32 176.35 L670.60 204.81 L887.29 293.05 L995.57 348.24 L1103.85 409.13 L1212.13 474.72 L1320.41 544.27 L1753.54 849.94 L1861.82 931.25 L1970.22 1014.04 L2078.51 1098.07 L2186.79 1183.21 L2295.07 1269.22 L2403.35 1355.97 L2511.63 1443.47 L2619.91 1531.45 L2728.19 1620.06 L2836.47 1709.04 L2944.76 1798.39 L3053.04 1888.11 L3269.72 2068.17 L3378.00 2158.51" stroke-linejoin="round" style="fill:none;stroke:#202020;stroke-width:8.64"/>
	<defs>
		<path id="path_VjEwkQOU" d="M670.73 221.64 L670.73 221.64 L779.01 267.06 L995.57 390.20 L1428.82 701.56 L1537.10 791.41 L1645.38 884.59 L1753.66 980.63 L2186.79 1378.87 L2295.07 1478.86 L2728.32 1869.30 L3053.16 2148.49 L3161.44 2239.08 L3161.44 827.17 L3053.16 800.69 L2728.32 707.38 L2295.07 561.22 L2186.79 522.61 L1753.66 370.40 L1645.38 335.13 L1537.10 302.08 L1428.82 271.89 L995.57 186.99 L779.01 172.14 L670.73 173.75 L670.73 221.64 Z" stroke-linejoin="round"/>
	</defs>
	<defs>
		<clipPath id="clipPath_gMzWiIze">
			<use xlink:href="#path_VjEwkQOU"/>
		</clipPath>
	</defs>
	<use xlink:href="#path_VjEwkQOU" style="stroke:none;fill:#808080;fill-opacity:0.35"/>
	<use xlink:href="#path_VjEwkQOU" style="fill:none;stroke:#606060;stroke-opacity:0.35;stroke-width:17.28" clip-path="url(#clipPath_gMzWiIze)"/>
	<path d=" M454.04 164.22 L670.60 197.76 L779.01 219.66 L995.57 288.72 L1428.69 486.85 L1536.97 546.87 L1645.26 609.98 L1753.54 675.57 L2186.79 950.80 L2295.07 1020.10 L2728.19 1288.40 L3053.04 1474.65 L3161.32 1533.19" stroke-linejoin="round" style="fill:none;stroke:#606060;stroke-width:8.64"/>
	<defs>
		<path id="path_icraBzvY" d="M562.44 173.38 L562.44 173.38 L779.01 214.84 L887.29 240.70 L1103.85 296.39 L1212.13 325.35 L1320.54 354.80 L1428.82 384.38 L1537.10 414.08 L1645.38 443.78 L1861.94 503.06 L1970.22 532.39 L2078.51 561.60 L2403.35 648.35 L2511.63 676.81 L2620.03 705.15 L2728.32 733.37 L2836.60 761.46 L2944.88 789.30 L3161.44 844.50 L3269.72 871.85 L3378.00 899.07 L3378.00 263.72 L3269.72 268.17 L3161.44 271.89 L2944.88 277.21 L2836.60 278.69 L2728.32 279.44 L2620.03 279.44 L2511.63 278.57 L2403.35 277.08 L2078.51 267.80 L1970.22 263.35 L1861.94 258.03 L1645.38 245.53 L1537.10 238.35 L1428.82 230.55 L1320.54 222.39 L1212.13 213.85 L1103.85 205.06 L887.29 187.61 L779.01 179.44 L562.44 166.70 L562.44 173.38 Z" stroke-linejoin="round"/>
	</defs>
	<defs>
		<clipPath id="clipPath_KCOnGIal">
			<use xlink:href="#path_icraBzvY"/>
		</clipPath>
	</defs>
	<use xlink:href="#path_icraBzvY" style="stroke:none;fill:#B3B3B3;fill-opacity:0.35"/>
	<use xlink:href="#path_icraBzvY" style="fill:none;stroke:#A0A0A0;stroke-opacity:0.35;stroke-width:17.28" clip-path="url(#clipPath_KCOnGIal)"/>
	<path d=" M562.32 170.04 L779.01 197.26 L887.29 214.22 L1103.85 250.85 L1212.13 269.66 L1320.41 288.59 L1428.69 307.53 L1536.97 326.22 L1645.26 344.78 L1861.82 380.54 L1970.22 397.87 L2078.51 414.82 L2403.35 462.72 L2511.63 477.81 L2619.91 492.42 L2728.19 506.40 L2836.47 520.14 L2944.76 533.26 L3161.32 558.25 L3269.72 570.13 L3378.00 581.52" stroke-linejoin="round" style="fill:none;stroke:#A0A0A0;stroke-width:8.64"/>
	<path d=" M454.04 164.22 L562.32 164.22 L670.60 164.22 L779.01 164.22 L887.29 164.22 L995.57 164.22 L1103.85 164.22 L1212.13 164.22 L1320.41 164.22 L1428.69 164.22 L1536.97 164.22 L1645.26 164.22 L1753.54 164.22 L1861.82 164.22 L1970.22 164.22 L2078.51 164.22 L2186.79 164.22 L2295.07 164.22 L2403.35 164.22 L2511.63 164.22 L2619.91 164.22 L2728.19 164.22 L2836.47 164.22 L2944.76 164.22 L3053.04 164.22 L3161.32 164.22 L3269.72 164.22 L3378.00 164.22" stroke-linejoin="round" style="fill:none;stroke:#000000;stroke-opacity:0.20;stroke-width:23.04"/>
	<line x1="390.80" y1="2489.19" x2="390.80" y2="100.86" style="stroke:#000000;stroke-width:5.76"/>
	<line x1="390.80" y1="2296.01" x2="350.83" y2="2296.01" style="stroke:#000000;stroke-width:5.76"/>
	<text x="300.72" y="2296.01" style="font-family:'Helvetica';font-size:99.99px;fill:#000000" transform="rotate(-90 300.72,2296.01)" text-anchor="middle">-0.50</text>
	<line x1="390.80" y1="1869.67" x2="350.83" y2="1869.67" style="stroke:#000000;stroke-width:5.76"/>
	<text x="300.72" y="1869.67" style="font-family:'Helvetica';font-size:99.99px;fill:#000000" transform="rotate(-90 300.72,1869.67)" text-anchor="middle">-0.40</text>
	<line x1="390.80" y1="1443.22" x2="350.83" y2="1443.22" style="stroke:#000000;stroke-width:5.76"/>
	<text x="300.72" y="1443.22" style="font-family:'Helvetica';font-size:99.99px;fill:#000000" transform="rotate(-90 300.72,1443.22)" text-anchor="middle">-0.30</text>
	<line x1="390.80" y1="1016.89" x2="350.83" y2="1016.89" style="stroke:#000000;stroke-width:5.76"/>
	<text x="300.72" y="1016.89" style="font-family:'Helvetica';font-size:99.99px;fill:#000000" transform="rotate(-90 300.72,1016.89)" text-anchor="middle">-0.20</text>
	<line x1="390.80" y1="590.55" x2="350.83" y2="590.55" style="stroke:#000000;stroke-width:5.76"/>
	<text x="300.72" y="590.55" style="font-family:'Helvetica';font-size:99.99px;fill:#000000" transform="rotate(-90 300.72,590.55)" text-anchor="middle">-0.10</text>
	<line x1="390.80" y1="164.22" x2="350.83" y2="164.22" style="stroke:#000000;stroke-width:5.76"/>
	<text x="300.72" y="164.22" style="font-family:'Helvetica';font-size:99.99px;fill:#000000" transform="rotate(-90 300.72,164.22)" text-anchor="middle">0.00</text>
	<text x="190.71" y="1294.96" style="font-family:'Helvetica';font-size:99.99px;fill:#000000" transform="rotate(-90 190.71,1294.96)" text-anchor="middle">Difference in RMST (years)</text>
	<line x1="390.80" y1="2489.19" x2="3859.02" y2="2489.19" style="stroke:#000000;stroke-width:5.76"/>
	<line x1="454.16" y1="2489.19" x2="454.16" y2="2529.16" style="stroke:#000000;stroke-width:5.76"/>
	<text x="454.16" y="2619.14" style="font-family:'Helvetica';font-size:99.99px;fill:#000000" text-anchor="middle">0</text>
	<line x1="1289.47" y1="2489.19" x2="1289.47" y2="2529.16" style="stroke:#000000;stroke-width:5.76"/>
	<text x="1289.47" y="2619.14" style="font-family:'Helvetica';font-size:99.99px;fill:#000000" text-anchor="middle">2</text>
	<line x1="2124.91" y1="2489.19" x2="2124.91" y2="2529.16" style="stroke:#000000;stroke-width:5.76"/>
	<text x="2124.91" y="2619.14" style="font-family:'Helvetica';font-size:99.99px;fill:#000000" text-anchor="middle">4</text>
	<line x1="2960.35" y1="2489.19" x2="2960.35" y2="2529.16" style="stroke:#000000;stroke-width:5.76"/>
	<text x="2960.35" y="2619.14" style="font-family:'Helvetica';font-size:99.99px;fill:#000000" text-anchor="middle">6</text>
	<line x1="3795.66" y1="2489.19" x2="3795.66" y2="2529.16" style="stroke:#000000;stroke-width:5.76"/>
	<text x="3795.66" y="2619.14" style="font-family:'Helvetica';font-size:99.99px;fill:#000000" text-anchor="middle">8</text>
	<text x="2124.91" y="2729.16" style="font-family:'Helvetica';font-size:99.99px;fill:#000000" text-anchor="middle">Years from baseline treatment outcome</text>
	<rect x="468.52" y="2031.42" width="374.47" height="99.99" style="fill:#4D4D4D;fill-opacity:0.35"/>
	<rect x="472.84" y="2035.74" width="365.83" height="91.35" style="fill:none;stroke:#202020;stroke-opacity:0.35;stroke-width:8.64"/>
	<rect x="468.52" y="2171.51" width="374.47" height="99.99" style="fill:#808080;fill-opacity:0.35"/>
	<rect x="472.84" y="2175.83" width="365.83" height="91.35" style="fill:none;stroke:#606060;stroke-opacity:0.35;stroke-width:8.64"/>
	<rect x="468.52" y="2311.47" width="374.47" height="99.99" style="fill:#B3B3B3;fill-opacity:0.35"/>
	<rect x="472.84" y="2315.79" width="365.83" height="91.35" style="fill:none;stroke:#A0A0A0;stroke-opacity:0.35;stroke-width:8.64"/>
	<text x="902.88" y="2116.44" style="font-family:'Helvetica';font-size:99.99px;fill:#000000">Late dropout vs. Tr. completion</text>
	<text x="902.88" y="2256.53" style="font-family:'Helvetica';font-size:99.99px;fill:#000000">Early dropout vs. Tr. completion</text>
	<text x="902.88" y="2396.50" style="font-family:'Helvetica';font-size:99.99px;fill:#000000">Early vs. late dropout</text>
</svg>
