<?xml version="1.0" encoding="UTF-8" standalone="no"?>
<!-- This is a Stata 16.1 generated SVG file (http://www.stata.com) -->

<svg version="1.1" width="5.50in" height="4.00in" viewBox="0 0 3960 2880" xmlns="http://www.w3.org/2000/svg" xmlns:xlink="http://www.w3.org/1999/xlink">
	<desc>Stata Graph - s_diff</desc>
	<rect x="0" y="0" width="3960" height="2880" style="fill:#FFFFFF;stroke:none"/>
	<rect x="0.00" y="0.00" width="3959.88" height="2880.00" style="fill:#FFFFFF"/>
	<rect x="2.88" y="2.88" width="3954.12" height="2874.24" style="fill:none;stroke:#FFFFFF;stroke-width:5.76"/>
	<rect x="390.80" y="100.86" width="3468.22" height="2388.33" style="fill:#FFFFFF"/>
	<rect x="393.68" y="103.74" width="3462.46" height="2382.57" style="fill:none;stroke:#FFFFFF;stroke-width:5.76"/>
	<line x1="390.80" y1="2425.82" x2="3859.02" y2="2425.82" style="stroke:#EAF2F3;stroke-width:8.64"/>
	<line x1="390.80" y1="1860.39" x2="3859.02" y2="1860.39" style="stroke:#EAF2F3;stroke-width:8.64"/>
	<line x1="390.80" y1="1294.96" x2="3859.02" y2="1294.96" style="stroke:#EAF2F3;stroke-width:8.64"/>
	<line x1="390.80" y1="729.53" x2="3859.02" y2="729.53" style="stroke:#EAF2F3;stroke-width:8.64"/>
	<line x1="390.80" y1="164.22" x2="3859.02" y2="164.22" style="stroke:#EAF2F3;stroke-width:8.64"/>
	<defs>
		<path id="path_CPTEfiVK" d="M454.16 729.53 L454.16 729.53 L562.44 1117.37 L670.73 1337.28 L779.01 1493.46 L887.29 1610.53 L995.57 1700.25 L1103.85 1771.54 L1212.13 1830.57 L1320.54 1880.69 L1428.82 1923.51 L1537.10 1959.64 L1645.38 1989.84 L1753.66 2014.84 L1861.94 2035.26 L1970.22 2052.33 L2078.51 2066.44 L2186.79 2078.32 L2295.07 2088.35 L2403.35 2096.76 L2511.63 2104.06 L2620.03 2110.37 L2728.32 2115.70 L2836.60 2120.28 L2944.88 2124.36 L3053.16 2127.82 L3161.44 2130.79 L3269.72 2133.52 L3378.00 2135.74 L3378.00 1860.89 L3269.72 1862.74 L3161.44 1864.35 L3053.16 1865.47 L2944.88 1866.33 L2836.60 1866.58 L2728.32 1866.33 L2620.03 1865.47 L2511.63 1863.73 L2403.35 1860.89 L2295.07 1857.05 L2186.79 1851.73 L2078.51 1844.55 L1970.22 1835.27 L1861.94 1823.39 L1753.66 1808.17 L1645.38 1788.74 L1537.10 1764.36 L1428.82 1734.41 L1320.54 1698.03 L1212.13 1654.71 L1103.85 1603.11 L995.57 1540.12 L887.29 1460.79 L779.01 1357.70 L670.73 1221.57 L562.44 1034.58 L454.16 729.53 L454.16 729.53 Z" stroke-linejoin="round"/>
	</defs>
	<defs>
		<clipPath id="clipPath_xDcxMTHt">
			<use xlink:href="#path_CPTEfiVK"/>
		</clipPath>
	</defs>
	<use xlink:href="#path_CPTEfiVK" style="stroke:none;fill:#4D4D4D;fill-opacity:0.35"/>
	<use xlink:href="#path_CPTEfiVK" style="fill:none;stroke:#202020;stroke-opacity:0.35;stroke-width:17.28" clip-path="url(#clipPath_xDcxMTHt)"/>
	<path d=" M454.04 729.65 L562.32 1076.04 L670.60 1279.49 L779.01 1425.64 L887.29 1535.66 L995.57 1620.31 L1103.85 1687.38 L1212.13 1742.70 L1320.41 1789.48 L1428.69 1828.96 L1536.97 1862.12 L1645.26 1889.35 L1753.54 1911.50 L1861.82 1929.45 L1970.22 1943.80 L2078.51 1955.56 L2186.79 1965.09 L2295.07 1972.76 L2403.35 1978.95 L2511.63 1983.90 L2619.91 1987.98 L2728.19 1991.08 L2836.47 1993.55 L2944.76 1995.41 L3053.04 1996.77 L3161.32 1997.63 L3269.72 1998.13 L3378.00 1998.38" stroke-linejoin="round" style="fill:none;stroke:#202020;stroke-width:8.64"/>
	<defs>
		<path id="path_ilSGEshz" d="M454.16 729.53 L454.16 729.53 L562.44 1001.79 L670.73 1170.71 L779.01 1295.95 L887.29 1393.10 L995.57 1469.82 L1103.85 1532.44 L1212.13 1585.41 L1320.54 1631.57 L1428.82 1671.67 L1537.10 1706.32 L1645.38 1736.14 L1753.66 1761.51 L1861.94 1783.17 L1970.22 1801.73 L2078.51 1817.82 L2186.79 1831.93 L2295.07 1844.30 L2403.35 1855.32 L2511.63 1865.09 L2620.03 1874.00 L2728.32 1881.93 L2836.60 1889.23 L2944.88 1895.91 L3053.16 1901.97 L3161.44 1907.67 L3269.72 1912.86 L3378.00 1917.81 L3378.00 1681.94 L3269.72 1680.95 L3161.44 1679.46 L3053.16 1677.73 L2944.88 1675.63 L2836.60 1672.90 L2728.32 1669.56 L2620.03 1665.60 L2511.63 1660.90 L2403.35 1655.21 L2295.07 1648.40 L2186.79 1640.23 L2078.51 1630.46 L1970.22 1618.70 L1861.94 1604.72 L1753.66 1587.76 L1645.38 1567.22 L1537.10 1542.59 L1428.82 1513.39 L1320.54 1478.98 L1212.13 1439.01 L1103.85 1392.48 L995.57 1337.41 L887.29 1269.84 L779.01 1185.31 L670.73 1077.77 L562.44 937.06 L454.16 729.53 L454.16 729.53 Z" stroke-linejoin="round"/>
	</defs>
	<defs>
		<clipPath id="clipPath_qaaScVDt">
			<use xlink:href="#path_ilSGEshz"/>
		</clipPath>
	</defs>
	<use xlink:href="#path_ilSGEshz" style="stroke:none;fill:#808080;fill-opacity:0.35"/>
	<use xlink:href="#path_ilSGEshz" style="fill:none;stroke:#606060;stroke-opacity:0.35;stroke-width:17.28" clip-path="url(#clipPath_qaaScVDt)"/>
	<path d=" M454.04 729.65 L562.32 969.49 L670.60 1124.30 L779.01 1240.63 L887.29 1331.59 L995.57 1403.62 L1103.85 1462.52 L1212.13 1512.27 L1320.41 1555.34 L1428.69 1592.59 L1536.97 1624.52 L1645.26 1651.74 L1753.54 1674.76 L1861.82 1693.94 L1970.22 1710.28 L2078.51 1724.14 L2186.79 1736.14 L2295.07 1746.41 L2403.35 1755.32 L2511.63 1763.12 L2619.91 1769.93 L2728.19 1775.87 L2836.47 1781.19 L2944.76 1785.77 L3053.04 1789.98 L3161.32 1793.69 L3269.72 1796.91 L3378.00 1799.88" stroke-linejoin="round" style="fill:none;stroke:#606060;stroke-width:8.64"/>
	<defs>
		<path id="path_mtEshPRd" d="M454.16 729.53 L454.16 729.53 L562.44 662.21 L670.73 628.05 L779.01 606.64 L887.29 593.03 L995.57 584.49 L1103.85 579.42 L1212.13 576.69 L1320.54 575.46 L1428.82 575.70 L1537.10 576.82 L1645.38 578.92 L1753.66 581.77 L1861.94 585.11 L1970.22 588.82 L2078.51 592.78 L2186.79 596.99 L2295.07 601.32 L2403.35 605.78 L2511.63 610.23 L2620.03 614.69 L2728.32 619.14 L2836.60 623.47 L2944.88 627.93 L3053.16 632.26 L3161.44 636.59 L3269.72 640.80 L3378.00 645.01 L3378.00 417.17 L3269.72 415.94 L3161.44 414.70 L3053.16 413.34 L2944.88 412.10 L2836.60 410.86 L2728.32 409.63 L2620.03 408.39 L2511.63 407.27 L2403.35 406.16 L2295.07 405.05 L2186.79 404.18 L2078.51 403.56 L1970.22 403.19 L1861.94 403.19 L1753.66 403.69 L1645.38 405.05 L1537.10 407.27 L1428.82 410.62 L1320.54 415.32 L1212.13 421.63 L1103.85 430.04 L995.57 441.43 L887.29 457.77 L779.01 482.64 L670.73 520.76 L562.44 583.75 L454.16 729.53 L454.16 729.53 Z" stroke-linejoin="round"/>
	</defs>
	<defs>
		<clipPath id="clipPath_ifMUucmH">
			<use xlink:href="#path_mtEshPRd"/>
		</clipPath>
	</defs>
	<use xlink:href="#path_mtEshPRd" style="stroke:none;fill:#B3B3B3;fill-opacity:0.35"/>
	<use xlink:href="#path_mtEshPRd" style="fill:none;stroke:#A0A0A0;stroke-opacity:0.35;stroke-width:17.28" clip-path="url(#clipPath_ifMUucmH)"/>
	<path d=" M454.04 729.65 L562.32 623.10 L670.60 574.47 L779.01 544.64 L887.29 525.46 L995.57 512.96 L1103.85 504.79 L1212.13 499.22 L1320.41 495.51 L1428.69 493.16 L1536.97 492.17 L1645.26 492.05 L1753.54 492.79 L1861.82 494.15 L1970.22 496.13 L2078.51 498.23 L2186.79 500.71 L2295.07 503.31 L2403.35 506.03 L2511.63 508.75 L2619.91 511.60 L2728.19 514.44 L2836.47 517.29 L2944.76 520.14 L3053.04 522.86 L3161.32 525.71 L3269.72 528.43 L3378.00 531.15" stroke-linejoin="round" style="fill:none;stroke:#A0A0A0;stroke-width:8.64"/>
	<path d=" M454.04 729.65 L562.32 729.65 L670.60 729.65 L779.01 729.65 L887.29 729.65 L995.57 729.65 L1103.85 729.65 L1212.13 729.65 L1320.41 729.65 L1428.69 729.65 L1536.97 729.65 L1645.26 729.65 L1753.54 729.65 L1861.82 729.65 L1970.22 729.65 L2078.51 729.65 L2186.79 729.65 L2295.07 729.65 L2403.35 729.65 L2511.63 729.65 L2619.91 729.65 L2728.19 729.65 L2836.47 729.65 L2944.76 729.65 L3053.04 729.65 L3161.32 729.65 L3269.72 729.65 L3378.00 729.65" stroke-linejoin="round" style="fill:none;stroke:#000000;stroke-opacity:0.20;stroke-width:23.04"/>
	<line x1="390.80" y1="2489.19" x2="390.80" y2="100.86" style="stroke:#000000;stroke-width:5.76"/>
	<line x1="390.80" y1="2425.82" x2="350.83" y2="2425.82" style="stroke:#000000;stroke-width:5.76"/>
	<text x="300.72" y="2425.82" style="font-family:'Helvetica';font-size:99.99px;fill:#000000" transform="rotate(-90 300.72,2425.82)" text-anchor="middle">-0.15</text>
	<line x1="390.80" y1="1860.39" x2="350.83" y2="1860.39" style="stroke:#000000;stroke-width:5.76"/>
	<text x="300.72" y="1860.39" style="font-family:'Helvetica';font-size:99.99px;fill:#000000" transform="rotate(-90 300.72,1860.39)" text-anchor="middle">-0.10</text>
	<line x1="390.80" y1="1294.96" x2="350.83" y2="1294.96" style="stroke:#000000;stroke-width:5.76"/>
	<text x="300.72" y="1294.96" style="font-family:'Helvetica';font-size:99.99px;fill:#000000" transform="rotate(-90 300.72,1294.96)" text-anchor="middle">-0.05</text>
	<line x1="390.80" y1="729.53" x2="350.83" y2="729.53" style="stroke:#000000;stroke-width:5.76"/>
	<text x="300.72" y="729.53" style="font-family:'Helvetica';font-size:99.99px;fill:#000000" transform="rotate(-90 300.72,729.53)" text-anchor="middle">0.00</text>
	<line x1="390.80" y1="164.22" x2="350.83" y2="164.22" style="stroke:#000000;stroke-width:5.76"/>
	<text x="300.72" y="164.22" style="font-family:'Helvetica';font-size:99.99px;fill:#000000" transform="rotate(-90 300.72,164.22)" text-anchor="middle">0.05</text>
	<text x="190.71" y="1294.96" style="font-family:'Helvetica';font-size:99.99px;fill:#000000" transform="rotate(-90 190.71,1294.96)" text-anchor="middle">Difference in Survival (years)</text>
	<line x1="390.80" y1="2489.19" x2="3859.02" y2="2489.19" style="stroke:#000000;stroke-width:5.76"/>
	<line x1="454.16" y1="2489.19" x2="454.16" y2="2529.16" style="stroke:#000000;stroke-width:5.76"/>
	<text x="454.16" y="2619.14" style="font-family:'Helvetica';font-size:99.99px;fill:#000000" text-anchor="middle">0</text>
	<line x1="1289.47" y1="2489.19" x2="1289.47" y2="2529.16" style="stroke:#000000;stroke-width:5.76"/>
	<text x="1289.47" y="2619.14" style="font-family:'Helvetica';font-size:99.99px;fill:#000000" text-anchor="middle">2</text>
	<line x1="2124.91" y1="2489.19" x2="2124.91" y2="2529.16" style="stroke:#000000;stroke-width:5.76"/>
	<text x="2124.91" y="2619.14" style="font-family:'Helvetica';font-size:99.99px;fill:#000000" text-anchor="middle">4</text>
	<line x1="2960.35" y1="2489.19" x2="2960.35" y2="2529.16" style="stroke:#000000;stroke-width:5.76"/>
	<text x="2960.35" y="2619.14" style="font-family:'Helvetica';font-size:99.99px;fill:#000000" text-anchor="middle">6</text>
	<line x1="3795.66" y1="2489.19" x2="3795.66" y2="2529.16" style="stroke:#000000;stroke-width:5.76"/>
	<text x="3795.66" y="2619.14" style="font-family:'Helvetica';font-size:99.99px;fill:#000000" text-anchor="middle">8</text>
	<text x="2124.91" y="2729.16" style="font-family:'Helvetica';font-size:99.99px;fill:#000000" text-anchor="middle">Years from baseline treatment outcome</text>
	<rect x="468.52" y="2031.42" width="374.47" height="99.99" style="fill:#4D4D4D;fill-opacity:0.35"/>
	<rect x="472.84" y="2035.74" width="365.83" height="91.35" style="fill:none;stroke:#202020;stroke-opacity:0.35;stroke-width:8.64"/>
	<rect x="468.52" y="2171.51" width="374.47" height="99.99" style="fill:#808080;fill-opacity:0.35"/>
	<rect x="472.84" y="2175.83" width="365.83" height="91.35" style="fill:none;stroke:#606060;stroke-opacity:0.35;stroke-width:8.64"/>
	<rect x="468.52" y="2311.47" width="374.47" height="99.99" style="fill:#B3B3B3;fill-opacity:0.35"/>
	<rect x="472.84" y="2315.79" width="365.83" height="91.35" style="fill:none;stroke:#A0A0A0;stroke-opacity:0.35;stroke-width:8.64"/>
	<text x="902.88" y="2116.44" style="font-family:'Helvetica';font-size:99.99px;fill:#000000">Early vs. Tr. completion</text>
	<text x="902.88" y="2256.53" style="font-family:'Helvetica';font-size:99.99px;fill:#000000">Late vs. Tr. completion</text>
	<text x="902.88" y="2396.50" style="font-family:'Helvetica';font-size:99.99px;fill:#000000">Late vs. Early dropout</text>
</svg>
