<?xml version="1.0" encoding="UTF-8" standalone="no"?>
<!-- This is a Stata 16.1 generated SVG file (http://www.stata.com) -->

<svg version="1.1" width="5.50in" height="4.00in" viewBox="0 0 3960 2880" xmlns="http://www.w3.org/2000/svg" xmlns:xlink="http://www.w3.org/1999/xlink">
	<desc>Stata Graph - rmst_std_fin_a</desc>
	<rect x="0" y="0" width="3960" height="2880" style="fill:#FFFFFF;stroke:none"/>
	<rect x="0.00" y="0.00" width="3959.88" height="2880.00" style="fill:#FFFFFF"/>
	<rect x="2.88" y="2.88" width="3954.12" height="2874.24" style="fill:none;stroke:#FFFFFF;stroke-width:5.76"/>
	<rect x="390.80" y="100.86" width="3468.22" height="2388.33" style="fill:#FFFFFF"/>
	<rect x="393.68" y="103.74" width="3462.46" height="2382.57" style="fill:none;stroke:#FFFFFF;stroke-width:5.76"/>
	<line x1="390.80" y1="2425.82" x2="3859.02" y2="2425.82" style="stroke:#EAF2F3;stroke-width:8.64"/>
	<line x1="390.80" y1="1671.91" x2="3859.02" y2="1671.91" style="stroke:#EAF2F3;stroke-width:8.64"/>
	<line x1="390.80" y1="918.01" x2="3859.02" y2="918.01" style="stroke:#EAF2F3;stroke-width:8.64"/>
	<line x1="390.80" y1="164.22" x2="3859.02" y2="164.22" style="stroke:#EAF2F3;stroke-width:8.64"/>
	<defs>
		<path id="path_Nxajhycl" d="M562.44 2329.67 L562.44 2329.67 L670.73 2236.23 L887.29 2056.29 L995.57 1969.17 L1103.85 1883.91 L1212.13 1800.25 L1320.54 1718.07 L1753.66 1402.63 L1861.94 1326.64 L1970.22 1251.65 L2078.51 1177.64 L2186.79 1104.63 L2295.07 1032.35 L2403.35 960.95 L2511.63 890.41 L2620.03 820.61 L2728.32 751.43 L2836.60 683.12 L2944.88 615.43 L3053.16 548.35 L3269.72 416.18 L3378.00 350.97 L3378.00 315.32 L3269.72 382.52 L3053.16 518.40 L2944.88 587.21 L2836.60 656.64 L2728.32 726.81 L2620.03 797.47 L2511.63 869.00 L2403.35 941.15 L2295.07 1014.04 L2186.79 1087.67 L2078.51 1162.17 L1970.22 1237.66 L1861.94 1313.89 L1753.66 1391.24 L1320.54 1711.52 L1212.13 1794.80 L1103.85 1879.57 L995.57 1965.83 L887.29 2053.82 L670.73 2235.37 L562.44 2329.42 L562.44 2329.67 Z" stroke-linejoin="round"/>
	</defs>
	<defs>
		<clipPath id="clipPath_sybIaGQT">
			<use xlink:href="#path_Nxajhycl"/>
		</clipPath>
	</defs>
	<use xlink:href="#path_Nxajhycl" style="stroke:none;fill:#8D8D8D;fill-opacity:0.35"/>
	<use xlink:href="#path_Nxajhycl" style="fill:none;stroke:#707070;stroke-opacity:0.35;stroke-width:17.28" clip-path="url(#clipPath_sybIaGQT)"/>
	<defs>
		<path id="path_TYhsZYxA" d="M562.44 2330.78 L562.44 2330.78 L670.73 2239.94 L887.29 2067.93 L995.57 1986.00 L1103.85 1906.30 L1212.13 1828.59 L1320.54 1752.73 L1753.66 1465.49 L1861.94 1397.06 L1970.22 1329.74 L2078.51 1263.53 L2186.79 1198.31 L2295.07 1134.08 L2403.35 1070.72 L2511.63 1008.22 L2620.03 946.47 L2728.32 885.58 L2836.60 825.44 L2944.88 765.91 L3053.16 707.13 L3269.72 591.42 L3378.00 534.62 L3378.00 510.36 L3269.72 568.40 L3053.16 686.34 L2944.88 746.24 L2836.60 806.88 L2728.32 868.13 L2620.03 930.13 L2511.63 992.88 L2403.35 1056.36 L2295.07 1120.84 L2186.79 1186.06 L2078.51 1252.27 L1970.22 1319.46 L1861.94 1387.65 L1753.66 1456.95 L1320.54 1747.78 L1212.13 1824.38 L1103.85 1902.84 L995.57 1983.28 L887.29 2065.95 L670.73 2239.20 L562.44 2330.53 L562.44 2330.78 Z" stroke-linejoin="round"/>
	</defs>
	<defs>
		<clipPath id="clipPath_SVSrUyzd">
			<use xlink:href="#path_TYhsZYxA"/>
		</clipPath>
	</defs>
	<use xlink:href="#path_TYhsZYxA" style="stroke:none;fill:#4D4D4D;fill-opacity:0.35"/>
	<use xlink:href="#path_TYhsZYxA" style="fill:none;stroke:#202020;stroke-opacity:0.35;stroke-width:17.28" clip-path="url(#clipPath_SVSrUyzd)"/>
	<path d=" M454.04 2425.95 L562.32 2329.54 L670.60 2235.86 L887.29 2055.06 L995.57 1967.56 L1103.85 1881.80 L1212.13 1797.52 L1320.41 1714.86 L1753.54 1396.93 L1861.82 1320.33 L1970.22 1244.72 L2078.51 1169.97 L2186.79 1096.21 L2295.07 1023.32 L2403.35 951.17 L2511.63 879.77 L2619.91 809.10 L2728.19 739.18 L2836.47 670.00 L2944.76 601.44 L3053.04 533.50 L3269.72 399.48 L3378.00 333.27" stroke-linejoin="round" style="fill:none;stroke:#707070;stroke-width:23.04"/>
	<path d=" M454.04 2425.95 L562.32 2330.66 L670.60 2239.57 L887.29 2067.06 L995.57 1984.76 L1103.85 1904.57 L1212.13 1826.48 L1320.41 1750.25 L1753.54 1461.29 L1861.82 1392.35 L1970.22 1324.66 L2078.51 1257.96 L2186.79 1192.24 L2295.07 1127.52 L2403.35 1063.66 L2511.63 1000.67 L2619.91 938.43 L2728.19 876.92 L2836.47 816.16 L2944.76 756.14 L3053.04 696.86 L3269.72 580.03 L3378.00 522.49" stroke-linejoin="round" style="fill:none;stroke:#202020;stroke-width:23.04"/>
	<line x1="390.80" y1="2489.19" x2="390.80" y2="100.86" style="stroke:#000000;stroke-width:5.76"/>
	<line x1="390.80" y1="2425.82" x2="350.83" y2="2425.82" style="stroke:#000000;stroke-width:5.76"/>
	<text x="300.72" y="2425.82" style="font-family:'Helvetica';font-size:99.99px;fill:#000000" transform="rotate(-90 300.72,2425.82)" text-anchor="middle">0</text>
	<line x1="390.80" y1="1671.91" x2="350.83" y2="1671.91" style="stroke:#000000;stroke-width:5.76"/>
	<text x="300.72" y="1671.91" style="font-family:'Helvetica';font-size:99.99px;fill:#000000" transform="rotate(-90 300.72,1671.91)" text-anchor="middle">2</text>
	<line x1="390.80" y1="918.01" x2="350.83" y2="918.01" style="stroke:#000000;stroke-width:5.76"/>
	<text x="300.72" y="918.01" style="font-family:'Helvetica';font-size:99.99px;fill:#000000" transform="rotate(-90 300.72,918.01)" text-anchor="middle">4</text>
	<line x1="390.80" y1="164.22" x2="350.83" y2="164.22" style="stroke:#000000;stroke-width:5.76"/>
	<text x="300.72" y="164.22" style="font-family:'Helvetica';font-size:99.99px;fill:#000000" transform="rotate(-90 300.72,164.22)" text-anchor="middle">6</text>
	<text x="190.71" y="1294.96" style="font-family:'Helvetica';font-size:99.99px;fill:#000000" transform="rotate(-90 190.71,1294.96)" text-anchor="middle">Restricted Mean Survival Times (standardized)</text>
	<line x1="390.80" y1="2489.19" x2="3859.02" y2="2489.19" style="stroke:#000000;stroke-width:5.76"/>
	<line x1="454.16" y1="2489.19" x2="454.16" y2="2529.16" style="stroke:#000000;stroke-width:5.76"/>
	<text x="454.16" y="2619.14" style="font-family:'Helvetica';font-size:99.99px;fill:#000000" text-anchor="middle">0</text>
	<line x1="1289.47" y1="2489.19" x2="1289.47" y2="2529.16" style="stroke:#000000;stroke-width:5.76"/>
	<text x="1289.47" y="2619.14" style="font-family:'Helvetica';font-size:99.99px;fill:#000000" text-anchor="middle">2</text>
	<line x1="2124.91" y1="2489.19" x2="2124.91" y2="2529.16" style="stroke:#000000;stroke-width:5.76"/>
	<text x="2124.91" y="2619.14" style="font-family:'Helvetica';font-size:99.99px;fill:#000000" text-anchor="middle">4</text>
	<line x1="2960.35" y1="2489.19" x2="2960.35" y2="2529.16" style="stroke:#000000;stroke-width:5.76"/>
	<text x="2960.35" y="2619.14" style="font-family:'Helvetica';font-size:99.99px;fill:#000000" text-anchor="middle">6</text>
	<line x1="3795.66" y1="2489.19" x2="3795.66" y2="2529.16" style="stroke:#000000;stroke-width:5.76"/>
	<text x="3795.66" y="2619.14" style="font-family:'Helvetica';font-size:99.99px;fill:#000000" text-anchor="middle">8</text>
	<text x="2124.91" y="2729.16" style="font-family:'Helvetica';font-size:99.99px;fill:#000000" text-anchor="middle">Years from treatment outcome</text>
	<rect x="2690.70" y="2171.51" width="374.34" height="99.99" style="fill:#8D8D8D;fill-opacity:0.35"/>
	<rect x="2695.02" y="2175.83" width="365.70" height="91.35" style="fill:none;stroke:#707070;stroke-opacity:0.35;stroke-width:8.64"/>
	<rect x="2690.70" y="2311.47" width="374.34" height="99.99" style="fill:#4D4D4D;fill-opacity:0.35"/>
	<rect x="2695.02" y="2315.79" width="365.70" height="91.35" style="fill:none;stroke:#202020;stroke-opacity:0.35;stroke-width:8.64"/>
	<text x="3125.06" y="2256.53" style="font-family:'Helvetica';font-size:99.99px;fill:#000000">Tr. completion</text>
	<text x="3125.06" y="2396.50" style="font-family:'Helvetica';font-size:99.99px;fill:#000000">Late dropout</text>
</svg>
