<?xml version="1.0" encoding="UTF-8" standalone="no"?>
<!-- This is a Stata 16.1 generated SVG file (http://www.stata.com) -->

<svg version="1.1" width="5.50in" height="4.00in" viewBox="0 0 3960 2880" xmlns="http://www.w3.org/2000/svg" xmlns:xlink="http://www.w3.org/1999/xlink">
	<desc>Stata Graph - s_diff</desc>
	<rect x="0" y="0" width="3960" height="2880" style="fill:#FFFFFF;stroke:none"/>
	<rect x="0.00" y="0.00" width="3959.88" height="2880.00" style="fill:#FFFFFF"/>
	<rect x="2.88" y="2.88" width="3954.12" height="2874.24" style="fill:none;stroke:#FFFFFF;stroke-width:5.76"/>
	<rect x="390.80" y="100.86" width="3468.22" height="2388.33" style="fill:#FFFFFF"/>
	<rect x="393.68" y="103.74" width="3462.46" height="2382.57" style="fill:none;stroke:#FFFFFF;stroke-width:5.76"/>
	<line x1="390.80" y1="1860.39" x2="3859.02" y2="1860.39" style="stroke:#EAF2F3;stroke-width:8.64"/>
	<line x1="390.80" y1="1294.96" x2="3859.02" y2="1294.96" style="stroke:#EAF2F3;stroke-width:8.64"/>
	<line x1="390.80" y1="729.53" x2="3859.02" y2="729.53" style="stroke:#EAF2F3;stroke-width:8.64"/>
	<line x1="390.80" y1="164.22" x2="3859.02" y2="164.22" style="stroke:#EAF2F3;stroke-width:8.64"/>
	<defs>
		<path id="path_PosycJSW" d="M454.16 729.53 L454.16 729.53 L562.44 964.54 L670.73 1108.83 L779.01 1223.31 L887.29 1317.11 L995.57 1395.32 L1103.85 1462.77 L1212.13 1523.41 L1320.54 1579.10 L1428.82 1630.95 L1537.10 1678.84 L1645.38 1722.78 L1753.66 1762.75 L1861.94 1798.89 L1970.22 1831.19 L2078.51 1860.27 L2186.79 1886.50 L2295.07 1910.39 L2403.35 1932.17 L2511.63 1952.34 L2620.03 1971.03 L2728.32 1988.35 L2836.60 2004.69 L2944.88 2020.03 L3053.16 2034.51 L3161.44 2048.25 L3269.72 2061.37 L3378.00 2073.99 L3378.00 1630.70 L3269.72 1626.62 L3161.44 1621.92 L3053.16 1616.60 L2944.88 1610.66 L2836.60 1603.97 L2728.32 1596.42 L2620.03 1587.89 L2511.63 1578.23 L2403.35 1567.22 L2295.07 1554.84 L2186.79 1540.61 L2078.51 1524.52 L1970.22 1505.96 L1861.94 1484.68 L1753.66 1460.30 L1645.38 1432.57 L1537.10 1401.51 L1428.82 1366.99 L1320.54 1329.12 L1212.13 1287.91 L1103.85 1242.74 L995.57 1192.00 L887.29 1133.21 L779.01 1063.54 L670.73 979.88 L562.44 877.29 L454.16 729.53 L454.16 729.53 Z" stroke-linejoin="round"/>
	</defs>
	<defs>
		<clipPath id="clipPath_OzhbZVnx">
			<use xlink:href="#path_PosycJSW"/>
		</clipPath>
	</defs>
	<use xlink:href="#path_PosycJSW" style="stroke:none;fill:#4D4D4D;fill-opacity:0.35"/>
	<use xlink:href="#path_PosycJSW" style="fill:none;stroke:#202020;stroke-opacity:0.35;stroke-width:17.28" clip-path="url(#clipPath_OzhbZVnx)"/>
	<path d=" M454.04 729.65 L562.32 920.98 L670.60 1044.36 L779.01 1143.49 L887.29 1225.16 L995.57 1293.72 L1103.85 1352.88 L1212.13 1405.72 L1320.41 1454.11 L1428.69 1499.03 L1536.97 1540.24 L1645.26 1577.74 L1753.54 1611.52 L1861.82 1641.84 L1970.22 1668.70 L2078.51 1692.46 L2186.79 1713.62 L2295.07 1732.68 L2403.35 1749.76 L2511.63 1765.35 L2619.91 1779.46 L2728.19 1792.45 L2836.47 1804.46 L2944.76 1815.47 L3053.04 1825.62 L3161.32 1835.15 L3269.72 1844.06 L3378.00 1852.35" stroke-linejoin="round" style="fill:none;stroke:#202020;stroke-width:8.64"/>
	<defs>
		<path id="path_KjRYdxFq" d="M454.16 729.53 L454.16 729.53 L562.44 891.40 L670.73 992.63 L779.01 1073.19 L887.29 1139.28 L995.57 1194.35 L1103.85 1241.99 L1212.13 1284.81 L1320.54 1324.17 L1428.82 1360.80 L1537.10 1394.83 L1645.38 1426.02 L1753.66 1454.60 L1861.94 1480.47 L1970.22 1503.73 L2078.51 1524.65 L2186.79 1543.71 L2295.07 1561.16 L2403.35 1577.12 L2511.63 1591.97 L2620.03 1605.83 L2728.32 1618.82 L2836.60 1631.08 L2944.88 1642.59 L3053.16 1653.60 L3161.44 1664.12 L3269.72 1674.14 L3378.00 1683.92 L3378.00 1350.03 L3269.72 1347.68 L3161.44 1344.96 L3053.16 1341.74 L2944.88 1338.15 L2836.60 1333.82 L2728.32 1328.87 L2620.03 1323.30 L2511.63 1316.74 L2403.35 1309.19 L2295.07 1300.65 L2186.79 1290.75 L2078.51 1279.37 L1970.22 1266.25 L1861.94 1251.15 L1753.66 1233.70 L1645.38 1213.90 L1537.10 1191.63 L1428.82 1167.00 L1320.54 1139.90 L1212.13 1110.57 L1103.85 1078.39 L995.57 1042.38 L887.29 1001.17 L779.01 952.78 L670.73 895.24 L562.44 825.93 L454.16 729.53 L454.16 729.53 Z" stroke-linejoin="round"/>
	</defs>
	<defs>
		<clipPath id="clipPath_ZRfZmVYS">
			<use xlink:href="#path_KjRYdxFq"/>
		</clipPath>
	</defs>
	<use xlink:href="#path_KjRYdxFq" style="stroke:none;fill:#808080;fill-opacity:0.35"/>
	<use xlink:href="#path_KjRYdxFq" style="fill:none;stroke:#606060;stroke-opacity:0.35;stroke-width:17.28" clip-path="url(#clipPath_ZRfZmVYS)"/>
	<path d=" M454.04 729.65 L562.32 858.73 L670.60 943.99 L779.01 1013.05 L887.29 1070.35 L995.57 1118.49 L1103.85 1160.32 L1212.13 1197.69 L1320.41 1232.09 L1428.69 1263.90 L1536.97 1293.35 L1645.26 1320.08 L1753.54 1344.21 L1861.82 1365.87 L1970.22 1385.05 L2078.51 1402.01 L2186.79 1417.23 L2295.07 1430.97 L2403.35 1443.22 L2511.63 1454.48 L2619.91 1464.63 L2728.19 1473.91 L2836.47 1482.45 L2944.76 1490.37 L3053.04 1497.79 L3161.32 1504.60 L3269.72 1511.03 L3378.00 1516.97" stroke-linejoin="round" style="fill:none;stroke:#606060;stroke-width:8.64"/>
	<defs>
		<path id="path_uZcijCTb" d="M454.16 729.53 L454.16 729.53 L562.44 709.73 L670.73 691.04 L779.01 674.95 L887.29 661.22 L995.57 649.58 L1103.85 639.68 L1212.13 631.02 L1320.54 623.47 L1428.82 616.67 L1537.10 610.60 L1645.38 605.40 L1753.66 601.07 L1861.94 597.48 L1970.22 594.51 L2078.51 592.16 L2186.79 590.31 L2295.07 588.94 L2403.35 587.95 L2511.63 587.34 L2620.03 586.96 L2728.32 586.84 L2836.60 586.84 L2944.88 587.21 L3053.16 587.58 L3161.44 588.20 L3269.72 588.94 L3378.00 589.69 L3378.00 198.62 L3269.72 204.19 L3161.44 209.89 L3053.16 215.83 L2944.88 222.01 L2836.60 228.45 L2728.32 235.26 L2620.03 242.43 L2511.63 249.98 L2403.35 258.03 L2295.07 266.69 L2186.79 276.09 L2078.51 286.24 L1970.22 297.38 L1861.94 309.76 L1753.66 323.25 L1645.38 338.22 L1537.10 354.68 L1428.82 372.38 L1320.54 391.56 L1212.13 412.10 L1103.85 434.25 L995.57 459.13 L887.29 488.09 L779.01 523.36 L670.73 567.29 L562.44 624.96 L454.16 729.53 L454.16 729.53 Z" stroke-linejoin="round"/>
	</defs>
	<defs>
		<clipPath id="clipPath_Ebvamfco">
			<use xlink:href="#path_uZcijCTb"/>
		</clipPath>
	</defs>
	<use xlink:href="#path_uZcijCTb" style="stroke:none;fill:#B3B3B3;fill-opacity:0.35"/>
	<use xlink:href="#path_uZcijCTb" style="fill:none;stroke:#A0A0A0;stroke-opacity:0.35;stroke-width:17.28" clip-path="url(#clipPath_Ebvamfco)"/>
	<path d=" M454.04 729.65 L562.32 667.40 L670.60 629.29 L779.01 599.22 L887.29 574.71 L995.57 554.42 L1103.85 537.09 L1212.13 521.62 L1320.41 507.51 L1428.69 494.52 L1536.97 482.64 L1645.26 471.87 L1753.54 462.22 L1861.82 453.68 L1970.22 446.01 L2078.51 439.33 L2186.79 433.26 L2295.07 427.94 L2403.35 423.11 L2511.63 418.66 L2619.91 414.70 L2728.19 411.11 L2836.47 407.77 L2944.76 404.68 L3053.04 401.83 L3161.32 399.11 L3269.72 396.63 L3378.00 394.28" stroke-linejoin="round" style="fill:none;stroke:#A0A0A0;stroke-width:8.64"/>
	<path d=" M454.04 729.65 L562.32 729.65 L670.60 729.65 L779.01 729.65 L887.29 729.65 L995.57 729.65 L1103.85 729.65 L1212.13 729.65 L1320.41 729.65 L1428.69 729.65 L1536.97 729.65 L1645.26 729.65 L1753.54 729.65 L1861.82 729.65 L1970.22 729.65 L2078.51 729.65 L2186.79 729.65 L2295.07 729.65 L2403.35 729.65 L2511.63 729.65 L2619.91 729.65 L2728.19 729.65 L2836.47 729.65 L2944.76 729.65 L3053.04 729.65 L3161.32 729.65 L3269.72 729.65 L3378.00 729.65" stroke-linejoin="round" style="fill:none;stroke:#000000;stroke-opacity:0.20;stroke-width:23.04"/>
	<line x1="390.80" y1="2489.19" x2="390.80" y2="100.86" style="stroke:#000000;stroke-width:5.76"/>
	<line x1="390.80" y1="2425.82" x2="350.83" y2="2425.82" style="stroke:#000000;stroke-width:5.76"/>
	<text x="300.72" y="2425.82" style="font-family:'Helvetica';font-size:99.99px;fill:#000000" transform="rotate(-90 300.72,2425.82)" text-anchor="middle">-0.06</text>
	<line x1="390.80" y1="1860.39" x2="350.83" y2="1860.39" style="stroke:#000000;stroke-width:5.76"/>
	<text x="300.72" y="1860.39" style="font-family:'Helvetica';font-size:99.99px;fill:#000000" transform="rotate(-90 300.72,1860.39)" text-anchor="middle">-0.04</text>
	<line x1="390.80" y1="1294.96" x2="350.83" y2="1294.96" style="stroke:#000000;stroke-width:5.76"/>
	<text x="300.72" y="1294.96" style="font-family:'Helvetica';font-size:99.99px;fill:#000000" transform="rotate(-90 300.72,1294.96)" text-anchor="middle">-0.02</text>
	<line x1="390.80" y1="729.53" x2="350.83" y2="729.53" style="stroke:#000000;stroke-width:5.76"/>
	<text x="300.72" y="729.53" style="font-family:'Helvetica';font-size:99.99px;fill:#000000" transform="rotate(-90 300.72,729.53)" text-anchor="middle">0.00</text>
	<line x1="390.80" y1="164.22" x2="350.83" y2="164.22" style="stroke:#000000;stroke-width:5.76"/>
	<text x="300.72" y="164.22" style="font-family:'Helvetica';font-size:99.99px;fill:#000000" transform="rotate(-90 300.72,164.22)" text-anchor="middle">0.02</text>
	<text x="190.71" y="1294.96" style="font-family:'Helvetica';font-size:99.99px;fill:#000000" transform="rotate(-90 190.71,1294.96)" text-anchor="middle">Difference in Survival (years)</text>
	<line x1="390.80" y1="2489.19" x2="3859.02" y2="2489.19" style="stroke:#000000;stroke-width:5.76"/>
	<line x1="454.16" y1="2489.19" x2="454.16" y2="2529.16" style="stroke:#000000;stroke-width:5.76"/>
	<text x="454.16" y="2619.14" style="font-family:'Helvetica';font-size:99.99px;fill:#000000" text-anchor="middle">0</text>
	<line x1="1289.47" y1="2489.19" x2="1289.47" y2="2529.16" style="stroke:#000000;stroke-width:5.76"/>
	<text x="1289.47" y="2619.14" style="font-family:'Helvetica';font-size:99.99px;fill:#000000" text-anchor="middle">2</text>
	<line x1="2124.91" y1="2489.19" x2="2124.91" y2="2529.16" style="stroke:#000000;stroke-width:5.76"/>
	<text x="2124.91" y="2619.14" style="font-family:'Helvetica';font-size:99.99px;fill:#000000" text-anchor="middle">4</text>
	<line x1="2960.35" y1="2489.19" x2="2960.35" y2="2529.16" style="stroke:#000000;stroke-width:5.76"/>
	<text x="2960.35" y="2619.14" style="font-family:'Helvetica';font-size:99.99px;fill:#000000" text-anchor="middle">6</text>
	<line x1="3795.66" y1="2489.19" x2="3795.66" y2="2529.16" style="stroke:#000000;stroke-width:5.76"/>
	<text x="3795.66" y="2619.14" style="font-family:'Helvetica';font-size:99.99px;fill:#000000" text-anchor="middle">8</text>
	<text x="2124.91" y="2729.16" style="font-family:'Helvetica';font-size:99.99px;fill:#000000" text-anchor="middle">Years from baseline treatment outcome</text>
	<rect x="468.52" y="2031.42" width="374.47" height="99.99" style="fill:#4D4D4D;fill-opacity:0.35"/>
	<rect x="472.84" y="2035.74" width="365.83" height="91.35" style="fill:none;stroke:#202020;stroke-opacity:0.35;stroke-width:8.64"/>
	<rect x="468.52" y="2171.51" width="374.47" height="99.99" style="fill:#808080;fill-opacity:0.35"/>
	<rect x="472.84" y="2175.83" width="365.83" height="91.35" style="fill:none;stroke:#606060;stroke-opacity:0.35;stroke-width:8.64"/>
	<rect x="468.52" y="2311.47" width="374.47" height="99.99" style="fill:#B3B3B3;fill-opacity:0.35"/>
	<rect x="472.84" y="2315.79" width="365.83" height="91.35" style="fill:none;stroke:#A0A0A0;stroke-opacity:0.35;stroke-width:8.64"/>
	<text x="902.88" y="2116.44" style="font-family:'Helvetica';font-size:99.99px;fill:#000000">Early vs. Tr. completion</text>
	<text x="902.88" y="2256.53" style="font-family:'Helvetica';font-size:99.99px;fill:#000000">Late vs. Tr. completion</text>
	<text x="902.88" y="2396.50" style="font-family:'Helvetica';font-size:99.99px;fill:#000000">Late vs. Early dropout</text>
</svg>
