<?xml version="1.0" encoding="UTF-8" standalone="no"?>
<!-- This is a Stata 16.1 generated SVG file (http://www.stata.com) -->

<svg version="1.1" width="5.50in" height="4.00in" viewBox="0 0 3960 2880" xmlns="http://www.w3.org/2000/svg" xmlns:xlink="http://www.w3.org/1999/xlink">
	<desc>Stata Graph - s_diff</desc>
	<rect x="0" y="0" width="3960" height="2880" style="fill:#FFFFFF;stroke:none"/>
	<rect x="0.00" y="0.00" width="3959.88" height="2880.00" style="fill:#FFFFFF"/>
	<rect x="2.88" y="2.88" width="3954.12" height="2874.24" style="fill:none;stroke:#FFFFFF;stroke-width:5.76"/>
	<rect x="390.80" y="100.86" width="3468.22" height="2388.33" style="fill:#FFFFFF"/>
	<rect x="393.68" y="103.74" width="3462.46" height="2382.57" style="fill:none;stroke:#000000;stroke-width:5.76"/>
	<defs>
		<path id="path_ApGjKbuE" d="M454.16 729.53 L454.16 729.53 L562.44 1106.85 L670.73 1320.33 L779.01 1471.93 L887.29 1585.41 L995.57 1672.41 L1103.85 1741.46 L1212.13 1798.39 L1320.54 1846.90 L1428.82 1888.24 L1537.10 1922.89 L1645.38 1951.85 L1753.66 1975.73 L1861.94 1995.16 L1970.22 2011.25 L2078.51 2024.49 L2186.79 2035.63 L2295.07 2044.91 L2403.35 2052.71 L2511.63 2059.39 L2620.03 2064.96 L2728.32 2069.78 L2836.60 2073.87 L2944.88 2077.33 L3053.16 2080.30 L3161.44 2082.90 L3269.72 2085.01 L3378.00 2086.86 L3378.00 1776.12 L3269.72 1778.34 L3161.44 1780.32 L3053.16 1782.06 L2944.88 1783.29 L2836.60 1784.16 L2728.32 1784.53 L2620.03 1784.28 L2511.63 1783.29 L2403.35 1781.44 L2295.07 1778.47 L2186.79 1774.14 L2078.51 1768.32 L1970.22 1760.40 L1861.94 1750.13 L1753.66 1736.64 L1645.38 1719.44 L1537.10 1697.66 L1428.82 1670.55 L1320.54 1637.51 L1212.13 1598.03 L1103.85 1550.76 L995.57 1492.84 L887.29 1419.46 L779.01 1323.55 L670.73 1196.08 L562.44 1020.10 L454.16 729.53 L454.16 729.53 Z" stroke-linejoin="round"/>
	</defs>
	<defs>
		<clipPath id="clipPath_BKKUtNNO">
			<use xlink:href="#path_ApGjKbuE"/>
		</clipPath>
	</defs>
	<use xlink:href="#path_ApGjKbuE" style="stroke:none;fill:#4D4D4D;fill-opacity:0.35"/>
	<use xlink:href="#path_ApGjKbuE" style="fill:none;stroke:#202020;stroke-opacity:0.35;stroke-width:17.28" clip-path="url(#clipPath_BKKUtNNO)"/>
	<path d=" M454.04 729.65 L562.32 1063.54 L670.60 1258.21 L779.01 1397.80 L887.29 1502.50 L995.57 1582.69 L1103.85 1646.17 L1212.13 1698.27 L1320.41 1742.33 L1428.69 1779.46 L1536.97 1810.27 L1645.26 1835.64 L1753.54 1856.18 L1861.82 1872.64 L1970.22 1885.89 L2078.51 1896.40 L2186.79 1904.94 L2295.07 1911.75 L2403.35 1917.07 L2511.63 1921.40 L2619.91 1924.74 L2728.19 1927.22 L2836.47 1929.08 L2944.76 1930.44 L3053.04 1931.18 L3161.32 1931.67 L3269.72 1931.80 L3378.00 1931.55" stroke-linejoin="round" style="fill:none;stroke:#202020;stroke-width:8.64"/>
	<defs>
		<path id="path_KPRLFrHp" d="M454.16 729.53 L454.16 729.53 L562.44 1001.54 L670.73 1169.97 L779.01 1294.71 L887.29 1391.24 L995.57 1467.47 L1103.85 1529.60 L1212.13 1582.19 L1320.54 1627.86 L1428.82 1667.58 L1537.10 1701.86 L1645.38 1731.32 L1753.66 1756.44 L1861.94 1777.72 L1970.22 1796.04 L2078.51 1811.88 L2186.79 1825.74 L2295.07 1837.99 L2403.35 1848.76 L2511.63 1858.41 L2620.03 1867.07 L2728.32 1874.99 L2836.60 1882.05 L2944.88 1888.61 L3053.16 1894.67 L3161.44 1900.12 L3269.72 1905.19 L3378.00 1910.02 L3378.00 1673.28 L3269.72 1672.29 L3161.44 1671.05 L3053.16 1669.44 L2944.88 1667.46 L2836.60 1664.86 L2728.32 1661.77 L2620.03 1657.93 L2511.63 1653.35 L2403.35 1647.78 L2295.07 1641.22 L2186.79 1633.30 L2078.51 1623.77 L1970.22 1612.27 L1861.94 1598.53 L1753.66 1581.82 L1645.38 1561.65 L1537.10 1537.39 L1428.82 1508.56 L1320.54 1474.53 L1212.13 1435.05 L1103.85 1389.01 L995.57 1334.31 L887.29 1267.36 L779.01 1183.33 L670.73 1076.41 L562.44 936.45 L454.16 729.53 L454.16 729.53 Z" stroke-linejoin="round"/>
	</defs>
	<defs>
		<clipPath id="clipPath_zueIcJRN">
			<use xlink:href="#path_KPRLFrHp"/>
		</clipPath>
	</defs>
	<use xlink:href="#path_KPRLFrHp" style="stroke:none;fill:#808080;fill-opacity:0.35"/>
	<use xlink:href="#path_KPRLFrHp" style="fill:none;stroke:#606060;stroke-opacity:0.35;stroke-width:17.28" clip-path="url(#clipPath_zueIcJRN)"/>
	<path d=" M454.04 729.65 L562.32 968.99 L670.60 1123.19 L779.01 1239.02 L887.29 1329.36 L995.57 1400.89 L1103.85 1459.31 L1212.13 1508.68 L1320.41 1551.25 L1428.69 1588.13 L1536.97 1619.69 L1645.26 1646.55 L1753.54 1669.19 L1861.82 1688.25 L1970.22 1704.21 L2078.51 1717.83 L2186.79 1729.58 L2295.07 1739.61 L2403.35 1748.39 L2511.63 1755.94 L2619.91 1762.63 L2728.19 1768.44 L2836.47 1773.52 L2944.76 1778.10 L3053.04 1782.06 L3161.32 1785.64 L3269.72 1788.86 L3378.00 1791.71" stroke-linejoin="round" style="fill:none;stroke:#606060;stroke-width:8.64"/>
	<defs>
		<path id="path_invTzSrb" d="M454.16 729.53 L454.16 729.53 L562.44 676.44 L670.73 652.68 L779.01 639.56 L887.29 632.63 L995.57 629.54 L1103.85 629.04 L1212.13 630.15 L1320.54 632.38 L1428.82 635.35 L1537.10 639.06 L1645.38 643.40 L1753.66 647.98 L1861.94 652.80 L1970.22 657.88 L2078.51 662.95 L2186.79 668.15 L2295.07 673.22 L2403.35 678.42 L2511.63 683.49 L2620.03 688.44 L2728.32 693.39 L2836.60 698.34 L2944.88 703.05 L3053.16 707.75 L3161.44 712.45 L3269.72 717.03 L3378.00 721.49 L3378.00 457.89 L3269.72 456.40 L3161.44 454.80 L3053.16 453.06 L2944.88 451.45 L2836.60 449.85 L2728.32 448.11 L2620.03 446.50 L2511.63 444.90 L2403.35 443.29 L2295.07 441.68 L2186.79 440.32 L2078.51 439.08 L1970.22 438.09 L1861.94 437.35 L1753.66 437.10 L1645.38 437.59 L1537.10 438.83 L1428.82 441.18 L1320.54 444.77 L1212.13 449.72 L1103.85 456.53 L995.57 466.06 L887.29 480.29 L779.01 502.19 L670.73 536.35 L562.44 593.77 L454.16 729.53 L454.16 729.53 Z" stroke-linejoin="round"/>
	</defs>
	<defs>
		<clipPath id="clipPath_dFkhJcro">
			<use xlink:href="#path_invTzSrb"/>
		</clipPath>
	</defs>
	<use xlink:href="#path_invTzSrb" style="stroke:none;fill:#B3B3B3;fill-opacity:0.35"/>
	<use xlink:href="#path_invTzSrb" style="fill:none;stroke:#A0A0A0;stroke-opacity:0.35;stroke-width:17.28" clip-path="url(#clipPath_dFkhJcro)"/>
	<path d=" M454.04 729.65 L562.32 635.10 L670.60 594.64 L779.01 571.00 L887.29 556.52 L995.57 547.86 L1103.85 542.78 L1212.13 539.94 L1320.41 538.58 L1428.69 538.33 L1536.97 539.07 L1645.26 540.56 L1753.54 542.66 L1861.82 545.14 L1970.22 547.98 L2078.51 551.08 L2186.79 554.29 L2295.07 557.51 L2403.35 560.85 L2511.63 564.19 L2619.91 567.54 L2728.19 570.88 L2836.47 574.09 L2944.76 577.31 L3053.04 580.53 L3161.32 583.62 L3269.72 586.72 L3378.00 589.69" stroke-linejoin="round" style="fill:none;stroke:#A0A0A0;stroke-width:8.64"/>
	<path d=" M454.04 729.65 L562.32 729.65 L670.60 729.65 L779.01 729.65 L887.29 729.65 L995.57 729.65 L1103.85 729.65 L1212.13 729.65 L1320.41 729.65 L1428.69 729.65 L1536.97 729.65 L1645.26 729.65 L1753.54 729.65 L1861.82 729.65 L1970.22 729.65 L2078.51 729.65 L2186.79 729.65 L2295.07 729.65 L2403.35 729.65 L2511.63 729.65 L2619.91 729.65 L2728.19 729.65 L2836.47 729.65 L2944.76 729.65 L3053.04 729.65 L3161.32 729.65 L3269.72 729.65 L3378.00 729.65" stroke-linejoin="round" style="fill:none;stroke:#000000;stroke-opacity:0.20;stroke-width:23.04"/>
	<line x1="390.80" y1="2489.19" x2="390.80" y2="100.86" style="stroke:#000000;stroke-width:5.76"/>
	<line x1="390.80" y1="2425.82" x2="350.83" y2="2425.82" style="stroke:#000000;stroke-width:5.76"/>
	<text x="300.72" y="2425.82" style="font-family:'Helvetica';font-size:99.99px;fill:#000000" transform="rotate(-90 300.72,2425.82)" text-anchor="middle">-0.15</text>
	<line x1="390.80" y1="1860.39" x2="350.83" y2="1860.39" style="stroke:#000000;stroke-width:5.76"/>
	<text x="300.72" y="1860.39" style="font-family:'Helvetica';font-size:99.99px;fill:#000000" transform="rotate(-90 300.72,1860.39)" text-anchor="middle">-0.10</text>
	<line x1="390.80" y1="1294.96" x2="350.83" y2="1294.96" style="stroke:#000000;stroke-width:5.76"/>
	<text x="300.72" y="1294.96" style="font-family:'Helvetica';font-size:99.99px;fill:#000000" transform="rotate(-90 300.72,1294.96)" text-anchor="middle">-0.05</text>
	<line x1="390.80" y1="729.53" x2="350.83" y2="729.53" style="stroke:#000000;stroke-width:5.76"/>
	<text x="300.72" y="729.53" style="font-family:'Helvetica';font-size:99.99px;fill:#000000" transform="rotate(-90 300.72,729.53)" text-anchor="middle">0.00</text>
	<line x1="390.80" y1="164.22" x2="350.83" y2="164.22" style="stroke:#000000;stroke-width:5.76"/>
	<text x="300.72" y="164.22" style="font-family:'Helvetica';font-size:99.99px;fill:#000000" transform="rotate(-90 300.72,164.22)" text-anchor="middle">0.05</text>
	<text x="190.71" y="1294.96" style="font-family:'Helvetica';font-size:99.99px;fill:#000000" transform="rotate(-90 190.71,1294.96)" text-anchor="middle">Difference in Survival (years)</text>
	<line x1="390.80" y1="2489.19" x2="3859.02" y2="2489.19" style="stroke:#000000;stroke-width:5.76"/>
	<line x1="454.16" y1="2489.19" x2="454.16" y2="2529.16" style="stroke:#000000;stroke-width:5.76"/>
	<text x="454.16" y="2619.14" style="font-family:'Helvetica';font-size:99.99px;fill:#000000" text-anchor="middle">0</text>
	<line x1="1289.47" y1="2489.19" x2="1289.47" y2="2529.16" style="stroke:#000000;stroke-width:5.76"/>
	<text x="1289.47" y="2619.14" style="font-family:'Helvetica';font-size:99.99px;fill:#000000" text-anchor="middle">2</text>
	<line x1="2124.91" y1="2489.19" x2="2124.91" y2="2529.16" style="stroke:#000000;stroke-width:5.76"/>
	<text x="2124.91" y="2619.14" style="font-family:'Helvetica';font-size:99.99px;fill:#000000" text-anchor="middle">4</text>
	<line x1="2960.35" y1="2489.19" x2="2960.35" y2="2529.16" style="stroke:#000000;stroke-width:5.76"/>
	<text x="2960.35" y="2619.14" style="font-family:'Helvetica';font-size:99.99px;fill:#000000" text-anchor="middle">6</text>
	<line x1="3795.66" y1="2489.19" x2="3795.66" y2="2529.16" style="stroke:#000000;stroke-width:5.76"/>
	<text x="3795.66" y="2619.14" style="font-family:'Helvetica';font-size:99.99px;fill:#000000" text-anchor="middle">8</text>
	<text x="2124.91" y="2729.16" style="font-family:'Helvetica';font-size:99.99px;fill:#000000" text-anchor="middle">Years from baseline treatment outcome</text>
	<rect x="468.52" y="2031.42" width="374.47" height="99.99" style="fill:#4D4D4D;fill-opacity:0.35"/>
	<rect x="472.84" y="2035.74" width="365.83" height="91.35" style="fill:none;stroke:#202020;stroke-opacity:0.35;stroke-width:8.64"/>
	<rect x="468.52" y="2171.51" width="374.47" height="99.99" style="fill:#808080;fill-opacity:0.35"/>
	<rect x="472.84" y="2175.83" width="365.83" height="91.35" style="fill:none;stroke:#606060;stroke-opacity:0.35;stroke-width:8.64"/>
	<rect x="468.52" y="2311.47" width="374.47" height="99.99" style="fill:#B3B3B3;fill-opacity:0.35"/>
	<rect x="472.84" y="2315.79" width="365.83" height="91.35" style="fill:none;stroke:#A0A0A0;stroke-opacity:0.35;stroke-width:8.64"/>
	<text x="902.88" y="2116.44" style="font-family:'Helvetica';font-size:99.99px;fill:#000000">Early vs. Tr. completion</text>
	<text x="902.88" y="2256.53" style="font-family:'Helvetica';font-size:99.99px;fill:#000000">Late vs. Tr. completion</text>
	<text x="902.88" y="2396.50" style="font-family:'Helvetica';font-size:99.99px;fill:#000000">Late vs. Early dropout</text>
</svg>
