<?xml version="1.0" encoding="UTF-8" standalone="no"?>
<!-- This is a Stata 16.1 generated SVG file (http://www.stata.com) -->

<svg version="1.1" width="5.50in" height="4.00in" viewBox="0 0 3960 2880" xmlns="http://www.w3.org/2000/svg" xmlns:xlink="http://www.w3.org/1999/xlink">
	<desc>Stata Graph - s_diff_fin_abc</desc>
	<rect x="0" y="0" width="3960" height="2880" style="fill:#FFFFFF;stroke:none"/>
	<rect x="0.00" y="0.00" width="3959.88" height="2880.00" style="fill:#FFFFFF"/>
	<rect x="2.88" y="2.88" width="3954.12" height="2874.24" style="fill:none;stroke:#FFFFFF;stroke-width:5.76"/>
	<rect x="390.80" y="100.86" width="3468.22" height="2388.33" style="fill:#FFFFFF"/>
	<rect x="393.68" y="103.74" width="3462.46" height="2382.57" style="fill:none;stroke:#FFFFFF;stroke-width:5.76"/>
	<line x1="390.80" y1="2303.06" x2="3859.02" y2="2303.06" style="stroke:#EAF2F3;stroke-width:8.64"/>
	<line x1="390.80" y1="1884.40" x2="3859.02" y2="1884.40" style="stroke:#EAF2F3;stroke-width:8.64"/>
	<line x1="390.80" y1="1465.74" x2="3859.02" y2="1465.74" style="stroke:#EAF2F3;stroke-width:8.64"/>
	<line x1="390.80" y1="1047.08" x2="3859.02" y2="1047.08" style="stroke:#EAF2F3;stroke-width:8.64"/>
	<line x1="390.80" y1="628.42" x2="3859.02" y2="628.42" style="stroke:#EAF2F3;stroke-width:8.64"/>
	<line x1="390.80" y1="209.64" x2="3859.02" y2="209.64" style="stroke:#EAF2F3;stroke-width:8.64"/>
	<defs>
		<path id="path_TjEXlctD" d="M454.16 209.64 L454.16 209.64 L562.44 420.64 L670.73 563.58 L887.29 801.68 L995.57 898.33 L1103.85 973.57 L1212.13 1026.79 L1320.54 1064.28 L1753.66 1176.78 L1861.94 1205.73 L1970.22 1235.19 L2078.51 1264.76 L2186.79 1294.34 L2295.07 1324.04 L2403.35 1353.99 L2511.63 1383.94 L2620.03 1414.38 L2728.32 1445.20 L2836.60 1476.51 L2944.88 1508.44 L3053.16 1540.98 L3269.72 1608.31 L3378.00 1642.83 L3378.00 1031.74 L3269.72 1010.08 L3053.16 965.40 L2944.88 942.63 L2836.60 919.86 L2728.32 897.46 L2620.03 875.68 L2511.63 854.89 L2403.35 835.59 L2295.07 818.26 L2186.79 803.41 L2078.51 791.65 L1970.22 783.24 L1861.94 778.78 L1753.66 778.29 L1320.54 769.38 L1212.13 746.11 L1103.85 708.12 L995.57 653.67 L887.29 582.26 L670.73 392.92 L562.44 292.18 L454.16 209.64 L454.16 209.64 Z" stroke-linejoin="round"/>
	</defs>
	<defs>
		<clipPath id="clipPath_ovLCtSrV">
			<use xlink:href="#path_TjEXlctD"/>
		</clipPath>
	</defs>
	<use xlink:href="#path_TjEXlctD" style="stroke:none;fill:#4D4D4D;fill-opacity:0.35"/>
	<use xlink:href="#path_TjEXlctD" style="fill:none;stroke:#202020;stroke-opacity:0.35;stroke-width:17.28" clip-path="url(#clipPath_ovLCtSrV)"/>
	<path d=" M454.04 209.76 L562.32 356.53 L670.60 478.31 L887.29 692.03 L995.57 776.06 L1103.85 840.91 L1212.13 886.45 L1320.41 916.89 L1753.54 977.53 L1861.82 992.26 L1970.22 1009.34 L2078.51 1028.27 L2186.79 1048.94 L2295.07 1071.21 L2403.35 1094.85 L2511.63 1119.48 L2619.91 1145.09 L2728.19 1171.33 L2836.47 1198.31 L2944.76 1225.66 L3053.04 1253.26 L3269.72 1309.19 L3378.00 1337.41" stroke-linejoin="round" style="fill:none;stroke:#202020;stroke-width:8.64"/>
	<defs>
		<path id="path_UCoJzVJv" d="M454.16 209.64 L454.16 209.64 L670.73 843.38 L779.01 983.72 L995.57 1213.04 L1428.82 1435.92 L1537.10 1483.31 L1645.38 1535.41 L1753.66 1585.16 L2186.79 1797.77 L2295.07 1860.27 L2728.32 2132.77 L3053.16 2351.08 L3161.44 2425.82 L3161.44 1104.26 L3053.16 1032.97 L2728.32 825.56 L2295.07 591.91 L2186.79 547.36 L1753.66 452.44 L1645.38 456.40 L1537.10 474.72 L1428.82 498.36 L995.57 341.81 L779.01 263.60 L670.73 164.22 L454.16 209.64 L454.16 209.64 Z" stroke-linejoin="round"/>
	</defs>
	<defs>
		<clipPath id="clipPath_ifGEwYfI">
			<use xlink:href="#path_UCoJzVJv"/>
		</clipPath>
	</defs>
	<use xlink:href="#path_UCoJzVJv" style="stroke:none;fill:#808080;fill-opacity:0.35"/>
	<use xlink:href="#path_UCoJzVJv" style="fill:none;stroke:#606060;stroke-opacity:0.35;stroke-width:17.28" clip-path="url(#clipPath_ifGEwYfI)"/>
	<path d=" M454.04 209.76 L670.60 503.80 L779.01 623.72 L995.57 777.55 L1428.69 967.14 L1536.97 979.02 L1645.26 995.97 L1753.54 1018.87 L2186.79 1172.69 L2295.07 1226.15 L2728.19 1479.23 L3053.04 1692.09 L3161.32 1765.10" stroke-linejoin="round" style="fill:none;stroke:#606060;stroke-width:8.64"/>
	<defs>
		<path id="path_NvgdQtjS" d="M562.44 398.49 L562.44 398.49 L779.01 576.32 L887.29 634.73 L1103.85 723.96 L1212.13 759.97 L1320.54 792.27 L1428.82 821.73 L1537.10 849.08 L1645.38 874.69 L1861.94 922.09 L1970.22 944.24 L2078.51 965.53 L2403.35 1025.67 L2511.63 1044.61 L2620.03 1063.17 L2728.32 1081.24 L2836.60 1098.93 L2944.88 1116.38 L3161.44 1150.29 L3269.72 1166.75 L3378.00 1182.96 L3378.00 458.63 L3269.72 462.34 L3161.44 465.69 L2944.88 471.13 L2836.60 473.36 L2728.32 474.97 L2620.03 476.20 L2511.63 476.82 L2403.35 476.82 L2078.51 472.49 L1970.22 469.27 L1861.94 465.07 L1645.38 452.94 L1537.10 444.77 L1428.82 434.87 L1320.54 423.24 L1212.13 409.25 L1103.85 392.79 L887.29 350.47 L779.01 323.49 L562.44 252.83 L562.44 398.49 Z" stroke-linejoin="round"/>
	</defs>
	<defs>
		<clipPath id="clipPath_zREoEaLh">
			<use xlink:href="#path_NvgdQtjS"/>
		</clipPath>
	</defs>
	<use xlink:href="#path_NvgdQtjS" style="stroke:none;fill:#B3B3B3;fill-opacity:0.35"/>
	<use xlink:href="#path_NvgdQtjS" style="fill:none;stroke:#A0A0A0;stroke-opacity:0.35;stroke-width:17.28" clip-path="url(#clipPath_zREoEaLh)"/>
	<path d=" M562.32 325.72 L779.01 449.97 L887.29 492.66 L1103.85 558.50 L1212.13 584.61 L1320.41 607.76 L1428.69 628.42 L1536.97 646.99 L1645.26 663.94 L1861.82 693.64 L1970.22 706.76 L2078.51 719.01 L2403.35 751.31 L2511.63 760.72 L2619.91 769.75 L2728.19 778.16 L2836.47 786.21 L2944.76 793.88 L3161.32 807.99 L3269.72 814.55 L3378.00 820.86" stroke-linejoin="round" style="fill:none;stroke:#A0A0A0;stroke-width:8.64"/>
	<path d=" M454.04 209.76 L562.32 209.76 L670.60 209.76 L779.01 209.76 L887.29 209.76 L995.57 209.76 L1103.85 209.76 L1212.13 209.76 L1320.41 209.76 L1428.69 209.76 L1536.97 209.76 L1645.26 209.76 L1753.54 209.76 L1861.82 209.76 L1970.22 209.76 L2078.51 209.76 L2186.79 209.76 L2295.07 209.76 L2403.35 209.76 L2511.63 209.76 L2619.91 209.76 L2728.19 209.76 L2836.47 209.76 L2944.76 209.76 L3053.04 209.76 L3161.32 209.76 L3269.72 209.76 L3378.00 209.76" stroke-linejoin="round" style="fill:none;stroke:#000000;stroke-opacity:0.20;stroke-width:23.04"/>
	<line x1="390.80" y1="2489.19" x2="390.80" y2="100.86" style="stroke:#000000;stroke-width:5.76"/>
	<line x1="390.80" y1="2303.06" x2="350.83" y2="2303.06" style="stroke:#000000;stroke-width:5.76"/>
	<text x="300.72" y="2303.06" style="font-family:'Helvetica';font-size:99.99px;fill:#000000" transform="rotate(-90 300.72,2303.06)" text-anchor="middle">-0.05</text>
	<line x1="390.80" y1="1884.40" x2="350.83" y2="1884.40" style="stroke:#000000;stroke-width:5.76"/>
	<text x="300.72" y="1884.40" style="font-family:'Helvetica';font-size:99.99px;fill:#000000" transform="rotate(-90 300.72,1884.40)" text-anchor="middle">-0.04</text>
	<line x1="390.80" y1="1465.74" x2="350.83" y2="1465.74" style="stroke:#000000;stroke-width:5.76"/>
	<text x="300.72" y="1465.74" style="font-family:'Helvetica';font-size:99.99px;fill:#000000" transform="rotate(-90 300.72,1465.74)" text-anchor="middle">-0.03</text>
	<line x1="390.80" y1="1047.08" x2="350.83" y2="1047.08" style="stroke:#000000;stroke-width:5.76"/>
	<text x="300.72" y="1047.08" style="font-family:'Helvetica';font-size:99.99px;fill:#000000" transform="rotate(-90 300.72,1047.08)" text-anchor="middle">-0.02</text>
	<line x1="390.80" y1="628.42" x2="350.83" y2="628.42" style="stroke:#000000;stroke-width:5.76"/>
	<text x="300.72" y="628.42" style="font-family:'Helvetica';font-size:99.99px;fill:#000000" transform="rotate(-90 300.72,628.42)" text-anchor="middle">-0.01</text>
	<line x1="390.80" y1="209.64" x2="350.83" y2="209.64" style="stroke:#000000;stroke-width:5.76"/>
	<text x="300.72" y="209.64" style="font-family:'Helvetica';font-size:99.99px;fill:#000000" transform="rotate(-90 300.72,209.64)" text-anchor="middle">0.00</text>
	<text x="190.71" y="1294.96" style="font-family:'Helvetica';font-size:99.99px;fill:#000000" transform="rotate(-90 190.71,1294.96)" text-anchor="middle">Difference in Survival (years)</text>
	<line x1="390.80" y1="2489.19" x2="3859.02" y2="2489.19" style="stroke:#000000;stroke-width:5.76"/>
	<line x1="454.16" y1="2489.19" x2="454.16" y2="2529.16" style="stroke:#000000;stroke-width:5.76"/>
	<text x="454.16" y="2619.14" style="font-family:'Helvetica';font-size:99.99px;fill:#000000" text-anchor="middle">0</text>
	<line x1="1289.47" y1="2489.19" x2="1289.47" y2="2529.16" style="stroke:#000000;stroke-width:5.76"/>
	<text x="1289.47" y="2619.14" style="font-family:'Helvetica';font-size:99.99px;fill:#000000" text-anchor="middle">2</text>
	<line x1="2124.91" y1="2489.19" x2="2124.91" y2="2529.16" style="stroke:#000000;stroke-width:5.76"/>
	<text x="2124.91" y="2619.14" style="font-family:'Helvetica';font-size:99.99px;fill:#000000" text-anchor="middle">4</text>
	<line x1="2960.35" y1="2489.19" x2="2960.35" y2="2529.16" style="stroke:#000000;stroke-width:5.76"/>
	<text x="2960.35" y="2619.14" style="font-family:'Helvetica';font-size:99.99px;fill:#000000" text-anchor="middle">6</text>
	<line x1="3795.66" y1="2489.19" x2="3795.66" y2="2529.16" style="stroke:#000000;stroke-width:5.76"/>
	<text x="3795.66" y="2619.14" style="font-family:'Helvetica';font-size:99.99px;fill:#000000" text-anchor="middle">8</text>
	<text x="2124.91" y="2729.16" style="font-family:'Helvetica';font-size:99.99px;fill:#000000" text-anchor="middle">Years from baseline treatment outcome</text>
	<rect x="468.52" y="2031.42" width="374.47" height="99.99" style="fill:#4D4D4D;fill-opacity:0.35"/>
	<rect x="472.84" y="2035.74" width="365.83" height="91.35" style="fill:none;stroke:#202020;stroke-opacity:0.35;stroke-width:8.64"/>
	<rect x="468.52" y="2171.51" width="374.47" height="99.99" style="fill:#808080;fill-opacity:0.35"/>
	<rect x="472.84" y="2175.83" width="365.83" height="91.35" style="fill:none;stroke:#606060;stroke-opacity:0.35;stroke-width:8.64"/>
	<rect x="468.52" y="2311.47" width="374.47" height="99.99" style="fill:#B3B3B3;fill-opacity:0.35"/>
	<rect x="472.84" y="2315.79" width="365.83" height="91.35" style="fill:none;stroke:#A0A0A0;stroke-opacity:0.35;stroke-width:8.64"/>
	<text x="902.88" y="2116.44" style="font-family:'Helvetica';font-size:99.99px;fill:#000000">Late dropout vs. Tr. completion</text>
	<text x="902.88" y="2256.53" style="font-family:'Helvetica';font-size:99.99px;fill:#000000">Early dropout vs. Tr. completion</text>
	<text x="902.88" y="2396.50" style="font-family:'Helvetica';font-size:99.99px;fill:#000000">Early vs. late dropout</text>
</svg>
