<?xml version="1.0" encoding="UTF-8" standalone="no"?>
<!-- This is a Stata 16.1 generated SVG file (http://www.stata.com) -->

<svg version="1.1" width="5.50in" height="4.00in" viewBox="0 0 3960 2880" xmlns="http://www.w3.org/2000/svg" xmlns:xlink="http://www.w3.org/1999/xlink">
	<desc>Stata Graph - s_diff_fin_abc</desc>
	<rect x="0" y="0" width="3960" height="2880" style="fill:#FFFFFF;stroke:none"/>
	<rect x="0.00" y="0.00" width="3959.88" height="2880.00" style="fill:#FFFFFF"/>
	<rect x="2.88" y="2.88" width="3954.12" height="2874.24" style="fill:none;stroke:#FFFFFF;stroke-width:5.76"/>
	<rect x="390.80" y="100.86" width="3468.22" height="2388.33" style="fill:#FFFFFF"/>
	<rect x="393.68" y="103.74" width="3462.46" height="2382.57" style="fill:none;stroke:#FFFFFF;stroke-width:5.76"/>
	<line x1="390.80" y1="2425.82" x2="3859.02" y2="2425.82" style="stroke:#EAF2F3;stroke-width:8.64"/>
	<line x1="390.80" y1="1860.39" x2="3859.02" y2="1860.39" style="stroke:#EAF2F3;stroke-width:8.64"/>
	<line x1="390.80" y1="1294.96" x2="3859.02" y2="1294.96" style="stroke:#EAF2F3;stroke-width:8.64"/>
	<line x1="390.80" y1="729.53" x2="3859.02" y2="729.53" style="stroke:#EAF2F3;stroke-width:8.64"/>
	<defs>
		<path id="path_IQnrEOMt" d="M454.16 729.53 L454.16 729.53 L507.25 819.25 L560.46 879.15 L666.76 968.62 L719.98 1004.88 L773.07 1037.30 L826.28 1066.63 L879.49 1093.37 L1092.09 1181.23 L1145.18 1200.17 L1198.39 1218.48 L1251.61 1236.18 L1304.70 1253.63 L1357.91 1270.70 L1411.00 1287.66 L1464.21 1304.37 L1517.42 1320.95 L1570.51 1337.28 L1623.72 1353.25 L1676.81 1368.84 L1730.03 1384.06 L1836.33 1413.02 L1889.54 1426.76 L1942.63 1440.00 L1995.84 1452.75 L2048.93 1465.00 L2102.14 1476.63 L2261.66 1508.93 L2367.96 1528.48 L2421.17 1537.77 L2474.26 1546.80 L2527.47 1555.46 L2580.56 1563.88 L2633.77 1572.17 L2686.98 1580.21 L2740.07 1588.01 L2793.28 1595.68 L2846.37 1603.11 L2899.59 1610.41 L2952.68 1617.46 L3059.10 1631.32 L3112.19 1638.13 L3165.40 1644.81 L3218.49 1651.25 L3271.70 1657.68 L3324.91 1663.99 L3378.00 1670.31 L3378.00 1231.10 L3324.91 1230.73 L3271.70 1230.24 L3218.49 1229.62 L3165.40 1228.88 L3112.19 1228.01 L3059.10 1227.02 L2952.68 1224.54 L2899.59 1223.06 L2846.37 1221.33 L2793.28 1219.47 L2740.07 1217.49 L2686.98 1215.14 L2633.77 1212.66 L2580.56 1209.82 L2527.47 1206.85 L2474.26 1203.51 L2421.17 1199.92 L2367.96 1196.08 L2261.66 1187.29 L2102.14 1171.21 L2048.93 1164.90 L1995.84 1158.21 L1942.63 1151.03 L1889.54 1143.24 L1836.33 1135.07 L1730.03 1117.25 L1676.81 1107.72 L1623.72 1097.82 L1570.51 1087.43 L1517.42 1076.78 L1464.21 1065.89 L1411.00 1054.88 L1357.91 1043.62 L1304.70 1032.35 L1251.61 1020.85 L1198.39 1008.97 L1145.18 996.84 L1092.09 984.21 L879.49 926.79 L826.28 909.84 L773.07 891.52 L719.98 871.72 L666.76 850.19 L560.46 799.82 L507.25 769.01 L454.16 729.53 L454.16 729.53 Z" stroke-linejoin="round"/>
	</defs>
	<defs>
		<clipPath id="clipPath_qdzqmPEH">
			<use xlink:href="#path_IQnrEOMt"/>
		</clipPath>
	</defs>
	<use xlink:href="#path_IQnrEOMt" style="stroke:none;fill:#4D4D4D;fill-opacity:0.35"/>
	<use xlink:href="#path_IQnrEOMt" style="fill:none;stroke:#202020;stroke-opacity:0.35;stroke-width:17.28" clip-path="url(#clipPath_qdzqmPEH)"/>
	<path d=" M454.04 729.65 L507.25 794.25 L560.34 839.55 L666.76 909.47 L719.85 938.43 L773.07 964.54 L826.15 988.30 L879.37 1010.08 L1091.97 1082.85 L1145.18 1098.56 L1198.39 1113.78 L1251.48 1128.51 L1304.70 1142.99 L1357.79 1157.22 L1411.00 1171.33 L1464.09 1185.19 L1517.30 1198.93 L1570.51 1212.42 L1623.60 1225.53 L1676.81 1238.40 L1729.90 1250.78 L1836.33 1274.17 L1889.41 1285.06 L1942.63 1295.58 L1995.72 1305.60 L2048.93 1315.01 L2102.14 1323.92 L2261.53 1348.17 L2367.83 1362.28 L2421.05 1368.97 L2474.26 1375.15 L2527.35 1381.22 L2580.56 1386.91 L2633.65 1392.48 L2686.86 1397.68 L2740.07 1402.75 L2793.16 1407.58 L2846.37 1412.28 L2899.46 1416.73 L2952.68 1421.07 L3058.98 1429.23 L3112.19 1433.19 L3165.28 1436.91 L3218.49 1440.50 L3271.58 1444.08 L3324.79 1447.43 L3378.00 1450.77" stroke-linejoin="round" style="fill:none;stroke:#202020;stroke-width:8.64"/>
	<defs>
		<path id="path_YDOoGCbM" d="M454.16 729.53 L454.16 729.53 L560.46 1014.16 L613.68 1081.36 L719.98 1190.02 L932.58 1376.76 L985.79 1426.63 L1038.88 1474.53 L1092.09 1518.58 L1304.70 1630.33 L1357.91 1639.86 L1730.03 1748.52 L1783.24 1774.75 L1942.63 1852.97 L1995.84 1877.96 L2048.93 1902.22 L2102.14 1925.49 L2155.35 1947.51 L2208.44 1968.43 L2261.66 1987.86 L2314.74 2005.68 L2474.26 2050.11 L2527.47 2062.48 L2740.07 2104.19 L3005.89 2150.22 L3005.89 1161.93 L2740.07 1170.22 L2527.47 1151.41 L2474.26 1143.36 L2314.74 1110.32 L2261.66 1096.21 L2208.44 1080.74 L2155.35 1064.28 L2102.14 1047.08 L2048.93 1029.26 L1995.84 1011.19 L1942.63 993.37 L1783.24 946.59 L1730.03 935.46 L1357.91 952.78 L1304.70 951.30 L1092.09 864.92 L1038.88 825.31 L985.79 783.98 L932.58 746.36 L719.98 624.96 L613.68 558.87 L560.46 547.49 L454.16 729.53 L454.16 729.53 Z" stroke-linejoin="round"/>
	</defs>
	<defs>
		<clipPath id="clipPath_wINPMgnw">
			<use xlink:href="#path_YDOoGCbM"/>
		</clipPath>
	</defs>
	<use xlink:href="#path_YDOoGCbM" style="stroke:none;fill:#808080;fill-opacity:0.35"/>
	<use xlink:href="#path_YDOoGCbM" style="fill:none;stroke:#606060;stroke-opacity:0.35;stroke-width:17.28" clip-path="url(#clipPath_wINPMgnw)"/>
	<path d=" M454.04 729.65 L560.34 780.89 L613.55 820.12 L719.85 907.61 L932.58 1061.68 L985.67 1105.37 L1038.88 1150.04 L1091.97 1191.87 L1304.70 1290.88 L1357.79 1296.32 L1729.90 1342.11 L1783.11 1360.67 L1942.63 1423.17 L1995.72 1444.58 L2048.93 1465.74 L2102.14 1486.28 L2155.23 1505.96 L2208.44 1524.65 L2261.53 1542.10 L2314.74 1558.06 L2474.26 1596.80 L2527.35 1607.07 L2740.07 1637.26 L3005.89 1656.20" stroke-linejoin="round" style="fill:none;stroke:#606060;stroke-width:8.64"/>
	<defs>
		<path id="path_giFvWdly" d="M507.25 816.40 L507.25 816.40 L613.68 921.60 L666.76 960.58 L773.07 1018.37 L826.28 1042.13 L879.49 1064.65 L932.58 1087.05 L985.79 1108.71 L1038.88 1129.01 L1145.18 1163.66 L1198.39 1178.26 L1251.61 1191.50 L1411.00 1227.02 L1464.21 1238.28 L1517.42 1249.30 L1570.51 1260.19 L1623.72 1270.95 L1676.81 1281.72 L1783.24 1303.13 L1836.33 1313.77 L1889.54 1324.29 L2155.35 1374.78 L2208.44 1384.19 L2314.74 1402.13 L2367.96 1410.67 L2421.17 1418.84 L2580.56 1441.73 L2633.77 1448.79 L2686.98 1455.72 L2793.28 1468.83 L2846.37 1475.02 L2899.59 1481.21 L2952.68 1487.15 L3005.89 1492.97 L3059.10 1498.66 L3112.19 1504.10 L3165.40 1509.55 L3218.49 1514.87 L3271.70 1520.07 L3324.91 1525.14 L3378.00 1530.22 L3378.00 1021.22 L3324.91 1021.71 L3271.70 1022.08 L3218.49 1022.33 L3165.40 1022.58 L3112.19 1022.70 L3059.10 1022.70 L3005.89 1022.58 L2952.68 1022.45 L2899.59 1022.21 L2846.37 1021.84 L2793.28 1021.22 L2686.98 1019.73 L2633.77 1018.87 L2580.56 1017.75 L2421.17 1013.17 L2367.96 1011.19 L2314.74 1009.09 L2208.44 1004.02 L2155.35 1001.17 L1889.54 983.72 L1836.33 979.64 L1783.24 975.43 L1676.81 966.52 L1623.72 961.82 L1570.51 956.99 L1517.42 951.91 L1464.21 946.59 L1411.00 941.02 L1251.61 922.34 L1198.39 915.16 L1145.18 907.24 L1038.88 888.80 L985.79 878.28 L932.58 867.14 L879.49 855.39 L826.28 843.51 L773.07 831.13 L666.76 802.79 L613.68 786.08 L507.25 748.34 L507.25 816.40 Z" stroke-linejoin="round"/>
	</defs>
	<defs>
		<clipPath id="clipPath_bgmqfpGo">
			<use xlink:href="#path_giFvWdly"/>
		</clipPath>
	</defs>
	<use xlink:href="#path_giFvWdly" style="stroke:none;fill:#B3B3B3;fill-opacity:0.35"/>
	<use xlink:href="#path_giFvWdly" style="fill:none;stroke:#A0A0A0;stroke-opacity:0.35;stroke-width:17.28" clip-path="url(#clipPath_bgmqfpGo)"/>
	<path d=" M507.25 782.37 L613.55 853.90 L666.76 881.75 L773.07 924.81 L826.15 942.88 L879.37 960.08 L932.58 977.16 L985.67 993.62 L1038.88 1008.97 L1145.18 1035.57 L1198.39 1046.71 L1251.48 1056.98 L1411.00 1084.08 L1464.09 1092.50 L1517.30 1100.67 L1570.51 1108.59 L1623.60 1116.51 L1676.81 1124.18 L1783.11 1139.28 L1836.33 1146.70 L1889.41 1154.00 L2155.23 1188.04 L2208.44 1194.22 L2314.74 1205.61 L2367.83 1211.06 L2421.05 1216.13 L2580.56 1229.74 L2633.65 1233.83 L2686.86 1237.79 L2793.16 1245.09 L2846.37 1248.55 L2899.46 1251.77 L2952.68 1254.86 L3005.89 1257.83 L3058.98 1260.68 L3112.19 1263.40 L3165.28 1266.13 L3218.49 1268.60 L3271.58 1271.08 L3324.79 1273.43 L3378.00 1275.78" stroke-linejoin="round" style="fill:none;stroke:#A0A0A0;stroke-width:8.64"/>
	<path d=" M454.04 729.65 L507.25 729.65 L560.34 729.65 L613.55 729.65 L666.76 729.65 L719.85 729.65 L773.07 729.65 L826.15 729.65 L879.37 729.65 L932.58 729.65 L985.67 729.65 L1038.88 729.65 L1091.97 729.65 L1145.18 729.65 L1198.39 729.65 L1251.48 729.65 L1304.70 729.65 L1357.79 729.65 L1411.00 729.65 L1464.09 729.65 L1517.30 729.65 L1570.51 729.65 L1623.60 729.65 L1676.81 729.65 L1729.90 729.65 L1783.11 729.65 L1836.33 729.65 L1889.41 729.65 L1942.63 729.65 L1995.72 729.65 L2048.93 729.65 L2102.14 729.65 L2155.23 729.65 L2208.44 729.65 L2261.53 729.65 L2314.74 729.65 L2367.83 729.65 L2421.05 729.65 L2474.26 729.65 L2527.35 729.65 L2580.56 729.65 L2633.65 729.65 L2686.86 729.65 L2740.07 729.65 L2793.16 729.65 L2846.37 729.65 L2899.46 729.65 L2952.68 729.65 L3005.89 729.65 L3058.98 729.65 L3112.19 729.65 L3165.28 729.65 L3218.49 729.65 L3271.58 729.65 L3324.79 729.65 L3378.00 729.65" stroke-linejoin="round" style="fill:none;stroke:#000000;stroke-opacity:0.20;stroke-width:23.04"/>
	<line x1="390.80" y1="2489.19" x2="390.80" y2="100.86" style="stroke:#000000;stroke-width:5.76"/>
	<line x1="390.80" y1="2425.82" x2="350.83" y2="2425.82" style="stroke:#000000;stroke-width:5.76"/>
	<text x="300.72" y="2425.82" style="font-family:'Helvetica';font-size:99.99px;fill:#000000" transform="rotate(-90 300.72,2425.82)" text-anchor="middle">-0.06</text>
	<line x1="390.80" y1="1860.39" x2="350.83" y2="1860.39" style="stroke:#000000;stroke-width:5.76"/>
	<text x="300.72" y="1860.39" style="font-family:'Helvetica';font-size:99.99px;fill:#000000" transform="rotate(-90 300.72,1860.39)" text-anchor="middle">-0.04</text>
	<line x1="390.80" y1="1294.96" x2="350.83" y2="1294.96" style="stroke:#000000;stroke-width:5.76"/>
	<text x="300.72" y="1294.96" style="font-family:'Helvetica';font-size:99.99px;fill:#000000" transform="rotate(-90 300.72,1294.96)" text-anchor="middle">-0.02</text>
	<line x1="390.80" y1="729.53" x2="350.83" y2="729.53" style="stroke:#000000;stroke-width:5.76"/>
	<text x="300.72" y="729.53" style="font-family:'Helvetica';font-size:99.99px;fill:#000000" transform="rotate(-90 300.72,729.53)" text-anchor="middle">0.00</text>
	<line x1="390.80" y1="164.22" x2="350.83" y2="164.22" style="stroke:#000000;stroke-width:5.76"/>
	<text x="300.72" y="164.22" style="font-family:'Helvetica';font-size:99.99px;fill:#000000" transform="rotate(-90 300.72,164.22)" text-anchor="middle">0.02</text>
	<text x="190.71" y="1294.96" style="font-family:'Helvetica';font-size:99.99px;fill:#000000" transform="rotate(-90 190.71,1294.96)" text-anchor="middle">Difference in Survival (years)</text>
	<line x1="390.80" y1="2489.19" x2="3859.02" y2="2489.19" style="stroke:#000000;stroke-width:5.76"/>
	<line x1="454.16" y1="2489.19" x2="454.16" y2="2529.16" style="stroke:#000000;stroke-width:5.76"/>
	<text x="454.16" y="2619.14" style="font-family:'Helvetica';font-size:99.99px;fill:#000000" text-anchor="middle">0</text>
	<line x1="1289.47" y1="2489.19" x2="1289.47" y2="2529.16" style="stroke:#000000;stroke-width:5.76"/>
	<text x="1289.47" y="2619.14" style="font-family:'Helvetica';font-size:99.99px;fill:#000000" text-anchor="middle">2</text>
	<line x1="2124.91" y1="2489.19" x2="2124.91" y2="2529.16" style="stroke:#000000;stroke-width:5.76"/>
	<text x="2124.91" y="2619.14" style="font-family:'Helvetica';font-size:99.99px;fill:#000000" text-anchor="middle">4</text>
	<line x1="2960.35" y1="2489.19" x2="2960.35" y2="2529.16" style="stroke:#000000;stroke-width:5.76"/>
	<text x="2960.35" y="2619.14" style="font-family:'Helvetica';font-size:99.99px;fill:#000000" text-anchor="middle">6</text>
	<line x1="3795.66" y1="2489.19" x2="3795.66" y2="2529.16" style="stroke:#000000;stroke-width:5.76"/>
	<text x="3795.66" y="2619.14" style="font-family:'Helvetica';font-size:99.99px;fill:#000000" text-anchor="middle">8</text>
	<text x="2124.91" y="2729.16" style="font-family:'Helvetica';font-size:99.99px;fill:#000000" text-anchor="middle">Years from baseline treatment outcome</text>
	<rect x="468.52" y="2031.42" width="374.47" height="99.99" style="fill:#4D4D4D;fill-opacity:0.35"/>
	<rect x="472.84" y="2035.74" width="365.83" height="91.35" style="fill:none;stroke:#202020;stroke-opacity:0.35;stroke-width:8.64"/>
	<rect x="468.52" y="2171.51" width="374.47" height="99.99" style="fill:#808080;fill-opacity:0.35"/>
	<rect x="472.84" y="2175.83" width="365.83" height="91.35" style="fill:none;stroke:#606060;stroke-opacity:0.35;stroke-width:8.64"/>
	<rect x="468.52" y="2311.47" width="374.47" height="99.99" style="fill:#B3B3B3;fill-opacity:0.35"/>
	<rect x="472.84" y="2315.79" width="365.83" height="91.35" style="fill:none;stroke:#A0A0A0;stroke-opacity:0.35;stroke-width:8.64"/>
	<text x="902.88" y="2116.44" style="font-family:'Helvetica';font-size:99.99px;fill:#000000">Late dropout vs. Tr. completion</text>
	<text x="902.88" y="2256.53" style="font-family:'Helvetica';font-size:99.99px;fill:#000000">Early dropout vs. Tr. completion</text>
	<text x="902.88" y="2396.50" style="font-family:'Helvetica';font-size:99.99px;fill:#000000">Early vs. late dropout</text>
</svg>
