<?xml version="1.0" encoding="UTF-8" standalone="no"?>
<!-- This is a Stata 16.1 generated SVG file (http://www.stata.com) -->

<svg version="1.1" width="5.50in" height="4.00in" viewBox="0 0 3960 2880" xmlns="http://www.w3.org/2000/svg" xmlns:xlink="http://www.w3.org/1999/xlink">
	<desc>Stata Graph - RMSTdiff_fin_ab</desc>
	<rect x="0" y="0" width="3960" height="2880" style="fill:#FFFFFF;stroke:none"/>
	<rect x="0.00" y="0.00" width="3959.88" height="2880.00" style="fill:#FFFFFF"/>
	<rect x="2.88" y="2.88" width="3954.12" height="2874.24" style="fill:none;stroke:#FFFFFF;stroke-width:5.76"/>
	<rect x="390.80" y="100.86" width="3468.22" height="2388.33" style="fill:#FFFFFF"/>
	<rect x="393.68" y="103.74" width="3462.46" height="2382.57" style="fill:none;stroke:#FFFFFF;stroke-width:5.76"/>
	<line x1="390.80" y1="2401.20" x2="3859.02" y2="2401.20" style="stroke:#EAF2F3;stroke-width:8.64"/>
	<line x1="390.80" y1="1953.70" x2="3859.02" y2="1953.70" style="stroke:#EAF2F3;stroke-width:8.64"/>
	<line x1="390.80" y1="1506.33" x2="3859.02" y2="1506.33" style="stroke:#EAF2F3;stroke-width:8.64"/>
	<line x1="390.80" y1="1058.96" x2="3859.02" y2="1058.96" style="stroke:#EAF2F3;stroke-width:8.64"/>
	<line x1="390.80" y1="611.59" x2="3859.02" y2="611.59" style="stroke:#EAF2F3;stroke-width:8.64"/>
	<line x1="390.80" y1="164.22" x2="3859.02" y2="164.22" style="stroke:#EAF2F3;stroke-width:8.64"/>
	<defs>
		<path id="path_UFoZktHK" d="M562.44 176.47 L562.44 176.47 L670.73 205.06 L779.01 245.40 L887.29 294.66 L995.57 351.21 L1103.85 413.71 L1212.13 481.40 L1320.54 553.92 L1428.82 630.65 L1537.10 710.97 L1645.38 794.75 L1753.66 881.50 L1861.94 971.10 L1970.22 1063.05 L2078.51 1157.35 L2186.79 1253.87 L2295.07 1352.38 L2403.35 1452.62 L2511.63 1554.84 L2620.03 1658.55 L2728.32 1763.99 L2836.60 1870.91 L2944.88 1979.20 L3053.16 2088.97 L3161.44 2199.97 L3269.72 2312.34 L3378.00 2425.82 L3378.00 1623.53 L3269.72 1551.25 L3161.44 1479.48 L3053.16 1407.95 L2944.88 1337.04 L2836.60 1266.62 L2728.32 1196.70 L2620.03 1127.52 L2511.63 1058.96 L2403.35 991.39 L2295.07 924.57 L2186.79 858.98 L2078.51 794.50 L1970.22 731.39 L1861.94 669.88 L1753.66 609.98 L1645.38 552.07 L1537.10 496.50 L1428.82 443.53 L1320.54 393.41 L1212.13 346.76 L1103.85 303.82 L995.57 265.33 L887.29 231.54 L779.01 203.58 L670.73 182.17 L562.44 168.68 L562.44 176.47 Z" stroke-linejoin="round"/>
	</defs>
	<defs>
		<clipPath id="clipPath_WTBcJKxp">
			<use xlink:href="#path_UFoZktHK"/>
		</clipPath>
	</defs>
	<use xlink:href="#path_UFoZktHK" style="stroke:none;fill:#3333FF;fill-opacity:0.20"/>
	<use xlink:href="#path_UFoZktHK" style="fill:none;stroke:#0000FF;stroke-opacity:0.20;stroke-width:17.28" clip-path="url(#clipPath_WTBcJKxp)"/>
	<path d=" M454.04 164.22 L562.32 172.64 L670.60 193.67 L779.01 224.61 L887.29 263.22 L995.57 308.27 L1103.85 358.76 L1212.13 414.20 L1320.41 473.73 L1428.69 537.09 L1536.97 603.80 L1645.26 673.47 L1753.54 745.86 L1861.82 820.49 L1970.22 897.34 L2078.51 976.05 L2186.79 1056.49 L2295.07 1138.54 L2403.35 1222.07 L2511.63 1306.96 L2619.91 1393.10 L2728.19 1480.34 L2836.47 1568.83 L2944.76 1658.18 L3053.04 1748.52 L3161.32 1839.85 L3269.72 1931.92 L3378.00 2024.74" stroke-linejoin="round" style="fill:none;stroke:#0000FF;stroke-width:8.64"/>
	<defs>
		<path id="path_VARDSucf" d="M562.44 164.22 L562.44 164.22 L670.73 164.22 L779.01 164.22 L887.29 164.22 L995.57 164.22 L1103.85 164.22 L1212.13 164.22 L1320.54 164.22 L1428.82 164.22 L1537.10 164.22 L1645.38 164.22 L1753.66 164.22 L1861.94 164.22 L1970.22 164.22 L2078.51 164.22 L2186.79 164.22 L2295.07 164.22 L2403.35 164.22 L2511.63 164.22 L2620.03 164.22 L2728.32 164.22 L2836.60 164.22 L2944.88 164.22 L3053.16 164.22 L3161.44 164.22 L3269.72 164.22 L3378.00 164.22 L3378.00 164.22 L3269.72 164.22 L3161.44 164.22 L3053.16 164.22 L2944.88 164.22 L2836.60 164.22 L2728.32 164.22 L2620.03 164.22 L2511.63 164.22 L2403.35 164.22 L2295.07 164.22 L2186.79 164.22 L2078.51 164.22 L1970.22 164.22 L1861.94 164.22 L1753.66 164.22 L1645.38 164.22 L1537.10 164.22 L1428.82 164.22 L1320.54 164.22 L1212.13 164.22 L1103.85 164.22 L995.57 164.22 L887.29 164.22 L779.01 164.22 L670.73 164.22 L562.44 164.22 L562.44 164.22 Z" stroke-linejoin="round"/>
	</defs>
	<defs>
		<clipPath id="clipPath_tOVzJSdC">
			<use xlink:href="#path_VARDSucf"/>
		</clipPath>
	</defs>
	<use xlink:href="#path_VARDSucf" style="stroke:none;fill:#FF3333;fill-opacity:0.20"/>
	<use xlink:href="#path_VARDSucf" style="fill:none;stroke:#FF0000;stroke-opacity:0.20;stroke-width:17.28" clip-path="url(#clipPath_tOVzJSdC)"/>
	<path d=" M454.04 164.22 L562.32 164.22 L670.60 164.22 L779.01 164.22 L887.29 164.22 L995.57 164.22 L1103.85 164.22 L1212.13 164.22 L1320.41 164.22 L1428.69 164.22 L1536.97 164.22 L1645.26 164.22 L1753.54 164.22 L1861.82 164.22 L1970.22 164.22 L2078.51 164.22 L2186.79 164.22 L2295.07 164.22 L2403.35 164.22 L2511.63 164.22 L2619.91 164.22 L2728.19 164.22 L2836.47 164.22 L2944.76 164.22 L3053.04 164.22 L3161.32 164.22 L3269.72 164.22 L3378.00 164.22" stroke-linejoin="round" style="fill:none;stroke:#FF0000;stroke-width:8.64"/>
	<path d=" M454.04 164.22 L562.32 164.22 L670.60 164.22 L779.01 164.22 L887.29 164.22 L995.57 164.22 L1103.85 164.22 L1212.13 164.22 L1320.41 164.22 L1428.69 164.22 L1536.97 164.22 L1645.26 164.22 L1753.54 164.22 L1861.82 164.22 L1970.22 164.22 L2078.51 164.22 L2186.79 164.22 L2295.07 164.22 L2403.35 164.22 L2511.63 164.22 L2619.91 164.22 L2728.19 164.22 L2836.47 164.22 L2944.76 164.22 L3053.04 164.22 L3161.32 164.22 L3269.72 164.22 L3378.00 164.22" stroke-linejoin="round" style="fill:none;stroke:#000000;stroke-opacity:0.20;stroke-width:23.04"/>
	<line x1="390.80" y1="2489.19" x2="390.80" y2="100.86" style="stroke:#000000;stroke-width:5.76"/>
	<line x1="390.80" y1="2401.20" x2="350.83" y2="2401.20" style="stroke:#000000;stroke-width:5.76"/>
	<text x="300.72" y="2401.20" style="font-family:'Helvetica';font-size:99.99px;fill:#000000" transform="rotate(-90 300.72,2401.20)" text-anchor="middle">-0.3</text>
	<line x1="390.80" y1="1953.70" x2="350.83" y2="1953.70" style="stroke:#000000;stroke-width:5.76"/>
	<text x="300.72" y="1953.70" style="font-family:'Helvetica';font-size:99.99px;fill:#000000" transform="rotate(-90 300.72,1953.70)" text-anchor="middle">-0.2</text>
	<line x1="390.80" y1="1506.33" x2="350.83" y2="1506.33" style="stroke:#000000;stroke-width:5.76"/>
	<text x="300.72" y="1506.33" style="font-family:'Helvetica';font-size:99.99px;fill:#000000" transform="rotate(-90 300.72,1506.33)" text-anchor="middle">-0.2</text>
	<line x1="390.80" y1="1058.96" x2="350.83" y2="1058.96" style="stroke:#000000;stroke-width:5.76"/>
	<text x="300.72" y="1058.96" style="font-family:'Helvetica';font-size:99.99px;fill:#000000" transform="rotate(-90 300.72,1058.96)" text-anchor="middle">-0.1</text>
	<line x1="390.80" y1="611.59" x2="350.83" y2="611.59" style="stroke:#000000;stroke-width:5.76"/>
	<text x="300.72" y="611.59" style="font-family:'Helvetica';font-size:99.99px;fill:#000000" transform="rotate(-90 300.72,611.59)" text-anchor="middle">-0.1</text>
	<line x1="390.80" y1="164.22" x2="350.83" y2="164.22" style="stroke:#000000;stroke-width:5.76"/>
	<text x="300.72" y="164.22" style="font-family:'Helvetica';font-size:99.99px;fill:#000000" transform="rotate(-90 300.72,164.22)" text-anchor="middle">0.0</text>
	<text x="190.71" y="1294.96" style="font-family:'Helvetica';font-size:99.99px;fill:#000000" transform="rotate(-90 190.71,1294.96)" text-anchor="middle">Difference in RMST (years)</text>
	<line x1="390.80" y1="2489.19" x2="3859.02" y2="2489.19" style="stroke:#000000;stroke-width:5.76"/>
	<line x1="454.16" y1="2489.19" x2="454.16" y2="2529.16" style="stroke:#000000;stroke-width:5.76"/>
	<text x="454.16" y="2619.14" style="font-family:'Helvetica';font-size:99.99px;fill:#000000" text-anchor="middle">0</text>
	<line x1="1289.47" y1="2489.19" x2="1289.47" y2="2529.16" style="stroke:#000000;stroke-width:5.76"/>
	<text x="1289.47" y="2619.14" style="font-family:'Helvetica';font-size:99.99px;fill:#000000" text-anchor="middle">2</text>
	<line x1="2124.91" y1="2489.19" x2="2124.91" y2="2529.16" style="stroke:#000000;stroke-width:5.76"/>
	<text x="2124.91" y="2619.14" style="font-family:'Helvetica';font-size:99.99px;fill:#000000" text-anchor="middle">4</text>
	<line x1="2960.35" y1="2489.19" x2="2960.35" y2="2529.16" style="stroke:#000000;stroke-width:5.76"/>
	<text x="2960.35" y="2619.14" style="font-family:'Helvetica';font-size:99.99px;fill:#000000" text-anchor="middle">6</text>
	<line x1="3795.66" y1="2489.19" x2="3795.66" y2="2529.16" style="stroke:#000000;stroke-width:5.76"/>
	<text x="3795.66" y="2619.14" style="font-family:'Helvetica';font-size:99.99px;fill:#000000" text-anchor="middle">8</text>
	<text x="2124.91" y="2729.16" style="font-family:'Helvetica';font-size:99.99px;fill:#000000" text-anchor="middle">Years from baseline treatment outcome</text>
	<rect x="468.52" y="2171.51" width="374.47" height="99.99" style="fill:#3333FF;fill-opacity:0.20"/>
	<rect x="472.84" y="2175.83" width="365.83" height="91.35" style="fill:none;stroke:#0000FF;stroke-opacity:0.20;stroke-width:8.64"/>
	<rect x="468.52" y="2311.47" width="374.47" height="99.99" style="fill:#FF3333;fill-opacity:0.20"/>
	<rect x="472.84" y="2315.79" width="365.83" height="91.35" style="fill:none;stroke:#FF0000;stroke-opacity:0.20;stroke-width:8.64"/>
	<text x="902.88" y="2256.53" style="font-family:'Helvetica';font-size:99.99px;fill:#000000">Late dropout vs. Early &amp; Tr. completion</text>
	<text x="902.88" y="2396.50" style="font-family:'Helvetica';font-size:99.99px;fill:#000000">Noncompletion vs. completion</text>
</svg>
