<?xml version="1.0" encoding="UTF-8" standalone="no"?>
<!-- This is a Stata 16.1 generated SVG file (http://www.stata.com) -->

<svg version="1.1" width="5.50in" height="4.00in" viewBox="0 0 3960 2880" xmlns="http://www.w3.org/2000/svg" xmlns:xlink="http://www.w3.org/1999/xlink">
	<desc>Stata Graph - surv_diffs</desc>
	<rect x="0" y="0" width="3960" height="2880" style="fill:#FFFFFF;stroke:none"/>
	<rect x="0.00" y="0.00" width="3959.88" height="2880.00" style="fill:#FFFFFF"/>
	<rect x="2.88" y="2.88" width="3954.12" height="2874.24" style="fill:none;stroke:#FFFFFF;stroke-width:5.76"/>
	<rect x="390.80" y="636.34" width="3468.22" height="1852.84" style="fill:#FFFFFF"/>
	<rect x="393.68" y="639.22" width="3462.46" height="1847.08" style="fill:none;stroke:#FFFFFF;stroke-width:5.76"/>
	<line x1="390.80" y1="2425.82" x2="3859.02" y2="2425.82" style="stroke:#EAF2F3;stroke-width:8.64"/>
	<line x1="390.80" y1="2080.67" x2="3859.02" y2="2080.67" style="stroke:#EAF2F3;stroke-width:8.64"/>
	<line x1="390.80" y1="1735.40" x2="3859.02" y2="1735.40" style="stroke:#EAF2F3;stroke-width:8.64"/>
	<line x1="390.80" y1="1390.13" x2="3859.02" y2="1390.13" style="stroke:#EAF2F3;stroke-width:8.64"/>
	<line x1="390.80" y1="1044.85" x2="3859.02" y2="1044.85" style="stroke:#EAF2F3;stroke-width:8.64"/>
	<line x1="390.80" y1="699.70" x2="3859.02" y2="699.70" style="stroke:#EAF2F3;stroke-width:8.64"/>
	<defs>
		<path id="path_bOeIERfJ" d="M454.16 1735.40 L454.16 1735.40 L562.44 1654.09 L670.73 1597.54 L887.29 1511.28 L995.57 1476.63 L1103.85 1447.05 L1212.13 1422.06 L1320.54 1400.28 L1753.66 1327.88 L1861.94 1312.66 L1970.22 1298.92 L2078.51 1286.92 L2186.79 1276.52 L2295.07 1267.49 L2403.35 1259.81 L2511.63 1253.13 L2620.03 1247.44 L2728.32 1242.49 L2836.60 1238.16 L2944.88 1234.44 L3053.16 1231.35 L3269.72 1226.28 L3378.00 1224.30 L3378.00 823.09 L3269.72 830.88 L3053.16 847.84 L2944.88 857.24 L2836.60 867.39 L2728.32 878.16 L2620.03 890.04 L2511.63 902.91 L2403.35 917.14 L2295.07 932.86 L2186.79 950.31 L2078.51 969.86 L1970.22 991.76 L1861.94 1015.77 L1753.66 1041.88 L1320.54 1160.07 L1212.13 1194.10 L1103.85 1232.84 L995.57 1278.62 L887.29 1332.71 L670.73 1470.32 L562.44 1566.23 L454.16 1735.40 L454.16 1735.40 Z" stroke-linejoin="round"/>
	</defs>
	<defs>
		<clipPath id="clipPath_tkszSbwB">
			<use xlink:href="#path_bOeIERfJ"/>
		</clipPath>
	</defs>
	<use xlink:href="#path_bOeIERfJ" style="stroke:none;fill:#8D8D8D;fill-opacity:0.35"/>
	<use xlink:href="#path_bOeIERfJ" style="fill:none;stroke:#707070;stroke-opacity:0.35;stroke-width:17.28" clip-path="url(#clipPath_tkszSbwB)"/>
	<path d=" M454.04 1735.40 L562.32 1610.16 L670.60 1534.05 L887.29 1422.06 L995.57 1377.63 L1103.85 1340.01 L1212.13 1308.20 L1320.41 1280.23 L1753.54 1184.94 L1861.82 1164.28 L1970.22 1145.47 L2078.51 1128.51 L2186.79 1113.41 L2295.07 1100.17 L2403.35 1088.54 L2511.63 1078.14 L2619.91 1068.74 L2728.19 1060.32 L2836.47 1052.77 L2944.76 1045.97 L3053.04 1039.66 L3269.72 1028.64 L3378.00 1023.69" stroke-linejoin="round" style="fill:none;stroke:#707070;stroke-width:23.04"/>
	<defs>
		<path id="path_mJwJgnPM" d="M454.16 1735.40 L454.16 1735.40 L670.73 1765.23 L779.01 1766.22 L995.57 1764.11 L1428.82 1755.82 L1537.10 1753.84 L1645.38 1752.11 L1753.66 1750.50 L2186.79 1745.92 L2295.07 1745.30 L3053.16 1745.92 L3161.44 1746.54 L3161.44 1447.43 L3053.16 1451.88 L2295.07 1490.00 L2186.79 1497.05 L1753.66 1530.96 L1645.38 1540.61 L1537.10 1550.39 L1428.82 1560.29 L995.57 1606.20 L779.01 1639.61 L670.73 1660.53 L454.16 1735.40 L454.16 1735.40 Z" stroke-linejoin="round"/>
	</defs>
	<defs>
		<clipPath id="clipPath_HxOTIhCC">
			<use xlink:href="#path_mJwJgnPM"/>
		</clipPath>
	</defs>
	<use xlink:href="#path_mJwJgnPM" style="stroke:none;fill:#4D4D4D;fill-opacity:0.35"/>
	<use xlink:href="#path_mJwJgnPM" style="fill:none;stroke:#202020;stroke-opacity:0.35;stroke-width:17.28" clip-path="url(#clipPath_HxOTIhCC)"/>
	<path d=" M454.04 1735.40 L670.60 1712.88 L779.01 1702.98 L995.57 1685.16 L1428.69 1658.05 L1536.97 1652.24 L1645.26 1646.42 L1753.54 1640.85 L2186.79 1621.55 L2295.07 1617.71 L3053.04 1598.90 L3161.32 1597.04" stroke-linejoin="round" style="fill:none;stroke:#202020;stroke-width:23.04"/>
	<defs>
		<path id="path_exIQIvgz" d="M454.16 1735.40 L454.16 1735.40 L670.73 1946.90 L779.01 2002.83 L995.57 2088.35 L1428.82 2195.02 L1537.10 2216.18 L1645.38 2236.60 L1753.66 2256.28 L2186.79 2321.25 L2295.07 2333.63 L3053.16 2395.13 L3161.44 2401.69 L3161.44 1995.65 L3053.16 1995.41 L2295.07 1984.27 L2186.79 1980.56 L1753.66 1956.55 L1645.38 1948.26 L1537.10 1939.22 L1428.82 1929.45 L995.57 1876.73 L779.01 1834.40 L670.73 1808.17 L454.16 1735.40 L454.16 1735.40 Z" stroke-linejoin="round"/>
	</defs>
	<defs>
		<clipPath id="clipPath_zrNWGxMY">
			<use xlink:href="#path_exIQIvgz"/>
		</clipPath>
	</defs>
	<use xlink:href="#path_exIQIvgz" style="stroke:none;fill:#B3B3B3;fill-opacity:0.25"/>
	<use xlink:href="#path_exIQIvgz" style="fill:none;stroke:#A0A0A0;stroke-opacity:0.25;stroke-width:17.28" clip-path="url(#clipPath_zrNWGxMY)"/>
	<path d=" M454.04 1735.40 L670.60 1877.59 L779.01 1918.68 L995.57 1982.54 L1428.69 2062.36 L1536.97 2077.70 L1645.26 2092.55 L1753.54 2106.54 L2186.79 2150.97 L2295.07 2159.01 L3053.04 2195.39 L3161.32 2198.73" stroke-linejoin="round" style="fill:none;stroke:#A0A0A0;stroke-width:23.04"/>
	<path d=" M454.04 1735.40 L562.32 1735.40 L670.60 1735.40 L779.01 1735.40 L887.29 1735.40 L995.57 1735.40 L1103.85 1735.40 L1212.13 1735.40 L1320.41 1735.40 L1428.69 1735.40 L1536.97 1735.40 L1645.26 1735.40 L1753.54 1735.40 L1861.82 1735.40 L1970.22 1735.40 L2078.51 1735.40 L2186.79 1735.40 L2295.07 1735.40 L2403.35 1735.40 L2511.63 1735.40 L2619.91 1735.40 L2728.19 1735.40 L2836.47 1735.40 L2944.76 1735.40 L3053.04 1735.40 L3161.32 1735.40 L3269.72 1735.40 L3378.00 1735.40" stroke-linejoin="round" style="fill:none;stroke:#000000;stroke-opacity:0.20;stroke-width:23.04"/>
	<line x1="390.80" y1="2489.19" x2="390.80" y2="636.34" style="stroke:#000000;stroke-width:5.76"/>
	<line x1="390.80" y1="2425.82" x2="350.83" y2="2425.82" style="stroke:#000000;stroke-width:5.76"/>
	<text x="300.72" y="2425.82" style="font-family:'Helvetica';font-size:99.99px;fill:#000000" transform="rotate(-90 300.72,2425.82)" text-anchor="middle">-.02</text>
	<line x1="390.80" y1="2080.67" x2="350.83" y2="2080.67" style="stroke:#000000;stroke-width:5.76"/>
	<text x="300.72" y="2080.67" style="font-family:'Helvetica';font-size:99.99px;fill:#000000" transform="rotate(-90 300.72,2080.67)" text-anchor="middle">-.01</text>
	<line x1="390.80" y1="1735.40" x2="350.83" y2="1735.40" style="stroke:#000000;stroke-width:5.76"/>
	<text x="300.72" y="1735.40" style="font-family:'Helvetica';font-size:99.99px;fill:#000000" transform="rotate(-90 300.72,1735.40)" text-anchor="middle">0</text>
	<line x1="390.80" y1="1390.13" x2="350.83" y2="1390.13" style="stroke:#000000;stroke-width:5.76"/>
	<text x="300.72" y="1390.13" style="font-family:'Helvetica';font-size:99.99px;fill:#000000" transform="rotate(-90 300.72,1390.13)" text-anchor="middle">.01</text>
	<line x1="390.80" y1="1044.85" x2="350.83" y2="1044.85" style="stroke:#000000;stroke-width:5.76"/>
	<text x="300.72" y="1044.85" style="font-family:'Helvetica';font-size:99.99px;fill:#000000" transform="rotate(-90 300.72,1044.85)" text-anchor="middle">.02</text>
	<line x1="390.80" y1="699.70" x2="350.83" y2="699.70" style="stroke:#000000;stroke-width:5.76"/>
	<text x="300.72" y="699.70" style="font-family:'Helvetica';font-size:99.99px;fill:#000000" transform="rotate(-90 300.72,699.70)" text-anchor="middle">.03</text>
	<text x="190.71" y="1562.76" style="font-family:'Helvetica';font-size:99.99px;fill:#000000" transform="rotate(-90 190.71,1562.76)" text-anchor="middle">Differences  of avoiding sentence (standardized)</text>
	<line x1="390.80" y1="2489.19" x2="3859.02" y2="2489.19" style="stroke:#000000;stroke-width:5.76"/>
	<line x1="454.16" y1="2489.19" x2="454.16" y2="2529.16" style="stroke:#000000;stroke-width:5.76"/>
	<text x="454.16" y="2619.14" style="font-family:'Helvetica';font-size:99.99px;fill:#000000" text-anchor="middle">0</text>
	<line x1="1289.47" y1="2489.19" x2="1289.47" y2="2529.16" style="stroke:#000000;stroke-width:5.76"/>
	<text x="1289.47" y="2619.14" style="font-family:'Helvetica';font-size:99.99px;fill:#000000" text-anchor="middle">2</text>
	<line x1="2124.91" y1="2489.19" x2="2124.91" y2="2529.16" style="stroke:#000000;stroke-width:5.76"/>
	<text x="2124.91" y="2619.14" style="font-family:'Helvetica';font-size:99.99px;fill:#000000" text-anchor="middle">4</text>
	<line x1="2960.35" y1="2489.19" x2="2960.35" y2="2529.16" style="stroke:#000000;stroke-width:5.76"/>
	<text x="2960.35" y="2619.14" style="font-family:'Helvetica';font-size:99.99px;fill:#000000" text-anchor="middle">6</text>
	<line x1="3795.66" y1="2489.19" x2="3795.66" y2="2529.16" style="stroke:#000000;stroke-width:5.76"/>
	<text x="3795.66" y="2619.14" style="font-family:'Helvetica';font-size:99.99px;fill:#000000" text-anchor="middle">8</text>
	<text x="2124.91" y="2729.16" style="font-family:'Helvetica';font-size:99.99px;fill:#000000" text-anchor="middle">Years from treatment outcome</text>
	<line x1="1946.96" y1="228.57" x2="2321.43" y2="228.57" style="stroke:#707070;stroke-width:23.04"/>
	<line x1="1946.96" y1="368.54" x2="2321.43" y2="368.54" style="stroke:#202020;stroke-width:23.04"/>
	<line x1="1946.96" y1="508.50" x2="2321.43" y2="508.50" style="stroke:#A0A0A0;stroke-width:23.04"/>
	<text x="2381.32" y="263.60" style="font-family:'Helvetica';font-size:99.99px;fill:#000000">Early vs. tr. completion</text>
	<text x="2381.32" y="403.57" style="font-family:'Helvetica';font-size:99.99px;fill:#000000">Late dropout vs. tr. completion</text>
	<text x="2381.32" y="543.53" style="font-family:'Helvetica';font-size:99.99px;fill:#000000">Late vs. early dropout</text>
</svg>
