<?xml version="1.0" encoding="UTF-8" standalone="no"?>
<!-- This is a Stata 16.1 generated SVG file (http://www.stata.com) -->

<svg version="1.1" width="5.50in" height="4.00in" viewBox="0 0 3960 2880" xmlns="http://www.w3.org/2000/svg" xmlns:xlink="http://www.w3.org/1999/xlink">
	<desc>Stata Graph - RMTLdiff</desc>
	<rect x="0" y="0" width="3960" height="2880" style="fill:#FFFFFF;stroke:none"/>
	<rect x="0.00" y="0.00" width="3959.88" height="2880.00" style="fill:#FFFFFF"/>
	<rect x="2.88" y="2.88" width="3954.12" height="2874.24" style="fill:none;stroke:#FFFFFF;stroke-width:5.76"/>
	<rect x="390.80" y="100.86" width="3468.22" height="2388.33" style="fill:#FFFFFF"/>
	<rect x="393.68" y="103.74" width="3462.46" height="2382.57" style="fill:none;stroke:#000000;stroke-width:5.76"/>
	<defs>
		<path id="path_EHdEbqpU" d="M507.25 1970.16 L507.25 1970.16 L560.46 1962.12 L613.68 1950.61 L666.76 1936.25 L719.98 1919.55 L773.07 1900.86 L826.28 1880.44 L879.49 1858.54 L932.58 1835.39 L985.79 1811.01 L1038.88 1785.52 L1092.09 1759.16 L1145.18 1732.06 L1198.39 1704.09 L1251.61 1675.50 L1304.70 1646.30 L1357.91 1616.47 L1411.00 1586.28 L1464.21 1555.46 L1517.42 1524.28 L1570.51 1492.72 L1623.72 1460.67 L1676.81 1428.37 L1730.03 1395.70 L1783.24 1362.78 L1836.33 1329.49 L1889.54 1295.95 L1942.63 1262.29 L1995.84 1228.38 L2048.93 1194.22 L2102.14 1159.94 L2155.35 1125.42 L2208.44 1090.89 L2261.66 1056.12 L2314.74 1021.34 L2367.96 986.44 L2421.17 951.42 L2474.26 916.27 L2527.47 881.13 L2580.56 845.86 L2633.77 810.59 L2686.98 775.19 L2740.07 739.80 L2793.28 704.28 L2846.37 668.77 L2899.59 633.25 L2952.68 597.73 L3005.89 562.09 L3059.10 526.45 L3112.19 490.81 L3165.40 455.17 L3218.49 419.40 L3271.70 383.76 L3324.91 348.00 L3378.00 312.35 L3378.00 593.52 L3324.91 622.73 L3271.70 651.94 L3218.49 681.14 L3165.40 710.35 L3112.19 739.55 L3059.10 768.76 L3005.89 798.09 L2952.68 827.29 L2899.59 856.62 L2846.37 885.95 L2793.28 915.16 L2740.07 944.49 L2686.98 973.82 L2633.77 1003.03 L2580.56 1032.35 L2527.47 1061.56 L2474.26 1090.77 L2421.17 1119.97 L2367.96 1149.05 L2314.74 1178.26 L2261.66 1207.22 L2208.44 1236.18 L2155.35 1265.14 L2102.14 1293.85 L2048.93 1322.56 L1995.84 1351.14 L1942.63 1379.61 L1889.54 1407.82 L1836.33 1435.92 L1783.24 1463.76 L1730.03 1491.48 L1676.81 1518.95 L1623.72 1546.06 L1570.51 1573.04 L1517.42 1599.52 L1464.21 1625.75 L1411.00 1651.62 L1357.91 1677.11 L1304.70 1702.11 L1251.61 1726.61 L1198.39 1750.62 L1145.18 1774.14 L1092.09 1796.91 L1038.88 1818.93 L985.79 1840.10 L932.58 1860.39 L879.49 1879.70 L826.28 1897.89 L773.07 1914.72 L719.98 1930.19 L666.76 1943.80 L613.68 1955.43 L560.46 1964.72 L507.25 1971.03 L507.25 1970.16 Z" stroke-linejoin="round"/>
	</defs>
	<defs>
		<clipPath id="clipPath_JmIhyuCK">
			<use xlink:href="#path_EHdEbqpU"/>
		</clipPath>
	</defs>
	<use xlink:href="#path_EHdEbqpU" style="stroke:none;fill:#4D4D4D;fill-opacity:0.35"/>
	<use xlink:href="#path_EHdEbqpU" style="fill:none;stroke:#202020;stroke-opacity:0.35;stroke-width:17.28" clip-path="url(#clipPath_JmIhyuCK)"/>
	<path d=" M454.04 1973.63 L507.25 1970.66 L560.34 1963.48 L613.55 1953.08 L666.76 1940.09 L719.85 1924.99 L773.07 1907.91 L826.15 1889.23 L879.37 1869.18 L932.58 1847.89 L985.67 1825.62 L1038.88 1802.23 L1091.97 1778.10 L1145.18 1753.10 L1198.39 1727.48 L1251.48 1701.12 L1304.70 1674.27 L1357.79 1646.92 L1411.00 1618.95 L1464.09 1590.73 L1517.30 1562.02 L1570.51 1532.94 L1623.60 1503.49 L1676.81 1473.66 L1729.90 1443.59 L1783.11 1413.27 L1836.33 1382.70 L1889.41 1352.01 L1942.63 1320.95 L1995.72 1289.76 L2048.93 1258.45 L2102.14 1226.90 L2155.23 1195.34 L2208.44 1163.66 L2261.53 1131.73 L2314.74 1099.80 L2367.83 1067.87 L2421.05 1035.70 L2474.26 1003.64 L2527.35 971.34 L2580.56 939.17 L2633.65 906.87 L2686.86 874.57 L2740.07 842.15 L2793.16 809.85 L2846.37 777.42 L2899.46 745.00 L2952.68 712.57 L3005.89 680.15 L3058.98 647.73 L3112.19 615.18 L3165.28 582.76 L3218.49 550.33 L3271.58 517.91 L3324.79 485.49 L3378.00 453.06" stroke-linejoin="round" style="fill:none;stroke:#202020;stroke-width:8.64"/>
	<defs>
		<path id="path_ZHNbFqZU" d="M507.25 1971.28 L507.25 1971.28 L560.46 1965.58 L613.68 1957.17 L666.76 1946.52 L719.98 1934.15 L773.07 1920.04 L826.28 1904.45 L879.49 1887.74 L932.58 1869.80 L985.79 1850.86 L1038.88 1831.19 L1092.09 1810.52 L1145.18 1789.11 L1198.39 1767.08 L1251.61 1744.43 L1304.70 1721.17 L1357.91 1697.41 L1411.00 1673.28 L1464.21 1648.53 L1517.42 1623.40 L1570.51 1597.91 L1623.72 1572.05 L1676.81 1545.81 L1730.03 1519.20 L1783.24 1492.35 L1836.33 1465.25 L1889.54 1437.77 L1942.63 1410.18 L1995.84 1382.21 L2048.93 1354.11 L2102.14 1325.78 L2155.35 1297.31 L2208.44 1268.72 L2261.66 1239.89 L2314.74 1210.93 L2367.96 1181.85 L2421.17 1152.64 L2474.26 1123.31 L2527.47 1093.98 L2580.56 1064.41 L2633.77 1034.83 L2686.98 1005.13 L2740.07 975.30 L2793.28 945.36 L2846.37 915.41 L2899.59 885.46 L2952.68 855.39 L3005.89 825.19 L3059.10 794.99 L3112.19 764.68 L3165.40 734.36 L3218.49 704.04 L3271.70 673.59 L3324.91 643.15 L3378.00 612.58 L3378.00 819.37 L3324.91 844.99 L3271.70 870.61 L3218.49 896.10 L3165.40 921.72 L3112.19 947.34 L3059.10 972.83 L3005.89 998.45 L2952.68 1023.94 L2899.59 1049.31 L2846.37 1074.80 L2793.28 1100.17 L2740.07 1125.54 L2686.98 1150.91 L2633.77 1176.16 L2580.56 1201.28 L2527.47 1226.52 L2474.26 1251.52 L2421.17 1276.52 L2367.96 1301.52 L2314.74 1326.27 L2261.66 1351.02 L2208.44 1375.65 L2155.35 1400.15 L2102.14 1424.53 L2048.93 1448.79 L1995.84 1472.79 L1942.63 1496.68 L1889.54 1520.44 L1836.33 1543.95 L1783.24 1567.22 L1730.03 1590.24 L1676.81 1613.01 L1623.72 1635.41 L1570.51 1657.56 L1517.42 1679.46 L1464.21 1700.87 L1411.00 1722.04 L1357.91 1742.70 L1304.70 1763.00 L1251.61 1782.67 L1198.39 1801.98 L1145.18 1820.67 L1092.09 1838.73 L1038.88 1856.18 L985.79 1872.89 L932.58 1888.73 L879.49 1903.71 L826.28 1917.57 L773.07 1930.44 L719.98 1942.07 L666.76 1952.22 L613.68 1960.76 L560.46 1967.44 L507.25 1971.77 L507.25 1971.28 Z" stroke-linejoin="round"/>
	</defs>
	<defs>
		<clipPath id="clipPath_nmFPwiGa">
			<use xlink:href="#path_ZHNbFqZU"/>
		</clipPath>
	</defs>
	<use xlink:href="#path_ZHNbFqZU" style="stroke:none;fill:#808080;fill-opacity:0.35"/>
	<use xlink:href="#path_ZHNbFqZU" style="fill:none;stroke:#606060;stroke-opacity:0.35;stroke-width:17.28" clip-path="url(#clipPath_nmFPwiGa)"/>
	<path d=" M454.04 1973.63 L507.25 1971.65 L560.34 1966.57 L613.55 1959.02 L666.76 1949.49 L719.85 1938.11 L773.07 1925.24 L826.15 1911.13 L879.37 1895.79 L932.58 1879.33 L985.67 1862.00 L1038.88 1843.69 L1091.97 1824.75 L1145.18 1804.95 L1198.39 1784.65 L1251.48 1763.62 L1304.70 1742.21 L1357.79 1720.18 L1411.00 1697.66 L1464.09 1674.76 L1517.30 1651.50 L1570.51 1627.86 L1623.60 1603.85 L1676.81 1579.47 L1729.90 1554.84 L1783.11 1529.85 L1836.33 1504.60 L1889.41 1479.23 L1942.63 1453.49 L1995.72 1427.62 L2048.93 1401.51 L2102.14 1375.28 L2155.23 1348.79 L2208.44 1322.19 L2261.53 1295.58 L2314.74 1268.72 L2367.83 1241.75 L2421.05 1214.64 L2474.26 1187.54 L2527.35 1160.32 L2580.56 1132.97 L2633.65 1105.49 L2686.86 1078.02 L2740.07 1050.42 L2793.16 1022.83 L2846.37 995.23 L2899.46 967.51 L2952.68 939.66 L3005.89 911.82 L3058.98 883.97 L3112.19 856.13 L3165.28 828.16 L3218.49 800.19 L3271.58 772.10 L3324.79 744.13 L3378.00 716.04" stroke-linejoin="round" style="fill:none;stroke:#606060;stroke-width:8.64"/>
	<defs>
		<path id="path_nJbIGAWM" d="M507.25 1974.12 L507.25 1974.12 L560.46 1975.36 L613.68 1977.09 L666.76 1979.32 L719.98 1981.67 L773.07 1984.39 L826.28 1987.12 L879.49 1990.09 L932.58 1993.18 L985.79 1996.27 L1038.88 1999.49 L1092.09 2002.71 L1145.18 2006.05 L1198.39 2009.27 L1251.61 2012.61 L1304.70 2015.83 L1357.91 2019.17 L1411.00 2022.39 L1464.21 2025.60 L1517.42 2028.82 L1570.51 2032.04 L1623.72 2035.13 L1676.81 2038.23 L1730.03 2041.32 L1783.24 2044.41 L1836.33 2047.38 L1889.54 2050.35 L1942.63 2053.32 L1995.84 2056.17 L2048.93 2059.02 L2102.14 2061.74 L2155.35 2064.46 L2208.44 2067.18 L2261.66 2069.78 L2314.74 2072.38 L2367.96 2074.86 L2421.17 2077.33 L2474.26 2079.81 L2527.47 2082.16 L2580.56 2084.51 L2633.77 2086.74 L2686.98 2088.97 L2740.07 2091.07 L2793.28 2093.17 L2846.37 2095.28 L2899.59 2097.26 L2952.68 2099.24 L3005.89 2101.09 L3059.10 2102.95 L3112.19 2104.81 L3165.40 2106.54 L3218.49 2108.27 L3271.70 2109.88 L3324.91 2111.49 L3378.00 2112.97 L3378.00 2359.99 L3324.91 2352.81 L3271.70 2345.63 L3218.49 2338.45 L3165.40 2331.15 L3112.19 2323.97 L3059.10 2316.67 L3005.89 2309.37 L2952.68 2302.07 L2899.59 2294.64 L2846.37 2287.34 L2793.28 2279.92 L2740.07 2272.49 L2686.98 2265.07 L2633.77 2257.64 L2580.56 2250.09 L2527.47 2242.54 L2474.26 2235.12 L2421.17 2227.57 L2367.96 2219.90 L2314.74 2212.35 L2261.66 2204.80 L2208.44 2197.13 L2155.35 2189.45 L2102.14 2181.78 L2048.93 2174.11 L1995.84 2166.44 L1942.63 2158.76 L1889.54 2151.09 L1836.33 2143.42 L1783.24 2135.62 L1730.03 2127.95 L1676.81 2120.28 L1623.72 2112.60 L1570.51 2104.93 L1517.42 2097.26 L1464.21 2089.58 L1411.00 2082.04 L1357.91 2074.49 L1304.70 2066.94 L1251.61 2059.51 L1198.39 2052.09 L1145.18 2044.79 L1092.09 2037.48 L1038.88 2030.43 L985.79 2023.38 L932.58 2016.57 L879.49 2010.01 L826.28 2003.58 L773.07 1997.51 L719.98 1991.69 L666.76 1986.37 L613.68 1981.67 L560.46 1977.71 L507.25 1974.86 L507.25 1974.12 Z" stroke-linejoin="round"/>
	</defs>
	<defs>
		<clipPath id="clipPath_WdOiXVuO">
			<use xlink:href="#path_nJbIGAWM"/>
		</clipPath>
	</defs>
	<use xlink:href="#path_nJbIGAWM" style="stroke:none;fill:#B3B3B3;fill-opacity:0.35"/>
	<use xlink:href="#path_nJbIGAWM" style="fill:none;stroke:#A0A0A0;stroke-opacity:0.35;stroke-width:17.28" clip-path="url(#clipPath_WdOiXVuO)"/>
	<path d=" M454.04 1973.63 L507.25 1974.49 L560.34 1976.60 L613.55 1979.44 L666.76 1982.91 L719.85 1986.74 L773.07 1990.95 L826.15 1995.41 L879.37 2000.11 L932.58 2004.94 L985.67 2009.89 L1038.88 2014.96 L1091.97 2020.16 L1145.18 2025.48 L1198.39 2030.80 L1251.48 2036.12 L1304.70 2041.44 L1357.79 2046.89 L1411.00 2052.21 L1464.09 2057.66 L1517.30 2063.10 L1570.51 2068.55 L1623.60 2073.99 L1676.81 2079.31 L1729.90 2084.76 L1783.11 2090.08 L1836.33 2095.40 L1889.41 2100.85 L1942.63 2106.04 L1995.72 2111.36 L2048.93 2116.69 L2102.14 2121.88 L2155.23 2127.08 L2208.44 2132.16 L2261.53 2137.35 L2314.74 2142.43 L2367.83 2147.50 L2421.05 2152.45 L2474.26 2157.52 L2527.35 2162.48 L2580.56 2167.30 L2633.65 2172.25 L2686.86 2177.08 L2740.07 2181.90 L2793.16 2186.61 L2846.37 2191.31 L2899.46 2196.01 L2952.68 2200.72 L3005.89 2205.29 L3058.98 2209.87 L3112.19 2214.45 L3165.28 2218.91 L3218.49 2223.36 L3271.58 2227.82 L3324.79 2232.27 L3378.00 2236.60" stroke-linejoin="round" style="fill:none;stroke:#A0A0A0;stroke-width:8.64"/>
	<path d=" M454.04 1973.63 L507.25 1973.63 L560.34 1973.63 L613.55 1973.63 L666.76 1973.63 L719.85 1973.63 L773.07 1973.63 L826.15 1973.63 L879.37 1973.63 L932.58 1973.63 L985.67 1973.63 L1038.88 1973.63 L1091.97 1973.63 L1145.18 1973.63 L1198.39 1973.63 L1251.48 1973.63 L1304.70 1973.63 L1357.79 1973.63 L1411.00 1973.63 L1464.09 1973.63 L1517.30 1973.63 L1570.51 1973.63 L1623.60 1973.63 L1676.81 1973.63 L1729.90 1973.63 L1783.11 1973.63 L1836.33 1973.63 L1889.41 1973.63 L1942.63 1973.63 L1995.72 1973.63 L2048.93 1973.63 L2102.14 1973.63 L2155.23 1973.63 L2208.44 1973.63 L2261.53 1973.63 L2314.74 1973.63 L2367.83 1973.63 L2421.05 1973.63 L2474.26 1973.63 L2527.35 1973.63 L2580.56 1973.63 L2633.65 1973.63 L2686.86 1973.63 L2740.07 1973.63 L2793.16 1973.63 L2846.37 1973.63 L2899.46 1973.63 L2952.68 1973.63 L3005.89 1973.63 L3058.98 1973.63 L3112.19 1973.63 L3165.28 1973.63 L3218.49 1973.63 L3271.58 1973.63 L3324.79 1973.63 L3378.00 1973.63" stroke-linejoin="round" style="fill:none;stroke:#000000;stroke-opacity:0.20;stroke-width:23.04"/>
	<line x1="390.80" y1="2489.19" x2="390.80" y2="100.86" style="stroke:#000000;stroke-width:5.76"/>
	<line x1="390.80" y1="2425.82" x2="350.83" y2="2425.82" style="stroke:#000000;stroke-width:5.76"/>
	<text x="300.72" y="2425.82" style="font-family:'Helvetica';font-size:99.99px;fill:#000000" transform="rotate(-90 300.72,2425.82)" text-anchor="middle">-0.2</text>
	<line x1="390.80" y1="1973.50" x2="350.83" y2="1973.50" style="stroke:#000000;stroke-width:5.76"/>
	<text x="300.72" y="1973.50" style="font-family:'Helvetica';font-size:99.99px;fill:#000000" transform="rotate(-90 300.72,1973.50)" text-anchor="middle">0.0</text>
	<line x1="390.80" y1="1521.18" x2="350.83" y2="1521.18" style="stroke:#000000;stroke-width:5.76"/>
	<text x="300.72" y="1521.18" style="font-family:'Helvetica';font-size:99.99px;fill:#000000" transform="rotate(-90 300.72,1521.18)" text-anchor="middle">0.2</text>
	<line x1="390.80" y1="1068.86" x2="350.83" y2="1068.86" style="stroke:#000000;stroke-width:5.76"/>
	<text x="300.72" y="1068.86" style="font-family:'Helvetica';font-size:99.99px;fill:#000000" transform="rotate(-90 300.72,1068.86)" text-anchor="middle">0.4</text>
	<line x1="390.80" y1="616.54" x2="350.83" y2="616.54" style="stroke:#000000;stroke-width:5.76"/>
	<text x="300.72" y="616.54" style="font-family:'Helvetica';font-size:99.99px;fill:#000000" transform="rotate(-90 300.72,616.54)" text-anchor="middle">0.6</text>
	<line x1="390.80" y1="164.22" x2="350.83" y2="164.22" style="stroke:#000000;stroke-width:5.76"/>
	<text x="300.72" y="164.22" style="font-family:'Helvetica';font-size:99.99px;fill:#000000" transform="rotate(-90 300.72,164.22)" text-anchor="middle">0.8</text>
	<text x="190.71" y="1294.96" style="font-family:'Helvetica';font-size:99.99px;fill:#000000" transform="rotate(-90 190.71,1294.96)" text-anchor="middle">Difference in RMTL (years)</text>
	<line x1="390.80" y1="2489.19" x2="3859.02" y2="2489.19" style="stroke:#000000;stroke-width:5.76"/>
	<line x1="454.16" y1="2489.19" x2="454.16" y2="2529.16" style="stroke:#000000;stroke-width:5.76"/>
	<text x="454.16" y="2619.14" style="font-family:'Helvetica';font-size:99.99px;fill:#000000" text-anchor="middle">0</text>
	<line x1="1289.47" y1="2489.19" x2="1289.47" y2="2529.16" style="stroke:#000000;stroke-width:5.76"/>
	<text x="1289.47" y="2619.14" style="font-family:'Helvetica';font-size:99.99px;fill:#000000" text-anchor="middle">2</text>
	<line x1="2124.91" y1="2489.19" x2="2124.91" y2="2529.16" style="stroke:#000000;stroke-width:5.76"/>
	<text x="2124.91" y="2619.14" style="font-family:'Helvetica';font-size:99.99px;fill:#000000" text-anchor="middle">4</text>
	<line x1="2960.35" y1="2489.19" x2="2960.35" y2="2529.16" style="stroke:#000000;stroke-width:5.76"/>
	<text x="2960.35" y="2619.14" style="font-family:'Helvetica';font-size:99.99px;fill:#000000" text-anchor="middle">6</text>
	<line x1="3795.66" y1="2489.19" x2="3795.66" y2="2529.16" style="stroke:#000000;stroke-width:5.76"/>
	<text x="3795.66" y="2619.14" style="font-family:'Helvetica';font-size:99.99px;fill:#000000" text-anchor="middle">8</text>
	<text x="2124.91" y="2729.16" style="font-family:'Helvetica';font-size:99.99px;fill:#000000" text-anchor="middle">Years from baseline treatment outcome</text>
	<rect x="468.52" y="178.58" width="374.47" height="99.99" style="fill:#4D4D4D;fill-opacity:0.35"/>
	<rect x="472.84" y="182.90" width="365.83" height="91.35" style="fill:none;stroke:#202020;stroke-opacity:0.35;stroke-width:8.64"/>
	<rect x="468.52" y="318.54" width="374.47" height="99.99" style="fill:#808080;fill-opacity:0.35"/>
	<rect x="472.84" y="322.86" width="365.83" height="91.35" style="fill:none;stroke:#606060;stroke-opacity:0.35;stroke-width:8.64"/>
	<rect x="468.52" y="458.51" width="374.47" height="99.99" style="fill:#B3B3B3;fill-opacity:0.35"/>
	<rect x="472.84" y="462.83" width="365.83" height="91.35" style="fill:none;stroke:#A0A0A0;stroke-opacity:0.35;stroke-width:8.64"/>
	<text x="902.88" y="263.60" style="font-family:'Helvetica';font-size:99.99px;fill:#000000">Early vs. Tr. completion</text>
	<text x="902.88" y="403.57" style="font-family:'Helvetica';font-size:99.99px;fill:#000000">Late vs. Tr. completion</text>
	<text x="902.88" y="543.53" style="font-family:'Helvetica';font-size:99.99px;fill:#000000">Late vs. Early dropout</text>
</svg>
