<?xml version="1.0" encoding="UTF-8" standalone="no"?>
<!-- This is a Stata 16.1 generated SVG file (http://www.stata.com) -->

<svg version="1.1" width="5.50in" height="4.00in" viewBox="0 0 3960 2880" xmlns="http://www.w3.org/2000/svg" xmlns:xlink="http://www.w3.org/1999/xlink">
	<desc>Stata Graph - rmst_std_fin_b</desc>
	<rect x="0" y="0" width="3960" height="2880" style="fill:#FFFFFF;stroke:none"/>
	<rect x="0.00" y="0.00" width="3959.88" height="2880.00" style="fill:#FFFFFF"/>
	<rect x="2.88" y="2.88" width="3954.12" height="2874.24" style="fill:none;stroke:#FFFFFF;stroke-width:5.76"/>
	<rect x="390.80" y="100.86" width="3468.22" height="2388.33" style="fill:#FFFFFF"/>
	<rect x="393.68" y="103.74" width="3462.46" height="2382.57" style="fill:none;stroke:#FFFFFF;stroke-width:5.76"/>
	<line x1="390.80" y1="2425.82" x2="3859.02" y2="2425.82" style="stroke:#EAF2F3;stroke-width:8.64"/>
	<line x1="390.80" y1="1986.00" x2="3859.02" y2="1986.00" style="stroke:#EAF2F3;stroke-width:8.64"/>
	<line x1="390.80" y1="1546.06" x2="3859.02" y2="1546.06" style="stroke:#EAF2F3;stroke-width:8.64"/>
	<line x1="390.80" y1="1106.11" x2="3859.02" y2="1106.11" style="stroke:#EAF2F3;stroke-width:8.64"/>
	<line x1="390.80" y1="666.17" x2="3859.02" y2="666.17" style="stroke:#EAF2F3;stroke-width:8.64"/>
	<line x1="390.80" y1="226.35" x2="3859.02" y2="226.35" style="stroke:#EAF2F3;stroke-width:8.64"/>
	<defs>
		<path id="path_VjhTyJZv" d="M562.44 2314.69 L562.44 2314.69 L670.73 2208.02 L779.01 2105.30 L887.29 2005.80 L995.57 1909.03 L1103.85 1814.97 L1212.13 1723.15 L1320.54 1633.43 L1428.82 1545.69 L1537.10 1459.92 L1645.38 1375.65 L1753.66 1293.10 L1861.94 1211.92 L1970.22 1132.10 L2078.51 1053.39 L2186.79 976.05 L2295.07 899.69 L2403.35 824.45 L2511.63 750.20 L2620.03 676.93 L2728.32 604.54 L2836.60 533.01 L2944.88 462.34 L3053.16 392.42 L3161.44 323.37 L3269.72 254.93 L3378.00 187.36 L3378.00 164.22 L3269.72 232.90 L3161.44 302.45 L3053.16 372.62 L2944.88 443.53 L2836.60 515.31 L2728.32 587.95 L2620.03 661.34 L2511.63 735.59 L2403.35 810.84 L2295.07 887.07 L2186.79 964.41 L2078.51 1042.75 L1970.22 1122.20 L1861.94 1203.01 L1753.66 1285.06 L1645.38 1368.47 L1537.10 1453.49 L1428.82 1540.24 L1320.54 1628.72 L1212.13 1719.19 L1103.85 1811.76 L995.57 1906.55 L887.29 2003.95 L779.01 2104.06 L670.73 2207.40 L562.44 2314.44 L562.44 2314.69 Z" stroke-linejoin="round"/>
	</defs>
	<defs>
		<clipPath id="clipPath_hkxSPsTt">
			<use xlink:href="#path_VjhTyJZv"/>
		</clipPath>
	</defs>
	<use xlink:href="#path_VjhTyJZv" style="stroke:none;fill:#FF3333;fill-opacity:0.25"/>
	<use xlink:href="#path_VjhTyJZv" style="fill:none;stroke:#FF0000;stroke-opacity:0.25;stroke-width:17.28" clip-path="url(#clipPath_hkxSPsTt)"/>
	<defs>
		<path id="path_UJelYqFM" d="M562.44 2315.43 L562.44 2315.43 L670.73 2210.74 L779.01 2110.25 L887.29 2013.48 L995.57 1919.79 L1103.85 1828.83 L1212.13 1740.47 L1320.54 1654.22 L1428.82 1570.19 L1537.10 1488.02 L1645.38 1407.58 L1753.66 1328.75 L1861.94 1251.40 L1970.22 1175.41 L2078.51 1100.67 L2186.79 1027.16 L2295.07 954.76 L2403.35 883.36 L2511.63 812.94 L2620.03 743.51 L2728.32 675.08 L2836.60 607.38 L2944.88 540.56 L3053.16 474.47 L3161.44 409.25 L3269.72 344.65 L3378.00 280.92 L3378.00 237.11 L3269.72 303.20 L3161.44 369.90 L3053.16 437.35 L2944.88 505.41 L2836.60 574.34 L2728.32 644.02 L2620.03 714.55 L2511.63 785.84 L2403.35 858.11 L2295.07 931.37 L2186.79 1005.62 L2078.51 1080.87 L1970.22 1157.35 L1861.94 1235.06 L1753.66 1314.02 L1645.38 1394.46 L1537.10 1476.38 L1428.82 1560.04 L1320.54 1645.56 L1212.13 1733.17 L1103.85 1823.02 L995.57 1915.21 L887.29 2010.13 L779.01 2108.02 L670.73 2209.38 L562.44 2315.06 L562.44 2315.43 Z" stroke-linejoin="round"/>
	</defs>
	<defs>
		<clipPath id="clipPath_jbfCZhqr">
			<use xlink:href="#path_UJelYqFM"/>
		</clipPath>
	</defs>
	<use xlink:href="#path_UJelYqFM" style="stroke:none;fill:#3333FF;fill-opacity:0.25"/>
	<use xlink:href="#path_UJelYqFM" style="fill:none;stroke:#0000FF;stroke-opacity:0.25;stroke-width:17.28" clip-path="url(#clipPath_jbfCZhqr)"/>
	<path d=" M454.04 2425.95 L562.32 2314.57 L670.60 2207.77 L779.01 2104.68 L887.29 2004.94 L995.57 1907.91 L1103.85 1813.37 L1212.13 1721.17 L1320.41 1631.08 L1428.69 1543.09 L1536.97 1456.83 L1645.26 1372.18 L1753.54 1289.14 L1861.82 1207.47 L1970.22 1127.27 L2078.51 1048.20 L2186.79 970.23 L2295.07 893.50 L2403.35 817.77 L2511.63 743.02 L2619.91 669.26 L2728.19 596.25 L2836.47 524.22 L2944.76 453.06 L3053.04 382.65 L3161.32 312.97 L3269.72 244.04 L3378.00 175.85" stroke-linejoin="round" style="fill:none;stroke:#FF0000;stroke-width:23.04"/>
	<path d=" M454.04 2425.95 L562.32 2315.31 L670.60 2210.12 L779.01 2109.26 L887.29 2011.87 L995.57 1917.57 L1103.85 1825.99 L1212.13 1736.89 L1320.41 1650.01 L1428.69 1565.24 L1536.97 1482.32 L1645.26 1401.02 L1753.54 1321.44 L1861.82 1243.23 L1970.22 1166.50 L2078.51 1090.89 L2186.79 1016.51 L2295.07 943.13 L2403.35 870.86 L2511.63 799.57 L2619.91 729.16 L2728.19 659.61 L2836.47 590.92 L2944.76 523.11 L3053.04 456.03 L3161.32 389.70 L3269.72 324.11 L3378.00 259.14" stroke-linejoin="round" style="fill:none;stroke:#0000FF;stroke-width:23.04"/>
	<line x1="390.80" y1="2489.19" x2="390.80" y2="100.86" style="stroke:#000000;stroke-width:5.76"/>
	<line x1="390.80" y1="2425.82" x2="350.83" y2="2425.82" style="stroke:#000000;stroke-width:5.76"/>
	<text x="300.72" y="2425.82" style="font-family:'Helvetica';font-size:99.99px;fill:#000000" transform="rotate(-90 300.72,2425.82)" text-anchor="middle">0</text>
	<line x1="390.80" y1="1986.00" x2="350.83" y2="1986.00" style="stroke:#000000;stroke-width:5.76"/>
	<text x="300.72" y="1986.00" style="font-family:'Helvetica';font-size:99.99px;fill:#000000" transform="rotate(-90 300.72,1986.00)" text-anchor="middle">1</text>
	<line x1="390.80" y1="1546.06" x2="350.83" y2="1546.06" style="stroke:#000000;stroke-width:5.76"/>
	<text x="300.72" y="1546.06" style="font-family:'Helvetica';font-size:99.99px;fill:#000000" transform="rotate(-90 300.72,1546.06)" text-anchor="middle">2</text>
	<line x1="390.80" y1="1106.11" x2="350.83" y2="1106.11" style="stroke:#000000;stroke-width:5.76"/>
	<text x="300.72" y="1106.11" style="font-family:'Helvetica';font-size:99.99px;fill:#000000" transform="rotate(-90 300.72,1106.11)" text-anchor="middle">3</text>
	<line x1="390.80" y1="666.17" x2="350.83" y2="666.17" style="stroke:#000000;stroke-width:5.76"/>
	<text x="300.72" y="666.17" style="font-family:'Helvetica';font-size:99.99px;fill:#000000" transform="rotate(-90 300.72,666.17)" text-anchor="middle">4</text>
	<line x1="390.80" y1="226.35" x2="350.83" y2="226.35" style="stroke:#000000;stroke-width:5.76"/>
	<text x="300.72" y="226.35" style="font-family:'Helvetica';font-size:99.99px;fill:#000000" transform="rotate(-90 300.72,226.35)" text-anchor="middle">5</text>
	<text x="190.71" y="1294.96" style="font-family:'Helvetica';font-size:99.99px;fill:#000000" transform="rotate(-90 190.71,1294.96)" text-anchor="middle">Restricted Mean Survival Times (standardized)</text>
	<line x1="390.80" y1="2489.19" x2="3859.02" y2="2489.19" style="stroke:#000000;stroke-width:5.76"/>
	<line x1="454.16" y1="2489.19" x2="454.16" y2="2529.16" style="stroke:#000000;stroke-width:5.76"/>
	<text x="454.16" y="2619.14" style="font-family:'Helvetica';font-size:99.99px;fill:#000000" text-anchor="middle">0</text>
	<line x1="1289.47" y1="2489.19" x2="1289.47" y2="2529.16" style="stroke:#000000;stroke-width:5.76"/>
	<text x="1289.47" y="2619.14" style="font-family:'Helvetica';font-size:99.99px;fill:#000000" text-anchor="middle">2</text>
	<line x1="2124.91" y1="2489.19" x2="2124.91" y2="2529.16" style="stroke:#000000;stroke-width:5.76"/>
	<text x="2124.91" y="2619.14" style="font-family:'Helvetica';font-size:99.99px;fill:#000000" text-anchor="middle">4</text>
	<line x1="2960.35" y1="2489.19" x2="2960.35" y2="2529.16" style="stroke:#000000;stroke-width:5.76"/>
	<text x="2960.35" y="2619.14" style="font-family:'Helvetica';font-size:99.99px;fill:#000000" text-anchor="middle">6</text>
	<line x1="3795.66" y1="2489.19" x2="3795.66" y2="2529.16" style="stroke:#000000;stroke-width:5.76"/>
	<text x="3795.66" y="2619.14" style="font-family:'Helvetica';font-size:99.99px;fill:#000000" text-anchor="middle">8</text>
	<text x="2124.91" y="2729.16" style="font-family:'Helvetica';font-size:99.99px;fill:#000000" text-anchor="middle">Years from treatment outcome</text>
	<rect x="2005.37" y="2171.51" width="374.34" height="99.99" style="fill:#FF3333;fill-opacity:0.25"/>
	<rect x="2009.69" y="2175.83" width="365.70" height="91.35" style="fill:none;stroke:#FF0000;stroke-opacity:0.25;stroke-width:8.64"/>
	<rect x="2005.37" y="2311.47" width="374.34" height="99.99" style="fill:#3333FF;fill-opacity:0.25"/>
	<rect x="2009.69" y="2315.79" width="365.70" height="91.35" style="fill:none;stroke:#0000FF;stroke-opacity:0.25;stroke-width:8.64"/>
	<text x="2439.73" y="2256.53" style="font-family:'Helvetica';font-size:99.99px;fill:#000000">Tr. completion &amp; Latedropout</text>
	<text x="2439.73" y="2396.50" style="font-family:'Helvetica';font-size:99.99px;fill:#000000">Early dropout</text>
</svg>
