<?xml version="1.0" encoding="UTF-8" standalone="no"?>
<!-- This is a Stata 16.1 generated SVG file (http://www.stata.com) -->

<svg version="1.1" width="5.50in" height="4.00in" viewBox="0 0 3960 2880" xmlns="http://www.w3.org/2000/svg" xmlns:xlink="http://www.w3.org/1999/xlink">
	<desc>Stata Graph - RMSTdiff</desc>
	<rect x="0" y="0" width="3960" height="2880" style="fill:#FFFFFF;stroke:none"/>
	<rect x="0.00" y="0.00" width="3959.88" height="2880.00" style="fill:#FFFFFF"/>
	<rect x="2.88" y="2.88" width="3954.12" height="2874.24" style="fill:none;stroke:#FFFFFF;stroke-width:5.76"/>
	<rect x="390.80" y="100.86" width="3468.22" height="2388.33" style="fill:#FFFFFF"/>
	<rect x="393.68" y="103.74" width="3462.46" height="2382.57" style="fill:none;stroke:#FFFFFF;stroke-width:5.76"/>
	<line x1="390.80" y1="2425.82" x2="3859.02" y2="2425.82" style="stroke:#EAF2F3;stroke-width:8.64"/>
	<line x1="390.80" y1="1860.39" x2="3859.02" y2="1860.39" style="stroke:#EAF2F3;stroke-width:8.64"/>
	<line x1="390.80" y1="1294.96" x2="3859.02" y2="1294.96" style="stroke:#EAF2F3;stroke-width:8.64"/>
	<line x1="390.80" y1="729.53" x2="3859.02" y2="729.53" style="stroke:#EAF2F3;stroke-width:8.64"/>
	<line x1="390.80" y1="164.22" x2="3859.02" y2="164.22" style="stroke:#EAF2F3;stroke-width:8.64"/>
	<defs>
		<path id="path_QfLKXyKe" d="M562.44 736.71 L562.44 736.71 L670.73 752.67 L779.01 775.32 L887.29 803.16 L995.57 835.71 L1103.85 872.09 L1212.13 911.82 L1320.54 954.39 L1428.82 999.56 L1537.10 1047.08 L1645.38 1096.95 L1753.66 1148.93 L1861.94 1203.01 L1970.22 1258.82 L2078.51 1316.37 L2186.79 1375.28 L2295.07 1435.67 L2403.35 1497.17 L2511.63 1559.67 L2620.03 1623.28 L2728.32 1687.76 L2836.60 1753.10 L2944.88 1819.18 L3053.16 1886.01 L3161.44 1953.58 L3269.72 2021.64 L3378.00 2090.45 L3378.00 1687.88 L3269.72 1640.61 L3161.44 1593.45 L3053.16 1546.55 L2944.88 1500.02 L2836.60 1453.86 L2728.32 1407.95 L2620.03 1362.53 L2511.63 1317.73 L2403.35 1273.30 L2295.07 1229.62 L2186.79 1186.68 L2078.51 1144.48 L1970.22 1103.39 L1861.94 1063.29 L1753.66 1024.56 L1645.38 987.31 L1537.10 951.54 L1428.82 917.51 L1320.54 885.21 L1212.13 855.02 L1103.85 826.92 L995.57 801.31 L887.29 778.66 L779.01 759.48 L670.73 744.38 L562.44 733.86 L562.44 736.71 Z" stroke-linejoin="round"/>
	</defs>
	<defs>
		<clipPath id="clipPath_zuiMswhy">
			<use xlink:href="#path_QfLKXyKe"/>
		</clipPath>
	</defs>
	<use xlink:href="#path_QfLKXyKe" style="stroke:none;fill:#4D4D4D;fill-opacity:0.35"/>
	<use xlink:href="#path_QfLKXyKe" style="fill:none;stroke:#202020;stroke-opacity:0.35;stroke-width:17.28" clip-path="url(#clipPath_zuiMswhy)"/>
	<path d=" M454.04 729.65 L562.32 735.35 L670.60 748.59 L779.01 767.40 L887.29 791.03 L995.57 818.51 L1103.85 849.57 L1212.13 883.48 L1320.41 919.86 L1428.69 958.60 L1536.97 999.31 L1645.26 1042.13 L1753.54 1086.81 L1861.82 1133.21 L1970.22 1181.11 L2078.51 1230.48 L2186.79 1280.98 L2295.07 1332.71 L2403.35 1385.30 L2511.63 1438.76 L2619.91 1492.97 L2728.19 1547.91 L2836.47 1603.48 L2944.76 1659.66 L3053.04 1716.34 L3161.32 1773.52 L3269.72 1831.19 L3378.00 1889.23" stroke-linejoin="round" style="fill:none;stroke:#202020;stroke-width:8.64"/>
	<defs>
		<path id="path_CpLIFCaD" d="M562.44 734.48 L562.44 734.48 L670.73 745.49 L779.01 761.21 L887.29 780.64 L995.57 803.29 L1103.85 828.66 L1212.13 856.38 L1320.54 886.20 L1428.82 917.76 L1537.10 951.05 L1645.38 985.95 L1753.66 1022.33 L1861.94 1060.08 L1970.22 1099.31 L2078.51 1139.53 L2186.79 1180.98 L2295.07 1223.31 L2403.35 1266.50 L2511.63 1310.43 L2620.03 1355.10 L2728.32 1400.40 L2836.60 1446.44 L2944.88 1492.97 L3053.16 1540.12 L3161.44 1587.64 L3269.72 1635.78 L3378.00 1684.41 L3378.00 1390.75 L3269.72 1357.95 L3161.44 1325.28 L3053.16 1292.73 L2944.88 1260.43 L2836.60 1228.38 L2728.32 1196.45 L2620.03 1165.02 L2511.63 1133.71 L2403.35 1102.89 L2295.07 1072.57 L2186.79 1042.75 L2078.51 1013.54 L1970.22 984.96 L1861.94 957.24 L1753.66 930.51 L1645.38 904.76 L1537.10 880.14 L1428.82 856.62 L1320.54 834.60 L1212.13 813.93 L1103.85 794.75 L995.57 777.42 L887.29 762.08 L779.01 749.33 L670.73 739.18 L562.44 732.38 L562.44 734.48 Z" stroke-linejoin="round"/>
	</defs>
	<defs>
		<clipPath id="clipPath_DfgskGao">
			<use xlink:href="#path_CpLIFCaD"/>
		</clipPath>
	</defs>
	<use xlink:href="#path_CpLIFCaD" style="stroke:none;fill:#808080;fill-opacity:0.35"/>
	<use xlink:href="#path_CpLIFCaD" style="fill:none;stroke:#606060;stroke-opacity:0.35;stroke-width:17.28" clip-path="url(#clipPath_DfgskGao)"/>
	<path d=" M454.04 729.65 L562.32 733.49 L670.60 742.40 L779.01 755.27 L887.29 771.48 L995.57 790.42 L1103.85 811.83 L1212.13 835.21 L1320.41 860.46 L1428.69 887.32 L1536.97 915.65 L1645.26 945.36 L1753.54 976.42 L1861.82 1008.72 L1970.22 1042.13 L2078.51 1076.53 L2186.79 1111.93 L2295.07 1147.94 L2403.35 1184.70 L2511.63 1222.19 L2619.91 1260.06 L2728.19 1298.55 L2836.47 1337.41 L2944.76 1376.76 L3053.04 1416.49 L3161.32 1456.58 L3269.72 1496.93 L3378.00 1537.64" stroke-linejoin="round" style="fill:none;stroke:#606060;stroke-width:8.64"/>
	<defs>
		<path id="path_sOmkuurZ" d="M562.44 729.03 L562.44 729.03 L670.73 727.55 L779.01 725.07 L887.29 721.86 L995.57 717.90 L1103.85 713.32 L1212.13 708.24 L1320.54 702.80 L1428.82 696.98 L1537.10 690.67 L1645.38 684.24 L1753.66 677.43 L1861.94 670.37 L1970.22 663.20 L2078.51 655.77 L2186.79 648.22 L2295.07 640.55 L2403.35 632.88 L2511.63 625.08 L2620.03 617.16 L2728.32 609.24 L2836.60 601.44 L2944.88 593.52 L3053.16 585.60 L3161.44 577.81 L3269.72 569.89 L3378.00 562.09 L3378.00 193.80 L3269.72 220.78 L3161.44 247.38 L3053.16 273.74 L2944.88 299.86 L2836.60 325.60 L2728.32 351.09 L2620.03 376.21 L2511.63 400.96 L2403.35 425.34 L2295.07 449.23 L2186.79 472.74 L2078.51 495.63 L1970.22 518.03 L1861.94 539.81 L1753.66 560.98 L1645.38 581.40 L1537.10 600.95 L1428.82 619.64 L1320.54 637.46 L1212.13 654.41 L1103.85 670.25 L995.57 684.98 L887.29 698.22 L779.01 709.85 L670.73 719.38 L562.44 726.31 L562.44 729.03 Z" stroke-linejoin="round"/>
	</defs>
	<defs>
		<clipPath id="clipPath_tETunlmJ">
			<use xlink:href="#path_sOmkuurZ"/>
		</clipPath>
	</defs>
	<use xlink:href="#path_sOmkuurZ" style="stroke:none;fill:#B3B3B3;fill-opacity:0.35"/>
	<use xlink:href="#path_sOmkuurZ" style="fill:none;stroke:#A0A0A0;stroke-opacity:0.35;stroke-width:17.28" clip-path="url(#clipPath_tETunlmJ)"/>
	<path d=" M454.04 729.65 L562.32 727.80 L670.60 723.47 L779.01 717.52 L887.29 710.10 L995.57 701.56 L1103.85 691.91 L1212.13 681.39 L1320.41 670.25 L1428.69 658.37 L1536.97 645.87 L1645.26 632.88 L1753.54 619.26 L1861.82 605.16 L1970.22 590.68 L2078.51 575.83 L2186.79 560.48 L2295.07 545.01 L2403.35 529.17 L2511.63 513.08 L2619.91 496.75 L2728.19 480.29 L2836.47 463.58 L2944.76 446.75 L3053.04 429.80 L3161.32 412.60 L3269.72 395.39 L3378.00 378.07" stroke-linejoin="round" style="fill:none;stroke:#A0A0A0;stroke-width:8.64"/>
	<path d=" M454.04 729.65 L562.32 729.65 L670.60 729.65 L779.01 729.65 L887.29 729.65 L995.57 729.65 L1103.85 729.65 L1212.13 729.65 L1320.41 729.65 L1428.69 729.65 L1536.97 729.65 L1645.26 729.65 L1753.54 729.65 L1861.82 729.65 L1970.22 729.65 L2078.51 729.65 L2186.79 729.65 L2295.07 729.65 L2403.35 729.65 L2511.63 729.65 L2619.91 729.65 L2728.19 729.65 L2836.47 729.65 L2944.76 729.65 L3053.04 729.65 L3161.32 729.65 L3269.72 729.65 L3378.00 729.65" stroke-linejoin="round" style="fill:none;stroke:#000000;stroke-opacity:0.20;stroke-width:23.04"/>
	<line x1="390.80" y1="2489.19" x2="390.80" y2="100.86" style="stroke:#000000;stroke-width:5.76"/>
	<line x1="390.80" y1="2425.82" x2="350.83" y2="2425.82" style="stroke:#000000;stroke-width:5.76"/>
	<text x="300.72" y="2425.82" style="font-family:'Helvetica';font-size:99.99px;fill:#000000" transform="rotate(-90 300.72,2425.82)" text-anchor="middle">-0.3</text>
	<line x1="390.80" y1="1860.39" x2="350.83" y2="1860.39" style="stroke:#000000;stroke-width:5.76"/>
	<text x="300.72" y="1860.39" style="font-family:'Helvetica';font-size:99.99px;fill:#000000" transform="rotate(-90 300.72,1860.39)" text-anchor="middle">-0.2</text>
	<line x1="390.80" y1="1294.96" x2="350.83" y2="1294.96" style="stroke:#000000;stroke-width:5.76"/>
	<text x="300.72" y="1294.96" style="font-family:'Helvetica';font-size:99.99px;fill:#000000" transform="rotate(-90 300.72,1294.96)" text-anchor="middle">-0.1</text>
	<line x1="390.80" y1="729.53" x2="350.83" y2="729.53" style="stroke:#000000;stroke-width:5.76"/>
	<text x="300.72" y="729.53" style="font-family:'Helvetica';font-size:99.99px;fill:#000000" transform="rotate(-90 300.72,729.53)" text-anchor="middle">0.0</text>
	<line x1="390.80" y1="164.22" x2="350.83" y2="164.22" style="stroke:#000000;stroke-width:5.76"/>
	<text x="300.72" y="164.22" style="font-family:'Helvetica';font-size:99.99px;fill:#000000" transform="rotate(-90 300.72,164.22)" text-anchor="middle">0.1</text>
	<text x="190.71" y="1294.96" style="font-family:'Helvetica';font-size:99.99px;fill:#000000" transform="rotate(-90 190.71,1294.96)" text-anchor="middle">Difference in RMST (years)</text>
	<line x1="390.80" y1="2489.19" x2="3859.02" y2="2489.19" style="stroke:#000000;stroke-width:5.76"/>
	<line x1="454.16" y1="2489.19" x2="454.16" y2="2529.16" style="stroke:#000000;stroke-width:5.76"/>
	<text x="454.16" y="2619.14" style="font-family:'Helvetica';font-size:99.99px;fill:#000000" text-anchor="middle">0</text>
	<line x1="1289.47" y1="2489.19" x2="1289.47" y2="2529.16" style="stroke:#000000;stroke-width:5.76"/>
	<text x="1289.47" y="2619.14" style="font-family:'Helvetica';font-size:99.99px;fill:#000000" text-anchor="middle">2</text>
	<line x1="2124.91" y1="2489.19" x2="2124.91" y2="2529.16" style="stroke:#000000;stroke-width:5.76"/>
	<text x="2124.91" y="2619.14" style="font-family:'Helvetica';font-size:99.99px;fill:#000000" text-anchor="middle">4</text>
	<line x1="2960.35" y1="2489.19" x2="2960.35" y2="2529.16" style="stroke:#000000;stroke-width:5.76"/>
	<text x="2960.35" y="2619.14" style="font-family:'Helvetica';font-size:99.99px;fill:#000000" text-anchor="middle">6</text>
	<line x1="3795.66" y1="2489.19" x2="3795.66" y2="2529.16" style="stroke:#000000;stroke-width:5.76"/>
	<text x="3795.66" y="2619.14" style="font-family:'Helvetica';font-size:99.99px;fill:#000000" text-anchor="middle">8</text>
	<text x="2124.91" y="2729.16" style="font-family:'Helvetica';font-size:99.99px;fill:#000000" text-anchor="middle">Years from baseline treatment outcome</text>
	<rect x="468.52" y="2031.42" width="374.47" height="99.99" style="fill:#4D4D4D;fill-opacity:0.35"/>
	<rect x="472.84" y="2035.74" width="365.83" height="91.35" style="fill:none;stroke:#202020;stroke-opacity:0.35;stroke-width:8.64"/>
	<rect x="468.52" y="2171.51" width="374.47" height="99.99" style="fill:#808080;fill-opacity:0.35"/>
	<rect x="472.84" y="2175.83" width="365.83" height="91.35" style="fill:none;stroke:#606060;stroke-opacity:0.35;stroke-width:8.64"/>
	<rect x="468.52" y="2311.47" width="374.47" height="99.99" style="fill:#B3B3B3;fill-opacity:0.35"/>
	<rect x="472.84" y="2315.79" width="365.83" height="91.35" style="fill:none;stroke:#A0A0A0;stroke-opacity:0.35;stroke-width:8.64"/>
	<text x="902.88" y="2116.44" style="font-family:'Helvetica';font-size:99.99px;fill:#000000">Early vs. Tr. completion</text>
	<text x="902.88" y="2256.53" style="font-family:'Helvetica';font-size:99.99px;fill:#000000">Late vs. Tr. completion</text>
	<text x="902.88" y="2396.50" style="font-family:'Helvetica';font-size:99.99px;fill:#000000">Late vs. Early dropout</text>
</svg>
