<?xml version="1.0" encoding="UTF-8" standalone="no"?>
<!-- This is a Stata 16.1 generated SVG file (http://www.stata.com) -->

<svg version="1.1" width="5.50in" height="4.00in" viewBox="0 0 3960 2880" xmlns="http://www.w3.org/2000/svg" xmlns:xlink="http://www.w3.org/1999/xlink">
	<desc>Stata Graph - s_diff</desc>
	<rect x="0" y="0" width="3960" height="2880" style="fill:#FFFFFF;stroke:none"/>
	<rect x="0.00" y="0.00" width="3959.88" height="2880.00" style="fill:#FFFFFF"/>
	<rect x="2.88" y="2.88" width="3954.12" height="2874.24" style="fill:none;stroke:#FFFFFF;stroke-width:5.76"/>
	<rect x="390.80" y="100.86" width="3468.22" height="2388.33" style="fill:#FFFFFF"/>
	<rect x="393.68" y="103.74" width="3462.46" height="2382.57" style="fill:none;stroke:#FFFFFF;stroke-width:5.76"/>
	<line x1="390.80" y1="1860.39" x2="3859.02" y2="1860.39" style="stroke:#EAF2F3;stroke-width:8.64"/>
	<line x1="390.80" y1="1294.96" x2="3859.02" y2="1294.96" style="stroke:#EAF2F3;stroke-width:8.64"/>
	<line x1="390.80" y1="729.53" x2="3859.02" y2="729.53" style="stroke:#EAF2F3;stroke-width:8.64"/>
	<line x1="390.80" y1="164.22" x2="3859.02" y2="164.22" style="stroke:#EAF2F3;stroke-width:8.64"/>
	<defs>
		<path id="path_rXnKjNwW" d="M454.16 729.53 L454.16 729.53 L562.44 965.90 L670.73 1107.35 L779.01 1220.09 L887.29 1316.00 L995.57 1398.29 L1103.85 1467.97 L1212.13 1527.12 L1320.54 1579.59 L1428.82 1627.98 L1537.10 1674.02 L1645.38 1717.70 L1753.66 1758.54 L1861.94 1796.29 L1970.22 1830.44 L2078.51 1861.26 L2186.79 1888.73 L2295.07 1913.48 L2403.35 1935.76 L2511.63 1956.18 L2620.03 1974.86 L2728.32 1992.07 L2836.60 2008.03 L2944.88 2023.00 L3053.16 2036.99 L3161.44 2050.23 L3269.72 2062.73 L3378.00 2074.61 L3378.00 1631.32 L3269.72 1627.61 L3161.44 1623.28 L3053.16 1618.45 L2944.88 1612.88 L2836.60 1606.45 L2728.32 1599.02 L2620.03 1590.61 L2511.63 1580.96 L2403.35 1569.82 L2295.07 1557.07 L2186.79 1542.34 L2078.51 1525.27 L1970.22 1505.59 L1861.94 1482.94 L1753.66 1457.33 L1645.38 1428.99 L1537.10 1398.05 L1428.82 1364.88 L1320.54 1329.49 L1212.13 1290.51 L1103.85 1246.20 L995.57 1194.10 L887.29 1132.60 L779.01 1061.19 L670.73 978.89 L562.44 878.16 L454.16 729.53 L454.16 729.53 Z" stroke-linejoin="round"/>
	</defs>
	<defs>
		<clipPath id="clipPath_VvPCVrHT">
			<use xlink:href="#path_rXnKjNwW"/>
		</clipPath>
	</defs>
	<use xlink:href="#path_rXnKjNwW" style="stroke:none;fill:#4D4D4D;fill-opacity:0.35"/>
	<use xlink:href="#path_rXnKjNwW" style="fill:none;stroke:#202020;stroke-opacity:0.35;stroke-width:17.28" clip-path="url(#clipPath_VvPCVrHT)"/>
	<path d=" M454.04 729.65 L562.32 922.09 L670.60 1043.12 L779.01 1140.64 L887.29 1224.30 L995.57 1296.20 L1103.85 1357.21 L1212.13 1408.94 L1320.41 1454.60 L1428.69 1496.56 L1536.97 1536.03 L1645.26 1573.41 L1753.54 1608.06 L1861.82 1639.61 L1970.22 1668.08 L2078.51 1693.32 L2186.79 1715.60 L2295.07 1735.28 L2403.35 1752.85 L2511.63 1768.69 L2619.91 1782.80 L2728.19 1795.67 L2836.47 1807.30 L2944.76 1817.94 L3053.04 1827.84 L3161.32 1836.88 L3269.72 1845.17 L3378.00 1852.97" stroke-linejoin="round" style="fill:none;stroke:#202020;stroke-width:8.64"/>
	<defs>
		<path id="path_iHKOUDwn" d="M454.16 729.53 L454.16 729.53 L562.44 892.27 L670.73 991.39 L779.01 1070.72 L887.29 1138.16 L995.57 1196.20 L1103.85 1245.34 L1212.13 1287.04 L1320.54 1324.17 L1428.82 1358.45 L1537.10 1390.99 L1645.38 1422.06 L1753.66 1451.26 L1861.94 1478.12 L1970.22 1502.74 L2078.51 1524.90 L2186.79 1544.82 L2295.07 1562.89 L2403.35 1579.22 L2511.63 1594.32 L2620.03 1608.18 L2728.32 1621.05 L2836.60 1633.06 L2944.88 1644.32 L3053.16 1654.96 L3161.44 1665.11 L3269.72 1674.76 L3378.00 1683.92 L3378.00 1350.03 L3269.72 1348.05 L3161.44 1345.58 L3053.16 1342.73 L2944.88 1339.26 L2836.60 1335.18 L2728.32 1330.35 L2620.03 1324.79 L2511.63 1318.23 L2403.35 1310.68 L2295.07 1301.77 L2186.79 1291.50 L2078.51 1279.49 L1970.22 1265.63 L1861.94 1249.54 L1753.66 1231.23 L1645.38 1210.93 L1537.10 1188.78 L1428.82 1165.14 L1320.54 1139.77 L1212.13 1112.05 L1103.85 1080.50 L995.57 1043.62 L887.29 1000.43 L779.01 950.92 L670.73 894.37 L562.44 826.30 L454.16 729.53 L454.16 729.53 Z" stroke-linejoin="round"/>
	</defs>
	<defs>
		<clipPath id="clipPath_CVsmtaJh">
			<use xlink:href="#path_iHKOUDwn"/>
		</clipPath>
	</defs>
	<use xlink:href="#path_iHKOUDwn" style="stroke:none;fill:#808080;fill-opacity:0.35"/>
	<use xlink:href="#path_iHKOUDwn" style="fill:none;stroke:#606060;stroke-opacity:0.35;stroke-width:17.28" clip-path="url(#clipPath_CVsmtaJh)"/>
	<path d=" M454.04 729.65 L562.32 859.35 L670.60 943.00 L779.01 1010.82 L887.29 1069.36 L995.57 1119.97 L1103.85 1162.92 L1212.13 1199.55 L1320.41 1231.97 L1428.69 1261.79 L1536.97 1290.01 L1645.26 1316.62 L1753.54 1341.24 L1861.82 1363.89 L1970.22 1384.19 L2078.51 1402.26 L2186.79 1418.22 L2295.07 1432.45 L2403.35 1445.07 L2511.63 1456.34 L2619.91 1466.61 L2728.19 1475.76 L2836.47 1484.18 L2944.76 1491.85 L3053.04 1498.91 L3161.32 1505.47 L3269.72 1511.41 L3378.00 1517.10" stroke-linejoin="round" style="fill:none;stroke:#606060;stroke-width:8.64"/>
	<defs>
		<path id="path_iHSMhHNH" d="M454.16 729.53 L454.16 729.53 L562.44 709.48 L670.73 690.92 L779.01 675.08 L887.29 660.97 L995.57 648.97 L1103.85 638.82 L1212.13 630.28 L1320.54 622.98 L1428.82 616.54 L1537.10 610.85 L1645.38 605.65 L1753.66 601.20 L1861.94 597.36 L1970.22 594.14 L2078.51 591.54 L2186.79 589.56 L2295.07 588.20 L2403.35 587.09 L2511.63 586.47 L2620.03 586.10 L2728.32 585.97 L2836.60 586.10 L2944.88 586.35 L3053.16 586.84 L3161.44 587.58 L3269.72 588.33 L3378.00 589.19 L3378.00 198.01 L3269.72 203.33 L3161.44 208.77 L3053.16 214.59 L2944.88 220.53 L2836.60 226.84 L2728.32 233.52 L2620.03 240.58 L2511.63 248.25 L2403.35 256.42 L2295.07 265.20 L2186.79 274.86 L2078.51 285.50 L1970.22 297.26 L1861.94 310.37 L1753.66 324.48 L1645.38 339.83 L1537.10 356.16 L1428.82 373.24 L1320.54 391.06 L1212.13 410.24 L1103.85 432.02 L995.57 457.64 L887.29 488.33 L779.01 524.47 L670.73 567.78 L562.44 624.34 L454.16 729.53 L454.16 729.53 Z" stroke-linejoin="round"/>
	</defs>
	<defs>
		<clipPath id="clipPath_GXJhFHqh">
			<use xlink:href="#path_iHSMhHNH"/>
		</clipPath>
	</defs>
	<use xlink:href="#path_iHSMhHNH" style="stroke:none;fill:#B3B3B3;fill-opacity:0.35"/>
	<use xlink:href="#path_iHSMhHNH" style="fill:none;stroke:#A0A0A0;stroke-opacity:0.35;stroke-width:17.28" clip-path="url(#clipPath_GXJhFHqh)"/>
	<path d=" M454.04 729.65 L562.32 666.91 L670.60 629.41 L779.01 599.83 L887.29 574.71 L995.57 553.30 L1103.85 535.48 L1212.13 520.39 L1320.41 507.02 L1428.69 494.89 L1536.97 483.51 L1645.26 472.86 L1753.54 462.96 L1861.82 453.93 L1970.22 445.76 L2078.51 438.58 L2186.79 432.27 L2295.07 426.70 L2403.35 421.75 L2511.63 417.42 L2619.91 413.34 L2728.19 409.75 L2836.47 406.53 L2944.76 403.56 L3053.04 400.72 L3161.32 398.24 L3269.72 395.89 L3378.00 393.66" stroke-linejoin="round" style="fill:none;stroke:#A0A0A0;stroke-width:8.64"/>
	<path d=" M454.04 729.65 L562.32 729.65 L670.60 729.65 L779.01 729.65 L887.29 729.65 L995.57 729.65 L1103.85 729.65 L1212.13 729.65 L1320.41 729.65 L1428.69 729.65 L1536.97 729.65 L1645.26 729.65 L1753.54 729.65 L1861.82 729.65 L1970.22 729.65 L2078.51 729.65 L2186.79 729.65 L2295.07 729.65 L2403.35 729.65 L2511.63 729.65 L2619.91 729.65 L2728.19 729.65 L2836.47 729.65 L2944.76 729.65 L3053.04 729.65 L3161.32 729.65 L3269.72 729.65 L3378.00 729.65" stroke-linejoin="round" style="fill:none;stroke:#000000;stroke-opacity:0.20;stroke-width:23.04"/>
	<line x1="390.80" y1="2489.19" x2="390.80" y2="100.86" style="stroke:#000000;stroke-width:5.76"/>
	<line x1="390.80" y1="2425.82" x2="350.83" y2="2425.82" style="stroke:#000000;stroke-width:5.76"/>
	<text x="300.72" y="2425.82" style="font-family:'Helvetica';font-size:99.99px;fill:#000000" transform="rotate(-90 300.72,2425.82)" text-anchor="middle">-0.06</text>
	<line x1="390.80" y1="1860.39" x2="350.83" y2="1860.39" style="stroke:#000000;stroke-width:5.76"/>
	<text x="300.72" y="1860.39" style="font-family:'Helvetica';font-size:99.99px;fill:#000000" transform="rotate(-90 300.72,1860.39)" text-anchor="middle">-0.04</text>
	<line x1="390.80" y1="1294.96" x2="350.83" y2="1294.96" style="stroke:#000000;stroke-width:5.76"/>
	<text x="300.72" y="1294.96" style="font-family:'Helvetica';font-size:99.99px;fill:#000000" transform="rotate(-90 300.72,1294.96)" text-anchor="middle">-0.02</text>
	<line x1="390.80" y1="729.53" x2="350.83" y2="729.53" style="stroke:#000000;stroke-width:5.76"/>
	<text x="300.72" y="729.53" style="font-family:'Helvetica';font-size:99.99px;fill:#000000" transform="rotate(-90 300.72,729.53)" text-anchor="middle">0.00</text>
	<line x1="390.80" y1="164.22" x2="350.83" y2="164.22" style="stroke:#000000;stroke-width:5.76"/>
	<text x="300.72" y="164.22" style="font-family:'Helvetica';font-size:99.99px;fill:#000000" transform="rotate(-90 300.72,164.22)" text-anchor="middle">0.02</text>
	<text x="190.71" y="1294.96" style="font-family:'Helvetica';font-size:99.99px;fill:#000000" transform="rotate(-90 190.71,1294.96)" text-anchor="middle">Difference in Survival (years)</text>
	<line x1="390.80" y1="2489.19" x2="3859.02" y2="2489.19" style="stroke:#000000;stroke-width:5.76"/>
	<line x1="454.16" y1="2489.19" x2="454.16" y2="2529.16" style="stroke:#000000;stroke-width:5.76"/>
	<text x="454.16" y="2619.14" style="font-family:'Helvetica';font-size:99.99px;fill:#000000" text-anchor="middle">0</text>
	<line x1="1289.47" y1="2489.19" x2="1289.47" y2="2529.16" style="stroke:#000000;stroke-width:5.76"/>
	<text x="1289.47" y="2619.14" style="font-family:'Helvetica';font-size:99.99px;fill:#000000" text-anchor="middle">2</text>
	<line x1="2124.91" y1="2489.19" x2="2124.91" y2="2529.16" style="stroke:#000000;stroke-width:5.76"/>
	<text x="2124.91" y="2619.14" style="font-family:'Helvetica';font-size:99.99px;fill:#000000" text-anchor="middle">4</text>
	<line x1="2960.35" y1="2489.19" x2="2960.35" y2="2529.16" style="stroke:#000000;stroke-width:5.76"/>
	<text x="2960.35" y="2619.14" style="font-family:'Helvetica';font-size:99.99px;fill:#000000" text-anchor="middle">6</text>
	<line x1="3795.66" y1="2489.19" x2="3795.66" y2="2529.16" style="stroke:#000000;stroke-width:5.76"/>
	<text x="3795.66" y="2619.14" style="font-family:'Helvetica';font-size:99.99px;fill:#000000" text-anchor="middle">8</text>
	<text x="2124.91" y="2729.16" style="font-family:'Helvetica';font-size:99.99px;fill:#000000" text-anchor="middle">Years from baseline treatment outcome</text>
	<rect x="468.52" y="2031.42" width="374.47" height="99.99" style="fill:#4D4D4D;fill-opacity:0.35"/>
	<rect x="472.84" y="2035.74" width="365.83" height="91.35" style="fill:none;stroke:#202020;stroke-opacity:0.35;stroke-width:8.64"/>
	<rect x="468.52" y="2171.51" width="374.47" height="99.99" style="fill:#808080;fill-opacity:0.35"/>
	<rect x="472.84" y="2175.83" width="365.83" height="91.35" style="fill:none;stroke:#606060;stroke-opacity:0.35;stroke-width:8.64"/>
	<rect x="468.52" y="2311.47" width="374.47" height="99.99" style="fill:#B3B3B3;fill-opacity:0.35"/>
	<rect x="472.84" y="2315.79" width="365.83" height="91.35" style="fill:none;stroke:#A0A0A0;stroke-opacity:0.35;stroke-width:8.64"/>
	<text x="902.88" y="2116.44" style="font-family:'Helvetica';font-size:99.99px;fill:#000000">Early vs. Tr. completion</text>
	<text x="902.88" y="2256.53" style="font-family:'Helvetica';font-size:99.99px;fill:#000000">Late vs. Tr. completion</text>
	<text x="902.88" y="2396.50" style="font-family:'Helvetica';font-size:99.99px;fill:#000000">Late vs. Early dropout</text>
</svg>
