<?xml version="1.0" encoding="UTF-8" standalone="no"?>
<!-- This is a Stata 16.1 generated SVG file (http://www.stata.com) -->

<svg version="1.1" width="5.50in" height="4.00in" viewBox="0 0 3960 2880" xmlns="http://www.w3.org/2000/svg" xmlns:xlink="http://www.w3.org/1999/xlink">
	<desc>Stata Graph - s_diff</desc>
	<rect x="0" y="0" width="3960" height="2880" style="fill:#FFFFFF;stroke:none"/>
	<rect x="0.00" y="0.00" width="3959.88" height="2880.00" style="fill:#FFFFFF"/>
	<rect x="2.88" y="2.88" width="3954.12" height="2874.24" style="fill:none;stroke:#FFFFFF;stroke-width:5.76"/>
	<rect x="390.80" y="100.86" width="3468.22" height="2388.33" style="fill:#FFFFFF"/>
	<rect x="393.68" y="103.74" width="3462.46" height="2382.57" style="fill:none;stroke:#FFFFFF;stroke-width:5.76"/>
	<line x1="390.80" y1="2425.82" x2="3859.02" y2="2425.82" style="stroke:#EAF2F3;stroke-width:8.64"/>
	<line x1="390.80" y1="1862.37" x2="3859.02" y2="1862.37" style="stroke:#EAF2F3;stroke-width:8.64"/>
	<line x1="390.80" y1="1299.04" x2="3859.02" y2="1299.04" style="stroke:#EAF2F3;stroke-width:8.64"/>
	<line x1="390.80" y1="735.59" x2="3859.02" y2="735.59" style="stroke:#EAF2F3;stroke-width:8.64"/>
	<line x1="390.80" y1="172.14" x2="3859.02" y2="172.14" style="stroke:#EAF2F3;stroke-width:8.64"/>
	<defs>
		<path id="path_aEMgdBnO" d="M454.16 735.59 L454.16 735.59 L507.25 886.08 L560.46 983.22 L613.68 1061.93 L666.76 1129.75 L719.98 1190.26 L773.07 1245.34 L826.28 1296.20 L879.49 1343.47 L932.58 1387.28 L985.79 1427.87 L1038.88 1465.25 L1092.09 1499.77 L1145.18 1531.33 L1198.39 1560.54 L1251.61 1587.76 L1304.70 1613.63 L1357.91 1638.38 L1411.00 1662.26 L1464.21 1685.53 L1517.42 1708.30 L1570.51 1730.70 L1623.72 1752.73 L1676.81 1774.38 L1730.03 1795.42 L1783.24 1815.84 L1836.33 1835.52 L1889.54 1854.45 L1942.63 1872.52 L1995.84 1889.85 L2048.93 1906.30 L2102.14 1921.90 L2155.35 1936.62 L2208.44 1950.48 L2261.66 1963.60 L2314.74 1975.98 L2367.96 1987.73 L2421.17 1998.87 L2474.26 2009.39 L2527.47 2019.42 L2580.56 2029.07 L2633.77 2038.10 L2686.98 2046.89 L2740.07 2055.18 L2793.28 2063.22 L2846.37 2070.90 L2899.59 2078.32 L2952.68 2085.38 L3005.89 2092.31 L3059.10 2098.87 L3112.19 2105.30 L3165.40 2111.36 L3218.49 2117.43 L3271.70 2123.25 L3324.91 2128.81 L3378.00 2134.26 L3378.00 1733.17 L3324.91 1730.95 L3271.70 1728.59 L3218.49 1726.12 L3165.40 1723.40 L3112.19 1720.55 L3059.10 1717.58 L3005.89 1714.24 L2952.68 1710.90 L2899.59 1707.18 L2846.37 1703.22 L2793.28 1699.14 L2740.07 1694.69 L2686.98 1689.86 L2633.77 1684.79 L2580.56 1679.46 L2527.47 1673.65 L2474.26 1667.46 L2421.17 1660.78 L2367.96 1653.72 L2314.74 1646.17 L2261.66 1638.01 L2208.44 1629.22 L2155.35 1619.94 L2102.14 1609.79 L2048.93 1599.02 L1995.84 1587.51 L1942.63 1575.26 L1889.54 1562.27 L1836.33 1548.53 L1783.24 1534.18 L1730.03 1519.20 L1676.81 1503.61 L1623.72 1487.52 L1570.51 1470.94 L1517.42 1453.98 L1464.21 1436.78 L1411.00 1418.96 L1357.91 1400.65 L1304.70 1381.59 L1251.61 1361.54 L1198.39 1340.25 L1145.18 1317.36 L1092.09 1292.73 L1038.88 1266.00 L985.79 1236.92 L932.58 1205.36 L879.49 1171.45 L826.28 1134.82 L773.07 1095.84 L719.98 1053.89 L666.76 1008.22 L613.68 957.36 L560.46 899.57 L507.25 830.88 L454.16 735.59 L454.16 735.59 Z" stroke-linejoin="round"/>
	</defs>
	<defs>
		<clipPath id="clipPath_GWbhgIas">
			<use xlink:href="#path_aEMgdBnO"/>
		</clipPath>
	</defs>
	<use xlink:href="#path_aEMgdBnO" style="stroke:none;fill:#4D4D4D;fill-opacity:0.35"/>
	<use xlink:href="#path_aEMgdBnO" style="fill:none;stroke:#202020;stroke-opacity:0.35;stroke-width:17.28" clip-path="url(#clipPath_GWbhgIas)"/>
	<path d=" M454.04 735.59 L507.25 858.48 L560.34 941.40 L613.55 1009.71 L666.76 1069.11 L719.85 1122.20 L773.07 1170.71 L826.15 1215.63 L879.37 1257.46 L932.58 1296.45 L985.67 1332.46 L1038.88 1365.75 L1091.97 1396.31 L1145.18 1424.41 L1198.39 1450.40 L1251.48 1474.65 L1304.70 1497.67 L1357.79 1519.57 L1411.00 1540.74 L1464.09 1561.16 L1517.30 1581.20 L1570.51 1600.88 L1623.60 1620.19 L1676.81 1639.00 L1729.90 1657.31 L1783.11 1675.01 L1836.33 1692.09 L1889.41 1708.42 L1942.63 1724.02 L1995.72 1738.74 L2048.93 1752.73 L2102.14 1765.97 L2155.23 1778.34 L2208.44 1789.98 L2261.53 1800.87 L2314.74 1811.14 L2367.83 1820.79 L2421.05 1829.82 L2474.26 1838.49 L2527.35 1846.66 L2580.56 1854.33 L2633.65 1861.51 L2686.86 1868.44 L2740.07 1874.99 L2793.16 1881.18 L2846.37 1887.12 L2899.46 1892.82 L2952.68 1898.26 L3005.89 1903.33 L3058.98 1908.28 L3112.19 1912.99 L3165.28 1917.44 L3218.49 1921.77 L3271.58 1925.98 L3324.79 1929.94 L3378.00 1933.78" stroke-linejoin="round" style="fill:none;stroke:#202020;stroke-width:8.64"/>
	<defs>
		<path id="path_IyctlkZt" d="M454.16 735.59 L454.16 735.59 L507.25 833.98 L560.46 898.95 L613.68 952.04 L666.76 997.70 L719.98 1038.67 L773.07 1075.79 L826.28 1110.20 L879.49 1142.25 L932.58 1171.95 L985.79 1199.55 L1038.88 1224.92 L1092.09 1248.31 L1145.18 1269.84 L1198.39 1289.64 L1251.61 1308.20 L1304.70 1325.78 L1357.91 1342.73 L1411.00 1359.06 L1464.21 1374.91 L1517.42 1390.50 L1570.51 1405.84 L1623.72 1420.94 L1676.81 1435.79 L1730.03 1450.27 L1783.24 1464.38 L1836.33 1477.99 L1889.54 1490.99 L1942.63 1503.61 L1995.84 1515.61 L2048.93 1527.00 L2102.14 1537.89 L2155.35 1548.04 L2208.44 1557.81 L2261.66 1566.97 L2314.74 1575.63 L2367.96 1583.93 L2421.17 1591.85 L2474.26 1599.27 L2527.47 1606.45 L2580.56 1613.26 L2633.77 1619.81 L2686.98 1626.00 L2740.07 1632.07 L2793.28 1637.76 L2846.37 1643.33 L2899.59 1648.77 L2952.68 1653.85 L3005.89 1658.92 L3059.10 1663.75 L3112.19 1668.45 L3165.40 1673.03 L3218.49 1677.36 L3271.70 1681.69 L3324.91 1685.90 L3378.00 1689.98 L3378.00 1389.51 L3324.91 1388.27 L3271.70 1386.91 L3218.49 1385.42 L3165.40 1383.82 L3112.19 1382.08 L3059.10 1380.23 L3005.89 1378.25 L2952.68 1376.02 L2899.59 1373.79 L2846.37 1371.32 L2793.28 1368.59 L2740.07 1365.75 L2686.98 1362.65 L2633.77 1359.31 L2580.56 1355.72 L2527.47 1351.89 L2474.26 1347.80 L2421.17 1343.47 L2367.96 1338.65 L2314.74 1333.57 L2261.66 1328.13 L2208.44 1322.31 L2155.35 1315.87 L2102.14 1309.07 L2048.93 1301.77 L1995.84 1293.97 L1942.63 1285.68 L1889.54 1276.89 L1836.33 1267.61 L1783.24 1257.83 L1730.03 1247.56 L1676.81 1237.04 L1623.72 1226.03 L1570.51 1214.77 L1517.42 1203.26 L1464.21 1191.50 L1411.00 1179.37 L1357.91 1166.88 L1304.70 1153.88 L1251.61 1140.27 L1198.39 1125.79 L1145.18 1110.44 L1092.09 1093.74 L1038.88 1075.79 L985.79 1056.24 L932.58 1035.32 L879.49 1012.68 L826.28 988.55 L773.07 962.93 L719.98 935.46 L666.76 905.75 L613.68 873.21 L560.46 836.33 L507.25 793.26 L454.16 735.59 L454.16 735.59 Z" stroke-linejoin="round"/>
	</defs>
	<defs>
		<clipPath id="clipPath_cDsRjPyw">
			<use xlink:href="#path_IyctlkZt"/>
		</clipPath>
	</defs>
	<use xlink:href="#path_IyctlkZt" style="stroke:none;fill:#808080;fill-opacity:0.35"/>
	<use xlink:href="#path_IyctlkZt" style="fill:none;stroke:#606060;stroke-opacity:0.35;stroke-width:17.28" clip-path="url(#clipPath_cDsRjPyw)"/>
	<path d=" M454.04 735.59 L507.25 813.68 L560.34 867.76 L613.55 912.68 L666.76 951.79 L719.85 987.06 L773.07 1019.36 L826.15 1049.43 L879.37 1077.52 L932.58 1103.64 L985.67 1127.89 L1038.88 1150.42 L1091.97 1171.08 L1145.18 1190.14 L1198.39 1207.84 L1251.48 1224.30 L1304.70 1239.89 L1357.79 1254.86 L1411.00 1269.22 L1464.09 1283.20 L1517.30 1296.94 L1570.51 1310.31 L1623.60 1323.55 L1676.81 1336.42 L1729.90 1349.04 L1783.11 1361.17 L1836.33 1372.80 L1889.41 1383.94 L1942.63 1394.71 L1995.72 1404.85 L2048.93 1414.51 L2102.14 1423.54 L2155.23 1432.08 L2208.44 1440.12 L2261.53 1447.67 L2314.74 1454.73 L2367.83 1461.41 L2421.05 1467.72 L2474.26 1473.66 L2527.35 1479.23 L2580.56 1484.55 L2633.65 1489.63 L2686.86 1494.45 L2740.07 1498.91 L2793.16 1503.24 L2846.37 1507.32 L2899.46 1511.28 L2952.68 1514.99 L3005.89 1518.58 L3058.98 1522.05 L3112.19 1525.27 L3165.28 1528.48 L3218.49 1531.45 L3271.58 1534.30 L3324.79 1537.15 L3378.00 1539.87" stroke-linejoin="round" style="fill:none;stroke:#606060;stroke-width:8.64"/>
	<defs>
		<path id="path_HbPueMHV" d="M454.16 735.59 L454.16 735.59 L507.25 717.52 L560.46 702.06 L613.68 688.44 L666.76 676.19 L719.98 665.05 L773.07 654.66 L826.28 645.01 L879.49 635.97 L932.58 627.68 L985.79 619.88 L1038.88 612.71 L1092.09 606.15 L1145.18 600.08 L1198.39 594.64 L1251.61 589.44 L1304.70 584.61 L1357.91 580.16 L1411.00 575.83 L1464.21 571.74 L1517.42 567.78 L1570.51 563.95 L1623.72 560.23 L1676.81 556.77 L1730.03 553.30 L1783.24 550.09 L1836.33 547.12 L1889.54 544.15 L1942.63 541.55 L1995.84 539.07 L2048.93 536.72 L2102.14 534.62 L2155.35 532.76 L2208.44 531.03 L2261.66 529.42 L2314.74 528.06 L2367.96 526.70 L2421.17 525.58 L2474.26 524.59 L2527.47 523.60 L2580.56 522.86 L2633.77 522.12 L2686.98 521.50 L2740.07 520.88 L2793.28 520.39 L2846.37 520.01 L2899.59 519.64 L2952.68 519.39 L3005.89 519.15 L3059.10 519.02 L3112.19 518.90 L3165.40 518.78 L3218.49 518.78 L3271.70 518.78 L3324.91 518.90 L3378.00 518.90 L3378.00 164.22 L3324.91 166.57 L3271.70 169.05 L3218.49 171.65 L3165.40 174.25 L3112.19 176.84 L3059.10 179.69 L3005.89 182.41 L2952.68 185.38 L2899.59 188.35 L2846.37 191.45 L2793.28 194.66 L2740.07 198.01 L2686.98 201.47 L2633.77 205.06 L2580.56 208.90 L2527.47 212.73 L2474.26 216.82 L2421.17 221.15 L2367.96 225.60 L2314.74 230.31 L2261.66 235.26 L2208.44 240.45 L2155.35 245.90 L2102.14 251.72 L2048.93 257.78 L1995.84 264.21 L1942.63 271.02 L1889.54 278.07 L1836.33 285.50 L1783.24 293.17 L1730.03 301.09 L1676.81 309.26 L1623.72 317.55 L1570.51 326.09 L1517.42 334.75 L1464.21 343.54 L1411.00 352.45 L1357.91 361.49 L1304.70 371.01 L1251.61 380.91 L1198.39 391.31 L1145.18 402.45 L1092.09 414.58 L1038.88 427.82 L985.79 442.30 L932.58 458.01 L879.49 475.21 L826.28 493.78 L773.07 513.95 L719.98 535.98 L666.76 560.48 L613.68 588.45 L560.46 621.62 L507.25 663.94 L454.16 735.59 L454.16 735.59 Z" stroke-linejoin="round"/>
	</defs>
	<defs>
		<clipPath id="clipPath_OpLCLotB">
			<use xlink:href="#path_HbPueMHV"/>
		</clipPath>
	</defs>
	<use xlink:href="#path_HbPueMHV" style="stroke:none;fill:#B3B3B3;fill-opacity:0.35"/>
	<use xlink:href="#path_HbPueMHV" style="fill:none;stroke:#A0A0A0;stroke-opacity:0.35;stroke-width:17.28" clip-path="url(#clipPath_OpLCLotB)"/>
	<path d=" M454.04 735.59 L507.25 690.79 L560.34 661.96 L613.55 638.45 L666.76 618.40 L719.85 600.58 L773.07 584.37 L826.15 569.52 L879.37 555.65 L932.58 542.91 L985.67 531.15 L1038.88 520.26 L1091.97 510.36 L1145.18 501.33 L1198.39 493.04 L1251.48 485.24 L1304.70 477.94 L1357.79 470.88 L1411.00 464.20 L1464.09 457.64 L1517.30 451.33 L1570.51 445.14 L1623.60 438.95 L1676.81 433.01 L1729.90 427.32 L1783.11 421.63 L1836.33 416.31 L1889.41 411.23 L1942.63 406.28 L1995.72 401.71 L2048.93 397.37 L2102.14 393.17 L2155.23 389.33 L2208.44 385.74 L2261.53 382.40 L2314.74 379.18 L2367.83 376.21 L2421.05 373.37 L2474.26 370.77 L2527.35 368.29 L2580.56 365.94 L2633.65 363.71 L2686.86 361.61 L2740.07 359.50 L2793.16 357.65 L2846.37 355.79 L2899.46 354.06 L2952.68 352.45 L3005.89 350.84 L3058.98 349.36 L3112.19 348.00 L3165.28 346.63 L3218.49 345.27 L3271.58 344.04 L3324.79 342.80 L3378.00 341.56" stroke-linejoin="round" style="fill:none;stroke:#A0A0A0;stroke-width:8.64"/>
	<path d=" M454.04 735.59 L507.25 735.59 L560.34 735.59 L613.55 735.59 L666.76 735.59 L719.85 735.59 L773.07 735.59 L826.15 735.59 L879.37 735.59 L932.58 735.59 L985.67 735.59 L1038.88 735.59 L1091.97 735.59 L1145.18 735.59 L1198.39 735.59 L1251.48 735.59 L1304.70 735.59 L1357.79 735.59 L1411.00 735.59 L1464.09 735.59 L1517.30 735.59 L1570.51 735.59 L1623.60 735.59 L1676.81 735.59 L1729.90 735.59 L1783.11 735.59 L1836.33 735.59 L1889.41 735.59 L1942.63 735.59 L1995.72 735.59 L2048.93 735.59 L2102.14 735.59 L2155.23 735.59 L2208.44 735.59 L2261.53 735.59 L2314.74 735.59 L2367.83 735.59 L2421.05 735.59 L2474.26 735.59 L2527.35 735.59 L2580.56 735.59 L2633.65 735.59 L2686.86 735.59 L2740.07 735.59 L2793.16 735.59 L2846.37 735.59 L2899.46 735.59 L2952.68 735.59 L3005.89 735.59 L3058.98 735.59 L3112.19 735.59 L3165.28 735.59 L3218.49 735.59 L3271.58 735.59 L3324.79 735.59 L3378.00 735.59" stroke-linejoin="round" style="fill:none;stroke:#000000;stroke-opacity:0.20;stroke-width:23.04"/>
	<line x1="390.80" y1="2489.19" x2="390.80" y2="100.86" style="stroke:#000000;stroke-width:5.76"/>
	<line x1="390.80" y1="2425.82" x2="350.83" y2="2425.82" style="stroke:#000000;stroke-width:5.76"/>
	<text x="300.72" y="2425.82" style="font-family:'Helvetica';font-size:99.99px;fill:#000000" transform="rotate(-90 300.72,2425.82)" text-anchor="middle">-0.06</text>
	<line x1="390.80" y1="1862.37" x2="350.83" y2="1862.37" style="stroke:#000000;stroke-width:5.76"/>
	<text x="300.72" y="1862.37" style="font-family:'Helvetica';font-size:99.99px;fill:#000000" transform="rotate(-90 300.72,1862.37)" text-anchor="middle">-0.04</text>
	<line x1="390.80" y1="1299.04" x2="350.83" y2="1299.04" style="stroke:#000000;stroke-width:5.76"/>
	<text x="300.72" y="1299.04" style="font-family:'Helvetica';font-size:99.99px;fill:#000000" transform="rotate(-90 300.72,1299.04)" text-anchor="middle">-0.02</text>
	<line x1="390.80" y1="735.59" x2="350.83" y2="735.59" style="stroke:#000000;stroke-width:5.76"/>
	<text x="300.72" y="735.59" style="font-family:'Helvetica';font-size:99.99px;fill:#000000" transform="rotate(-90 300.72,735.59)" text-anchor="middle">0.00</text>
	<line x1="390.80" y1="172.14" x2="350.83" y2="172.14" style="stroke:#000000;stroke-width:5.76"/>
	<text x="300.72" y="172.14" style="font-family:'Helvetica';font-size:99.99px;fill:#000000" transform="rotate(-90 300.72,172.14)" text-anchor="middle">0.02</text>
	<text x="190.71" y="1294.96" style="font-family:'Helvetica';font-size:99.99px;fill:#000000" transform="rotate(-90 190.71,1294.96)" text-anchor="middle">Difference in Survival (years)</text>
	<line x1="390.80" y1="2489.19" x2="3859.02" y2="2489.19" style="stroke:#000000;stroke-width:5.76"/>
	<line x1="454.16" y1="2489.19" x2="454.16" y2="2529.16" style="stroke:#000000;stroke-width:5.76"/>
	<text x="454.16" y="2619.14" style="font-family:'Helvetica';font-size:99.99px;fill:#000000" text-anchor="middle">0</text>
	<line x1="1289.47" y1="2489.19" x2="1289.47" y2="2529.16" style="stroke:#000000;stroke-width:5.76"/>
	<text x="1289.47" y="2619.14" style="font-family:'Helvetica';font-size:99.99px;fill:#000000" text-anchor="middle">2</text>
	<line x1="2124.91" y1="2489.19" x2="2124.91" y2="2529.16" style="stroke:#000000;stroke-width:5.76"/>
	<text x="2124.91" y="2619.14" style="font-family:'Helvetica';font-size:99.99px;fill:#000000" text-anchor="middle">4</text>
	<line x1="2960.35" y1="2489.19" x2="2960.35" y2="2529.16" style="stroke:#000000;stroke-width:5.76"/>
	<text x="2960.35" y="2619.14" style="font-family:'Helvetica';font-size:99.99px;fill:#000000" text-anchor="middle">6</text>
	<line x1="3795.66" y1="2489.19" x2="3795.66" y2="2529.16" style="stroke:#000000;stroke-width:5.76"/>
	<text x="3795.66" y="2619.14" style="font-family:'Helvetica';font-size:99.99px;fill:#000000" text-anchor="middle">8</text>
	<text x="2124.91" y="2729.16" style="font-family:'Helvetica';font-size:99.99px;fill:#000000" text-anchor="middle">Years from baseline treatment outcome</text>
	<rect x="468.52" y="2031.42" width="374.47" height="99.99" style="fill:#4D4D4D;fill-opacity:0.35"/>
	<rect x="472.84" y="2035.74" width="365.83" height="91.35" style="fill:none;stroke:#202020;stroke-opacity:0.35;stroke-width:8.64"/>
	<rect x="468.52" y="2171.51" width="374.47" height="99.99" style="fill:#808080;fill-opacity:0.35"/>
	<rect x="472.84" y="2175.83" width="365.83" height="91.35" style="fill:none;stroke:#606060;stroke-opacity:0.35;stroke-width:8.64"/>
	<rect x="468.52" y="2311.47" width="374.47" height="99.99" style="fill:#B3B3B3;fill-opacity:0.35"/>
	<rect x="472.84" y="2315.79" width="365.83" height="91.35" style="fill:none;stroke:#A0A0A0;stroke-opacity:0.35;stroke-width:8.64"/>
	<text x="902.88" y="2116.44" style="font-family:'Helvetica';font-size:99.99px;fill:#000000">Early vs. Tr. completion</text>
	<text x="902.88" y="2256.53" style="font-family:'Helvetica';font-size:99.99px;fill:#000000">Late vs. Tr. completion</text>
	<text x="902.88" y="2396.50" style="font-family:'Helvetica';font-size:99.99px;fill:#000000">Late vs. Early dropout</text>
</svg>
