<?xml version="1.0" encoding="UTF-8" standalone="no"?>
<!-- This is a Stata 16.1 generated SVG file (http://www.stata.com) -->

<svg version="1.1" width="5.50in" height="4.00in" viewBox="0 0 3960 2880" xmlns="http://www.w3.org/2000/svg" xmlns:xlink="http://www.w3.org/1999/xlink">
	<desc>Stata Graph - rmst_std_fin_c</desc>
	<rect x="0" y="0" width="3960" height="2880" style="fill:#FFFFFF;stroke:none"/>
	<rect x="0.00" y="0.00" width="3959.88" height="2880.00" style="fill:#FFFFFF"/>
	<rect x="2.88" y="2.88" width="3954.12" height="2874.24" style="fill:none;stroke:#FFFFFF;stroke-width:5.76"/>
	<rect x="390.80" y="100.86" width="3468.22" height="2388.33" style="fill:#FFFFFF"/>
	<rect x="393.68" y="103.74" width="3462.46" height="2382.57" style="fill:none;stroke:#FFFFFF;stroke-width:5.76"/>
	<line x1="390.80" y1="2425.82" x2="3859.02" y2="2425.82" style="stroke:#EAF2F3;stroke-width:8.64"/>
	<line x1="390.80" y1="1860.39" x2="3859.02" y2="1860.39" style="stroke:#EAF2F3;stroke-width:8.64"/>
	<line x1="390.80" y1="1294.96" x2="3859.02" y2="1294.96" style="stroke:#EAF2F3;stroke-width:8.64"/>
	<line x1="390.80" y1="729.53" x2="3859.02" y2="729.53" style="stroke:#EAF2F3;stroke-width:8.64"/>
	<defs>
		<path id="path_PfTwdNWn" d="M562.44 2352.93 L562.44 2352.93 L779.01 2209.13 L887.29 2137.97 L1103.85 1996.89 L1212.13 1926.97 L1320.54 1857.42 L1428.82 1788.12 L1537.10 1719.06 L1645.38 1650.38 L1861.94 1513.76 L1970.22 1445.94 L2078.51 1378.25 L2403.35 1176.53 L2511.63 1109.82 L2620.03 1043.25 L2728.32 976.91 L2836.60 910.70 L2944.88 844.87 L3161.44 713.44 L3269.72 648.10 L3378.00 583.00 L3378.00 569.76 L3269.72 635.60 L3161.44 701.68 L2944.88 834.35 L2836.60 900.93 L2728.32 967.76 L2620.03 1034.71 L2511.63 1101.78 L2403.35 1169.10 L2078.51 1372.43 L1970.22 1440.62 L1861.94 1509.05 L1645.38 1646.67 L1537.10 1715.85 L1428.82 1785.27 L1320.54 1854.95 L1212.13 1924.99 L1103.85 1995.41 L887.29 2137.11 L779.01 2208.64 L562.44 2352.81 L562.44 2352.93 Z" stroke-linejoin="round"/>
	</defs>
	<defs>
		<clipPath id="clipPath_mEYdDFGw">
			<use xlink:href="#path_PfTwdNWn"/>
		</clipPath>
	</defs>
	<use xlink:href="#path_PfTwdNWn" style="stroke:none;fill:#8D8D8D;fill-opacity:0.35"/>
	<use xlink:href="#path_PfTwdNWn" style="fill:none;stroke:#707070;stroke-opacity:0.35;stroke-width:17.28" clip-path="url(#clipPath_mEYdDFGw)"/>
	<defs>
		<path id="path_wTgSduyv" d="M562.44 2353.06 L562.44 2353.06 L779.01 2210.00 L887.29 2139.46 L1103.85 1999.74 L1212.13 1930.44 L1320.54 1861.63 L1428.82 1793.19 L1537.10 1725.13 L1645.38 1657.31 L1861.94 1522.54 L1970.22 1455.59 L2078.51 1389.01 L2403.35 1190.64 L2511.63 1124.92 L2620.03 1059.58 L2728.32 994.36 L2836.60 929.39 L2944.88 864.67 L3161.44 735.84 L3269.72 671.74 L3378.00 607.88 L3378.00 587.09 L3269.72 652.18 L3161.44 717.40 L2944.88 848.46 L2836.60 914.17 L2728.32 980.13 L2620.03 1046.34 L2511.63 1112.67 L2403.35 1179.25 L2078.51 1380.23 L1970.22 1447.67 L1861.94 1515.37 L1645.38 1651.50 L1537.10 1720.06 L1428.82 1788.86 L1320.54 1858.04 L1212.13 1927.47 L1103.85 1997.26 L887.29 2138.10 L779.01 2209.13 L562.44 2352.93 L562.44 2353.06 Z" stroke-linejoin="round"/>
	</defs>
	<defs>
		<clipPath id="clipPath_HYPKSPTY">
			<use xlink:href="#path_wTgSduyv"/>
		</clipPath>
	</defs>
	<use xlink:href="#path_wTgSduyv" style="stroke:none;fill:#4D4D4D;fill-opacity:0.35"/>
	<use xlink:href="#path_wTgSduyv" style="fill:none;stroke:#202020;stroke-opacity:0.35;stroke-width:17.28" clip-path="url(#clipPath_HYPKSPTY)"/>
	<path d=" M562.32 2352.93 L779.01 2208.88 L887.29 2137.60 L1103.85 1996.27 L1212.13 1926.11 L1320.41 1856.31 L1428.69 1786.76 L1536.97 1717.58 L1645.26 1648.53 L1861.82 1511.53 L1970.22 1443.34 L2078.51 1375.40 L2403.35 1172.94 L2511.63 1105.86 L2619.91 1039.04 L2728.19 972.33 L2836.47 905.88 L2944.76 839.67 L3161.32 707.62 L3269.72 641.91 L3378.00 576.45" stroke-linejoin="round" style="fill:none;stroke:#707070;stroke-width:23.04"/>
	<path d=" M562.32 2353.06 L779.01 2209.63 L887.29 2138.84 L1103.85 1998.50 L1212.13 1929.08 L1320.41 1859.90 L1428.69 1791.09 L1536.97 1722.65 L1645.26 1654.47 L1861.82 1519.08 L1970.22 1451.76 L2078.51 1384.68 L2403.35 1184.94 L2511.63 1118.86 L2619.91 1053.02 L2728.19 987.31 L2836.47 921.84 L2944.76 856.62 L3161.32 726.68 L3269.72 662.08 L3378.00 597.61" stroke-linejoin="round" style="fill:none;stroke:#202020;stroke-width:23.04"/>
	<line x1="390.80" y1="2489.19" x2="390.80" y2="100.86" style="stroke:#000000;stroke-width:5.76"/>
	<line x1="390.80" y1="2425.82" x2="350.83" y2="2425.82" style="stroke:#000000;stroke-width:5.76"/>
	<text x="300.72" y="2425.82" style="font-family:'Helvetica';font-size:99.99px;fill:#000000" transform="rotate(-90 300.72,2425.82)" text-anchor="middle">0</text>
	<line x1="390.80" y1="1860.39" x2="350.83" y2="1860.39" style="stroke:#000000;stroke-width:5.76"/>
	<text x="300.72" y="1860.39" style="font-family:'Helvetica';font-size:99.99px;fill:#000000" transform="rotate(-90 300.72,1860.39)" text-anchor="middle">2</text>
	<line x1="390.80" y1="1294.96" x2="350.83" y2="1294.96" style="stroke:#000000;stroke-width:5.76"/>
	<text x="300.72" y="1294.96" style="font-family:'Helvetica';font-size:99.99px;fill:#000000" transform="rotate(-90 300.72,1294.96)" text-anchor="middle">4</text>
	<line x1="390.80" y1="729.53" x2="350.83" y2="729.53" style="stroke:#000000;stroke-width:5.76"/>
	<text x="300.72" y="729.53" style="font-family:'Helvetica';font-size:99.99px;fill:#000000" transform="rotate(-90 300.72,729.53)" text-anchor="middle">6</text>
	<line x1="390.80" y1="164.22" x2="350.83" y2="164.22" style="stroke:#000000;stroke-width:5.76"/>
	<text x="300.72" y="164.22" style="font-family:'Helvetica';font-size:99.99px;fill:#000000" transform="rotate(-90 300.72,164.22)" text-anchor="middle">8</text>
	<text x="190.71" y="1294.96" style="font-family:'Helvetica';font-size:99.99px;fill:#000000" transform="rotate(-90 190.71,1294.96)" text-anchor="middle">Restricted Mean Survival Times (standardized)</text>
	<line x1="390.80" y1="2489.19" x2="3859.02" y2="2489.19" style="stroke:#000000;stroke-width:5.76"/>
	<line x1="454.16" y1="2489.19" x2="454.16" y2="2529.16" style="stroke:#000000;stroke-width:5.76"/>
	<text x="454.16" y="2619.14" style="font-family:'Helvetica';font-size:99.99px;fill:#000000" text-anchor="middle">0</text>
	<line x1="1289.47" y1="2489.19" x2="1289.47" y2="2529.16" style="stroke:#000000;stroke-width:5.76"/>
	<text x="1289.47" y="2619.14" style="font-family:'Helvetica';font-size:99.99px;fill:#000000" text-anchor="middle">2</text>
	<line x1="2124.91" y1="2489.19" x2="2124.91" y2="2529.16" style="stroke:#000000;stroke-width:5.76"/>
	<text x="2124.91" y="2619.14" style="font-family:'Helvetica';font-size:99.99px;fill:#000000" text-anchor="middle">4</text>
	<line x1="2960.35" y1="2489.19" x2="2960.35" y2="2529.16" style="stroke:#000000;stroke-width:5.76"/>
	<text x="2960.35" y="2619.14" style="font-family:'Helvetica';font-size:99.99px;fill:#000000" text-anchor="middle">6</text>
	<line x1="3795.66" y1="2489.19" x2="3795.66" y2="2529.16" style="stroke:#000000;stroke-width:5.76"/>
	<text x="3795.66" y="2619.14" style="font-family:'Helvetica';font-size:99.99px;fill:#000000" text-anchor="middle">8</text>
	<text x="2124.91" y="2729.16" style="font-family:'Helvetica';font-size:99.99px;fill:#000000" text-anchor="middle">Years from treatment outcome</text>
	<line x1="2731.53" y1="2221.51" x2="3105.88" y2="2221.51" style="stroke:#707070;stroke-width:23.04"/>
	<line x1="2731.53" y1="2361.47" x2="3105.88" y2="2361.47" style="stroke:#202020;stroke-width:23.04"/>
	<text x="3165.90" y="2256.53" style="font-family:'Helvetica';font-size:99.99px;fill:#000000">Late dropout</text>
	<text x="3165.90" y="2396.50" style="font-family:'Helvetica';font-size:99.99px;fill:#000000">Early dropout</text>
</svg>
