<?xml version="1.0" encoding="UTF-8" standalone="no"?>
<!-- This is a Stata 16.1 generated SVG file (http://www.stata.com) -->

<svg version="1.1" width="5.50in" height="4.00in" viewBox="0 0 3960 2880" xmlns="http://www.w3.org/2000/svg" xmlns:xlink="http://www.w3.org/1999/xlink">
	<desc>Stata Graph - RMSTdiff</desc>
	<rect x="0" y="0" width="3960" height="2880" style="fill:#FFFFFF;stroke:none"/>
	<rect x="0.00" y="0.00" width="3959.88" height="2880.00" style="fill:#FFFFFF"/>
	<rect x="2.88" y="2.88" width="3954.12" height="2874.24" style="fill:none;stroke:#FFFFFF;stroke-width:5.76"/>
	<rect x="390.80" y="100.86" width="3468.22" height="2388.33" style="fill:#FFFFFF"/>
	<rect x="393.68" y="103.74" width="3462.46" height="2382.57" style="fill:none;stroke:#000000;stroke-width:5.76"/>
	<defs>
		<path id="path_hIicWsDW" d="M562.44 627.68 L562.44 627.68 L670.73 653.17 L779.01 687.82 L887.29 729.41 L995.57 775.94 L1103.85 826.55 L1212.13 880.39 L1320.54 936.94 L1428.82 995.85 L1537.10 1056.61 L1645.38 1118.98 L1753.66 1182.72 L1861.94 1247.56 L1970.22 1313.28 L2078.51 1379.73 L2186.79 1446.81 L2295.07 1514.38 L2403.35 1582.44 L2511.63 1650.75 L2620.03 1719.44 L2728.32 1788.37 L2836.60 1857.55 L2944.88 1926.97 L3053.16 1996.40 L3161.44 2066.07 L3269.72 2135.74 L3378.00 2205.67 L3378.00 1896.03 L3269.72 1841.21 L3161.44 1786.26 L3053.16 1731.32 L2944.88 1676.25 L2836.60 1621.18 L2728.32 1565.98 L2620.03 1510.91 L2511.63 1455.72 L2403.35 1400.77 L2295.07 1345.95 L2186.79 1291.25 L2078.51 1236.92 L1970.22 1182.84 L1861.94 1129.38 L1753.66 1076.41 L1645.38 1024.43 L1537.10 973.32 L1428.82 923.58 L1320.54 875.43 L1212.13 829.15 L1103.85 785.22 L995.57 743.88 L887.29 706.02 L779.01 672.60 L670.73 644.88 L562.44 624.96 L562.44 627.68 Z" stroke-linejoin="round"/>
	</defs>
	<defs>
		<clipPath id="clipPath_INevgQva">
			<use xlink:href="#path_hIicWsDW"/>
		</clipPath>
	</defs>
	<use xlink:href="#path_hIicWsDW" style="stroke:none;fill:#4D4D4D;fill-opacity:0.35"/>
	<use xlink:href="#path_hIicWsDW" style="fill:none;stroke:#202020;stroke-opacity:0.35;stroke-width:17.28" clip-path="url(#clipPath_INevgQva)"/>
	<path d=" M454.04 616.54 L562.32 626.44 L670.60 649.09 L779.01 680.28 L887.29 717.77 L995.57 759.97 L1103.85 806.01 L1212.13 854.89 L1320.41 906.25 L1428.69 959.71 L1536.97 1015.03 L1645.26 1071.71 L1753.54 1129.63 L1861.82 1188.53 L1970.22 1248.18 L2078.51 1308.33 L2186.79 1369.09 L2295.07 1430.22 L2403.35 1491.61 L2511.63 1553.36 L2619.91 1615.24 L2728.19 1677.24 L2836.47 1739.36 L2944.76 1801.61 L3053.04 1863.98 L3161.32 1926.23 L3269.72 1988.60 L3378.00 2050.85" stroke-linejoin="round" style="fill:none;stroke:#202020;stroke-width:8.64"/>
	<defs>
		<path id="path_MtvMZMNx" d="M562.44 624.34 L562.44 624.34 L670.73 643.15 L779.01 669.26 L887.29 701.07 L995.57 737.45 L1103.85 777.17 L1212.13 819.99 L1320.54 865.29 L1428.82 912.68 L1537.10 962.06 L1645.38 1013.05 L1753.66 1065.40 L1861.94 1118.86 L1970.22 1173.43 L2078.51 1228.75 L2186.79 1284.94 L2295.07 1341.74 L2403.35 1399.04 L2511.63 1456.95 L2620.03 1515.24 L2728.32 1574.03 L2836.60 1633.18 L2944.88 1692.58 L3053.16 1752.35 L3161.44 1812.50 L3269.72 1872.77 L3378.00 1933.41 L3378.00 1707.18 L3269.72 1657.81 L3161.44 1608.43 L3053.16 1559.17 L2944.88 1510.04 L2836.60 1460.91 L2728.32 1412.03 L2620.03 1363.40 L2511.63 1315.01 L2403.35 1266.74 L2295.07 1218.98 L2186.79 1171.45 L2078.51 1124.55 L1970.22 1078.14 L1861.94 1032.35 L1753.66 987.43 L1645.38 943.50 L1537.10 900.68 L1428.82 859.35 L1320.54 819.62 L1212.13 781.88 L1103.85 746.36 L995.57 713.44 L887.29 683.62 L779.01 657.75 L670.73 636.96 L562.44 622.36 L562.44 624.34 Z" stroke-linejoin="round"/>
	</defs>
	<defs>
		<clipPath id="clipPath_lxgoSKnK">
			<use xlink:href="#path_MtvMZMNx"/>
		</clipPath>
	</defs>
	<use xlink:href="#path_MtvMZMNx" style="stroke:none;fill:#808080;fill-opacity:0.35"/>
	<use xlink:href="#path_MtvMZMNx" style="fill:none;stroke:#606060;stroke-opacity:0.35;stroke-width:17.28" clip-path="url(#clipPath_lxgoSKnK)"/>
	<path d=" M454.04 616.54 L562.32 623.47 L670.60 640.06 L779.01 663.57 L887.29 692.40 L995.57 725.45 L1103.85 761.83 L1212.13 800.94 L1320.41 842.52 L1428.69 886.08 L1536.97 931.50 L1645.26 978.27 L1753.54 1026.41 L1861.82 1075.67 L1970.22 1125.79 L2078.51 1176.78 L2186.79 1228.26 L2295.07 1280.36 L2403.35 1332.95 L2511.63 1386.04 L2619.91 1439.38 L2728.19 1493.09 L2836.47 1547.17 L2944.76 1601.38 L3053.04 1655.83 L3161.32 1710.53 L3269.72 1765.35 L3378.00 1820.30" stroke-linejoin="round" style="fill:none;stroke:#606060;stroke-width:8.64"/>
	<defs>
		<path id="path_nvUrKZYt" d="M562.44 614.81 L562.44 614.81 L670.73 611.47 L779.01 607.01 L887.29 602.06 L995.57 596.86 L1103.85 591.54 L1212.13 586.22 L1320.54 581.02 L1428.82 575.83 L1537.10 570.88 L1645.38 566.05 L1753.66 561.47 L1861.94 557.14 L1970.22 552.93 L2078.51 549.10 L2186.79 545.51 L2295.07 542.04 L2403.35 538.95 L2511.63 536.10 L2620.03 533.50 L2728.32 531.15 L2836.60 529.05 L2944.88 527.19 L3053.16 525.58 L3161.44 524.22 L3269.72 522.98 L3378.00 522.12 L3378.00 249.74 L3269.72 263.47 L3161.44 277.33 L3053.16 291.32 L2944.88 305.30 L2836.60 319.41 L2728.32 333.52 L2620.03 347.87 L2511.63 362.23 L2403.35 376.71 L2295.07 391.19 L2186.79 405.91 L2078.51 420.64 L1970.22 435.37 L1861.94 450.34 L1753.66 465.19 L1645.38 480.04 L1537.10 495.02 L1428.82 509.87 L1320.54 524.47 L1212.13 538.95 L1103.85 553.18 L995.57 567.04 L887.29 580.28 L779.01 592.66 L670.73 603.55 L562.44 612.21 L562.44 614.81 Z" stroke-linejoin="round"/>
	</defs>
	<defs>
		<clipPath id="clipPath_eYTNBOjr">
			<use xlink:href="#path_nvUrKZYt"/>
		</clipPath>
	</defs>
	<use xlink:href="#path_nvUrKZYt" style="stroke:none;fill:#B3B3B3;fill-opacity:0.35"/>
	<use xlink:href="#path_nvUrKZYt" style="fill:none;stroke:#A0A0A0;stroke-opacity:0.35;stroke-width:17.28" clip-path="url(#clipPath_eYTNBOjr)"/>
	<path d=" M454.04 616.54 L562.32 613.57 L670.60 607.51 L779.01 599.83 L887.29 591.30 L995.57 582.01 L1103.85 572.49 L1212.13 562.71 L1320.41 552.81 L1428.69 542.91 L1536.97 533.01 L1645.26 523.11 L1753.54 513.33 L1861.82 503.80 L1970.22 494.27 L2078.51 484.87 L2186.79 475.71 L2295.07 466.68 L2403.35 457.89 L2511.63 449.23 L2619.91 440.69 L2728.19 432.40 L2836.47 424.23 L2944.76 416.31 L3053.04 408.51 L3161.32 400.84 L3269.72 393.29 L3378.00 385.99" stroke-linejoin="round" style="fill:none;stroke:#A0A0A0;stroke-width:8.64"/>
	<path d=" M454.04 616.54 L562.32 616.54 L670.60 616.54 L779.01 616.54 L887.29 616.54 L995.57 616.54 L1103.85 616.54 L1212.13 616.54 L1320.41 616.54 L1428.69 616.54 L1536.97 616.54 L1645.26 616.54 L1753.54 616.54 L1861.82 616.54 L1970.22 616.54 L2078.51 616.54 L2186.79 616.54 L2295.07 616.54 L2403.35 616.54 L2511.63 616.54 L2619.91 616.54 L2728.19 616.54 L2836.47 616.54 L2944.76 616.54 L3053.04 616.54 L3161.32 616.54 L3269.72 616.54 L3378.00 616.54" stroke-linejoin="round" style="fill:none;stroke:#000000;stroke-opacity:0.20;stroke-width:23.04"/>
	<line x1="390.80" y1="2489.19" x2="390.80" y2="100.86" style="stroke:#000000;stroke-width:5.76"/>
	<line x1="390.80" y1="2425.82" x2="350.83" y2="2425.82" style="stroke:#000000;stroke-width:5.76"/>
	<text x="300.72" y="2425.82" style="font-family:'Helvetica';font-size:99.99px;fill:#000000" transform="rotate(-90 300.72,2425.82)" text-anchor="middle">-0.8</text>
	<line x1="390.80" y1="1973.50" x2="350.83" y2="1973.50" style="stroke:#000000;stroke-width:5.76"/>
	<text x="300.72" y="1973.50" style="font-family:'Helvetica';font-size:99.99px;fill:#000000" transform="rotate(-90 300.72,1973.50)" text-anchor="middle">-0.6</text>
	<line x1="390.80" y1="1521.18" x2="350.83" y2="1521.18" style="stroke:#000000;stroke-width:5.76"/>
	<text x="300.72" y="1521.18" style="font-family:'Helvetica';font-size:99.99px;fill:#000000" transform="rotate(-90 300.72,1521.18)" text-anchor="middle">-0.4</text>
	<line x1="390.80" y1="1068.86" x2="350.83" y2="1068.86" style="stroke:#000000;stroke-width:5.76"/>
	<text x="300.72" y="1068.86" style="font-family:'Helvetica';font-size:99.99px;fill:#000000" transform="rotate(-90 300.72,1068.86)" text-anchor="middle">-0.2</text>
	<line x1="390.80" y1="616.54" x2="350.83" y2="616.54" style="stroke:#000000;stroke-width:5.76"/>
	<text x="300.72" y="616.54" style="font-family:'Helvetica';font-size:99.99px;fill:#000000" transform="rotate(-90 300.72,616.54)" text-anchor="middle">0.0</text>
	<line x1="390.80" y1="164.22" x2="350.83" y2="164.22" style="stroke:#000000;stroke-width:5.76"/>
	<text x="300.72" y="164.22" style="font-family:'Helvetica';font-size:99.99px;fill:#000000" transform="rotate(-90 300.72,164.22)" text-anchor="middle">0.2</text>
	<text x="190.71" y="1294.96" style="font-family:'Helvetica';font-size:99.99px;fill:#000000" transform="rotate(-90 190.71,1294.96)" text-anchor="middle">Difference in RMST (years)</text>
	<line x1="390.80" y1="2489.19" x2="3859.02" y2="2489.19" style="stroke:#000000;stroke-width:5.76"/>
	<line x1="454.16" y1="2489.19" x2="454.16" y2="2529.16" style="stroke:#000000;stroke-width:5.76"/>
	<text x="454.16" y="2619.14" style="font-family:'Helvetica';font-size:99.99px;fill:#000000" text-anchor="middle">0</text>
	<line x1="1289.47" y1="2489.19" x2="1289.47" y2="2529.16" style="stroke:#000000;stroke-width:5.76"/>
	<text x="1289.47" y="2619.14" style="font-family:'Helvetica';font-size:99.99px;fill:#000000" text-anchor="middle">2</text>
	<line x1="2124.91" y1="2489.19" x2="2124.91" y2="2529.16" style="stroke:#000000;stroke-width:5.76"/>
	<text x="2124.91" y="2619.14" style="font-family:'Helvetica';font-size:99.99px;fill:#000000" text-anchor="middle">4</text>
	<line x1="2960.35" y1="2489.19" x2="2960.35" y2="2529.16" style="stroke:#000000;stroke-width:5.76"/>
	<text x="2960.35" y="2619.14" style="font-family:'Helvetica';font-size:99.99px;fill:#000000" text-anchor="middle">6</text>
	<line x1="3795.66" y1="2489.19" x2="3795.66" y2="2529.16" style="stroke:#000000;stroke-width:5.76"/>
	<text x="3795.66" y="2619.14" style="font-family:'Helvetica';font-size:99.99px;fill:#000000" text-anchor="middle">8</text>
	<text x="2124.91" y="2729.16" style="font-family:'Helvetica';font-size:99.99px;fill:#000000" text-anchor="middle">Years from baseline treatment outcome</text>
	<rect x="468.52" y="2031.42" width="374.47" height="99.99" style="fill:#4D4D4D;fill-opacity:0.35"/>
	<rect x="472.84" y="2035.74" width="365.83" height="91.35" style="fill:none;stroke:#202020;stroke-opacity:0.35;stroke-width:8.64"/>
	<rect x="468.52" y="2171.51" width="374.47" height="99.99" style="fill:#808080;fill-opacity:0.35"/>
	<rect x="472.84" y="2175.83" width="365.83" height="91.35" style="fill:none;stroke:#606060;stroke-opacity:0.35;stroke-width:8.64"/>
	<rect x="468.52" y="2311.47" width="374.47" height="99.99" style="fill:#B3B3B3;fill-opacity:0.35"/>
	<rect x="472.84" y="2315.79" width="365.83" height="91.35" style="fill:none;stroke:#A0A0A0;stroke-opacity:0.35;stroke-width:8.64"/>
	<text x="902.88" y="2116.44" style="font-family:'Helvetica';font-size:99.99px;fill:#000000">Early vs. Tr. completion</text>
	<text x="902.88" y="2256.53" style="font-family:'Helvetica';font-size:99.99px;fill:#000000">Late vs. Tr. completion</text>
	<text x="902.88" y="2396.50" style="font-family:'Helvetica';font-size:99.99px;fill:#000000">Late vs. Early dropout</text>
</svg>
