<?xml version="1.0" encoding="UTF-8" standalone="no"?>
<!-- This is a Stata 16.1 generated SVG file (http://www.stata.com) -->

<svg version="1.1" width="5.50in" height="4.00in" viewBox="0 0 3960 2880" xmlns="http://www.w3.org/2000/svg" xmlns:xlink="http://www.w3.org/1999/xlink">
	<desc>Stata Graph - surv_diffs</desc>
	<rect x="0" y="0" width="3960" height="2880" style="fill:#FFFFFF;stroke:none"/>
	<rect x="0.00" y="0.00" width="3959.88" height="2880.00" style="fill:#FFFFFF"/>
	<rect x="2.88" y="2.88" width="3954.12" height="2874.24" style="fill:none;stroke:#FFFFFF;stroke-width:5.76"/>
	<rect x="390.80" y="636.34" width="3468.22" height="1852.84" style="fill:#FFFFFF"/>
	<rect x="393.68" y="639.22" width="3462.46" height="1847.08" style="fill:none;stroke:#FFFFFF;stroke-width:5.76"/>
	<line x1="390.80" y1="2373.72" x2="3859.02" y2="2373.72" style="stroke:#EAF2F3;stroke-width:8.64"/>
	<line x1="390.80" y1="2038.84" x2="3859.02" y2="2038.84" style="stroke:#EAF2F3;stroke-width:8.64"/>
	<line x1="390.80" y1="1704.09" x2="3859.02" y2="1704.09" style="stroke:#EAF2F3;stroke-width:8.64"/>
	<line x1="390.80" y1="1369.34" x2="3859.02" y2="1369.34" style="stroke:#EAF2F3;stroke-width:8.64"/>
	<line x1="390.80" y1="1034.46" x2="3859.02" y2="1034.46" style="stroke:#EAF2F3;stroke-width:8.64"/>
	<line x1="390.80" y1="699.70" x2="3859.02" y2="699.70" style="stroke:#EAF2F3;stroke-width:8.64"/>
	<defs>
		<path id="path_KJGEHBgd" d="M454.16 1704.09 L454.16 1704.09 L562.44 1624.02 L670.73 1566.48 L887.29 1478.36 L995.57 1443.34 L1103.85 1413.52 L1212.13 1388.15 L1320.54 1365.87 L1645.38 1307.71 L1753.66 1290.26 L1861.94 1274.05 L1970.22 1259.44 L2078.51 1246.45 L2186.79 1235.06 L2295.07 1225.29 L2403.35 1216.87 L2511.63 1209.45 L2620.03 1203.01 L2728.32 1197.44 L2836.60 1192.62 L3053.16 1184.70 L3161.44 1181.48 L3269.72 1178.63 L3378.00 1176.16 L3378.00 771.11 L3269.72 779.53 L3161.44 788.31 L3053.16 797.59 L2836.60 818.38 L2728.32 829.89 L2620.03 842.39 L2511.63 856.13 L2403.35 871.10 L2295.07 887.81 L2186.79 906.25 L2078.51 926.92 L1970.22 949.93 L1861.94 975.18 L1753.66 1002.41 L1645.38 1031.36 L1320.54 1124.06 L1212.13 1158.46 L1103.85 1197.32 L995.57 1243.11 L887.29 1297.31 L670.73 1437.52 L562.44 1535.29 L454.16 1704.09 L454.16 1704.09 Z" stroke-linejoin="round"/>
	</defs>
	<defs>
		<clipPath id="clipPath_qgTOuqep">
			<use xlink:href="#path_KJGEHBgd"/>
		</clipPath>
	</defs>
	<use xlink:href="#path_KJGEHBgd" style="stroke:none;fill:#8D8D8D;fill-opacity:0.35"/>
	<use xlink:href="#path_KJGEHBgd" style="fill:none;stroke:#707070;stroke-opacity:0.35;stroke-width:17.28" clip-path="url(#clipPath_qgTOuqep)"/>
	<path d=" M454.04 1704.09 L562.32 1579.72 L670.60 1502.12 L887.29 1387.90 L995.57 1343.35 L1103.85 1305.48 L1212.13 1273.43 L1320.41 1244.96 L1645.26 1169.60 L1753.54 1146.46 L1861.82 1124.68 L1970.22 1104.75 L2078.51 1086.68 L2186.79 1070.72 L2295.07 1056.61 L2403.35 1043.99 L2511.63 1032.85 L2619.91 1022.83 L2728.19 1013.79 L2836.47 1005.50 L3053.04 991.27 L3161.32 984.96 L3269.72 979.14 L3378.00 973.70" stroke-linejoin="round" style="fill:none;stroke:#707070;stroke-width:23.04"/>
	<defs>
		<path id="path_NGJRXhGb" d="M454.16 1704.09 L454.16 1704.09 L670.73 1744.06 L779.01 1749.38 L995.57 1754.33 L1428.82 1757.06 L1537.10 1757.68 L1645.38 1758.42 L1970.22 1760.89 L2078.51 1761.76 L2836.60 1770.92 L2944.88 1772.53 L3269.72 1777.72 L3378.00 1779.46 L3378.00 1464.38 L3269.72 1467.60 L2944.88 1477.87 L2836.60 1481.58 L2078.51 1514.87 L1970.22 1521.31 L1645.38 1542.96 L1537.10 1550.51 L1428.82 1557.94 L995.57 1592.46 L779.01 1618.95 L670.73 1636.40 L454.16 1704.09 L454.16 1704.09 Z" stroke-linejoin="round"/>
	</defs>
	<defs>
		<clipPath id="clipPath_ukjCOSzU">
			<use xlink:href="#path_NGJRXhGb"/>
		</clipPath>
	</defs>
	<use xlink:href="#path_NGJRXhGb" style="stroke:none;fill:#4D4D4D;fill-opacity:0.35"/>
	<use xlink:href="#path_NGJRXhGb" style="fill:none;stroke:#202020;stroke-opacity:0.35;stroke-width:17.28" clip-path="url(#clipPath_ukjCOSzU)"/>
	<path d=" M454.04 1704.09 L670.60 1690.35 L779.01 1684.29 L995.57 1673.52 L1428.69 1657.56 L1536.97 1654.09 L1645.26 1650.75 L1970.22 1641.10 L2078.51 1638.38 L2836.47 1626.25 L2944.76 1625.26 L3269.72 1622.66 L3378.00 1622.04" stroke-linejoin="round" style="fill:none;stroke:#202020;stroke-width:23.04"/>
	<defs>
		<path id="path_inKPwCZI" d="M454.16 1704.09 L454.16 1704.09 L670.73 1921.53 L779.01 1980.56 L995.57 2070.03 L1428.82 2182.40 L1537.10 2205.17 L1645.38 2227.45 L1970.22 2288.21 L2078.51 2305.41 L2836.60 2388.20 L2944.88 2396.62 L3269.72 2419.14 L3378.00 2425.82 L3378.00 2002.71 L3269.72 2002.09 L2944.88 1998.75 L2836.60 1997.14 L2078.51 1970.53 L1970.22 1963.48 L1645.38 1936.25 L1537.10 1925.61 L1428.82 1914.22 L995.57 1854.82 L779.01 1808.66 L670.73 1779.95 L454.16 1704.09 L454.16 1704.09 Z" stroke-linejoin="round"/>
	</defs>
	<defs>
		<clipPath id="clipPath_ylRHJkWz">
			<use xlink:href="#path_inKPwCZI"/>
		</clipPath>
	</defs>
	<use xlink:href="#path_inKPwCZI" style="stroke:none;fill:#B3B3B3;fill-opacity:0.25"/>
	<use xlink:href="#path_inKPwCZI" style="fill:none;stroke:#A0A0A0;stroke-opacity:0.25;stroke-width:17.28" clip-path="url(#clipPath_ylRHJkWz)"/>
	<path d=" M454.04 1704.09 L670.60 1850.74 L779.01 1894.67 L995.57 1962.49 L1428.69 2048.37 L1536.97 2065.45 L1645.26 2081.91 L1970.22 2125.84 L2078.51 2137.97 L2836.47 2192.67 L2944.76 2197.74 L3269.72 2210.62 L3378.00 2214.33" stroke-linejoin="round" style="fill:none;stroke:#A0A0A0;stroke-width:23.04"/>
	<path d=" M454.04 1704.09 L562.32 1704.09 L670.60 1704.09 L779.01 1704.09 L887.29 1704.09 L995.57 1704.09 L1103.85 1704.09 L1212.13 1704.09 L1320.41 1704.09 L1428.69 1704.09 L1536.97 1704.09 L1645.26 1704.09 L1753.54 1704.09 L1861.82 1704.09 L1970.22 1704.09 L2078.51 1704.09 L2186.79 1704.09 L2295.07 1704.09 L2403.35 1704.09 L2511.63 1704.09 L2619.91 1704.09 L2728.19 1704.09 L2836.47 1704.09 L2944.76 1704.09 L3053.04 1704.09 L3161.32 1704.09 L3269.72 1704.09 L3378.00 1704.09" stroke-linejoin="round" style="fill:none;stroke:#000000;stroke-opacity:0.20;stroke-width:23.04"/>
	<line x1="390.80" y1="2489.19" x2="390.80" y2="636.34" style="stroke:#000000;stroke-width:5.76"/>
	<line x1="390.80" y1="2373.72" x2="350.83" y2="2373.72" style="stroke:#000000;stroke-width:5.76"/>
	<text x="300.72" y="2373.72" style="font-family:'Helvetica';font-size:99.99px;fill:#000000" transform="rotate(-90 300.72,2373.72)" text-anchor="middle">-.02</text>
	<line x1="390.80" y1="2038.84" x2="350.83" y2="2038.84" style="stroke:#000000;stroke-width:5.76"/>
	<text x="300.72" y="2038.84" style="font-family:'Helvetica';font-size:99.99px;fill:#000000" transform="rotate(-90 300.72,2038.84)" text-anchor="middle">-.01</text>
	<line x1="390.80" y1="1704.09" x2="350.83" y2="1704.09" style="stroke:#000000;stroke-width:5.76"/>
	<text x="300.72" y="1704.09" style="font-family:'Helvetica';font-size:99.99px;fill:#000000" transform="rotate(-90 300.72,1704.09)" text-anchor="middle">0</text>
	<line x1="390.80" y1="1369.34" x2="350.83" y2="1369.34" style="stroke:#000000;stroke-width:5.76"/>
	<text x="300.72" y="1369.34" style="font-family:'Helvetica';font-size:99.99px;fill:#000000" transform="rotate(-90 300.72,1369.34)" text-anchor="middle">.01</text>
	<line x1="390.80" y1="1034.46" x2="350.83" y2="1034.46" style="stroke:#000000;stroke-width:5.76"/>
	<text x="300.72" y="1034.46" style="font-family:'Helvetica';font-size:99.99px;fill:#000000" transform="rotate(-90 300.72,1034.46)" text-anchor="middle">.02</text>
	<line x1="390.80" y1="699.70" x2="350.83" y2="699.70" style="stroke:#000000;stroke-width:5.76"/>
	<text x="300.72" y="699.70" style="font-family:'Helvetica';font-size:99.99px;fill:#000000" transform="rotate(-90 300.72,699.70)" text-anchor="middle">.03</text>
	<text x="190.71" y="1562.76" style="font-family:'Helvetica';font-size:99.99px;fill:#000000" transform="rotate(-90 190.71,1562.76)" text-anchor="middle">Differences  of avoiding sentence (standardized)</text>
	<line x1="390.80" y1="2489.19" x2="3859.02" y2="2489.19" style="stroke:#000000;stroke-width:5.76"/>
	<line x1="454.16" y1="2489.19" x2="454.16" y2="2529.16" style="stroke:#000000;stroke-width:5.76"/>
	<text x="454.16" y="2619.14" style="font-family:'Helvetica';font-size:99.99px;fill:#000000" text-anchor="middle">0</text>
	<line x1="1289.47" y1="2489.19" x2="1289.47" y2="2529.16" style="stroke:#000000;stroke-width:5.76"/>
	<text x="1289.47" y="2619.14" style="font-family:'Helvetica';font-size:99.99px;fill:#000000" text-anchor="middle">2</text>
	<line x1="2124.91" y1="2489.19" x2="2124.91" y2="2529.16" style="stroke:#000000;stroke-width:5.76"/>
	<text x="2124.91" y="2619.14" style="font-family:'Helvetica';font-size:99.99px;fill:#000000" text-anchor="middle">4</text>
	<line x1="2960.35" y1="2489.19" x2="2960.35" y2="2529.16" style="stroke:#000000;stroke-width:5.76"/>
	<text x="2960.35" y="2619.14" style="font-family:'Helvetica';font-size:99.99px;fill:#000000" text-anchor="middle">6</text>
	<line x1="3795.66" y1="2489.19" x2="3795.66" y2="2529.16" style="stroke:#000000;stroke-width:5.76"/>
	<text x="3795.66" y="2619.14" style="font-family:'Helvetica';font-size:99.99px;fill:#000000" text-anchor="middle">8</text>
	<text x="2124.91" y="2729.16" style="font-family:'Helvetica';font-size:99.99px;fill:#000000" text-anchor="middle">Years from treatment outcome</text>
	<line x1="1946.96" y1="228.57" x2="2321.43" y2="228.57" style="stroke:#707070;stroke-width:23.04"/>
	<line x1="1946.96" y1="368.54" x2="2321.43" y2="368.54" style="stroke:#202020;stroke-width:23.04"/>
	<line x1="1946.96" y1="508.50" x2="2321.43" y2="508.50" style="stroke:#A0A0A0;stroke-width:23.04"/>
	<text x="2381.32" y="263.60" style="font-family:'Helvetica';font-size:99.99px;fill:#000000">Early vs. tr. completion</text>
	<text x="2381.32" y="403.57" style="font-family:'Helvetica';font-size:99.99px;fill:#000000">Late dropout vs. tr. completion</text>
	<text x="2381.32" y="543.53" style="font-family:'Helvetica';font-size:99.99px;fill:#000000">Late vs. early dropout</text>
</svg>
