<?xml version="1.0" encoding="UTF-8" standalone="no"?>
<!-- This is a Stata 16.1 generated SVG file (http://www.stata.com) -->

<svg version="1.1" width="5.50in" height="4.00in" viewBox="0 0 3960 2880" xmlns="http://www.w3.org/2000/svg" xmlns:xlink="http://www.w3.org/1999/xlink">
	<desc>Stata Graph - rmst_std_fin_b</desc>
	<rect x="0" y="0" width="3960" height="2880" style="fill:#FFFFFF;stroke:none"/>
	<rect x="0.00" y="0.00" width="3959.88" height="2880.00" style="fill:#FFFFFF"/>
	<rect x="2.88" y="2.88" width="3954.12" height="2874.24" style="fill:none;stroke:#FFFFFF;stroke-width:5.76"/>
	<rect x="390.80" y="100.86" width="3468.22" height="2388.33" style="fill:#FFFFFF"/>
	<rect x="393.68" y="103.74" width="3462.46" height="2382.57" style="fill:none;stroke:#FFFFFF;stroke-width:5.76"/>
	<line x1="390.80" y1="2425.82" x2="3859.02" y2="2425.82" style="stroke:#EAF2F3;stroke-width:8.64"/>
	<line x1="390.80" y1="1707.06" x2="3859.02" y2="1707.06" style="stroke:#EAF2F3;stroke-width:8.64"/>
	<line x1="390.80" y1="988.30" x2="3859.02" y2="988.30" style="stroke:#EAF2F3;stroke-width:8.64"/>
	<line x1="390.80" y1="269.54" x2="3859.02" y2="269.54" style="stroke:#EAF2F3;stroke-width:8.64"/>
	<defs>
		<path id="path_dsMxLIND" d="M721.46 2242.42 L721.46 2242.42 L855.11 2151.46 L1122.41 1970.66 L1657.14 1612.64 L1790.79 1524.03 L1924.44 1435.79 L2058.09 1347.93 L2592.81 999.56 L2726.46 913.06 L3261.06 568.40 L3662.01 311.12 L3795.66 225.48 L3795.66 164.22 L3662.01 252.83 L3261.06 519.15 L2726.46 875.56 L2592.81 964.91 L2058.09 1324.17 L1924.44 1414.38 L1790.79 1504.97 L1657.14 1595.93 L1122.41 1962.24 L855.11 2146.88 L721.46 2239.57 L721.46 2242.42 Z" stroke-linejoin="round"/>
	</defs>
	<defs>
		<clipPath id="clipPath_uAlIxiSr">
			<use xlink:href="#path_dsMxLIND"/>
		</clipPath>
	</defs>
	<use xlink:href="#path_dsMxLIND" style="stroke:none;fill:#8D8D8D;fill-opacity:0.35"/>
	<use xlink:href="#path_dsMxLIND" style="fill:none;stroke:#707070;stroke-opacity:0.35;stroke-width:17.28" clip-path="url(#clipPath_uAlIxiSr)"/>
	<defs>
		<path id="path_yhlmhzMj" d="M721.46 2241.68 L721.46 2241.68 L855.11 2150.97 L1122.41 1970.90 L1657.14 1616.35 L1790.79 1528.61 L1924.44 1441.36 L2058.09 1354.36 L2592.81 1010.08 L2726.46 924.81 L3261.06 586.47 L3662.01 335.50 L3795.66 252.33 L3795.66 232.78 L3662.01 317.06 L3261.06 571.25 L2726.46 913.55 L2592.81 999.81 L2058.09 1347.31 L1924.44 1435.05 L1790.79 1523.04 L1657.14 1611.52 L1122.41 1968.80 L855.11 2149.85 L721.46 2241.18 L721.46 2241.68 Z" stroke-linejoin="round"/>
	</defs>
	<defs>
		<clipPath id="clipPath_yZPpMQMu">
			<use xlink:href="#path_yhlmhzMj"/>
		</clipPath>
	</defs>
	<use xlink:href="#path_yhlmhzMj" style="stroke:none;fill:#4D4D4D;fill-opacity:0.35"/>
	<use xlink:href="#path_yhlmhzMj" style="fill:none;stroke:#202020;stroke-opacity:0.35;stroke-width:17.28" clip-path="url(#clipPath_yZPpMQMu)"/>
	<path d=" M454.04 2425.95 L721.46 2241.06 L855.11 2149.23 L1122.41 1966.57 L1657.01 1604.35 L1790.66 1514.62 L1924.31 1425.15 L2058.09 1336.17 L2592.69 982.36 L2726.34 894.49 L3261.06 544.02 L3662.01 282.16 L3795.66 195.16" stroke-linejoin="round" style="fill:none;stroke:#707070;stroke-width:23.04"/>
	<path d=" M454.04 2425.95 L721.46 2241.43 L855.11 2150.47 L1122.41 1969.91 L1657.01 1614.00 L1790.66 1525.89 L1924.31 1438.27 L2058.09 1350.90 L2592.69 1005.01 L2726.34 919.24 L3261.06 578.92 L3662.01 326.34 L3795.66 242.68" stroke-linejoin="round" style="fill:none;stroke:#202020;stroke-width:23.04"/>
	<line x1="390.80" y1="2489.19" x2="390.80" y2="100.86" style="stroke:#000000;stroke-width:5.76"/>
	<line x1="390.80" y1="2425.82" x2="350.83" y2="2425.82" style="stroke:#000000;stroke-width:5.76"/>
	<text x="300.72" y="2425.82" style="font-family:'Helvetica';font-size:99.99px;fill:#000000" transform="rotate(-90 300.72,2425.82)" text-anchor="middle">0</text>
	<line x1="390.80" y1="1707.06" x2="350.83" y2="1707.06" style="stroke:#000000;stroke-width:5.76"/>
	<text x="300.72" y="1707.06" style="font-family:'Helvetica';font-size:99.99px;fill:#000000" transform="rotate(-90 300.72,1707.06)" text-anchor="middle">2</text>
	<line x1="390.80" y1="988.30" x2="350.83" y2="988.30" style="stroke:#000000;stroke-width:5.76"/>
	<text x="300.72" y="988.30" style="font-family:'Helvetica';font-size:99.99px;fill:#000000" transform="rotate(-90 300.72,988.30)" text-anchor="middle">4</text>
	<line x1="390.80" y1="269.54" x2="350.83" y2="269.54" style="stroke:#000000;stroke-width:5.76"/>
	<text x="300.72" y="269.54" style="font-family:'Helvetica';font-size:99.99px;fill:#000000" transform="rotate(-90 300.72,269.54)" text-anchor="middle">6</text>
	<text x="190.71" y="1294.96" style="font-family:'Helvetica';font-size:99.99px;fill:#000000" transform="rotate(-90 190.71,1294.96)" text-anchor="middle">Restricted Mean Survival Times (standardized)</text>
	<line x1="390.80" y1="2489.19" x2="3859.02" y2="2489.19" style="stroke:#000000;stroke-width:5.76"/>
	<line x1="454.16" y1="2489.19" x2="454.16" y2="2529.16" style="stroke:#000000;stroke-width:5.76"/>
	<text x="454.16" y="2619.14" style="font-family:'Helvetica';font-size:99.99px;fill:#000000" text-anchor="middle">0</text>
	<line x1="1485.25" y1="2489.19" x2="1485.25" y2="2529.16" style="stroke:#000000;stroke-width:5.76"/>
	<text x="1485.25" y="2619.14" style="font-family:'Helvetica';font-size:99.99px;fill:#000000" text-anchor="middle">2</text>
	<line x1="2516.33" y1="2489.19" x2="2516.33" y2="2529.16" style="stroke:#000000;stroke-width:5.76"/>
	<text x="2516.33" y="2619.14" style="font-family:'Helvetica';font-size:99.99px;fill:#000000" text-anchor="middle">4</text>
	<line x1="3547.54" y1="2489.19" x2="3547.54" y2="2529.16" style="stroke:#000000;stroke-width:5.76"/>
	<text x="3547.54" y="2619.14" style="font-family:'Helvetica';font-size:99.99px;fill:#000000" text-anchor="middle">6</text>
	<text x="2124.91" y="2729.16" style="font-family:'Helvetica';font-size:99.99px;fill:#000000" text-anchor="middle">Years from treatment outcome</text>
	<rect x="2690.70" y="2171.51" width="374.34" height="99.99" style="fill:#8D8D8D;fill-opacity:0.35"/>
	<rect x="2695.02" y="2175.83" width="365.70" height="91.35" style="fill:none;stroke:#707070;stroke-opacity:0.35;stroke-width:8.64"/>
	<rect x="2690.70" y="2311.47" width="374.34" height="99.99" style="fill:#4D4D4D;fill-opacity:0.35"/>
	<rect x="2695.02" y="2315.79" width="365.70" height="91.35" style="fill:none;stroke:#202020;stroke-opacity:0.35;stroke-width:8.64"/>
	<text x="3125.06" y="2256.53" style="font-family:'Helvetica';font-size:99.99px;fill:#000000">Tr. completion</text>
	<text x="3125.06" y="2396.50" style="font-family:'Helvetica';font-size:99.99px;fill:#000000">Early dropout</text>
</svg>
