<?xml version="1.0" encoding="UTF-8" standalone="no"?>
<!-- This is a Stata 16.1 generated SVG file (http://www.stata.com) -->

<svg version="1.1" width="5.50in" height="4.00in" viewBox="0 0 3960 2880" xmlns="http://www.w3.org/2000/svg" xmlns:xlink="http://www.w3.org/1999/xlink">
	<desc>Stata Graph - clus_std2_m1_pos_rev_pris_diff2</desc>
	<rect x="0" y="0" width="3960" height="2880" style="fill:#FFFFFF;stroke:none"/>
	<rect x="0.00" y="0.00" width="3959.88" height="2880.00" style="fill:#FFFFFF"/>
	<rect x="2.88" y="2.88" width="3954.12" height="2874.24" style="fill:none;stroke:#FFFFFF;stroke-width:5.76"/>
	<rect x="490.79" y="100.86" width="3368.23" height="2388.33" style="fill:#FFFFFF"/>
	<rect x="493.67" y="103.74" width="3362.47" height="2382.57" style="fill:none;stroke:#FFFFFF;stroke-width:5.76"/>
	<line x1="490.79" y1="2425.82" x2="3859.02" y2="2425.82" style="stroke:#EAF2F3;stroke-width:8.64"/>
	<line x1="490.79" y1="1973.50" x2="3859.02" y2="1973.50" style="stroke:#EAF2F3;stroke-width:8.64"/>
	<line x1="490.79" y1="1521.18" x2="3859.02" y2="1521.18" style="stroke:#EAF2F3;stroke-width:8.64"/>
	<line x1="490.79" y1="1068.86" x2="3859.02" y2="1068.86" style="stroke:#EAF2F3;stroke-width:8.64"/>
	<line x1="490.79" y1="616.54" x2="3859.02" y2="616.54" style="stroke:#EAF2F3;stroke-width:8.64"/>
	<line x1="490.79" y1="164.22" x2="3859.02" y2="164.22" style="stroke:#EAF2F3;stroke-width:8.64"/>
	<line x1="608.97" y1="1749.38" x2="608.97" y2="1445.07" style="stroke:#202020;stroke-opacity:0.75;stroke-width:8.64"/>
	<line x1="586.95" y1="1445.07" x2="631.00" y2="1445.07" stroke-linecap="round" style="stroke:#202020;stroke-opacity:0.75;stroke-width:8.64"/>
	<line x1="586.95" y1="1749.38" x2="631.00" y2="1749.38" stroke-linecap="round" style="stroke:#202020;stroke-opacity:0.75;stroke-width:8.64"/>
	<line x1="2174.91" y1="1201.77" x2="2174.91" y2="714.93" style="stroke:#202020;stroke-opacity:0.75;stroke-width:8.64"/>
	<line x1="2152.88" y1="714.93" x2="2196.93" y2="714.93" stroke-linecap="round" style="stroke:#202020;stroke-opacity:0.75;stroke-width:8.64"/>
	<line x1="2152.88" y1="1201.77" x2="2196.93" y2="1201.77" stroke-linecap="round" style="stroke:#202020;stroke-opacity:0.75;stroke-width:8.64"/>
	<line x1="3740.96" y1="936.69" x2="3740.96" y2="340.08" style="stroke:#202020;stroke-opacity:0.75;stroke-width:8.64"/>
	<line x1="3718.93" y1="340.08" x2="3762.99" y2="340.08" stroke-linecap="round" style="stroke:#202020;stroke-opacity:0.75;stroke-width:8.64"/>
	<line x1="3718.93" y1="936.69" x2="3762.99" y2="936.69" stroke-linecap="round" style="stroke:#202020;stroke-opacity:0.75;stroke-width:8.64"/>
	<line x1="554.15" y1="1996.27" x2="554.15" y2="1769.93" style="stroke:#606060;stroke-opacity:0.75;stroke-width:8.64"/>
	<line x1="532.13" y1="1769.93" x2="576.18" y2="1769.93" stroke-linecap="round" style="stroke:#606060;stroke-opacity:0.75;stroke-width:8.64"/>
	<line x1="532.13" y1="1996.27" x2="576.18" y2="1996.27" stroke-linecap="round" style="stroke:#606060;stroke-opacity:0.75;stroke-width:8.64"/>
	<line x1="2120.09" y1="1620.19" x2="2120.09" y2="1278.75" style="stroke:#606060;stroke-opacity:0.75;stroke-width:8.64"/>
	<line x1="2098.06" y1="1278.75" x2="2142.11" y2="1278.75" stroke-linecap="round" style="stroke:#606060;stroke-opacity:0.75;stroke-width:8.64"/>
	<line x1="2098.06" y1="1620.19" x2="2142.11" y2="1620.19" stroke-linecap="round" style="stroke:#606060;stroke-opacity:0.75;stroke-width:8.64"/>
	<line x1="3686.14" y1="1442.10" x2="3686.14" y2="1016.64" style="stroke:#606060;stroke-opacity:0.75;stroke-width:8.64"/>
	<line x1="3664.11" y1="1016.64" x2="3708.17" y2="1016.64" stroke-linecap="round" style="stroke:#606060;stroke-opacity:0.75;stroke-width:8.64"/>
	<line x1="3664.11" y1="1442.10" x2="3708.17" y2="1442.10" stroke-linecap="round" style="stroke:#606060;stroke-opacity:0.75;stroke-width:8.64"/>
	<line x1="663.79" y1="2285.73" x2="663.79" y2="1994.17" style="stroke:#A0A0A0;stroke-opacity:0.75;stroke-width:8.64"/>
	<line x1="641.77" y1="1994.17" x2="685.82" y2="1994.17" stroke-linecap="round" style="stroke:#A0A0A0;stroke-opacity:0.75;stroke-width:8.64"/>
	<line x1="641.77" y1="2285.73" x2="685.82" y2="2285.73" stroke-linecap="round" style="stroke:#A0A0A0;stroke-opacity:0.75;stroke-width:8.64"/>
	<line x1="2229.73" y1="2155.17" x2="2229.73" y2="1714.11" style="stroke:#A0A0A0;stroke-opacity:0.75;stroke-width:8.64"/>
	<line x1="2207.70" y1="1714.11" x2="2251.76" y2="1714.11" stroke-linecap="round" style="stroke:#A0A0A0;stroke-opacity:0.75;stroke-width:8.64"/>
	<line x1="2207.70" y1="2155.17" x2="2251.76" y2="2155.17" stroke-linecap="round" style="stroke:#A0A0A0;stroke-opacity:0.75;stroke-width:8.64"/>
	<line x1="3795.66" y1="2097.63" x2="3795.66" y2="1572.17" style="stroke:#A0A0A0;stroke-opacity:0.75;stroke-width:8.64"/>
	<line x1="3773.63" y1="1572.17" x2="3817.69" y2="1572.17" stroke-linecap="round" style="stroke:#A0A0A0;stroke-opacity:0.75;stroke-width:8.64"/>
	<line x1="3773.63" y1="2097.63" x2="3817.69" y2="2097.63" stroke-linecap="round" style="stroke:#A0A0A0;stroke-opacity:0.75;stroke-width:8.64"/>
	<circle cx="608.85" cy="1597.29" r="26.35" style="fill:#202020"/>
	<circle cx="608.85" cy="1597.29" r="22.03" style="fill:none;stroke:#202020;stroke-width:8.64"/>
	<circle cx="2174.91" cy="958.35" r="26.35" style="fill:#202020"/>
	<circle cx="2174.91" cy="958.35" r="22.03" style="fill:none;stroke:#202020;stroke-width:8.64"/>
	<circle cx="3740.84" cy="638.45" r="26.35" style="fill:#202020"/>
	<circle cx="3740.84" cy="638.45" r="22.03" style="fill:none;stroke:#202020;stroke-width:8.64"/>
	<circle cx="554.03" cy="1883.16" r="26.35" style="fill:#606060"/>
	<circle cx="554.03" cy="1883.16" r="22.03" style="fill:none;stroke:#202020;stroke-width:8.64"/>
	<circle cx="2120.09" cy="1449.53" r="26.35" style="fill:#606060"/>
	<circle cx="2120.09" cy="1449.53" r="22.03" style="fill:none;stroke:#202020;stroke-width:8.64"/>
	<circle cx="3686.02" cy="1229.37" r="26.35" style="fill:#606060"/>
	<circle cx="3686.02" cy="1229.37" r="22.03" style="fill:none;stroke:#202020;stroke-width:8.64"/>
	<circle cx="663.67" cy="2140.08" r="26.35" style="fill:#A0A0A0"/>
	<circle cx="663.67" cy="2140.08" r="22.03" style="fill:none;stroke:#202020;stroke-width:8.64"/>
	<circle cx="2229.73" cy="1934.77" r="26.35" style="fill:#A0A0A0"/>
	<circle cx="2229.73" cy="1934.77" r="22.03" style="fill:none;stroke:#202020;stroke-width:8.64"/>
	<circle cx="3795.66" cy="1835.02" r="26.35" style="fill:#A0A0A0"/>
	<circle cx="3795.66" cy="1835.02" r="22.03" style="fill:none;stroke:#202020;stroke-width:8.64"/>
	<line x1="490.79" y1="2489.19" x2="490.79" y2="100.86" style="stroke:#000000;stroke-width:5.76"/>
	<line x1="490.79" y1="2425.82" x2="450.82" y2="2425.82" style="stroke:#000000;stroke-width:5.76"/>
	<text x="400.71" y="2425.82" style="font-family:'Helvetica';font-size:99.99px;fill:#000000" transform="rotate(-90 400.71,2425.82)" text-anchor="middle">0</text>
	<line x1="490.79" y1="1973.50" x2="450.82" y2="1973.50" style="stroke:#000000;stroke-width:5.76"/>
	<text x="400.71" y="1973.50" style="font-family:'Helvetica';font-size:99.99px;fill:#000000" transform="rotate(-90 400.71,1973.50)" text-anchor="middle">.01</text>
	<line x1="490.79" y1="1521.18" x2="450.82" y2="1521.18" style="stroke:#000000;stroke-width:5.76"/>
	<text x="400.71" y="1521.18" style="font-family:'Helvetica';font-size:99.99px;fill:#000000" transform="rotate(-90 400.71,1521.18)" text-anchor="middle">.02</text>
	<line x1="490.79" y1="1068.86" x2="450.82" y2="1068.86" style="stroke:#000000;stroke-width:5.76"/>
	<text x="400.71" y="1068.86" style="font-family:'Helvetica';font-size:99.99px;fill:#000000" transform="rotate(-90 400.71,1068.86)" text-anchor="middle">.03</text>
	<line x1="490.79" y1="616.54" x2="450.82" y2="616.54" style="stroke:#000000;stroke-width:5.76"/>
	<text x="400.71" y="616.54" style="font-family:'Helvetica';font-size:99.99px;fill:#000000" transform="rotate(-90 400.71,616.54)" text-anchor="middle">.04</text>
	<line x1="490.79" y1="164.22" x2="450.82" y2="164.22" style="stroke:#000000;stroke-width:5.76"/>
	<text x="400.71" y="164.22" style="font-family:'Helvetica';font-size:99.99px;fill:#000000" transform="rotate(-90 400.71,164.22)" text-anchor="middle">.05</text>
	<text x="190.71" y="1294.96" style="font-family:'Helvetica';font-size:99.99px;fill:#000000" transform="rotate(-90 190.71,1294.96)" text-anchor="middle">Standardized differences in the probability</text>
	<text x="290.70" y="1294.96" style="font-family:'Helvetica';font-size:99.99px;fill:#000000" transform="rotate(-90 290.70,1294.96)" text-anchor="middle">of contact with the justice system</text>
	<line x1="490.79" y1="2489.19" x2="3859.02" y2="2489.19" style="stroke:#000000;stroke-width:5.76"/>
	<line x1="608.97" y1="2489.19" x2="608.97" y2="2529.16" style="stroke:#000000;stroke-width:5.76"/>
	<text x="608.97" y="2619.14" style="font-family:'Helvetica';font-size:99.99px;fill:#000000" text-anchor="middle">1</text>
	<line x1="1391.94" y1="2489.19" x2="1391.94" y2="2529.16" style="stroke:#000000;stroke-width:5.76"/>
	<text x="1391.94" y="2619.14" style="font-family:'Helvetica';font-size:99.99px;fill:#000000" text-anchor="middle">2</text>
	<line x1="2174.91" y1="2489.19" x2="2174.91" y2="2529.16" style="stroke:#000000;stroke-width:5.76"/>
	<text x="2174.91" y="2619.14" style="font-family:'Helvetica';font-size:99.99px;fill:#000000" text-anchor="middle">3</text>
	<line x1="2957.87" y1="2489.19" x2="2957.87" y2="2529.16" style="stroke:#000000;stroke-width:5.76"/>
	<text x="2957.87" y="2619.14" style="font-family:'Helvetica';font-size:99.99px;fill:#000000" text-anchor="middle">4</text>
	<line x1="3740.96" y1="2489.19" x2="3740.96" y2="2529.16" style="stroke:#000000;stroke-width:5.76"/>
	<text x="3740.96" y="2619.14" style="font-family:'Helvetica';font-size:99.99px;fill:#000000" text-anchor="middle">5</text>
	<text x="2174.91" y="2729.16" style="font-family:'Helvetica';font-size:99.99px;fill:#000000" text-anchor="middle">Years from treatment outcome</text>
	<circle cx="590.53" cy="228.57" r="26.35" style="fill:#202020"/>
	<circle cx="590.53" cy="228.57" r="22.03" style="fill:none;stroke:#202020;stroke-width:8.64"/>
	<circle cx="590.53" cy="368.54" r="26.35" style="fill:#606060"/>
	<circle cx="590.53" cy="368.54" r="22.03" style="fill:none;stroke:#202020;stroke-width:8.64"/>
	<circle cx="590.53" cy="508.50" r="26.35" style="fill:#A0A0A0"/>
	<circle cx="590.53" cy="508.50" r="22.03" style="fill:none;stroke:#202020;stroke-width:8.64"/>
	<text x="672.58" y="263.60" style="font-family:'Helvetica';font-size:99.99px;fill:#000000">Early dropout vs. Tr. completion</text>
	<text x="672.58" y="403.57" style="font-family:'Helvetica';font-size:99.99px;fill:#000000">Late dropout vs. Tr. completion</text>
	<text x="672.58" y="543.53" style="font-family:'Helvetica';font-size:99.99px;fill:#000000">Early vs. Late dropout</text>
</svg>
