<?xml version="1.0" encoding="UTF-8" standalone="no"?>
<!-- This is a Stata 16.1 generated SVG file (http://www.stata.com) -->

<svg version="1.1" width="5.50in" height="4.00in" viewBox="0 0 3960 2880" xmlns="http://www.w3.org/2000/svg" xmlns:xlink="http://www.w3.org/1999/xlink">
	<desc>Stata Graph - RMSTdiff</desc>
	<rect x="0" y="0" width="3960" height="2880" style="fill:#FFFFFF;stroke:none"/>
	<rect x="0.00" y="0.00" width="3959.88" height="2880.00" style="fill:#FFFFFF"/>
	<rect x="2.88" y="2.88" width="3954.12" height="2874.24" style="fill:none;stroke:#FFFFFF;stroke-width:5.76"/>
	<rect x="390.80" y="100.86" width="3468.22" height="2388.33" style="fill:#FFFFFF"/>
	<rect x="393.68" y="103.74" width="3462.46" height="2382.57" style="fill:none;stroke:#FFFFFF;stroke-width:5.76"/>
	<line x1="390.80" y1="2425.82" x2="3859.02" y2="2425.82" style="stroke:#EAF2F3;stroke-width:8.64"/>
	<line x1="390.80" y1="1973.50" x2="3859.02" y2="1973.50" style="stroke:#EAF2F3;stroke-width:8.64"/>
	<line x1="390.80" y1="1521.18" x2="3859.02" y2="1521.18" style="stroke:#EAF2F3;stroke-width:8.64"/>
	<line x1="390.80" y1="1068.86" x2="3859.02" y2="1068.86" style="stroke:#EAF2F3;stroke-width:8.64"/>
	<line x1="390.80" y1="616.54" x2="3859.02" y2="616.54" style="stroke:#EAF2F3;stroke-width:8.64"/>
	<line x1="390.80" y1="164.22" x2="3859.02" y2="164.22" style="stroke:#EAF2F3;stroke-width:8.64"/>
	<defs>
		<path id="path_DPNSxNdR" d="M562.44 628.05 L562.44 628.05 L670.73 654.16 L779.01 689.93 L887.29 732.62 L995.57 780.64 L1103.85 832.74 L1212.13 888.18 L1320.54 946.35 L1428.82 1006.99 L1537.10 1069.60 L1645.38 1133.96 L1753.66 1199.67 L1861.94 1266.50 L1970.22 1334.19 L2078.51 1402.75 L2186.79 1472.05 L2295.07 1541.73 L2403.35 1612.02 L2511.63 1682.56 L2620.03 1753.59 L2728.32 1824.75 L2836.60 1896.28 L2944.88 1967.93 L3053.16 2039.83 L3161.44 2111.86 L3269.72 2184.01 L3378.00 2256.40 L3378.00 1988.85 L3269.72 1929.57 L3161.44 1870.17 L3053.16 1810.77 L2944.88 1751.36 L2836.60 1691.84 L2728.32 1632.44 L2620.03 1572.91 L2511.63 1513.63 L2403.35 1454.36 L2295.07 1395.32 L2186.79 1336.67 L2078.51 1278.13 L1970.22 1220.21 L1861.94 1162.79 L1753.66 1106.11 L1645.38 1050.30 L1537.10 995.72 L1428.82 942.63 L1320.54 891.15 L1212.13 841.90 L1103.85 794.99 L995.57 751.19 L887.29 711.09 L779.01 675.57 L670.73 646.37 L562.44 625.33 L562.44 628.05 Z" stroke-linejoin="round"/>
	</defs>
	<defs>
		<clipPath id="clipPath_ntcgDNFD">
			<use xlink:href="#path_DPNSxNdR"/>
		</clipPath>
	</defs>
	<use xlink:href="#path_DPNSxNdR" style="stroke:none;fill:#4D4D4D;fill-opacity:0.35"/>
	<use xlink:href="#path_DPNSxNdR" style="fill:none;stroke:#202020;stroke-opacity:0.35;stroke-width:17.28" clip-path="url(#clipPath_ntcgDNFD)"/>
	<path d=" M454.04 616.54 L562.32 626.81 L670.60 650.33 L779.01 682.75 L887.29 721.86 L995.57 765.91 L1103.85 813.93 L1212.13 865.04 L1320.41 918.87 L1428.69 974.81 L1536.97 1032.73 L1645.26 1092.25 L1753.54 1152.89 L1861.82 1214.64 L1970.22 1277.26 L2078.51 1340.50 L2186.79 1404.36 L2295.07 1468.59 L2403.35 1533.31 L2511.63 1598.16 L2619.91 1663.38 L2728.19 1728.59 L2836.47 1794.18 L2944.76 1859.77 L3053.04 1925.36 L3161.32 1991.08 L3269.72 2056.91 L3378.00 2122.63" stroke-linejoin="round" style="fill:none;stroke:#202020;stroke-width:8.64"/>
	<defs>
		<path id="path_dGAedwAK" d="M562.44 624.34 L562.44 624.34 L670.73 643.15 L779.01 669.38 L887.29 701.31 L995.57 737.70 L1103.85 777.67 L1212.13 820.61 L1320.54 866.03 L1428.82 913.67 L1537.10 963.18 L1645.38 1014.41 L1753.66 1067.01 L1861.94 1120.84 L1970.22 1175.66 L2078.51 1231.35 L2186.79 1287.78 L2295.07 1344.83 L2403.35 1402.63 L2511.63 1460.79 L2620.03 1519.45 L2728.32 1578.60 L2836.60 1638.13 L2944.88 1697.90 L3053.16 1758.05 L3161.44 1818.56 L3269.72 1879.33 L3378.00 1940.21 L3378.00 1714.98 L3269.72 1665.23 L3161.44 1615.36 L3053.16 1565.73 L2944.88 1516.11 L2836.60 1466.73 L2728.32 1417.35 L2620.03 1368.35 L2511.63 1319.46 L2403.35 1270.95 L2295.07 1222.69 L2186.79 1174.92 L2078.51 1127.52 L1970.22 1080.74 L1861.94 1034.71 L1753.66 989.54 L1645.38 945.23 L1537.10 902.17 L1428.82 860.58 L1320.54 820.61 L1212.13 782.62 L1103.85 746.85 L995.57 713.81 L887.29 683.86 L779.01 658.00 L670.73 636.96 L562.44 622.36 L562.44 624.34 Z" stroke-linejoin="round"/>
	</defs>
	<defs>
		<clipPath id="clipPath_dsUgNAXk">
			<use xlink:href="#path_dGAedwAK"/>
		</clipPath>
	</defs>
	<use xlink:href="#path_dGAedwAK" style="stroke:none;fill:#808080;fill-opacity:0.35"/>
	<use xlink:href="#path_dGAedwAK" style="fill:none;stroke:#606060;stroke-opacity:0.35;stroke-width:17.28" clip-path="url(#clipPath_dsUgNAXk)"/>
	<path d=" M454.04 616.54 L562.32 623.47 L670.60 640.06 L779.01 663.69 L887.29 692.65 L995.57 725.82 L1103.85 762.32 L1212.13 801.68 L1320.41 843.38 L1428.69 887.19 L1536.97 932.73 L1645.26 979.88 L1753.54 1028.27 L1861.82 1077.90 L1970.22 1128.26 L2078.51 1179.50 L2186.79 1231.35 L2295.07 1283.82 L2403.35 1336.79 L2511.63 1390.13 L2619.91 1443.96 L2728.19 1498.04 L2836.47 1552.49 L2944.76 1607.07 L3053.04 1662.01 L3161.32 1717.08 L3269.72 1772.28 L3378.00 1827.72" stroke-linejoin="round" style="fill:none;stroke:#606060;stroke-width:8.64"/>
	<defs>
		<path id="path_XjTsNPfw" d="M562.44 614.44 L562.44 614.44 L670.73 609.98 L779.01 604.04 L887.29 597.24 L995.57 589.93 L1103.85 582.14 L1212.13 574.09 L1320.54 565.93 L1428.82 557.76 L1537.10 549.59 L1645.38 541.42 L1753.66 533.50 L1861.94 525.58 L1970.22 517.91 L2078.51 510.36 L2186.79 502.94 L2295.07 495.88 L2403.35 488.95 L2511.63 482.27 L2620.03 475.71 L2728.32 469.40 L2836.60 463.46 L2944.88 457.64 L3053.16 451.95 L3161.44 446.63 L3269.72 441.43 L3378.00 436.48 L3378.00 206.67 L3269.72 222.39 L3161.44 238.23 L3053.16 254.19 L2944.88 270.15 L2836.60 286.24 L2728.32 302.33 L2620.03 318.54 L2511.63 334.75 L2403.35 351.09 L2295.07 367.55 L2186.79 384.01 L2078.51 400.59 L1970.22 417.17 L1861.94 433.76 L1753.66 450.34 L1645.38 466.92 L1537.10 483.51 L1428.82 499.84 L1320.54 516.05 L1212.13 532.02 L1103.85 547.61 L995.57 562.83 L887.29 577.31 L779.01 590.68 L670.73 602.56 L562.44 611.96 L562.44 614.44 Z" stroke-linejoin="round"/>
	</defs>
	<defs>
		<clipPath id="clipPath_VHpRUdMr">
			<use xlink:href="#path_XjTsNPfw"/>
		</clipPath>
	</defs>
	<use xlink:href="#path_XjTsNPfw" style="stroke:none;fill:#B3B3B3;fill-opacity:0.35"/>
	<use xlink:href="#path_XjTsNPfw" style="fill:none;stroke:#A0A0A0;stroke-opacity:0.35;stroke-width:17.28" clip-path="url(#clipPath_VHpRUdMr)"/>
	<path d=" M454.04 616.54 L562.32 613.20 L670.60 606.39 L779.01 597.48 L887.29 587.34 L995.57 576.45 L1103.85 564.94 L1212.13 553.18 L1320.41 541.05 L1428.69 528.92 L1536.97 516.55 L1645.26 504.30 L1753.54 491.92 L1861.82 479.67 L1970.22 467.54 L2078.51 455.54 L2186.79 443.53 L2295.07 431.78 L2403.35 420.14 L2511.63 408.51 L2619.91 397.25 L2728.19 385.99 L2836.47 374.85 L2944.76 363.96 L3053.04 353.19 L3161.32 342.43 L3269.72 332.03 L3378.00 321.64" stroke-linejoin="round" style="fill:none;stroke:#A0A0A0;stroke-width:8.64"/>
	<path d=" M454.04 616.54 L562.32 616.54 L670.60 616.54 L779.01 616.54 L887.29 616.54 L995.57 616.54 L1103.85 616.54 L1212.13 616.54 L1320.41 616.54 L1428.69 616.54 L1536.97 616.54 L1645.26 616.54 L1753.54 616.54 L1861.82 616.54 L1970.22 616.54 L2078.51 616.54 L2186.79 616.54 L2295.07 616.54 L2403.35 616.54 L2511.63 616.54 L2619.91 616.54 L2728.19 616.54 L2836.47 616.54 L2944.76 616.54 L3053.04 616.54 L3161.32 616.54 L3269.72 616.54 L3378.00 616.54" stroke-linejoin="round" style="fill:none;stroke:#000000;stroke-opacity:0.20;stroke-width:23.04"/>
	<line x1="390.80" y1="2489.19" x2="390.80" y2="100.86" style="stroke:#000000;stroke-width:5.76"/>
	<line x1="390.80" y1="2425.82" x2="350.83" y2="2425.82" style="stroke:#000000;stroke-width:5.76"/>
	<text x="300.72" y="2425.82" style="font-family:'Helvetica';font-size:99.99px;fill:#000000" transform="rotate(-90 300.72,2425.82)" text-anchor="middle">-0.8</text>
	<line x1="390.80" y1="1973.50" x2="350.83" y2="1973.50" style="stroke:#000000;stroke-width:5.76"/>
	<text x="300.72" y="1973.50" style="font-family:'Helvetica';font-size:99.99px;fill:#000000" transform="rotate(-90 300.72,1973.50)" text-anchor="middle">-0.6</text>
	<line x1="390.80" y1="1521.18" x2="350.83" y2="1521.18" style="stroke:#000000;stroke-width:5.76"/>
	<text x="300.72" y="1521.18" style="font-family:'Helvetica';font-size:99.99px;fill:#000000" transform="rotate(-90 300.72,1521.18)" text-anchor="middle">-0.4</text>
	<line x1="390.80" y1="1068.86" x2="350.83" y2="1068.86" style="stroke:#000000;stroke-width:5.76"/>
	<text x="300.72" y="1068.86" style="font-family:'Helvetica';font-size:99.99px;fill:#000000" transform="rotate(-90 300.72,1068.86)" text-anchor="middle">-0.2</text>
	<line x1="390.80" y1="616.54" x2="350.83" y2="616.54" style="stroke:#000000;stroke-width:5.76"/>
	<text x="300.72" y="616.54" style="font-family:'Helvetica';font-size:99.99px;fill:#000000" transform="rotate(-90 300.72,616.54)" text-anchor="middle">0.0</text>
	<line x1="390.80" y1="164.22" x2="350.83" y2="164.22" style="stroke:#000000;stroke-width:5.76"/>
	<text x="300.72" y="164.22" style="font-family:'Helvetica';font-size:99.99px;fill:#000000" transform="rotate(-90 300.72,164.22)" text-anchor="middle">0.2</text>
	<text x="190.71" y="1294.96" style="font-family:'Helvetica';font-size:99.99px;fill:#000000" transform="rotate(-90 190.71,1294.96)" text-anchor="middle">Difference in RMST (years)</text>
	<line x1="390.80" y1="2489.19" x2="3859.02" y2="2489.19" style="stroke:#000000;stroke-width:5.76"/>
	<line x1="454.16" y1="2489.19" x2="454.16" y2="2529.16" style="stroke:#000000;stroke-width:5.76"/>
	<text x="454.16" y="2619.14" style="font-family:'Helvetica';font-size:99.99px;fill:#000000" text-anchor="middle">0</text>
	<line x1="1289.47" y1="2489.19" x2="1289.47" y2="2529.16" style="stroke:#000000;stroke-width:5.76"/>
	<text x="1289.47" y="2619.14" style="font-family:'Helvetica';font-size:99.99px;fill:#000000" text-anchor="middle">2</text>
	<line x1="2124.91" y1="2489.19" x2="2124.91" y2="2529.16" style="stroke:#000000;stroke-width:5.76"/>
	<text x="2124.91" y="2619.14" style="font-family:'Helvetica';font-size:99.99px;fill:#000000" text-anchor="middle">4</text>
	<line x1="2960.35" y1="2489.19" x2="2960.35" y2="2529.16" style="stroke:#000000;stroke-width:5.76"/>
	<text x="2960.35" y="2619.14" style="font-family:'Helvetica';font-size:99.99px;fill:#000000" text-anchor="middle">6</text>
	<line x1="3795.66" y1="2489.19" x2="3795.66" y2="2529.16" style="stroke:#000000;stroke-width:5.76"/>
	<text x="3795.66" y="2619.14" style="font-family:'Helvetica';font-size:99.99px;fill:#000000" text-anchor="middle">8</text>
	<text x="2124.91" y="2729.16" style="font-family:'Helvetica';font-size:99.99px;fill:#000000" text-anchor="middle">Years from baseline treatment outcome</text>
	<rect x="468.52" y="2031.42" width="374.47" height="99.99" style="fill:#4D4D4D;fill-opacity:0.35"/>
	<rect x="472.84" y="2035.74" width="365.83" height="91.35" style="fill:none;stroke:#202020;stroke-opacity:0.35;stroke-width:8.64"/>
	<rect x="468.52" y="2171.51" width="374.47" height="99.99" style="fill:#808080;fill-opacity:0.35"/>
	<rect x="472.84" y="2175.83" width="365.83" height="91.35" style="fill:none;stroke:#606060;stroke-opacity:0.35;stroke-width:8.64"/>
	<rect x="468.52" y="2311.47" width="374.47" height="99.99" style="fill:#B3B3B3;fill-opacity:0.35"/>
	<rect x="472.84" y="2315.79" width="365.83" height="91.35" style="fill:none;stroke:#A0A0A0;stroke-opacity:0.35;stroke-width:8.64"/>
	<text x="902.88" y="2116.44" style="font-family:'Helvetica';font-size:99.99px;fill:#000000">Early vs. Tr. completion</text>
	<text x="902.88" y="2256.53" style="font-family:'Helvetica';font-size:99.99px;fill:#000000">Late vs. Tr. completion</text>
	<text x="902.88" y="2396.50" style="font-family:'Helvetica';font-size:99.99px;fill:#000000">Late vs. Early dropout</text>
</svg>
