<?xml version="1.0" encoding="UTF-8" standalone="no"?>
<!-- This is a Stata 16.1 generated SVG file (http://www.stata.com) -->

<svg version="1.1" width="5.50in" height="4.00in" viewBox="0 0 3960 2880" xmlns="http://www.w3.org/2000/svg" xmlns:xlink="http://www.w3.org/1999/xlink">
	<desc>Stata Graph - surv_diffs</desc>
	<rect x="0" y="0" width="3960" height="2880" style="fill:#FFFFFF;stroke:none"/>
	<rect x="0.00" y="0.00" width="3959.88" height="2880.00" style="fill:#FFFFFF"/>
	<rect x="2.88" y="2.88" width="3954.12" height="2874.24" style="fill:none;stroke:#FFFFFF;stroke-width:5.76"/>
	<rect x="390.80" y="636.34" width="3468.22" height="1852.84" style="fill:#FFFFFF"/>
	<rect x="393.68" y="639.22" width="3462.46" height="1847.08" style="fill:none;stroke:#FFFFFF;stroke-width:5.76"/>
	<line x1="390.80" y1="2321.00" x2="3859.02" y2="2321.00" style="stroke:#EAF2F3;stroke-width:8.64"/>
	<line x1="390.80" y1="1915.59" x2="3859.02" y2="1915.59" style="stroke:#EAF2F3;stroke-width:8.64"/>
	<line x1="390.80" y1="1510.29" x2="3859.02" y2="1510.29" style="stroke:#EAF2F3;stroke-width:8.64"/>
	<line x1="390.80" y1="1105.00" x2="3859.02" y2="1105.00" style="stroke:#EAF2F3;stroke-width:8.64"/>
	<line x1="390.80" y1="699.70" x2="3859.02" y2="699.70" style="stroke:#EAF2F3;stroke-width:8.64"/>
	<defs>
		<path id="path_lLgxMORx" d="M454.16 1915.59 L454.16 1915.59 L562.44 1699.14 L670.73 1576.38 L887.29 1429.23 L995.57 1383.82 L1103.85 1349.66 L1212.13 1322.93 L1320.54 1301.64 L1753.66 1256.60 L1861.94 1252.88 L1970.22 1251.15 L2078.51 1251.03 L2186.79 1252.14 L2295.07 1254.12 L2403.35 1256.97 L2511.63 1260.31 L2620.03 1264.15 L2836.60 1273.06 L2944.88 1277.88 L3053.16 1282.83 L3269.72 1293.23 L3378.00 1298.55 L3378.00 844.25 L3269.72 844.00 L3053.16 844.00 L2944.88 844.37 L2836.60 845.12 L2620.03 847.71 L2511.63 849.69 L2403.35 852.54 L2295.07 856.13 L2186.79 860.71 L2078.51 866.65 L1970.22 874.07 L1861.94 883.60 L1753.66 895.73 L1320.54 982.73 L1212.13 1017.13 L1103.85 1058.10 L995.57 1108.71 L887.29 1174.18 L670.73 1383.94 L562.44 1563.51 L454.16 1915.59 L454.16 1915.59 Z" stroke-linejoin="round"/>
	</defs>
	<defs>
		<clipPath id="clipPath_QIGMUcmp">
			<use xlink:href="#path_lLgxMORx"/>
		</clipPath>
	</defs>
	<use xlink:href="#path_lLgxMORx" style="stroke:none;fill:#8D8D8D;fill-opacity:0.35"/>
	<use xlink:href="#path_lLgxMORx" style="fill:none;stroke:#707070;stroke-opacity:0.35;stroke-width:17.28" clip-path="url(#clipPath_QIGMUcmp)"/>
	<path d=" M454.04 1915.71 L562.32 1631.45 L670.60 1480.22 L887.29 1301.77 L995.57 1246.33 L1103.85 1203.88 L1212.13 1170.09 L1320.41 1142.25 L1753.54 1076.16 L1861.82 1068.24 L1970.22 1062.67 L2078.51 1058.84 L2186.79 1056.49 L2295.07 1055.13 L2403.35 1054.75 L2511.63 1055.13 L2619.91 1055.99 L2836.47 1059.09 L2944.76 1061.19 L3053.04 1063.54 L3269.72 1068.61 L3378.00 1071.46" stroke-linejoin="round" style="fill:none;stroke:#707070;stroke-width:23.04"/>
	<defs>
		<path id="path_EpkZyXUS" d="M454.16 1915.59 L454.16 1915.59 L670.73 1794.43 L779.01 1730.45 L995.57 1624.76 L1428.82 1478.12 L1537.10 1450.64 L1645.38 1426.39 L1753.66 1405.10 L2186.79 1343.35 L2295.07 1332.09 L3053.16 1279.49 L3161.44 1274.42 L3161.44 944.74 L3053.16 954.51 L2295.07 1042.01 L2186.79 1058.47 L1753.66 1143.11 L1645.38 1170.84 L1537.10 1202.02 L1428.82 1236.80 L995.57 1419.46 L779.01 1556.20 L670.73 1646.17 L454.16 1915.59 L454.16 1915.59 Z" stroke-linejoin="round"/>
	</defs>
	<defs>
		<clipPath id="clipPath_UwRAFqvm">
			<use xlink:href="#path_EpkZyXUS"/>
		</clipPath>
	</defs>
	<use xlink:href="#path_EpkZyXUS" style="stroke:none;fill:#4D4D4D;fill-opacity:0.35"/>
	<use xlink:href="#path_EpkZyXUS" style="fill:none;stroke:#202020;stroke-opacity:0.35;stroke-width:17.28" clip-path="url(#clipPath_UwRAFqvm)"/>
	<path d=" M454.04 1915.71 L670.60 1720.43 L779.01 1643.45 L995.57 1522.17 L1428.69 1357.58 L1536.97 1326.39 L1645.26 1298.67 L1753.54 1274.17 L2186.79 1201.03 L2295.07 1187.05 L3053.04 1117.00 L3161.32 1109.70" stroke-linejoin="round" style="fill:none;stroke:#202020;stroke-width:23.04"/>
	<defs>
		<path id="path_dGtyhFoi" d="M454.16 1915.59 L454.16 1915.59 L670.73 2252.20 L779.01 2311.72 L995.57 2374.59 L1428.82 2418.40 L1537.10 2422.61 L1645.38 2424.96 L1753.66 2425.82 L2186.79 2420.75 L2295.07 2418.40 L3053.16 2399.09 L3161.44 2396.25 L3161.44 1945.78 L3053.16 1953.95 L2295.07 2014.34 L2186.79 2023.38 L1753.66 2058.52 L1645.38 2066.57 L1537.10 2073.99 L1428.82 2080.55 L995.57 2090.70 L779.01 2073.12 L670.73 2050.11 L454.16 1915.59 L454.16 1915.59 Z" stroke-linejoin="round"/>
	</defs>
	<defs>
		<clipPath id="clipPath_yQsOgNqW">
			<use xlink:href="#path_dGtyhFoi"/>
		</clipPath>
	</defs>
	<use xlink:href="#path_dGtyhFoi" style="stroke:none;fill:#B3B3B3;fill-opacity:0.25"/>
	<use xlink:href="#path_dGtyhFoi" style="fill:none;stroke:#A0A0A0;stroke-opacity:0.25;stroke-width:17.28" clip-path="url(#clipPath_yQsOgNqW)"/>
	<path d=" M454.04 1915.71 L670.60 2151.21 L779.01 2192.42 L995.57 2232.77 L1428.69 2249.47 L1536.97 2248.36 L1645.26 2245.89 L1753.54 2242.30 L2186.79 2222.12 L2295.07 2216.43 L3053.04 2176.58 L3161.32 2171.14" stroke-linejoin="round" style="fill:none;stroke:#A0A0A0;stroke-width:23.04"/>
	<path d=" M454.04 1915.71 L562.32 1915.71 L670.60 1915.71 L779.01 1915.71 L887.29 1915.71 L995.57 1915.71 L1103.85 1915.71 L1212.13 1915.71 L1320.41 1915.71 L1428.69 1915.71 L1536.97 1915.71 L1645.26 1915.71 L1753.54 1915.71 L1861.82 1915.71 L1970.22 1915.71 L2078.51 1915.71 L2186.79 1915.71 L2295.07 1915.71 L2403.35 1915.71 L2511.63 1915.71 L2619.91 1915.71 L2728.19 1915.71 L2836.47 1915.71 L2944.76 1915.71 L3053.04 1915.71 L3161.32 1915.71 L3269.72 1915.71 L3378.00 1915.71" stroke-linejoin="round" style="fill:none;stroke:#000000;stroke-opacity:0.20;stroke-width:23.04"/>
	<line x1="390.80" y1="2489.19" x2="390.80" y2="636.34" style="stroke:#000000;stroke-width:5.76"/>
	<line x1="390.80" y1="2321.00" x2="350.83" y2="2321.00" style="stroke:#000000;stroke-width:5.76"/>
	<text x="300.72" y="2321.00" style="font-family:'Helvetica';font-size:99.99px;fill:#000000" transform="rotate(-90 300.72,2321.00)" text-anchor="middle">-.02</text>
	<line x1="390.80" y1="1915.59" x2="350.83" y2="1915.59" style="stroke:#000000;stroke-width:5.76"/>
	<text x="300.72" y="1915.59" style="font-family:'Helvetica';font-size:99.99px;fill:#000000" transform="rotate(-90 300.72,1915.59)" text-anchor="middle">0</text>
	<line x1="390.80" y1="1510.29" x2="350.83" y2="1510.29" style="stroke:#000000;stroke-width:5.76"/>
	<text x="300.72" y="1510.29" style="font-family:'Helvetica';font-size:99.99px;fill:#000000" transform="rotate(-90 300.72,1510.29)" text-anchor="middle">.02</text>
	<line x1="390.80" y1="1105.00" x2="350.83" y2="1105.00" style="stroke:#000000;stroke-width:5.76"/>
	<text x="300.72" y="1105.00" style="font-family:'Helvetica';font-size:99.99px;fill:#000000" transform="rotate(-90 300.72,1105.00)" text-anchor="middle">.04</text>
	<line x1="390.80" y1="699.70" x2="350.83" y2="699.70" style="stroke:#000000;stroke-width:5.76"/>
	<text x="300.72" y="699.70" style="font-family:'Helvetica';font-size:99.99px;fill:#000000" transform="rotate(-90 300.72,699.70)" text-anchor="middle">.06</text>
	<text x="190.71" y="1562.76" style="font-family:'Helvetica';font-size:99.99px;fill:#000000" transform="rotate(-90 190.71,1562.76)" text-anchor="middle">Differences  of avoiding sentence (standardized)</text>
	<line x1="390.80" y1="2489.19" x2="3859.02" y2="2489.19" style="stroke:#000000;stroke-width:5.76"/>
	<line x1="454.16" y1="2489.19" x2="454.16" y2="2529.16" style="stroke:#000000;stroke-width:5.76"/>
	<text x="454.16" y="2619.14" style="font-family:'Helvetica';font-size:99.99px;fill:#000000" text-anchor="middle">0</text>
	<line x1="1289.47" y1="2489.19" x2="1289.47" y2="2529.16" style="stroke:#000000;stroke-width:5.76"/>
	<text x="1289.47" y="2619.14" style="font-family:'Helvetica';font-size:99.99px;fill:#000000" text-anchor="middle">2</text>
	<line x1="2124.91" y1="2489.19" x2="2124.91" y2="2529.16" style="stroke:#000000;stroke-width:5.76"/>
	<text x="2124.91" y="2619.14" style="font-family:'Helvetica';font-size:99.99px;fill:#000000" text-anchor="middle">4</text>
	<line x1="2960.35" y1="2489.19" x2="2960.35" y2="2529.16" style="stroke:#000000;stroke-width:5.76"/>
	<text x="2960.35" y="2619.14" style="font-family:'Helvetica';font-size:99.99px;fill:#000000" text-anchor="middle">6</text>
	<line x1="3795.66" y1="2489.19" x2="3795.66" y2="2529.16" style="stroke:#000000;stroke-width:5.76"/>
	<text x="3795.66" y="2619.14" style="font-family:'Helvetica';font-size:99.99px;fill:#000000" text-anchor="middle">8</text>
	<text x="2124.91" y="2729.16" style="font-family:'Helvetica';font-size:99.99px;fill:#000000" text-anchor="middle">Years from treatment outcome</text>
	<line x1="1946.96" y1="228.57" x2="2321.43" y2="228.57" style="stroke:#707070;stroke-width:23.04"/>
	<line x1="1946.96" y1="368.54" x2="2321.43" y2="368.54" style="stroke:#202020;stroke-width:23.04"/>
	<line x1="1946.96" y1="508.50" x2="2321.43" y2="508.50" style="stroke:#A0A0A0;stroke-width:23.04"/>
	<text x="2381.32" y="263.60" style="font-family:'Helvetica';font-size:99.99px;fill:#000000">Early vs. tr. completion</text>
	<text x="2381.32" y="403.57" style="font-family:'Helvetica';font-size:99.99px;fill:#000000">Late dropout vs. tr. completion</text>
	<text x="2381.32" y="543.53" style="font-family:'Helvetica';font-size:99.99px;fill:#000000">Late vs. early dropout</text>
</svg>
