<?xml version="1.0" encoding="UTF-8" standalone="no"?>
<!-- This is a Stata 16.1 generated SVG file (http://www.stata.com) -->

<svg version="1.1" width="5.50in" height="4.00in" viewBox="0 0 3960 2880" xmlns="http://www.w3.org/2000/svg" xmlns:xlink="http://www.w3.org/1999/xlink">
	<desc>Stata Graph - s_diff</desc>
	<rect x="0" y="0" width="3960" height="2880" style="fill:#FFFFFF;stroke:none"/>
	<rect x="0.00" y="0.00" width="3959.88" height="2880.00" style="fill:#FFFFFF"/>
	<rect x="2.88" y="2.88" width="3954.12" height="2874.24" style="fill:none;stroke:#FFFFFF;stroke-width:5.76"/>
	<rect x="390.80" y="100.86" width="3468.22" height="2388.33" style="fill:#FFFFFF"/>
	<rect x="393.68" y="103.74" width="3462.46" height="2382.57" style="fill:none;stroke:#FFFFFF;stroke-width:5.76"/>
	<line x1="390.80" y1="2425.82" x2="3859.02" y2="2425.82" style="stroke:#EAF2F3;stroke-width:8.64"/>
	<line x1="390.80" y1="1860.39" x2="3859.02" y2="1860.39" style="stroke:#EAF2F3;stroke-width:8.64"/>
	<line x1="390.80" y1="1294.96" x2="3859.02" y2="1294.96" style="stroke:#EAF2F3;stroke-width:8.64"/>
	<line x1="390.80" y1="729.53" x2="3859.02" y2="729.53" style="stroke:#EAF2F3;stroke-width:8.64"/>
	<line x1="390.80" y1="164.22" x2="3859.02" y2="164.22" style="stroke:#EAF2F3;stroke-width:8.64"/>
	<defs>
		<path id="path_yosEsCtS" d="M454.16 729.53 L454.16 729.53 L507.25 963.80 L560.46 1118.98 L613.68 1241.87 L666.76 1343.10 L719.98 1428.37 L773.07 1501.01 L826.28 1563.51 L879.49 1618.33 L932.58 1666.72 L985.79 1710.03 L1038.88 1748.89 L1092.09 1783.79 L1145.18 1815.10 L1198.39 1843.31 L1251.61 1868.68 L1304.70 1891.83 L1357.91 1912.99 L1411.00 1932.42 L1464.21 1950.48 L1517.42 1967.32 L1570.51 1983.03 L1623.72 1997.63 L1676.81 2011.25 L1730.03 2023.75 L1783.24 2035.26 L1836.33 2045.78 L1889.54 2055.43 L1942.63 2064.21 L1995.84 2072.26 L2048.93 2079.56 L2102.14 2086.00 L2155.35 2091.94 L2208.44 2097.26 L2261.66 2102.08 L2314.74 2106.41 L2367.96 2110.37 L2421.17 2113.96 L2474.26 2117.18 L2527.47 2120.15 L2580.56 2122.75 L2633.77 2125.10 L2686.98 2127.33 L2740.07 2129.31 L2793.28 2131.04 L2846.37 2132.65 L2899.59 2134.01 L2952.68 2135.37 L3005.89 2136.49 L3059.10 2137.60 L3112.19 2138.47 L3165.40 2139.33 L3218.49 2140.08 L3271.70 2140.69 L3324.91 2141.31 L3378.00 2141.81 L3378.00 1865.71 L3324.91 1866.83 L3271.70 1867.82 L3218.49 1868.81 L3165.40 1869.67 L3112.19 1870.42 L3059.10 1871.03 L3005.89 1871.65 L2952.68 1872.15 L2899.59 1872.52 L2846.37 1872.77 L2793.28 1872.89 L2740.07 1872.89 L2686.98 1872.64 L2633.77 1872.27 L2580.56 1871.65 L2527.47 1870.79 L2474.26 1869.80 L2421.17 1868.44 L2367.96 1866.83 L2314.74 1864.72 L2261.66 1862.37 L2208.44 1859.65 L2155.35 1856.43 L2102.14 1852.72 L2048.93 1848.39 L1995.84 1843.44 L1942.63 1837.87 L1889.54 1831.43 L1836.33 1824.26 L1783.24 1816.34 L1730.03 1807.55 L1676.81 1797.77 L1623.72 1787.13 L1570.51 1775.37 L1517.42 1762.75 L1464.21 1749.01 L1411.00 1734.16 L1357.91 1717.95 L1304.70 1700.13 L1251.61 1680.70 L1198.39 1659.04 L1145.18 1635.04 L1092.09 1608.06 L1038.88 1577.99 L985.79 1544.45 L932.58 1506.95 L879.49 1465.00 L826.28 1417.60 L773.07 1363.40 L719.98 1300.90 L666.76 1227.89 L613.68 1141.88 L560.46 1038.79 L507.25 910.83 L454.16 729.53 L454.16 729.53 Z" stroke-linejoin="round"/>
	</defs>
	<defs>
		<clipPath id="clipPath_UlUSbTiq">
			<use xlink:href="#path_yosEsCtS"/>
		</clipPath>
	</defs>
	<use xlink:href="#path_yosEsCtS" style="stroke:none;fill:#4D4D4D;fill-opacity:0.35"/>
	<use xlink:href="#path_yosEsCtS" style="fill:none;stroke:#202020;stroke-opacity:0.35;stroke-width:17.28" clip-path="url(#clipPath_UlUSbTiq)"/>
	<path d=" M454.04 729.65 L507.25 937.31 L560.34 1079.01 L613.55 1191.87 L666.76 1285.56 L719.85 1364.63 L773.07 1432.33 L826.15 1490.62 L879.37 1541.73 L932.58 1586.90 L985.67 1627.36 L1038.88 1663.50 L1091.97 1696.05 L1145.18 1725.13 L1198.39 1751.24 L1251.48 1774.75 L1304.70 1796.04 L1357.79 1815.47 L1411.00 1833.29 L1464.09 1849.87 L1517.30 1865.09 L1570.51 1879.33 L1623.60 1892.44 L1676.81 1904.57 L1729.90 1915.71 L1783.11 1925.86 L1836.33 1935.14 L1889.41 1943.55 L1942.63 1951.10 L1995.72 1957.91 L2048.93 1963.97 L2102.14 1969.42 L2155.23 1974.25 L2208.44 1978.58 L2261.53 1982.29 L2314.74 1985.63 L2367.83 1988.60 L2421.05 1991.20 L2474.26 1993.55 L2527.35 1995.53 L2580.56 1997.26 L2633.65 1998.75 L2686.86 1999.99 L2740.07 2001.10 L2793.16 2002.09 L2846.37 2002.83 L2899.46 2003.33 L2952.68 2003.82 L3005.89 2004.19 L3058.98 2004.44 L3112.19 2004.44 L3165.28 2004.57 L3218.49 2004.44 L3271.58 2004.32 L3324.79 2004.07 L3378.00 2003.82" stroke-linejoin="round" style="fill:none;stroke:#202020;stroke-width:8.64"/>
	<defs>
		<path id="path_OQDgfERp" d="M454.16 729.53 L454.16 729.53 L507.25 893.26 L560.46 1009.83 L613.68 1104.87 L666.76 1185.07 L719.98 1253.87 L773.07 1313.65 L826.28 1365.87 L879.49 1412.16 L932.58 1453.74 L985.79 1491.23 L1038.88 1525.39 L1092.09 1556.45 L1145.18 1584.54 L1198.39 1610.29 L1251.61 1633.67 L1304.70 1655.21 L1357.91 1675.13 L1411.00 1693.70 L1464.21 1711.14 L1517.42 1727.48 L1570.51 1742.95 L1623.72 1757.43 L1676.81 1770.92 L1730.03 1783.66 L1783.24 1795.54 L1836.33 1806.56 L1889.54 1816.83 L1942.63 1826.36 L1995.84 1835.27 L2048.93 1843.31 L2102.14 1850.86 L2155.35 1857.79 L2208.44 1864.35 L2261.66 1870.29 L2314.74 1875.86 L2367.96 1881.06 L2421.17 1885.89 L2474.26 1890.46 L2527.47 1894.67 L2580.56 1898.63 L2633.77 1902.34 L2686.98 1905.81 L2740.07 1909.15 L2793.28 1912.24 L2846.37 1915.21 L2899.59 1918.06 L2952.68 1920.66 L3005.89 1923.14 L3059.10 1925.61 L3112.19 1927.84 L3165.40 1929.94 L3218.49 1932.05 L3271.70 1934.03 L3324.91 1935.88 L3378.00 1937.74 L3378.00 1728.10 L3324.91 1727.73 L3271.70 1727.36 L3218.49 1726.86 L3165.40 1726.24 L3112.19 1725.62 L3059.10 1724.76 L3005.89 1723.89 L2952.68 1722.90 L2899.59 1721.66 L2846.37 1720.43 L2793.28 1719.06 L2740.07 1717.46 L2686.98 1715.60 L2633.77 1713.74 L2580.56 1711.52 L2527.47 1709.16 L2474.26 1706.44 L2421.17 1703.60 L2367.96 1700.25 L2314.74 1696.79 L2261.66 1692.83 L2208.44 1688.50 L2155.35 1683.80 L2102.14 1678.60 L2048.93 1672.78 L1995.84 1666.47 L1942.63 1659.54 L1889.54 1651.87 L1836.33 1643.58 L1783.24 1634.42 L1730.03 1624.64 L1676.81 1613.87 L1623.72 1602.37 L1570.51 1589.99 L1517.42 1576.75 L1464.21 1562.64 L1411.00 1547.42 L1357.91 1531.08 L1304.70 1513.51 L1251.61 1494.45 L1198.39 1473.54 L1145.18 1450.77 L1092.09 1425.52 L1038.88 1397.92 L985.79 1367.36 L932.58 1333.94 L879.49 1296.94 L826.28 1255.85 L773.07 1209.82 L719.98 1157.59 L666.76 1097.94 L613.68 1029.26 L560.46 949.44 L507.25 854.03 L454.16 729.53 L454.16 729.53 Z" stroke-linejoin="round"/>
	</defs>
	<defs>
		<clipPath id="clipPath_CXHALhAC">
			<use xlink:href="#path_OQDgfERp"/>
		</clipPath>
	</defs>
	<use xlink:href="#path_OQDgfERp" style="stroke:none;fill:#808080;fill-opacity:0.35"/>
	<use xlink:href="#path_OQDgfERp" style="fill:none;stroke:#606060;stroke-opacity:0.35;stroke-width:17.28" clip-path="url(#clipPath_CXHALhAC)"/>
	<path d=" M454.04 729.65 L507.25 873.70 L560.34 979.64 L613.55 1067.13 L666.76 1141.51 L719.85 1205.86 L773.07 1261.79 L826.15 1310.92 L879.37 1354.61 L932.58 1393.84 L985.67 1429.36 L1038.88 1461.66 L1091.97 1490.99 L1145.18 1517.72 L1198.39 1541.97 L1251.48 1564.13 L1304.70 1584.42 L1357.79 1603.23 L1411.00 1620.68 L1464.09 1636.89 L1517.30 1652.24 L1570.51 1666.47 L1623.60 1679.96 L1676.81 1692.46 L1729.90 1704.21 L1783.11 1715.10 L1836.33 1725.13 L1889.41 1734.41 L1942.63 1743.07 L1995.72 1750.87 L2048.93 1758.17 L2102.14 1764.85 L2155.23 1770.92 L2208.44 1776.49 L2261.53 1781.68 L2314.74 1786.39 L2367.83 1790.72 L2421.05 1794.80 L2474.26 1798.51 L2527.35 1801.98 L2580.56 1805.07 L2633.65 1808.04 L2686.86 1810.77 L2740.07 1813.37 L2793.16 1815.72 L2846.37 1817.94 L2899.46 1819.92 L2952.68 1821.78 L3005.89 1823.64 L3058.98 1825.25 L3112.19 1826.73 L3165.28 1828.22 L3218.49 1829.45 L3271.58 1830.69 L3324.79 1831.93 L3378.00 1832.92" stroke-linejoin="round" style="fill:none;stroke:#606060;stroke-width:8.64"/>
	<defs>
		<path id="path_ozqXRXuB" d="M454.16 729.53 L454.16 729.53 L507.25 691.41 L560.46 668.64 L613.68 652.06 L666.76 639.56 L719.98 630.03 L773.07 622.61 L826.28 617.04 L879.49 612.71 L932.58 609.36 L985.79 606.89 L1038.88 605.16 L1092.09 603.92 L1145.18 603.30 L1198.39 603.05 L1251.61 603.18 L1304.70 603.55 L1357.91 604.29 L1411.00 605.16 L1464.21 606.15 L1517.42 607.38 L1570.51 608.75 L1623.72 610.11 L1676.81 611.72 L1730.03 613.32 L1783.24 615.06 L1836.33 616.79 L1889.54 618.65 L1942.63 620.63 L1995.84 622.61 L2048.93 624.59 L2102.14 626.69 L2155.35 628.79 L2208.44 630.77 L2261.66 633.00 L2314.74 635.10 L2367.96 637.21 L2421.17 639.31 L2474.26 641.54 L2527.47 643.64 L2580.56 645.75 L2633.77 647.85 L2686.98 649.96 L2740.07 652.06 L2793.28 654.16 L2846.37 656.27 L2899.59 658.25 L2952.68 660.35 L3005.89 662.33 L3059.10 664.31 L3112.19 666.41 L3165.40 668.39 L3218.49 670.37 L3271.70 672.23 L3324.91 674.21 L3378.00 676.07 L3378.00 441.31 L3324.91 440.56 L3271.70 439.82 L3218.49 438.95 L3165.40 438.09 L3112.19 437.35 L3059.10 436.48 L3005.89 435.74 L2952.68 434.87 L2899.59 434.00 L2846.37 433.26 L2793.28 432.40 L2740.07 431.53 L2686.98 430.79 L2633.77 429.92 L2580.56 429.18 L2527.47 428.31 L2474.26 427.57 L2421.17 426.83 L2367.96 426.21 L2314.74 425.47 L2261.66 424.85 L2208.44 424.23 L2155.35 423.73 L2102.14 423.24 L2048.93 422.87 L1995.84 422.62 L1942.63 422.37 L1889.54 422.37 L1836.33 422.37 L1783.24 422.62 L1730.03 422.87 L1676.81 423.36 L1623.72 424.10 L1570.51 424.97 L1517.42 425.96 L1464.21 427.20 L1411.00 428.56 L1357.91 430.29 L1304.70 432.27 L1251.61 434.75 L1198.39 437.59 L1145.18 441.06 L1092.09 445.39 L1038.88 450.46 L985.79 456.53 L932.58 463.71 L879.49 472.37 L826.28 482.76 L773.07 495.51 L719.98 511.47 L666.76 531.65 L613.68 557.63 L560.46 592.04 L507.25 640.43 L454.16 729.53 L454.16 729.53 Z" stroke-linejoin="round"/>
	</defs>
	<defs>
		<clipPath id="clipPath_eUmKdQkU">
			<use xlink:href="#path_ozqXRXuB"/>
		</clipPath>
	</defs>
	<use xlink:href="#path_ozqXRXuB" style="stroke:none;fill:#B3B3B3;fill-opacity:0.35"/>
	<use xlink:href="#path_ozqXRXuB" style="fill:none;stroke:#A0A0A0;stroke-opacity:0.35;stroke-width:17.28" clip-path="url(#clipPath_eUmKdQkU)"/>
	<path d=" M454.04 729.65 L507.25 666.04 L560.34 630.40 L613.55 604.91 L666.76 585.73 L719.85 570.75 L773.07 559.12 L826.15 549.96 L879.37 542.54 L932.58 536.60 L985.67 531.77 L1038.88 527.81 L1091.97 524.72 L1145.18 522.24 L1198.39 520.39 L1251.48 519.02 L1304.70 518.03 L1357.79 517.29 L1411.00 516.92 L1464.09 516.80 L1517.30 516.67 L1570.51 516.92 L1623.60 517.17 L1676.81 517.66 L1729.90 518.16 L1783.11 518.90 L1836.33 519.64 L1889.41 520.63 L1942.63 521.62 L1995.72 522.61 L2048.93 523.85 L2102.14 524.96 L2155.23 526.33 L2208.44 527.56 L2261.53 528.92 L2314.74 530.29 L2367.83 531.77 L2421.05 533.13 L2474.26 534.62 L2527.35 536.10 L2580.56 537.46 L2633.65 538.95 L2686.86 540.43 L2740.07 541.92 L2793.16 543.28 L2846.37 544.76 L2899.46 546.25 L2952.68 547.61 L3005.89 549.10 L3058.98 550.46 L3112.19 551.94 L3165.28 553.30 L3218.49 554.66 L3271.58 556.03 L3324.79 557.39 L3378.00 558.75" stroke-linejoin="round" style="fill:none;stroke:#A0A0A0;stroke-width:8.64"/>
	<path d=" M454.04 729.65 L507.25 729.65 L560.34 729.65 L613.55 729.65 L666.76 729.65 L719.85 729.65 L773.07 729.65 L826.15 729.65 L879.37 729.65 L932.58 729.65 L985.67 729.65 L1038.88 729.65 L1091.97 729.65 L1145.18 729.65 L1198.39 729.65 L1251.48 729.65 L1304.70 729.65 L1357.79 729.65 L1411.00 729.65 L1464.09 729.65 L1517.30 729.65 L1570.51 729.65 L1623.60 729.65 L1676.81 729.65 L1729.90 729.65 L1783.11 729.65 L1836.33 729.65 L1889.41 729.65 L1942.63 729.65 L1995.72 729.65 L2048.93 729.65 L2102.14 729.65 L2155.23 729.65 L2208.44 729.65 L2261.53 729.65 L2314.74 729.65 L2367.83 729.65 L2421.05 729.65 L2474.26 729.65 L2527.35 729.65 L2580.56 729.65 L2633.65 729.65 L2686.86 729.65 L2740.07 729.65 L2793.16 729.65 L2846.37 729.65 L2899.46 729.65 L2952.68 729.65 L3005.89 729.65 L3058.98 729.65 L3112.19 729.65 L3165.28 729.65 L3218.49 729.65 L3271.58 729.65 L3324.79 729.65 L3378.00 729.65" stroke-linejoin="round" style="fill:none;stroke:#000000;stroke-opacity:0.20;stroke-width:23.04"/>
	<line x1="390.80" y1="2489.19" x2="390.80" y2="100.86" style="stroke:#000000;stroke-width:5.76"/>
	<line x1="390.80" y1="2425.82" x2="350.83" y2="2425.82" style="stroke:#000000;stroke-width:5.76"/>
	<text x="300.72" y="2425.82" style="font-family:'Helvetica';font-size:99.99px;fill:#000000" transform="rotate(-90 300.72,2425.82)" text-anchor="middle">-0.15</text>
	<line x1="390.80" y1="1860.39" x2="350.83" y2="1860.39" style="stroke:#000000;stroke-width:5.76"/>
	<text x="300.72" y="1860.39" style="font-family:'Helvetica';font-size:99.99px;fill:#000000" transform="rotate(-90 300.72,1860.39)" text-anchor="middle">-0.10</text>
	<line x1="390.80" y1="1294.96" x2="350.83" y2="1294.96" style="stroke:#000000;stroke-width:5.76"/>
	<text x="300.72" y="1294.96" style="font-family:'Helvetica';font-size:99.99px;fill:#000000" transform="rotate(-90 300.72,1294.96)" text-anchor="middle">-0.05</text>
	<line x1="390.80" y1="729.53" x2="350.83" y2="729.53" style="stroke:#000000;stroke-width:5.76"/>
	<text x="300.72" y="729.53" style="font-family:'Helvetica';font-size:99.99px;fill:#000000" transform="rotate(-90 300.72,729.53)" text-anchor="middle">0.00</text>
	<line x1="390.80" y1="164.22" x2="350.83" y2="164.22" style="stroke:#000000;stroke-width:5.76"/>
	<text x="300.72" y="164.22" style="font-family:'Helvetica';font-size:99.99px;fill:#000000" transform="rotate(-90 300.72,164.22)" text-anchor="middle">0.05</text>
	<text x="190.71" y="1294.96" style="font-family:'Helvetica';font-size:99.99px;fill:#000000" transform="rotate(-90 190.71,1294.96)" text-anchor="middle">Difference in Survival (years)</text>
	<line x1="390.80" y1="2489.19" x2="3859.02" y2="2489.19" style="stroke:#000000;stroke-width:5.76"/>
	<line x1="454.16" y1="2489.19" x2="454.16" y2="2529.16" style="stroke:#000000;stroke-width:5.76"/>
	<text x="454.16" y="2619.14" style="font-family:'Helvetica';font-size:99.99px;fill:#000000" text-anchor="middle">0</text>
	<line x1="1289.47" y1="2489.19" x2="1289.47" y2="2529.16" style="stroke:#000000;stroke-width:5.76"/>
	<text x="1289.47" y="2619.14" style="font-family:'Helvetica';font-size:99.99px;fill:#000000" text-anchor="middle">2</text>
	<line x1="2124.91" y1="2489.19" x2="2124.91" y2="2529.16" style="stroke:#000000;stroke-width:5.76"/>
	<text x="2124.91" y="2619.14" style="font-family:'Helvetica';font-size:99.99px;fill:#000000" text-anchor="middle">4</text>
	<line x1="2960.35" y1="2489.19" x2="2960.35" y2="2529.16" style="stroke:#000000;stroke-width:5.76"/>
	<text x="2960.35" y="2619.14" style="font-family:'Helvetica';font-size:99.99px;fill:#000000" text-anchor="middle">6</text>
	<line x1="3795.66" y1="2489.19" x2="3795.66" y2="2529.16" style="stroke:#000000;stroke-width:5.76"/>
	<text x="3795.66" y="2619.14" style="font-family:'Helvetica';font-size:99.99px;fill:#000000" text-anchor="middle">8</text>
	<text x="2124.91" y="2729.16" style="font-family:'Helvetica';font-size:99.99px;fill:#000000" text-anchor="middle">Years from baseline treatment outcome</text>
	<rect x="468.52" y="2031.42" width="374.47" height="99.99" style="fill:#4D4D4D;fill-opacity:0.35"/>
	<rect x="472.84" y="2035.74" width="365.83" height="91.35" style="fill:none;stroke:#202020;stroke-opacity:0.35;stroke-width:8.64"/>
	<rect x="468.52" y="2171.51" width="374.47" height="99.99" style="fill:#808080;fill-opacity:0.35"/>
	<rect x="472.84" y="2175.83" width="365.83" height="91.35" style="fill:none;stroke:#606060;stroke-opacity:0.35;stroke-width:8.64"/>
	<rect x="468.52" y="2311.47" width="374.47" height="99.99" style="fill:#B3B3B3;fill-opacity:0.35"/>
	<rect x="472.84" y="2315.79" width="365.83" height="91.35" style="fill:none;stroke:#A0A0A0;stroke-opacity:0.35;stroke-width:8.64"/>
	<text x="902.88" y="2116.44" style="font-family:'Helvetica';font-size:99.99px;fill:#000000">Early vs. Tr. completion</text>
	<text x="902.88" y="2256.53" style="font-family:'Helvetica';font-size:99.99px;fill:#000000">Late vs. Tr. completion</text>
	<text x="902.88" y="2396.50" style="font-family:'Helvetica';font-size:99.99px;fill:#000000">Late vs. Early dropout</text>
</svg>
