<?xml version="1.0" encoding="UTF-8" standalone="no"?>
<!-- This is a Stata 16.1 generated SVG file (http://www.stata.com) -->

<svg version="1.1" width="5.50in" height="4.00in" viewBox="0 0 3960 2880" xmlns="http://www.w3.org/2000/svg" xmlns:xlink="http://www.w3.org/1999/xlink">
	<desc>Stata Graph - surv_diffs</desc>
	<rect x="0" y="0" width="3960" height="2880" style="fill:#FFFFFF;stroke:none"/>
	<rect x="0.00" y="0.00" width="3959.88" height="2880.00" style="fill:#FFFFFF"/>
	<rect x="2.88" y="2.88" width="3954.12" height="2874.24" style="fill:none;stroke:#FFFFFF;stroke-width:5.76"/>
	<rect x="390.80" y="636.34" width="3468.22" height="1852.84" style="fill:#FFFFFF"/>
	<rect x="393.68" y="639.22" width="3462.46" height="1847.08" style="fill:none;stroke:#FFFFFF;stroke-width:5.76"/>
	<line x1="390.80" y1="2425.82" x2="3859.02" y2="2425.82" style="stroke:#EAF2F3;stroke-width:8.64"/>
	<line x1="390.80" y1="2080.67" x2="3859.02" y2="2080.67" style="stroke:#EAF2F3;stroke-width:8.64"/>
	<line x1="390.80" y1="1735.40" x2="3859.02" y2="1735.40" style="stroke:#EAF2F3;stroke-width:8.64"/>
	<line x1="390.80" y1="1390.13" x2="3859.02" y2="1390.13" style="stroke:#EAF2F3;stroke-width:8.64"/>
	<line x1="390.80" y1="1044.85" x2="3859.02" y2="1044.85" style="stroke:#EAF2F3;stroke-width:8.64"/>
	<line x1="390.80" y1="699.70" x2="3859.02" y2="699.70" style="stroke:#EAF2F3;stroke-width:8.64"/>
	<defs>
		<path id="path_mczpTUAk" d="M454.16 1735.40 L454.16 1735.40 L507.25 1689.86 L560.46 1655.33 L666.76 1599.39 L719.98 1575.63 L773.07 1553.61 L826.28 1533.19 L879.49 1514.00 L1092.09 1450.02 L1145.18 1437.03 L1198.39 1425.03 L1251.61 1413.89 L1304.70 1403.37 L1357.91 1393.22 L1411.00 1383.69 L1464.21 1374.29 L1517.42 1365.25 L1570.51 1356.47 L1623.72 1347.80 L1676.81 1339.39 L1730.03 1331.34 L1836.33 1316.12 L1889.54 1309.07 L1942.63 1302.26 L1995.84 1295.95 L2048.93 1290.01 L2102.14 1284.44 L2261.66 1270.09 L2367.96 1262.17 L2421.17 1258.58 L2474.26 1255.36 L2527.47 1252.27 L2580.56 1249.42 L2633.77 1246.70 L2686.98 1244.22 L2740.07 1241.99 L2793.28 1239.77 L2846.37 1237.79 L2899.59 1235.93 L2952.68 1234.20 L3059.10 1231.23 L3112.19 1229.74 L3165.40 1228.50 L3218.49 1227.27 L3271.70 1226.28 L3324.91 1225.16 L3378.00 1224.30 L3378.00 823.09 L3324.91 826.80 L3271.70 830.64 L3218.49 834.72 L3165.40 838.80 L3112.19 843.01 L3059.10 847.34 L2952.68 856.50 L2899.59 861.33 L2846.37 866.40 L2793.28 871.60 L2740.07 876.92 L2686.98 882.61 L2633.77 888.43 L2580.56 894.62 L2527.47 900.93 L2474.26 907.73 L2421.17 914.66 L2367.96 922.09 L2261.66 938.05 L2102.14 965.40 L2048.93 975.68 L1995.84 986.32 L1942.63 997.70 L1889.54 1009.46 L1836.33 1021.84 L1730.03 1047.82 L1676.81 1061.44 L1623.72 1075.42 L1570.51 1089.78 L1517.42 1104.13 L1464.21 1118.86 L1411.00 1133.71 L1357.91 1149.05 L1304.70 1164.90 L1251.61 1181.35 L1198.39 1198.80 L1145.18 1217.37 L1092.09 1237.41 L879.49 1336.91 L826.28 1366.99 L773.07 1399.41 L719.98 1434.68 L666.76 1473.41 L560.46 1568.21 L507.25 1632.19 L454.16 1735.40 L454.16 1735.40 Z" stroke-linejoin="round"/>
	</defs>
	<defs>
		<clipPath id="clipPath_SoPpfShI">
			<use xlink:href="#path_mczpTUAk"/>
		</clipPath>
	</defs>
	<use xlink:href="#path_mczpTUAk" style="stroke:none;fill:#8D8D8D;fill-opacity:0.35"/>
	<use xlink:href="#path_mczpTUAk" style="fill:none;stroke:#707070;stroke-opacity:0.35;stroke-width:17.28" clip-path="url(#clipPath_SoPpfShI)"/>
	<path d=" M454.04 1735.40 L507.25 1661.15 L560.34 1611.77 L666.76 1536.40 L719.85 1505.22 L773.07 1476.63 L826.15 1450.15 L879.37 1425.52 L1091.97 1343.84 L1145.18 1327.26 L1198.39 1312.04 L1251.48 1297.68 L1304.70 1284.19 L1357.79 1271.20 L1411.00 1258.70 L1464.09 1246.70 L1517.30 1234.82 L1570.51 1223.18 L1623.60 1211.67 L1676.81 1200.54 L1729.90 1189.65 L1836.33 1168.98 L1889.41 1159.33 L1942.63 1150.04 L1995.72 1141.26 L2048.93 1132.84 L2102.14 1125.05 L2261.53 1104.13 L2367.83 1092.13 L2421.05 1086.68 L2474.26 1081.61 L2527.35 1076.66 L2580.56 1072.08 L2633.65 1067.62 L2686.86 1063.54 L2740.07 1059.58 L2793.16 1055.74 L2846.37 1052.16 L2899.46 1048.69 L2952.68 1045.47 L3058.98 1039.28 L3112.19 1036.44 L3165.28 1033.72 L3218.49 1031.12 L3271.58 1028.52 L3324.79 1026.04 L3378.00 1023.69" stroke-linejoin="round" style="fill:none;stroke:#707070;stroke-width:23.04"/>
	<defs>
		<path id="path_zEjCPkTF" d="M454.16 1735.40 L454.16 1735.40 L560.46 1759.90 L613.68 1763.25 L719.98 1765.97 L932.58 1765.10 L985.79 1764.24 L1038.88 1763.37 L1092.09 1762.26 L1304.70 1758.05 L1357.91 1757.06 L1730.03 1750.87 L1783.24 1750.13 L1942.63 1748.15 L1995.84 1747.53 L2048.93 1747.03 L2102.14 1746.54 L2155.35 1746.17 L2208.44 1745.80 L2261.66 1745.55 L2314.74 1745.30 L2474.26 1744.81 L2527.47 1744.68 L2740.07 1744.81 L3005.89 1745.67 L3005.89 1453.86 L2740.07 1465.86 L2527.47 1476.63 L2474.26 1479.48 L2314.74 1488.76 L2261.66 1492.10 L2208.44 1495.57 L2155.35 1499.15 L2102.14 1502.87 L2048.93 1506.83 L1995.84 1510.79 L1942.63 1514.99 L1783.24 1528.36 L1730.03 1533.06 L1357.91 1566.85 L1304.70 1571.80 L1092.09 1594.07 L1038.88 1600.51 L985.79 1607.56 L932.58 1614.99 L719.98 1650.51 L613.68 1673.40 L560.46 1687.63 L454.16 1735.40 L454.16 1735.40 Z" stroke-linejoin="round"/>
	</defs>
	<defs>
		<clipPath id="clipPath_ENKFTsbO">
			<use xlink:href="#path_zEjCPkTF"/>
		</clipPath>
	</defs>
	<use xlink:href="#path_zEjCPkTF" style="stroke:none;fill:#4D4D4D;fill-opacity:0.35"/>
	<use xlink:href="#path_zEjCPkTF" style="fill:none;stroke:#202020;stroke-opacity:0.35;stroke-width:17.28" clip-path="url(#clipPath_ENKFTsbO)"/>
	<path d=" M454.04 1735.40 L560.34 1723.89 L613.55 1718.45 L719.85 1708.30 L932.58 1690.11 L985.67 1685.90 L1038.88 1681.94 L1091.97 1678.23 L1304.70 1664.98 L1357.79 1662.01 L1729.90 1641.97 L1783.11 1639.37 L1942.63 1631.69 L1995.72 1629.22 L2048.93 1626.99 L2102.14 1624.76 L2155.23 1622.66 L2208.44 1620.80 L2261.53 1618.82 L2314.74 1617.09 L2474.26 1612.14 L2527.35 1610.66 L2740.07 1605.34 L3005.89 1599.77" stroke-linejoin="round" style="fill:none;stroke:#202020;stroke-width:23.04"/>
	<defs>
		<path id="path_zqkjmrXr" d="M454.16 1735.40 L454.16 1735.40 L560.46 1871.78 L613.68 1911.38 L719.98 1973.87 L932.58 2066.44 L985.79 2085.13 L1038.88 2102.21 L1092.09 2117.92 L1304.70 2169.53 L1357.91 2180.67 L1730.03 2252.20 L1783.24 2261.48 L1942.63 2287.59 L1995.84 2295.63 L2048.93 2303.18 L2102.14 2310.48 L2155.35 2317.29 L2208.44 2323.85 L2261.66 2329.91 L2314.74 2335.73 L2474.26 2351.57 L2527.47 2356.40 L2740.07 2373.85 L3005.89 2392.16 L3005.89 1995.28 L2740.07 1993.30 L2527.47 1990.09 L2474.26 1988.97 L2314.74 1984.89 L2261.66 1983.16 L2208.44 1981.30 L2155.35 1979.32 L2102.14 1976.97 L2048.93 1974.49 L1995.84 1971.77 L1942.63 1968.80 L1783.24 1958.65 L1730.03 1954.82 L1357.91 1922.64 L1304.70 1917.32 L1092.09 1891.58 L1038.88 1883.66 L985.79 1874.99 L932.58 1865.71 L719.98 1820.67 L613.68 1792.33 L560.46 1775.87 L454.16 1735.40 L454.16 1735.40 Z" stroke-linejoin="round"/>
	</defs>
	<defs>
		<clipPath id="clipPath_oUdPONqn">
			<use xlink:href="#path_zqkjmrXr"/>
		</clipPath>
	</defs>
	<use xlink:href="#path_zqkjmrXr" style="stroke:none;fill:#B3B3B3;fill-opacity:0.25"/>
	<use xlink:href="#path_zqkjmrXr" style="fill:none;stroke:#A0A0A0;stroke-opacity:0.25;stroke-width:17.28" clip-path="url(#clipPath_oUdPONqn)"/>
	<path d=" M454.04 1735.40 L560.34 1823.88 L613.55 1851.85 L719.85 1897.27 L932.58 1966.08 L985.67 1980.19 L1038.88 1993.06 L1091.97 2004.81 L1304.70 2043.42 L1357.79 2051.72 L1729.90 2103.57 L1783.11 2110.13 L1942.63 2128.32 L1995.72 2133.76 L2048.93 2138.96 L2102.14 2143.79 L2155.23 2148.37 L2208.44 2152.57 L2261.53 2156.66 L2314.74 2160.37 L2474.26 2170.40 L2527.35 2173.24 L2740.07 2183.64 L3005.89 2193.78" stroke-linejoin="round" style="fill:none;stroke:#A0A0A0;stroke-width:23.04"/>
	<path d=" M454.04 1735.40 L507.25 1735.40 L560.34 1735.40 L613.55 1735.40 L666.76 1735.40 L719.85 1735.40 L773.07 1735.40 L826.15 1735.40 L879.37 1735.40 L932.58 1735.40 L985.67 1735.40 L1038.88 1735.40 L1091.97 1735.40 L1145.18 1735.40 L1198.39 1735.40 L1251.48 1735.40 L1304.70 1735.40 L1357.79 1735.40 L1411.00 1735.40 L1464.09 1735.40 L1517.30 1735.40 L1570.51 1735.40 L1623.60 1735.40 L1676.81 1735.40 L1729.90 1735.40 L1783.11 1735.40 L1836.33 1735.40 L1889.41 1735.40 L1942.63 1735.40 L1995.72 1735.40 L2048.93 1735.40 L2102.14 1735.40 L2155.23 1735.40 L2208.44 1735.40 L2261.53 1735.40 L2314.74 1735.40 L2367.83 1735.40 L2421.05 1735.40 L2474.26 1735.40 L2527.35 1735.40 L2580.56 1735.40 L2633.65 1735.40 L2686.86 1735.40 L2740.07 1735.40 L2793.16 1735.40 L2846.37 1735.40 L2899.46 1735.40 L2952.68 1735.40 L3005.89 1735.40 L3058.98 1735.40 L3112.19 1735.40 L3165.28 1735.40 L3218.49 1735.40 L3271.58 1735.40 L3324.79 1735.40 L3378.00 1735.40" stroke-linejoin="round" style="fill:none;stroke:#000000;stroke-opacity:0.20;stroke-width:23.04"/>
	<line x1="390.80" y1="2489.19" x2="390.80" y2="636.34" style="stroke:#000000;stroke-width:5.76"/>
	<line x1="390.80" y1="2425.82" x2="350.83" y2="2425.82" style="stroke:#000000;stroke-width:5.76"/>
	<text x="300.72" y="2425.82" style="font-family:'Helvetica';font-size:99.99px;fill:#000000" transform="rotate(-90 300.72,2425.82)" text-anchor="middle">-.02</text>
	<line x1="390.80" y1="2080.67" x2="350.83" y2="2080.67" style="stroke:#000000;stroke-width:5.76"/>
	<text x="300.72" y="2080.67" style="font-family:'Helvetica';font-size:99.99px;fill:#000000" transform="rotate(-90 300.72,2080.67)" text-anchor="middle">-.01</text>
	<line x1="390.80" y1="1735.40" x2="350.83" y2="1735.40" style="stroke:#000000;stroke-width:5.76"/>
	<text x="300.72" y="1735.40" style="font-family:'Helvetica';font-size:99.99px;fill:#000000" transform="rotate(-90 300.72,1735.40)" text-anchor="middle">0</text>
	<line x1="390.80" y1="1390.13" x2="350.83" y2="1390.13" style="stroke:#000000;stroke-width:5.76"/>
	<text x="300.72" y="1390.13" style="font-family:'Helvetica';font-size:99.99px;fill:#000000" transform="rotate(-90 300.72,1390.13)" text-anchor="middle">.01</text>
	<line x1="390.80" y1="1044.85" x2="350.83" y2="1044.85" style="stroke:#000000;stroke-width:5.76"/>
	<text x="300.72" y="1044.85" style="font-family:'Helvetica';font-size:99.99px;fill:#000000" transform="rotate(-90 300.72,1044.85)" text-anchor="middle">.02</text>
	<line x1="390.80" y1="699.70" x2="350.83" y2="699.70" style="stroke:#000000;stroke-width:5.76"/>
	<text x="300.72" y="699.70" style="font-family:'Helvetica';font-size:99.99px;fill:#000000" transform="rotate(-90 300.72,699.70)" text-anchor="middle">.03</text>
	<text x="190.71" y="1562.76" style="font-family:'Helvetica';font-size:99.99px;fill:#000000" transform="rotate(-90 190.71,1562.76)" text-anchor="middle">Differences  of avoiding sentence (standardized)</text>
	<line x1="390.80" y1="2489.19" x2="3859.02" y2="2489.19" style="stroke:#000000;stroke-width:5.76"/>
	<line x1="454.16" y1="2489.19" x2="454.16" y2="2529.16" style="stroke:#000000;stroke-width:5.76"/>
	<text x="454.16" y="2619.14" style="font-family:'Helvetica';font-size:99.99px;fill:#000000" text-anchor="middle">0</text>
	<line x1="1289.47" y1="2489.19" x2="1289.47" y2="2529.16" style="stroke:#000000;stroke-width:5.76"/>
	<text x="1289.47" y="2619.14" style="font-family:'Helvetica';font-size:99.99px;fill:#000000" text-anchor="middle">2</text>
	<line x1="2124.91" y1="2489.19" x2="2124.91" y2="2529.16" style="stroke:#000000;stroke-width:5.76"/>
	<text x="2124.91" y="2619.14" style="font-family:'Helvetica';font-size:99.99px;fill:#000000" text-anchor="middle">4</text>
	<line x1="2960.35" y1="2489.19" x2="2960.35" y2="2529.16" style="stroke:#000000;stroke-width:5.76"/>
	<text x="2960.35" y="2619.14" style="font-family:'Helvetica';font-size:99.99px;fill:#000000" text-anchor="middle">6</text>
	<line x1="3795.66" y1="2489.19" x2="3795.66" y2="2529.16" style="stroke:#000000;stroke-width:5.76"/>
	<text x="3795.66" y="2619.14" style="font-family:'Helvetica';font-size:99.99px;fill:#000000" text-anchor="middle">8</text>
	<text x="2124.91" y="2729.16" style="font-family:'Helvetica';font-size:99.99px;fill:#000000" text-anchor="middle">Years from treatment outcome</text>
	<line x1="1946.96" y1="228.57" x2="2321.43" y2="228.57" style="stroke:#707070;stroke-width:23.04"/>
	<line x1="1946.96" y1="368.54" x2="2321.43" y2="368.54" style="stroke:#202020;stroke-width:23.04"/>
	<line x1="1946.96" y1="508.50" x2="2321.43" y2="508.50" style="stroke:#A0A0A0;stroke-width:23.04"/>
	<text x="2381.32" y="263.60" style="font-family:'Helvetica';font-size:99.99px;fill:#000000">Early vs. tr. completion</text>
	<text x="2381.32" y="403.57" style="font-family:'Helvetica';font-size:99.99px;fill:#000000">Late dropout vs. tr. completion</text>
	<text x="2381.32" y="543.53" style="font-family:'Helvetica';font-size:99.99px;fill:#000000">Late vs. early dropout</text>
</svg>
