<?xml version="1.0" encoding="UTF-8" standalone="no"?>
<!-- This is a Stata 16.1 generated SVG file (http://www.stata.com) -->

<svg version="1.1" width="5.50in" height="4.00in" viewBox="0 0 3960 2880" xmlns="http://www.w3.org/2000/svg" xmlns:xlink="http://www.w3.org/1999/xlink">
	<desc>Stata Graph - RMSTdiff_fin_abc</desc>
	<rect x="0" y="0" width="3960" height="2880" style="fill:#FFFFFF;stroke:none"/>
	<rect x="0.00" y="0.00" width="3959.88" height="2880.00" style="fill:#FFFFFF"/>
	<rect x="2.88" y="2.88" width="3954.12" height="2874.24" style="fill:none;stroke:#FFFFFF;stroke-width:5.76"/>
	<rect x="390.80" y="100.86" width="3468.22" height="2388.33" style="fill:#FFFFFF"/>
	<rect x="393.68" y="103.74" width="3462.46" height="2382.57" style="fill:none;stroke:#FFFFFF;stroke-width:5.76"/>
	<line x1="390.80" y1="2206.66" x2="3859.02" y2="2206.66" style="stroke:#EAF2F3;stroke-width:8.64"/>
	<line x1="390.80" y1="1703.84" x2="3859.02" y2="1703.84" style="stroke:#EAF2F3;stroke-width:8.64"/>
	<line x1="390.80" y1="1201.16" x2="3859.02" y2="1201.16" style="stroke:#EAF2F3;stroke-width:8.64"/>
	<line x1="390.80" y1="698.34" x2="3859.02" y2="698.34" style="stroke:#EAF2F3;stroke-width:8.64"/>
	<line x1="390.80" y1="195.53" x2="3859.02" y2="195.53" style="stroke:#EAF2F3;stroke-width:8.64"/>
	<defs>
		<path id="path_XFPzNpdr" d="M562.44 203.45 L562.44 203.45 L670.73 221.89 L887.29 282.65 L995.57 323.12 L1103.85 368.91 L1212.13 418.78 L1320.54 471.50 L1753.66 699.09 L1861.94 759.85 L1970.22 822.59 L2078.51 887.32 L2186.79 954.14 L2295.07 1023.07 L2403.35 1094.11 L2511.63 1167.12 L2620.03 1242.24 L2728.32 1319.34 L2836.60 1398.54 L2944.88 1479.60 L3053.16 1562.76 L3269.72 1735.03 L3378.00 1824.13 L3378.00 1112.67 L3269.72 1063.17 L3053.16 968.62 L2944.88 923.45 L2836.60 879.77 L2728.32 837.44 L2620.03 796.48 L2511.63 756.75 L2403.35 718.02 L2295.07 680.40 L2186.79 643.40 L2078.51 607.01 L1970.22 571.00 L1861.94 535.24 L1753.66 499.59 L1320.54 357.90 L1212.13 324.36 L1103.85 292.68 L995.57 263.72 L887.29 238.72 L670.73 205.06 L562.44 197.51 L562.44 203.45 Z" stroke-linejoin="round"/>
	</defs>
	<defs>
		<clipPath id="clipPath_HZyHfdxZ">
			<use xlink:href="#path_XFPzNpdr"/>
		</clipPath>
	</defs>
	<use xlink:href="#path_XFPzNpdr" style="stroke:none;fill:#4D4D4D;fill-opacity:0.35"/>
	<use xlink:href="#path_XFPzNpdr" style="fill:none;stroke:#202020;stroke-opacity:0.35;stroke-width:17.28" clip-path="url(#clipPath_HZyHfdxZ)"/>
	<path d=" M454.04 195.65 L562.32 200.48 L670.60 213.48 L887.29 260.75 L995.57 293.42 L1103.85 330.79 L1212.13 371.63 L1320.41 414.82 L1753.54 599.34 L1861.82 647.60 L1970.22 696.86 L2078.51 747.23 L2186.79 798.83 L2295.07 851.80 L2403.35 906.13 L2511.63 962.06 L2619.91 1019.48 L2728.19 1078.51 L2836.47 1139.15 L2944.76 1201.65 L3053.04 1265.75 L3269.72 1399.16 L3378.00 1468.46" stroke-linejoin="round" style="fill:none;stroke:#202020;stroke-width:8.64"/>
	<defs>
		<path id="path_mDkBvHCN" d="M670.73 247.51 L670.73 247.51 L779.01 294.91 L995.57 411.11 L1428.82 706.51 L1537.10 786.58 L1645.38 869.49 L1753.66 955.63 L2186.79 1332.33 L2295.07 1435.79 L2728.32 1893.56 L3053.16 2285.61 L3161.44 2425.82 L3161.44 623.60 L3053.16 574.71 L2728.32 453.19 L2295.07 343.66 L2186.79 323.86 L1753.66 263.47 L1645.38 250.35 L1537.10 236.49 L1428.82 221.52 L995.57 167.56 L779.01 164.22 L670.73 165.83 L670.73 247.51 Z" stroke-linejoin="round"/>
	</defs>
	<defs>
		<clipPath id="clipPath_LQtWBilu">
			<use xlink:href="#path_mDkBvHCN"/>
		</clipPath>
	</defs>
	<use xlink:href="#path_mDkBvHCN" style="stroke:none;fill:#808080;fill-opacity:0.35"/>
	<use xlink:href="#path_mDkBvHCN" style="fill:none;stroke:#606060;stroke-opacity:0.35;stroke-width:17.28" clip-path="url(#clipPath_LQtWBilu)"/>
	<path d=" M454.04 195.65 L670.60 206.79 L779.01 229.56 L995.57 289.46 L1428.69 464.08 L1536.97 511.60 L1645.26 559.99 L1753.54 609.61 L2186.79 828.16 L2295.07 889.79 L2728.19 1173.43 L3053.04 1430.22 L3161.32 1524.77" stroke-linejoin="round" style="fill:none;stroke:#606060;stroke-width:8.64"/>
	<defs>
		<path id="path_UJBwjbMD" d="M562.44 202.83 L562.44 202.83 L779.01 240.83 L887.29 266.94 L1103.85 328.69 L1212.13 363.47 L1320.54 400.22 L1428.82 438.95 L1537.10 479.55 L1645.38 521.75 L1861.94 610.60 L1970.22 657.13 L2078.51 705.15 L2403.35 856.62 L2511.63 909.59 L2620.03 963.80 L2728.32 1019.24 L2836.60 1075.67 L2944.88 1133.34 L3161.44 1252.14 L3269.72 1313.15 L3378.00 1375.28 L3378.00 520.63 L3269.72 507.02 L3161.44 493.16 L2944.88 464.57 L2836.60 449.97 L2728.32 435.24 L2620.03 420.39 L2511.63 405.42 L2403.35 390.32 L2078.51 345.40 L1970.22 330.67 L1861.94 316.07 L1645.38 288.10 L1537.10 274.73 L1428.82 261.99 L1320.54 249.86 L1212.13 238.60 L1103.85 228.20 L887.29 210.88 L779.01 204.19 L562.44 196.40 L562.44 202.83 Z" stroke-linejoin="round"/>
	</defs>
	<defs>
		<clipPath id="clipPath_clurkNJE">
			<use xlink:href="#path_UJBwjbMD"/>
		</clipPath>
	</defs>
	<use xlink:href="#path_UJBwjbMD" style="stroke:none;fill:#B3B3B3;fill-opacity:0.35"/>
	<use xlink:href="#path_UJBwjbMD" style="fill:none;stroke:#A0A0A0;stroke-opacity:0.35;stroke-width:17.28" clip-path="url(#clipPath_clurkNJE)"/>
	<path d=" M562.32 199.74 L779.01 222.63 L887.29 238.97 L1103.85 278.45 L1212.13 301.09 L1320.41 325.10 L1428.69 350.59 L1536.97 377.20 L1645.26 404.92 L1861.82 463.46 L1970.22 493.90 L2078.51 525.34 L2403.35 623.60 L2511.63 657.50 L2619.91 692.16 L2728.19 727.30 L2836.47 762.94 L2944.76 799.08 L3161.32 872.71 L3269.72 910.09 L3378.00 947.95" stroke-linejoin="round" style="fill:none;stroke:#A0A0A0;stroke-width:8.64"/>
	<path d=" M454.04 195.65 L562.32 195.65 L670.60 195.65 L779.01 195.65 L887.29 195.65 L995.57 195.65 L1103.85 195.65 L1212.13 195.65 L1320.41 195.65 L1428.69 195.65 L1536.97 195.65 L1645.26 195.65 L1753.54 195.65 L1861.82 195.65 L1970.22 195.65 L2078.51 195.65 L2186.79 195.65 L2295.07 195.65 L2403.35 195.65 L2511.63 195.65 L2619.91 195.65 L2728.19 195.65 L2836.47 195.65 L2944.76 195.65 L3053.04 195.65 L3161.32 195.65 L3269.72 195.65 L3378.00 195.65" stroke-linejoin="round" style="fill:none;stroke:#000000;stroke-opacity:0.20;stroke-width:23.04"/>
	<line x1="390.80" y1="2489.19" x2="390.80" y2="100.86" style="stroke:#000000;stroke-width:5.76"/>
	<line x1="390.80" y1="2206.66" x2="350.83" y2="2206.66" style="stroke:#000000;stroke-width:5.76"/>
	<text x="300.72" y="2206.66" style="font-family:'Helvetica';font-size:99.99px;fill:#000000" transform="rotate(-90 300.72,2206.66)" text-anchor="middle">-0.20</text>
	<line x1="390.80" y1="1703.84" x2="350.83" y2="1703.84" style="stroke:#000000;stroke-width:5.76"/>
	<text x="300.72" y="1703.84" style="font-family:'Helvetica';font-size:99.99px;fill:#000000" transform="rotate(-90 300.72,1703.84)" text-anchor="middle">-0.15</text>
	<line x1="390.80" y1="1201.16" x2="350.83" y2="1201.16" style="stroke:#000000;stroke-width:5.76"/>
	<text x="300.72" y="1201.16" style="font-family:'Helvetica';font-size:99.99px;fill:#000000" transform="rotate(-90 300.72,1201.16)" text-anchor="middle">-0.10</text>
	<line x1="390.80" y1="698.34" x2="350.83" y2="698.34" style="stroke:#000000;stroke-width:5.76"/>
	<text x="300.72" y="698.34" style="font-family:'Helvetica';font-size:99.99px;fill:#000000" transform="rotate(-90 300.72,698.34)" text-anchor="middle">-0.05</text>
	<line x1="390.80" y1="195.53" x2="350.83" y2="195.53" style="stroke:#000000;stroke-width:5.76"/>
	<text x="300.72" y="195.53" style="font-family:'Helvetica';font-size:99.99px;fill:#000000" transform="rotate(-90 300.72,195.53)" text-anchor="middle">0.00</text>
	<text x="190.71" y="1294.96" style="font-family:'Helvetica';font-size:99.99px;fill:#000000" transform="rotate(-90 190.71,1294.96)" text-anchor="middle">Difference in RMST (years)</text>
	<line x1="390.80" y1="2489.19" x2="3859.02" y2="2489.19" style="stroke:#000000;stroke-width:5.76"/>
	<line x1="454.16" y1="2489.19" x2="454.16" y2="2529.16" style="stroke:#000000;stroke-width:5.76"/>
	<text x="454.16" y="2619.14" style="font-family:'Helvetica';font-size:99.99px;fill:#000000" text-anchor="middle">0</text>
	<line x1="1289.47" y1="2489.19" x2="1289.47" y2="2529.16" style="stroke:#000000;stroke-width:5.76"/>
	<text x="1289.47" y="2619.14" style="font-family:'Helvetica';font-size:99.99px;fill:#000000" text-anchor="middle">2</text>
	<line x1="2124.91" y1="2489.19" x2="2124.91" y2="2529.16" style="stroke:#000000;stroke-width:5.76"/>
	<text x="2124.91" y="2619.14" style="font-family:'Helvetica';font-size:99.99px;fill:#000000" text-anchor="middle">4</text>
	<line x1="2960.35" y1="2489.19" x2="2960.35" y2="2529.16" style="stroke:#000000;stroke-width:5.76"/>
	<text x="2960.35" y="2619.14" style="font-family:'Helvetica';font-size:99.99px;fill:#000000" text-anchor="middle">6</text>
	<line x1="3795.66" y1="2489.19" x2="3795.66" y2="2529.16" style="stroke:#000000;stroke-width:5.76"/>
	<text x="3795.66" y="2619.14" style="font-family:'Helvetica';font-size:99.99px;fill:#000000" text-anchor="middle">8</text>
	<text x="2124.91" y="2729.16" style="font-family:'Helvetica';font-size:99.99px;fill:#000000" text-anchor="middle">Years from baseline treatment outcome</text>
	<rect x="468.52" y="2031.42" width="374.47" height="99.99" style="fill:#4D4D4D;fill-opacity:0.35"/>
	<rect x="472.84" y="2035.74" width="365.83" height="91.35" style="fill:none;stroke:#202020;stroke-opacity:0.35;stroke-width:8.64"/>
	<rect x="468.52" y="2171.51" width="374.47" height="99.99" style="fill:#808080;fill-opacity:0.35"/>
	<rect x="472.84" y="2175.83" width="365.83" height="91.35" style="fill:none;stroke:#606060;stroke-opacity:0.35;stroke-width:8.64"/>
	<rect x="468.52" y="2311.47" width="374.47" height="99.99" style="fill:#B3B3B3;fill-opacity:0.35"/>
	<rect x="472.84" y="2315.79" width="365.83" height="91.35" style="fill:none;stroke:#A0A0A0;stroke-opacity:0.35;stroke-width:8.64"/>
	<text x="902.88" y="2116.44" style="font-family:'Helvetica';font-size:99.99px;fill:#000000">Late dropout vs. Tr. completion</text>
	<text x="902.88" y="2256.53" style="font-family:'Helvetica';font-size:99.99px;fill:#000000">Early dropout vs. Tr. completion</text>
	<text x="902.88" y="2396.50" style="font-family:'Helvetica';font-size:99.99px;fill:#000000">Early vs. late dropout</text>
</svg>
