<?xml version="1.0" encoding="UTF-8" standalone="no"?>
<!-- This is a Stata 16.1 generated SVG file (http://www.stata.com) -->

<svg version="1.1" width="5.50in" height="4.00in" viewBox="0 0 3960 2880" xmlns="http://www.w3.org/2000/svg" xmlns:xlink="http://www.w3.org/1999/xlink">
	<desc>Stata Graph - rmst_std_fin_a</desc>
	<rect x="0" y="0" width="3960" height="2880" style="fill:#FFFFFF;stroke:none"/>
	<rect x="0.00" y="0.00" width="3959.88" height="2880.00" style="fill:#FFFFFF"/>
	<rect x="2.88" y="2.88" width="3954.12" height="2874.24" style="fill:none;stroke:#FFFFFF;stroke-width:5.76"/>
	<rect x="390.80" y="100.86" width="3468.22" height="2388.33" style="fill:#FFFFFF"/>
	<rect x="393.68" y="103.74" width="3462.46" height="2382.57" style="fill:none;stroke:#000000;stroke-width:5.76"/>
	<defs>
		<path id="path_FAPmcgWK" d="M562.44 2329.79 L562.44 2329.79 L670.73 2236.48 L887.29 2057.16 L995.57 1970.53 L1103.85 1885.64 L1212.13 1802.48 L1320.54 1720.92 L1753.66 1407.58 L1861.94 1332.21 L1970.22 1257.83 L2078.51 1184.45 L2186.79 1111.93 L2295.07 1040.40 L2403.35 969.61 L2511.63 899.69 L2620.03 830.51 L2728.32 762.20 L2836.60 694.51 L2944.88 627.68 L3053.16 561.35 L3269.72 430.91 L3378.00 366.68 L3378.00 324.98 L3269.72 391.56 L3053.16 526.33 L2944.88 594.64 L2836.60 663.57 L2728.32 733.12 L2620.03 803.41 L2511.63 874.44 L2403.35 946.22 L2295.07 1018.74 L2186.79 1092.00 L2078.51 1166.13 L1970.22 1241.25 L1861.94 1317.11 L1753.66 1394.09 L1320.54 1713.12 L1212.13 1796.04 L1103.85 1880.44 L995.57 1966.45 L887.29 2054.19 L670.73 2235.49 L562.44 2329.42 L562.44 2329.79 Z" stroke-linejoin="round"/>
	</defs>
	<defs>
		<clipPath id="clipPath_KsEBcKfX">
			<use xlink:href="#path_FAPmcgWK"/>
		</clipPath>
	</defs>
	<use xlink:href="#path_FAPmcgWK" style="stroke:none;fill:#8D8D8D;fill-opacity:0.35"/>
	<use xlink:href="#path_FAPmcgWK" style="fill:none;stroke:#707070;stroke-opacity:0.35;stroke-width:17.28" clip-path="url(#clipPath_KsEBcKfX)"/>
	<defs>
		<path id="path_NfNInLsL" d="M562.44 2330.78 L562.44 2330.78 L670.73 2239.94 L887.29 2068.05 L995.57 1986.13 L1103.85 1906.43 L1212.13 1828.83 L1320.54 1753.10 L1753.66 1465.74 L1861.94 1397.30 L1970.22 1329.86 L2078.51 1263.53 L2186.79 1198.31 L2295.07 1133.96 L2403.35 1070.47 L2511.63 1007.98 L2620.03 946.22 L2728.32 885.21 L2836.60 824.94 L2944.88 765.54 L3053.16 706.76 L3269.72 591.17 L3378.00 534.37 L3378.00 509.99 L3269.72 568.03 L3053.16 685.84 L2944.88 745.74 L2836.60 806.38 L2728.32 867.64 L2620.03 929.64 L2511.63 992.51 L2403.35 1056.12 L2295.07 1120.59 L2186.79 1185.93 L2078.51 1252.14 L1970.22 1319.46 L1861.94 1387.78 L1753.66 1457.20 L1320.54 1748.02 L1212.13 1824.63 L1103.85 1902.96 L995.57 1983.40 L887.29 2066.07 L670.73 2239.20 L562.44 2330.53 L562.44 2330.78 Z" stroke-linejoin="round"/>
	</defs>
	<defs>
		<clipPath id="clipPath_yWHoTWQD">
			<use xlink:href="#path_NfNInLsL"/>
		</clipPath>
	</defs>
	<use xlink:href="#path_NfNInLsL" style="stroke:none;fill:#4D4D4D;fill-opacity:0.35"/>
	<use xlink:href="#path_NfNInLsL" style="fill:none;stroke:#202020;stroke-opacity:0.35;stroke-width:17.28" clip-path="url(#clipPath_yWHoTWQD)"/>
	<path d=" M454.04 2425.95 L562.32 2329.67 L670.60 2236.11 L887.29 2055.80 L995.57 1968.55 L1103.85 1883.16 L1212.13 1799.38 L1320.41 1717.08 L1753.54 1401.02 L1861.82 1324.79 L1970.22 1249.67 L2078.51 1175.41 L2186.79 1102.03 L2295.07 1029.63 L2403.35 957.98 L2511.63 887.19 L2619.91 817.15 L2728.19 747.84 L2836.47 679.16 L2944.76 611.22 L3053.04 544.02 L3269.72 411.36 L3378.00 346.02" stroke-linejoin="round" style="fill:none;stroke:#707070;stroke-width:23.04"/>
	<path d=" M454.04 2425.95 L562.32 2330.66 L670.60 2239.70 L887.29 2067.18 L995.57 1984.76 L1103.85 1904.82 L1212.13 1826.73 L1320.41 1750.62 L1753.54 1461.53 L1861.82 1392.60 L1970.22 1324.79 L2078.51 1257.96 L2186.79 1192.12 L2295.07 1127.27 L2403.35 1063.42 L2511.63 1000.30 L2619.91 938.05 L2728.19 876.55 L2836.47 815.79 L2944.76 755.76 L3053.04 696.36 L3269.72 579.66 L3378.00 522.37" stroke-linejoin="round" style="fill:none;stroke:#202020;stroke-width:23.04"/>
	<line x1="390.80" y1="2489.19" x2="390.80" y2="100.86" style="stroke:#000000;stroke-width:5.76"/>
	<line x1="390.80" y1="2425.82" x2="350.83" y2="2425.82" style="stroke:#000000;stroke-width:5.76"/>
	<text x="300.72" y="2425.82" style="font-family:'Helvetica';font-size:99.99px;fill:#000000" transform="rotate(-90 300.72,2425.82)" text-anchor="middle">0</text>
	<line x1="390.80" y1="1671.91" x2="350.83" y2="1671.91" style="stroke:#000000;stroke-width:5.76"/>
	<text x="300.72" y="1671.91" style="font-family:'Helvetica';font-size:99.99px;fill:#000000" transform="rotate(-90 300.72,1671.91)" text-anchor="middle">2</text>
	<line x1="390.80" y1="918.01" x2="350.83" y2="918.01" style="stroke:#000000;stroke-width:5.76"/>
	<text x="300.72" y="918.01" style="font-family:'Helvetica';font-size:99.99px;fill:#000000" transform="rotate(-90 300.72,918.01)" text-anchor="middle">4</text>
	<line x1="390.80" y1="164.22" x2="350.83" y2="164.22" style="stroke:#000000;stroke-width:5.76"/>
	<text x="300.72" y="164.22" style="font-family:'Helvetica';font-size:99.99px;fill:#000000" transform="rotate(-90 300.72,164.22)" text-anchor="middle">6</text>
	<text x="190.71" y="1294.96" style="font-family:'Helvetica';font-size:99.99px;fill:#000000" transform="rotate(-90 190.71,1294.96)" text-anchor="middle">Restricted Mean Survival Times (standardized)</text>
	<line x1="390.80" y1="2489.19" x2="3859.02" y2="2489.19" style="stroke:#000000;stroke-width:5.76"/>
	<line x1="454.16" y1="2489.19" x2="454.16" y2="2529.16" style="stroke:#000000;stroke-width:5.76"/>
	<text x="454.16" y="2619.14" style="font-family:'Helvetica';font-size:99.99px;fill:#000000" text-anchor="middle">0</text>
	<line x1="1289.47" y1="2489.19" x2="1289.47" y2="2529.16" style="stroke:#000000;stroke-width:5.76"/>
	<text x="1289.47" y="2619.14" style="font-family:'Helvetica';font-size:99.99px;fill:#000000" text-anchor="middle">2</text>
	<line x1="2124.91" y1="2489.19" x2="2124.91" y2="2529.16" style="stroke:#000000;stroke-width:5.76"/>
	<text x="2124.91" y="2619.14" style="font-family:'Helvetica';font-size:99.99px;fill:#000000" text-anchor="middle">4</text>
	<line x1="2960.35" y1="2489.19" x2="2960.35" y2="2529.16" style="stroke:#000000;stroke-width:5.76"/>
	<text x="2960.35" y="2619.14" style="font-family:'Helvetica';font-size:99.99px;fill:#000000" text-anchor="middle">6</text>
	<line x1="3795.66" y1="2489.19" x2="3795.66" y2="2529.16" style="stroke:#000000;stroke-width:5.76"/>
	<text x="3795.66" y="2619.14" style="font-family:'Helvetica';font-size:99.99px;fill:#000000" text-anchor="middle">8</text>
	<text x="2124.91" y="2729.16" style="font-family:'Helvetica';font-size:99.99px;fill:#000000" text-anchor="middle">Years from treatment outcome</text>
	<rect x="2690.70" y="2171.51" width="374.34" height="99.99" style="fill:#8D8D8D;fill-opacity:0.35"/>
	<rect x="2695.02" y="2175.83" width="365.70" height="91.35" style="fill:none;stroke:#707070;stroke-opacity:0.35;stroke-width:8.64"/>
	<rect x="2690.70" y="2311.47" width="374.34" height="99.99" style="fill:#4D4D4D;fill-opacity:0.35"/>
	<rect x="2695.02" y="2315.79" width="365.70" height="91.35" style="fill:none;stroke:#202020;stroke-opacity:0.35;stroke-width:8.64"/>
	<text x="3125.06" y="2256.53" style="font-family:'Helvetica';font-size:99.99px;fill:#000000">Tr. completion</text>
	<text x="3125.06" y="2396.50" style="font-family:'Helvetica';font-size:99.99px;fill:#000000">Late dropout</text>
</svg>
