<?xml version="1.0" encoding="UTF-8" standalone="no"?>
<!-- This is a Stata 16.1 generated SVG file (http://www.stata.com) -->

<svg version="1.1" width="5.50in" height="4.00in" viewBox="0 0 3960 2880" xmlns="http://www.w3.org/2000/svg" xmlns:xlink="http://www.w3.org/1999/xlink">
	<desc>Stata Graph - s_diff</desc>
	<rect x="0" y="0" width="3960" height="2880" style="fill:#FFFFFF;stroke:none"/>
	<rect x="0.00" y="0.00" width="3959.88" height="2880.00" style="fill:#FFFFFF"/>
	<rect x="2.88" y="2.88" width="3954.12" height="2874.24" style="fill:none;stroke:#FFFFFF;stroke-width:5.76"/>
	<rect x="390.80" y="100.86" width="3468.22" height="2388.33" style="fill:#FFFFFF"/>
	<rect x="393.68" y="103.74" width="3462.46" height="2382.57" style="fill:none;stroke:#FFFFFF;stroke-width:5.76"/>
	<line x1="390.80" y1="2425.82" x2="3859.02" y2="2425.82" style="stroke:#EAF2F3;stroke-width:8.64"/>
	<line x1="390.80" y1="1862.37" x2="3859.02" y2="1862.37" style="stroke:#EAF2F3;stroke-width:8.64"/>
	<line x1="390.80" y1="1299.04" x2="3859.02" y2="1299.04" style="stroke:#EAF2F3;stroke-width:8.64"/>
	<line x1="390.80" y1="735.59" x2="3859.02" y2="735.59" style="stroke:#EAF2F3;stroke-width:8.64"/>
	<line x1="390.80" y1="172.14" x2="3859.02" y2="172.14" style="stroke:#EAF2F3;stroke-width:8.64"/>
	<defs>
		<path id="path_TEzNgzBH" d="M454.16 735.59 L454.16 735.59 L562.44 986.44 L670.73 1134.45 L779.01 1251.28 L887.29 1350.15 L995.57 1435.05 L1103.85 1506.95 L1212.13 1567.71 L1320.54 1621.05 L1428.82 1670.06 L1537.10 1716.59 L1645.38 1761.64 L1753.66 1804.58 L1861.94 1844.68 L1970.22 1881.68 L2078.51 1915.09 L2186.79 1944.92 L2295.07 1971.40 L2403.35 1995.16 L2511.63 2016.57 L2620.03 2035.87 L2728.32 2053.45 L2836.60 2069.54 L2944.88 2084.39 L3053.16 2098.12 L3161.44 2110.99 L3269.72 2123.00 L3378.00 2134.26 L3378.00 1733.17 L3269.72 1728.47 L3161.44 1723.15 L3053.16 1717.21 L2944.88 1710.28 L2836.60 1702.48 L2728.32 1693.57 L2620.03 1683.42 L2511.63 1671.79 L2403.35 1658.55 L2295.07 1643.20 L2186.79 1625.51 L2078.51 1605.09 L1970.22 1581.70 L1861.94 1555.21 L1753.66 1525.89 L1645.38 1494.08 L1537.10 1460.30 L1428.82 1425.03 L1320.54 1387.28 L1212.13 1345.82 L1103.85 1298.43 L995.57 1242.49 L887.29 1176.65 L779.01 1100.30 L670.73 1011.69 L562.44 901.79 L454.16 735.59 L454.16 735.59 Z" stroke-linejoin="round"/>
	</defs>
	<defs>
		<clipPath id="clipPath_gucKJBrb">
			<use xlink:href="#path_TEzNgzBH"/>
		</clipPath>
	</defs>
	<use xlink:href="#path_TEzNgzBH" style="stroke:none;fill:#4D4D4D;fill-opacity:0.35"/>
	<use xlink:href="#path_TEzNgzBH" style="fill:none;stroke:#202020;stroke-opacity:0.35;stroke-width:17.28" clip-path="url(#clipPath_gucKJBrb)"/>
	<path d=" M454.04 735.59 L562.32 944.24 L670.60 1073.19 L779.01 1175.79 L887.29 1263.40 L995.57 1338.77 L1103.85 1402.75 L1212.13 1456.83 L1320.41 1504.23 L1428.69 1547.54 L1536.97 1588.50 L1645.26 1627.86 L1753.54 1665.36 L1861.82 1700.01 L1970.22 1731.69 L2078.51 1760.15 L2186.79 1785.27 L2295.07 1807.43 L2403.35 1826.85 L2511.63 1844.18 L2619.91 1859.77 L2728.19 1873.63 L2836.47 1886.13 L2944.76 1897.39 L3053.04 1907.67 L3161.32 1917.19 L3269.72 1925.86 L3378.00 1933.78" stroke-linejoin="round" style="fill:none;stroke:#202020;stroke-width:8.64"/>
	<defs>
		<path id="path_gXvjxbvg" d="M454.16 735.59 L454.16 735.59 L562.44 901.18 L670.73 1000.92 L779.01 1079.75 L887.29 1146.83 L995.57 1204.37 L1103.85 1253.26 L1212.13 1294.59 L1320.54 1330.85 L1428.82 1364.39 L1537.10 1396.19 L1645.38 1427.01 L1753.66 1456.58 L1861.94 1484.30 L1970.22 1509.80 L2078.51 1533.06 L2186.79 1553.85 L2295.07 1572.54 L2403.35 1589.25 L2511.63 1604.35 L2620.03 1618.08 L2728.32 1630.70 L2836.60 1642.34 L2944.88 1653.10 L3053.16 1663.25 L3161.44 1672.66 L3269.72 1681.57 L3378.00 1689.98 L3378.00 1389.51 L3269.72 1386.79 L3161.44 1383.69 L3053.16 1379.98 L2944.88 1375.77 L2836.60 1370.82 L2728.32 1365.01 L2620.03 1358.45 L2511.63 1350.77 L2403.35 1341.86 L2295.07 1331.59 L2186.79 1319.71 L2078.51 1305.97 L1970.22 1290.01 L1861.94 1272.07 L1753.66 1252.14 L1645.38 1230.48 L1537.10 1207.47 L1428.82 1183.46 L1320.54 1157.84 L1212.13 1129.63 L1103.85 1097.57 L995.57 1059.95 L887.29 1016.14 L779.01 965.78 L670.73 908.11 L562.44 837.81 L454.16 735.59 L454.16 735.59 Z" stroke-linejoin="round"/>
	</defs>
	<defs>
		<clipPath id="clipPath_fdECbnOG">
			<use xlink:href="#path_gXvjxbvg"/>
		</clipPath>
	</defs>
	<use xlink:href="#path_gXvjxbvg" style="stroke:none;fill:#808080;fill-opacity:0.35"/>
	<use xlink:href="#path_gXvjxbvg" style="fill:none;stroke:#606060;stroke-opacity:0.35;stroke-width:17.28" clip-path="url(#clipPath_fdECbnOG)"/>
	<path d=" M454.04 735.59 L562.32 869.49 L670.60 954.51 L779.01 1022.83 L887.29 1081.49 L995.57 1132.22 L1103.85 1175.41 L1212.13 1212.17 L1320.41 1244.47 L1428.69 1273.92 L1536.97 1301.89 L1645.26 1328.87 L1753.54 1354.49 L1861.82 1378.25 L1970.22 1400.03 L2078.51 1419.58 L2186.79 1436.91 L2295.07 1452.13 L2403.35 1465.62 L2511.63 1477.62 L2619.91 1488.39 L2728.19 1497.92 L2836.47 1506.58 L2944.76 1514.50 L3053.04 1521.68 L3161.32 1528.24 L3269.72 1534.30 L3378.00 1539.87" stroke-linejoin="round" style="fill:none;stroke:#606060;stroke-width:8.64"/>
	<defs>
		<path id="path_TYbxpNQg" d="M454.16 735.59 L454.16 735.59 L562.44 701.56 L670.73 675.32 L779.01 653.54 L887.29 634.73 L995.57 618.52 L1103.85 604.79 L1212.13 593.28 L1320.54 583.25 L1428.82 574.47 L1537.10 566.42 L1645.38 558.87 L1753.66 551.82 L1861.94 545.63 L1970.22 540.19 L2078.51 535.61 L2186.79 531.65 L2295.07 528.55 L2403.35 525.95 L2511.63 523.85 L2620.03 522.24 L2728.32 521.00 L2836.60 520.14 L2944.88 519.39 L3053.16 519.02 L3161.44 518.78 L3269.72 518.78 L3378.00 518.90 L3378.00 164.22 L3269.72 169.17 L3161.44 174.37 L3053.16 179.94 L2944.88 185.88 L2836.60 192.07 L2728.32 198.87 L2620.03 206.05 L2511.63 213.97 L2403.35 222.63 L2295.07 232.04 L2186.79 242.56 L2078.51 254.31 L1970.22 267.43 L1861.94 281.91 L1753.66 297.50 L1645.38 314.21 L1537.10 331.54 L1428.82 349.36 L1320.54 368.17 L1212.13 388.46 L1103.85 411.73 L995.57 439.45 L887.29 472.49 L779.01 511.60 L670.73 558.50 L562.44 620.25 L454.16 735.59 L454.16 735.59 Z" stroke-linejoin="round"/>
	</defs>
	<defs>
		<clipPath id="clipPath_BvyObAqs">
			<use xlink:href="#path_TYbxpNQg"/>
		</clipPath>
	</defs>
	<use xlink:href="#path_TYbxpNQg" style="stroke:none;fill:#B3B3B3;fill-opacity:0.35"/>
	<use xlink:href="#path_TYbxpNQg" style="fill:none;stroke:#A0A0A0;stroke-opacity:0.35;stroke-width:17.28" clip-path="url(#clipPath_BvyObAqs)"/>
	<path d=" M454.04 735.59 L562.32 660.97 L670.60 617.04 L779.01 582.63 L887.29 553.67 L995.57 529.05 L1103.85 508.26 L1212.13 490.93 L1320.41 475.83 L1428.69 461.97 L1536.97 448.98 L1645.26 436.60 L1753.54 424.72 L1861.82 413.83 L1970.22 403.93 L2078.51 395.02 L2186.79 387.23 L2295.07 380.30 L2403.35 374.36 L2511.63 369.03 L2619.91 364.21 L2728.19 360.00 L2836.47 356.16 L2944.76 352.70 L3053.04 349.60 L3161.32 346.63 L3269.72 344.04 L3378.00 341.56" stroke-linejoin="round" style="fill:none;stroke:#A0A0A0;stroke-width:8.64"/>
	<path d=" M454.04 735.59 L562.32 735.59 L670.60 735.59 L779.01 735.59 L887.29 735.59 L995.57 735.59 L1103.85 735.59 L1212.13 735.59 L1320.41 735.59 L1428.69 735.59 L1536.97 735.59 L1645.26 735.59 L1753.54 735.59 L1861.82 735.59 L1970.22 735.59 L2078.51 735.59 L2186.79 735.59 L2295.07 735.59 L2403.35 735.59 L2511.63 735.59 L2619.91 735.59 L2728.19 735.59 L2836.47 735.59 L2944.76 735.59 L3053.04 735.59 L3161.32 735.59 L3269.72 735.59 L3378.00 735.59" stroke-linejoin="round" style="fill:none;stroke:#000000;stroke-opacity:0.20;stroke-width:23.04"/>
	<line x1="390.80" y1="2489.19" x2="390.80" y2="100.86" style="stroke:#000000;stroke-width:5.76"/>
	<line x1="390.80" y1="2425.82" x2="350.83" y2="2425.82" style="stroke:#000000;stroke-width:5.76"/>
	<text x="300.72" y="2425.82" style="font-family:'Helvetica';font-size:99.99px;fill:#000000" transform="rotate(-90 300.72,2425.82)" text-anchor="middle">-0.06</text>
	<line x1="390.80" y1="1862.37" x2="350.83" y2="1862.37" style="stroke:#000000;stroke-width:5.76"/>
	<text x="300.72" y="1862.37" style="font-family:'Helvetica';font-size:99.99px;fill:#000000" transform="rotate(-90 300.72,1862.37)" text-anchor="middle">-0.04</text>
	<line x1="390.80" y1="1299.04" x2="350.83" y2="1299.04" style="stroke:#000000;stroke-width:5.76"/>
	<text x="300.72" y="1299.04" style="font-family:'Helvetica';font-size:99.99px;fill:#000000" transform="rotate(-90 300.72,1299.04)" text-anchor="middle">-0.02</text>
	<line x1="390.80" y1="735.59" x2="350.83" y2="735.59" style="stroke:#000000;stroke-width:5.76"/>
	<text x="300.72" y="735.59" style="font-family:'Helvetica';font-size:99.99px;fill:#000000" transform="rotate(-90 300.72,735.59)" text-anchor="middle">0.00</text>
	<line x1="390.80" y1="172.14" x2="350.83" y2="172.14" style="stroke:#000000;stroke-width:5.76"/>
	<text x="300.72" y="172.14" style="font-family:'Helvetica';font-size:99.99px;fill:#000000" transform="rotate(-90 300.72,172.14)" text-anchor="middle">0.02</text>
	<text x="190.71" y="1294.96" style="font-family:'Helvetica';font-size:99.99px;fill:#000000" transform="rotate(-90 190.71,1294.96)" text-anchor="middle">Difference in Survival (years)</text>
	<line x1="390.80" y1="2489.19" x2="3859.02" y2="2489.19" style="stroke:#000000;stroke-width:5.76"/>
	<line x1="454.16" y1="2489.19" x2="454.16" y2="2529.16" style="stroke:#000000;stroke-width:5.76"/>
	<text x="454.16" y="2619.14" style="font-family:'Helvetica';font-size:99.99px;fill:#000000" text-anchor="middle">0</text>
	<line x1="1289.47" y1="2489.19" x2="1289.47" y2="2529.16" style="stroke:#000000;stroke-width:5.76"/>
	<text x="1289.47" y="2619.14" style="font-family:'Helvetica';font-size:99.99px;fill:#000000" text-anchor="middle">2</text>
	<line x1="2124.91" y1="2489.19" x2="2124.91" y2="2529.16" style="stroke:#000000;stroke-width:5.76"/>
	<text x="2124.91" y="2619.14" style="font-family:'Helvetica';font-size:99.99px;fill:#000000" text-anchor="middle">4</text>
	<line x1="2960.35" y1="2489.19" x2="2960.35" y2="2529.16" style="stroke:#000000;stroke-width:5.76"/>
	<text x="2960.35" y="2619.14" style="font-family:'Helvetica';font-size:99.99px;fill:#000000" text-anchor="middle">6</text>
	<line x1="3795.66" y1="2489.19" x2="3795.66" y2="2529.16" style="stroke:#000000;stroke-width:5.76"/>
	<text x="3795.66" y="2619.14" style="font-family:'Helvetica';font-size:99.99px;fill:#000000" text-anchor="middle">8</text>
	<text x="2124.91" y="2729.16" style="font-family:'Helvetica';font-size:99.99px;fill:#000000" text-anchor="middle">Years from baseline treatment outcome</text>
	<rect x="468.52" y="2031.42" width="374.47" height="99.99" style="fill:#4D4D4D;fill-opacity:0.35"/>
	<rect x="472.84" y="2035.74" width="365.83" height="91.35" style="fill:none;stroke:#202020;stroke-opacity:0.35;stroke-width:8.64"/>
	<rect x="468.52" y="2171.51" width="374.47" height="99.99" style="fill:#808080;fill-opacity:0.35"/>
	<rect x="472.84" y="2175.83" width="365.83" height="91.35" style="fill:none;stroke:#606060;stroke-opacity:0.35;stroke-width:8.64"/>
	<rect x="468.52" y="2311.47" width="374.47" height="99.99" style="fill:#B3B3B3;fill-opacity:0.35"/>
	<rect x="472.84" y="2315.79" width="365.83" height="91.35" style="fill:none;stroke:#A0A0A0;stroke-opacity:0.35;stroke-width:8.64"/>
	<text x="902.88" y="2116.44" style="font-family:'Helvetica';font-size:99.99px;fill:#000000">Early vs. Tr. completion</text>
	<text x="902.88" y="2256.53" style="font-family:'Helvetica';font-size:99.99px;fill:#000000">Late vs. Tr. completion</text>
	<text x="902.88" y="2396.50" style="font-family:'Helvetica';font-size:99.99px;fill:#000000">Late vs. Early dropout</text>
</svg>
