<?xml version="1.0" encoding="UTF-8" standalone="no"?>
<!-- This is a Stata 16.1 generated SVG file (http://www.stata.com) -->

<svg version="1.1" width="5.50in" height="4.00in" viewBox="0 0 3960 2880" xmlns="http://www.w3.org/2000/svg" xmlns:xlink="http://www.w3.org/1999/xlink">
	<desc>Stata Graph - s_diff_fin_abc</desc>
	<rect x="0" y="0" width="3960" height="2880" style="fill:#FFFFFF;stroke:none"/>
	<rect x="0.00" y="0.00" width="3959.88" height="2880.00" style="fill:#FFFFFF"/>
	<rect x="2.88" y="2.88" width="3954.12" height="2874.24" style="fill:none;stroke:#FFFFFF;stroke-width:5.76"/>
	<rect x="390.80" y="100.86" width="3468.22" height="2388.33" style="fill:#FFFFFF"/>
	<rect x="393.68" y="103.74" width="3462.46" height="2382.57" style="fill:none;stroke:#FFFFFF;stroke-width:5.76"/>
	<line x1="390.80" y1="2195.76" x2="3859.02" y2="2195.76" style="stroke:#EAF2F3;stroke-width:8.64"/>
	<line x1="390.80" y1="1179.99" x2="3859.02" y2="1179.99" style="stroke:#EAF2F3;stroke-width:8.64"/>
	<line x1="390.80" y1="164.22" x2="3859.02" y2="164.22" style="stroke:#EAF2F3;stroke-width:8.64"/>
	<defs>
		<path id="path_gLACKDZK" d="M454.16 164.22 L454.16 164.22 L562.44 626.94 L670.73 907.61 L887.29 1273.80 L995.57 1402.26 L1103.85 1509.43 L1212.13 1600.88 L1320.54 1679.34 L1753.66 1899.13 L1861.94 1936.87 L1970.22 1969.91 L2078.51 1999.12 L2186.79 2024.98 L2295.07 2048.13 L2403.35 2068.92 L2511.63 2087.60 L2620.03 2104.43 L2728.32 2119.78 L2836.60 2133.76 L2944.88 2146.51 L3053.16 2158.14 L3269.72 2178.56 L3378.00 2187.47 L3378.00 1740.85 L3269.72 1742.08 L3053.16 1742.45 L2944.88 1741.22 L2836.60 1738.99 L2728.32 1735.52 L2620.03 1730.70 L2511.63 1724.39 L2403.35 1716.22 L2295.07 1705.95 L2186.79 1693.20 L2078.51 1677.61 L1970.22 1658.80 L1861.94 1635.90 L1753.66 1608.31 L1320.54 1430.10 L1212.13 1362.53 L1103.85 1282.83 L995.57 1188.78 L887.29 1075.67 L670.73 758.86 L562.44 524.22 L454.16 164.22 L454.16 164.22 Z" stroke-linejoin="round"/>
	</defs>
	<defs>
		<clipPath id="clipPath_YUbCFyOV">
			<use xlink:href="#path_gLACKDZK"/>
		</clipPath>
	</defs>
	<use xlink:href="#path_gLACKDZK" style="stroke:none;fill:#4D4D4D;fill-opacity:0.35"/>
	<use xlink:href="#path_gLACKDZK" style="fill:none;stroke:#202020;stroke-opacity:0.35;stroke-width:17.28" clip-path="url(#clipPath_YUbCFyOV)"/>
	<path d=" M454.04 164.22 L562.32 575.58 L670.60 833.23 L887.29 1174.80 L995.57 1295.58 L1103.85 1396.19 L1212.13 1481.71 L1320.41 1554.84 L1753.54 1753.84 L1861.82 1786.51 L1970.22 1814.36 L2078.51 1838.49 L2186.79 1859.15 L2295.07 1877.10 L2403.35 1892.57 L2511.63 1906.06 L2619.91 1917.69 L2728.19 1927.71 L2836.47 1936.50 L2944.76 1943.93 L3053.04 1950.36 L3269.72 1960.39 L3378.00 1964.22" stroke-linejoin="round" style="fill:none;stroke:#202020;stroke-width:8.64"/>
	<defs>
		<path id="path_oZRRyyVl" d="M454.16 164.22 L454.16 164.22 L670.73 1130.74 L779.01 1379.98 L995.57 1720.80 L1428.82 2078.82 L1537.10 2132.28 L1645.38 2177.45 L1753.66 2215.69 L2186.79 2322.74 L2295.07 2341.30 L2728.32 2395.01 L3053.16 2419.76 L3161.44 2425.82 L3161.44 1919.30 L3053.16 1924.99 L2728.32 1936.25 L2295.07 1931.30 L2186.79 1924.87 L1753.66 1865.84 L1645.38 1839.23 L1537.10 1805.82 L1428.82 1764.11 L995.57 1460.91 L779.01 1163.53 L670.73 948.08 L454.16 164.22 L454.16 164.22 Z" stroke-linejoin="round"/>
	</defs>
	<defs>
		<clipPath id="clipPath_NLGQfFhQ">
			<use xlink:href="#path_oZRRyyVl"/>
		</clipPath>
	</defs>
	<use xlink:href="#path_oZRRyyVl" style="stroke:none;fill:#808080;fill-opacity:0.35"/>
	<use xlink:href="#path_oZRRyyVl" style="fill:none;stroke:#606060;stroke-opacity:0.35;stroke-width:17.28" clip-path="url(#clipPath_NLGQfFhQ)"/>
	<path d=" M454.04 164.22 L670.60 1039.53 L779.01 1271.82 L995.57 1590.86 L1428.69 1921.53 L1536.97 1969.17 L1645.26 2008.40 L1753.54 2040.83 L2186.79 2123.86 L2295.07 2136.36 L2728.19 2165.69 L3053.04 2172.38 L3161.32 2172.62" stroke-linejoin="round" style="fill:none;stroke:#606060;stroke-width:8.64"/>
	<defs>
		<path id="path_UIYociUi" d="M562.44 392.92 L562.44 392.92 L779.01 549.71 L887.29 589.69 L1103.85 637.83 L1212.13 652.43 L1320.54 662.95 L1428.82 670.50 L1537.10 675.82 L1645.38 679.53 L1861.94 683.62 L1970.22 684.61 L2078.51 684.98 L2403.35 684.24 L2511.63 683.49 L2620.03 682.63 L2728.32 681.51 L2836.60 680.40 L2944.88 679.16 L3161.44 676.56 L3269.72 675.08 L3378.00 673.72 L3378.00 240.21 L3269.72 249.12 L3161.44 258.15 L2944.88 276.47 L2836.60 285.75 L2728.32 295.03 L2620.03 304.19 L2511.63 313.47 L2403.35 322.63 L2078.51 349.11 L1970.22 357.40 L1861.94 365.20 L1645.38 378.69 L1537.10 384.01 L1428.82 387.84 L1320.54 389.70 L1212.13 389.08 L1103.85 385.37 L887.29 364.21 L779.01 343.54 L562.44 262.23 L562.44 392.92 Z" stroke-linejoin="round"/>
	</defs>
	<defs>
		<clipPath id="clipPath_BMBXPZLg">
			<use xlink:href="#path_UIYociUi"/>
		</clipPath>
	</defs>
	<use xlink:href="#path_UIYociUi" style="stroke:none;fill:#B3B3B3;fill-opacity:0.35"/>
	<use xlink:href="#path_UIYociUi" style="fill:none;stroke:#A0A0A0;stroke-opacity:0.35;stroke-width:17.28" clip-path="url(#clipPath_BMBXPZLg)"/>
	<path d=" M562.32 327.58 L779.01 446.75 L887.29 477.07 L1103.85 511.72 L1212.13 520.88 L1320.41 526.33 L1428.69 529.17 L1536.97 529.91 L1645.26 529.17 L1861.82 524.47 L1970.22 521.13 L2078.51 517.17 L2403.35 503.43 L2511.63 498.48 L2619.91 493.53 L2728.19 488.33 L2836.47 483.14 L2944.76 477.94 L3161.32 467.42 L3269.72 462.22 L3378.00 457.02" stroke-linejoin="round" style="fill:none;stroke:#A0A0A0;stroke-width:8.64"/>
	<path d=" M454.04 164.22 L562.32 164.22 L670.60 164.22 L779.01 164.22 L887.29 164.22 L995.57 164.22 L1103.85 164.22 L1212.13 164.22 L1320.41 164.22 L1428.69 164.22 L1536.97 164.22 L1645.26 164.22 L1753.54 164.22 L1861.82 164.22 L1970.22 164.22 L2078.51 164.22 L2186.79 164.22 L2295.07 164.22 L2403.35 164.22 L2511.63 164.22 L2619.91 164.22 L2728.19 164.22 L2836.47 164.22 L2944.76 164.22 L3053.04 164.22 L3161.32 164.22 L3269.72 164.22 L3378.00 164.22" stroke-linejoin="round" style="fill:none;stroke:#000000;stroke-opacity:0.20;stroke-width:23.04"/>
	<line x1="390.80" y1="2489.19" x2="390.80" y2="100.86" style="stroke:#000000;stroke-width:5.76"/>
	<line x1="390.80" y1="2195.76" x2="350.83" y2="2195.76" style="stroke:#000000;stroke-width:5.76"/>
	<text x="300.72" y="2195.76" style="font-family:'Helvetica';font-size:99.99px;fill:#000000" transform="rotate(-90 300.72,2195.76)" text-anchor="middle">-0.10</text>
	<line x1="390.80" y1="1179.99" x2="350.83" y2="1179.99" style="stroke:#000000;stroke-width:5.76"/>
	<text x="300.72" y="1179.99" style="font-family:'Helvetica';font-size:99.99px;fill:#000000" transform="rotate(-90 300.72,1179.99)" text-anchor="middle">-0.05</text>
	<line x1="390.80" y1="164.22" x2="350.83" y2="164.22" style="stroke:#000000;stroke-width:5.76"/>
	<text x="300.72" y="164.22" style="font-family:'Helvetica';font-size:99.99px;fill:#000000" transform="rotate(-90 300.72,164.22)" text-anchor="middle">0.00</text>
	<text x="190.71" y="1294.96" style="font-family:'Helvetica';font-size:99.99px;fill:#000000" transform="rotate(-90 190.71,1294.96)" text-anchor="middle">Difference in Survival (years)</text>
	<line x1="390.80" y1="2489.19" x2="3859.02" y2="2489.19" style="stroke:#000000;stroke-width:5.76"/>
	<line x1="454.16" y1="2489.19" x2="454.16" y2="2529.16" style="stroke:#000000;stroke-width:5.76"/>
	<text x="454.16" y="2619.14" style="font-family:'Helvetica';font-size:99.99px;fill:#000000" text-anchor="middle">0</text>
	<line x1="1289.47" y1="2489.19" x2="1289.47" y2="2529.16" style="stroke:#000000;stroke-width:5.76"/>
	<text x="1289.47" y="2619.14" style="font-family:'Helvetica';font-size:99.99px;fill:#000000" text-anchor="middle">2</text>
	<line x1="2124.91" y1="2489.19" x2="2124.91" y2="2529.16" style="stroke:#000000;stroke-width:5.76"/>
	<text x="2124.91" y="2619.14" style="font-family:'Helvetica';font-size:99.99px;fill:#000000" text-anchor="middle">4</text>
	<line x1="2960.35" y1="2489.19" x2="2960.35" y2="2529.16" style="stroke:#000000;stroke-width:5.76"/>
	<text x="2960.35" y="2619.14" style="font-family:'Helvetica';font-size:99.99px;fill:#000000" text-anchor="middle">6</text>
	<line x1="3795.66" y1="2489.19" x2="3795.66" y2="2529.16" style="stroke:#000000;stroke-width:5.76"/>
	<text x="3795.66" y="2619.14" style="font-family:'Helvetica';font-size:99.99px;fill:#000000" text-anchor="middle">8</text>
	<text x="2124.91" y="2729.16" style="font-family:'Helvetica';font-size:99.99px;fill:#000000" text-anchor="middle">Years from baseline treatment outcome</text>
	<rect x="1885.70" y="1105.00" width="374.47" height="99.99" style="fill:#4D4D4D;fill-opacity:0.35"/>
	<rect x="1890.02" y="1109.32" width="365.83" height="91.35" style="fill:none;stroke:#202020;stroke-opacity:0.35;stroke-width:8.64"/>
	<rect x="1885.70" y="1244.96" width="374.47" height="99.99" style="fill:#808080;fill-opacity:0.35"/>
	<rect x="1890.02" y="1249.28" width="365.83" height="91.35" style="fill:none;stroke:#606060;stroke-opacity:0.35;stroke-width:8.64"/>
	<rect x="1885.70" y="1385.05" width="374.47" height="99.99" style="fill:#B3B3B3;fill-opacity:0.35"/>
	<rect x="1890.02" y="1389.37" width="365.83" height="91.35" style="fill:none;stroke:#A0A0A0;stroke-opacity:0.35;stroke-width:8.64"/>
	<text x="2320.07" y="1190.02" style="font-family:'Helvetica';font-size:99.99px;fill:#000000">Late dropout vs. Tr. completion</text>
	<text x="2320.07" y="1329.99" style="font-family:'Helvetica';font-size:99.99px;fill:#000000">Early dropout vs. Tr. completion</text>
	<text x="2320.07" y="1470.08" style="font-family:'Helvetica';font-size:99.99px;fill:#000000">Early vs. late dropout</text>
</svg>
