<?xml version="1.0" encoding="UTF-8" standalone="no"?>
<!-- This is a Stata 16.1 generated SVG file (http://www.stata.com) -->

<svg version="1.1" width="5.50in" height="4.00in" viewBox="0 0 3960 2880" xmlns="http://www.w3.org/2000/svg" xmlns:xlink="http://www.w3.org/1999/xlink">
	<desc>Stata Graph - rmst_std_fin_c</desc>
	<rect x="0" y="0" width="3960" height="2880" style="fill:#FFFFFF;stroke:none"/>
	<rect x="0.00" y="0.00" width="3959.88" height="2880.00" style="fill:#FFFFFF"/>
	<rect x="2.88" y="2.88" width="3954.12" height="2874.24" style="fill:none;stroke:#FFFFFF;stroke-width:5.76"/>
	<rect x="390.80" y="100.86" width="3468.22" height="2388.33" style="fill:#FFFFFF"/>
	<rect x="393.68" y="103.74" width="3462.46" height="2382.57" style="fill:none;stroke:#FFFFFF;stroke-width:5.76"/>
	<line x1="390.80" y1="2425.82" x2="3859.02" y2="2425.82" style="stroke:#EAF2F3;stroke-width:8.64"/>
	<line x1="390.80" y1="1973.50" x2="3859.02" y2="1973.50" style="stroke:#EAF2F3;stroke-width:8.64"/>
	<line x1="390.80" y1="1521.18" x2="3859.02" y2="1521.18" style="stroke:#EAF2F3;stroke-width:8.64"/>
	<line x1="390.80" y1="1068.86" x2="3859.02" y2="1068.86" style="stroke:#EAF2F3;stroke-width:8.64"/>
	<line x1="390.80" y1="616.54" x2="3859.02" y2="616.54" style="stroke:#EAF2F3;stroke-width:8.64"/>
	<line x1="390.80" y1="164.22" x2="3859.02" y2="164.22" style="stroke:#EAF2F3;stroke-width:8.64"/>
	<defs>
		<path id="path_lpamasud" d="M562.44 2312.22 L562.44 2312.22 L779.01 2100.72 L887.29 2000.98 L1103.85 1811.51 L1212.13 1720.80 L1320.54 1632.68 L1428.82 1546.68 L1537.10 1462.52 L1645.38 1380.35 L1861.94 1220.83 L1970.22 1143.24 L2078.51 1067.01 L2403.35 845.61 L2511.63 773.96 L2620.03 703.42 L2728.32 633.87 L2836.60 565.31 L2944.88 497.49 L3161.44 364.70 L3269.72 299.48 L3378.00 235.13 L3378.00 205.18 L3269.72 271.02 L3161.44 337.72 L2944.88 473.23 L2836.60 542.41 L2728.32 612.33 L2620.03 683.12 L2511.63 754.90 L2403.35 827.79 L2078.51 1052.77 L1970.22 1130.24 L1861.94 1208.95 L1645.38 1370.82 L1537.10 1454.11 L1428.82 1539.25 L1320.54 1626.25 L1212.13 1715.48 L1103.85 1807.05 L887.29 1998.50 L779.01 2098.99 L562.44 2311.85 L562.44 2312.22 Z" stroke-linejoin="round"/>
	</defs>
	<defs>
		<clipPath id="clipPath_mOtFXAyf">
			<use xlink:href="#path_lpamasud"/>
		</clipPath>
	</defs>
	<use xlink:href="#path_lpamasud" style="stroke:none;fill:#8D8D8D;fill-opacity:0.35"/>
	<use xlink:href="#path_lpamasud" style="fill:none;stroke:#707070;stroke-opacity:0.35;stroke-width:17.28" clip-path="url(#clipPath_mOtFXAyf)"/>
	<defs>
		<path id="path_qqgPMelu" d="M562.44 2312.84 L562.44 2312.84 L779.01 2104.31 L887.29 2006.67 L1103.85 1821.41 L1212.13 1733.05 L1320.54 1647.16 L1428.82 1563.51 L1537.10 1481.83 L1645.38 1402.01 L1861.94 1247.19 L1970.22 1171.95 L2078.51 1098.07 L2403.35 883.73 L2511.63 814.42 L2620.03 746.11 L2728.32 678.79 L2836.60 612.46 L2944.88 546.99 L3161.44 418.41 L3269.72 355.42 L3378.00 293.05 L3378.00 247.01 L3269.72 311.61 L3161.44 376.83 L2944.88 509.74 L2836.60 577.44 L2728.32 645.87 L2620.03 715.17 L2511.63 785.47 L2403.35 856.62 L2078.51 1076.78 L1970.22 1152.40 L1861.94 1229.37 L1645.38 1387.65 L1537.10 1469.08 L1428.82 1552.37 L1320.54 1637.63 L1212.13 1725.01 L1103.85 1814.85 L887.29 2002.83 L779.01 2101.84 L562.44 2312.34 L562.44 2312.84 Z" stroke-linejoin="round"/>
	</defs>
	<defs>
		<clipPath id="clipPath_TftwyawS">
			<use xlink:href="#path_qqgPMelu"/>
		</clipPath>
	</defs>
	<use xlink:href="#path_qqgPMelu" style="stroke:none;fill:#4D4D4D;fill-opacity:0.35"/>
	<use xlink:href="#path_qqgPMelu" style="fill:none;stroke:#202020;stroke-opacity:0.35;stroke-width:17.28" clip-path="url(#clipPath_TftwyawS)"/>
	<path d=" M562.32 2312.09 L779.01 2099.86 L887.29 1999.86 L1103.85 1809.28 L1212.13 1718.20 L1320.41 1629.59 L1428.69 1542.96 L1536.97 1458.44 L1645.26 1375.65 L1861.82 1215.02 L1970.22 1136.80 L2078.51 1059.95 L2403.35 836.82 L2511.63 764.55 L2619.91 693.39 L2728.19 623.22 L2836.47 553.92 L2944.76 485.49 L3161.32 351.34 L3269.72 285.38 L3378.00 220.28" stroke-linejoin="round" style="fill:none;stroke:#707070;stroke-width:23.04"/>
	<path d=" M562.32 2312.59 L779.01 2103.20 L887.29 2004.81 L1103.85 1818.19 L1212.13 1729.09 L1320.41 1642.46 L1428.69 1558.06 L1536.97 1475.52 L1645.26 1394.95 L1861.82 1238.40 L1970.22 1162.30 L2078.51 1087.55 L2403.35 870.36 L2511.63 800.07 L2619.91 730.77 L2728.19 662.45 L2836.47 595.01 L2944.76 528.55 L3161.32 397.87 L3269.72 333.64 L3378.00 270.28" stroke-linejoin="round" style="fill:none;stroke:#202020;stroke-width:23.04"/>
	<line x1="390.80" y1="2489.19" x2="390.80" y2="100.86" style="stroke:#000000;stroke-width:5.76"/>
	<line x1="390.80" y1="2425.82" x2="350.83" y2="2425.82" style="stroke:#000000;stroke-width:5.76"/>
	<text x="300.72" y="2425.82" style="font-family:'Helvetica';font-size:99.99px;fill:#000000" transform="rotate(-90 300.72,2425.82)" text-anchor="middle">0</text>
	<line x1="390.80" y1="1973.50" x2="350.83" y2="1973.50" style="stroke:#000000;stroke-width:5.76"/>
	<text x="300.72" y="1973.50" style="font-family:'Helvetica';font-size:99.99px;fill:#000000" transform="rotate(-90 300.72,1973.50)" text-anchor="middle">1</text>
	<line x1="390.80" y1="1521.18" x2="350.83" y2="1521.18" style="stroke:#000000;stroke-width:5.76"/>
	<text x="300.72" y="1521.18" style="font-family:'Helvetica';font-size:99.99px;fill:#000000" transform="rotate(-90 300.72,1521.18)" text-anchor="middle">2</text>
	<line x1="390.80" y1="1068.86" x2="350.83" y2="1068.86" style="stroke:#000000;stroke-width:5.76"/>
	<text x="300.72" y="1068.86" style="font-family:'Helvetica';font-size:99.99px;fill:#000000" transform="rotate(-90 300.72,1068.86)" text-anchor="middle">3</text>
	<line x1="390.80" y1="616.54" x2="350.83" y2="616.54" style="stroke:#000000;stroke-width:5.76"/>
	<text x="300.72" y="616.54" style="font-family:'Helvetica';font-size:99.99px;fill:#000000" transform="rotate(-90 300.72,616.54)" text-anchor="middle">4</text>
	<line x1="390.80" y1="164.22" x2="350.83" y2="164.22" style="stroke:#000000;stroke-width:5.76"/>
	<text x="300.72" y="164.22" style="font-family:'Helvetica';font-size:99.99px;fill:#000000" transform="rotate(-90 300.72,164.22)" text-anchor="middle">5</text>
	<text x="190.71" y="1294.96" style="font-family:'Helvetica';font-size:99.99px;fill:#000000" transform="rotate(-90 190.71,1294.96)" text-anchor="middle">Restricted Mean Survival Times (standardized)</text>
	<line x1="390.80" y1="2489.19" x2="3859.02" y2="2489.19" style="stroke:#000000;stroke-width:5.76"/>
	<line x1="454.16" y1="2489.19" x2="454.16" y2="2529.16" style="stroke:#000000;stroke-width:5.76"/>
	<text x="454.16" y="2619.14" style="font-family:'Helvetica';font-size:99.99px;fill:#000000" text-anchor="middle">0</text>
	<line x1="1289.47" y1="2489.19" x2="1289.47" y2="2529.16" style="stroke:#000000;stroke-width:5.76"/>
	<text x="1289.47" y="2619.14" style="font-family:'Helvetica';font-size:99.99px;fill:#000000" text-anchor="middle">2</text>
	<line x1="2124.91" y1="2489.19" x2="2124.91" y2="2529.16" style="stroke:#000000;stroke-width:5.76"/>
	<text x="2124.91" y="2619.14" style="font-family:'Helvetica';font-size:99.99px;fill:#000000" text-anchor="middle">4</text>
	<line x1="2960.35" y1="2489.19" x2="2960.35" y2="2529.16" style="stroke:#000000;stroke-width:5.76"/>
	<text x="2960.35" y="2619.14" style="font-family:'Helvetica';font-size:99.99px;fill:#000000" text-anchor="middle">6</text>
	<line x1="3795.66" y1="2489.19" x2="3795.66" y2="2529.16" style="stroke:#000000;stroke-width:5.76"/>
	<text x="3795.66" y="2619.14" style="font-family:'Helvetica';font-size:99.99px;fill:#000000" text-anchor="middle">8</text>
	<text x="2124.91" y="2729.16" style="font-family:'Helvetica';font-size:99.99px;fill:#000000" text-anchor="middle">Years from treatment outcome</text>
	<line x1="2731.53" y1="2221.51" x2="3105.88" y2="2221.51" style="stroke:#707070;stroke-width:23.04"/>
	<line x1="2731.53" y1="2361.47" x2="3105.88" y2="2361.47" style="stroke:#202020;stroke-width:23.04"/>
	<text x="3165.90" y="2256.53" style="font-family:'Helvetica';font-size:99.99px;fill:#000000">Late dropout</text>
	<text x="3165.90" y="2396.50" style="font-family:'Helvetica';font-size:99.99px;fill:#000000">Early dropout</text>
</svg>
