<?xml version="1.0" encoding="UTF-8" standalone="no"?>
<!-- This is a Stata 16.1 generated SVG file (http://www.stata.com) -->

<svg version="1.1" width="5.50in" height="4.00in" viewBox="0 0 3960 2880" xmlns="http://www.w3.org/2000/svg" xmlns:xlink="http://www.w3.org/1999/xlink">
	<desc>Stata Graph - Graph</desc>
	<rect x="0" y="0" width="3960" height="2880" style="fill:#FFFFFF;stroke:none"/>
	<rect x="0.00" y="0.00" width="3959.88" height="2880.00" style="fill:#FFFFFF"/>
	<rect x="2.88" y="2.88" width="3954.12" height="2874.24" style="fill:none;stroke:#FFFFFF;stroke-width:5.76"/>
	<rect x="490.79" y="100.86" width="3368.23" height="2388.33" style="fill:#FFFFFF"/>
	<rect x="493.67" y="103.74" width="3362.47" height="2382.57" style="fill:none;stroke:#FFFFFF;stroke-width:5.76"/>
	<line x1="490.79" y1="2425.82" x2="3859.02" y2="2425.82" style="stroke:#EAF2F3;stroke-width:8.64"/>
	<line x1="490.79" y1="1973.50" x2="3859.02" y2="1973.50" style="stroke:#EAF2F3;stroke-width:8.64"/>
	<line x1="490.79" y1="1521.18" x2="3859.02" y2="1521.18" style="stroke:#EAF2F3;stroke-width:8.64"/>
	<line x1="490.79" y1="1068.86" x2="3859.02" y2="1068.86" style="stroke:#EAF2F3;stroke-width:8.64"/>
	<line x1="490.79" y1="616.54" x2="3859.02" y2="616.54" style="stroke:#EAF2F3;stroke-width:8.64"/>
	<line x1="490.79" y1="164.22" x2="3859.02" y2="164.22" style="stroke:#EAF2F3;stroke-width:8.64"/>
	<line x1="608.97" y1="1715.60" x2="608.97" y2="1440.87" style="stroke:#202020;stroke-opacity:0.75;stroke-width:8.64"/>
	<line x1="586.95" y1="1440.87" x2="631.00" y2="1440.87" stroke-linecap="round" style="stroke:#202020;stroke-opacity:0.75;stroke-width:8.64"/>
	<line x1="586.95" y1="1715.60" x2="631.00" y2="1715.60" stroke-linecap="round" style="stroke:#202020;stroke-opacity:0.75;stroke-width:8.64"/>
	<line x1="2174.91" y1="1136.18" x2="2174.91" y2="693.27" style="stroke:#202020;stroke-opacity:0.75;stroke-width:8.64"/>
	<line x1="2152.88" y1="693.27" x2="2196.93" y2="693.27" stroke-linecap="round" style="stroke:#202020;stroke-opacity:0.75;stroke-width:8.64"/>
	<line x1="2152.88" y1="1136.18" x2="2196.93" y2="1136.18" stroke-linecap="round" style="stroke:#202020;stroke-opacity:0.75;stroke-width:8.64"/>
	<line x1="3740.96" y1="859.22" x2="3740.96" y2="297.88" style="stroke:#202020;stroke-opacity:0.75;stroke-width:8.64"/>
	<line x1="3718.93" y1="297.88" x2="3762.99" y2="297.88" stroke-linecap="round" style="stroke:#202020;stroke-opacity:0.75;stroke-width:8.64"/>
	<line x1="3718.93" y1="859.22" x2="3762.99" y2="859.22" stroke-linecap="round" style="stroke:#202020;stroke-opacity:0.75;stroke-width:8.64"/>
	<line x1="554.15" y1="1967.56" x2="554.15" y2="1762.50" style="stroke:#606060;stroke-opacity:0.75;stroke-width:8.64"/>
	<line x1="532.13" y1="1762.50" x2="576.18" y2="1762.50" stroke-linecap="round" style="stroke:#606060;stroke-opacity:0.75;stroke-width:8.64"/>
	<line x1="532.13" y1="1967.56" x2="576.18" y2="1967.56" stroke-linecap="round" style="stroke:#606060;stroke-opacity:0.75;stroke-width:8.64"/>
	<line x1="2120.09" y1="1574.03" x2="2120.09" y2="1252.76" style="stroke:#606060;stroke-opacity:0.75;stroke-width:8.64"/>
	<line x1="2098.06" y1="1252.76" x2="2142.11" y2="1252.76" stroke-linecap="round" style="stroke:#606060;stroke-opacity:0.75;stroke-width:8.64"/>
	<line x1="2098.06" y1="1574.03" x2="2142.11" y2="1574.03" stroke-linecap="round" style="stroke:#606060;stroke-opacity:0.75;stroke-width:8.64"/>
	<line x1="3686.14" y1="1386.66" x2="3686.14" y2="978.65" style="stroke:#606060;stroke-opacity:0.75;stroke-width:8.64"/>
	<line x1="3664.11" y1="978.65" x2="3708.17" y2="978.65" stroke-linecap="round" style="stroke:#606060;stroke-opacity:0.75;stroke-width:8.64"/>
	<line x1="3664.11" y1="1386.66" x2="3708.17" y2="1386.66" stroke-linecap="round" style="stroke:#606060;stroke-opacity:0.75;stroke-width:8.64"/>
	<line x1="663.79" y1="2269.03" x2="663.79" y2="2009.14" style="stroke:#A0A0A0;stroke-opacity:0.75;stroke-width:8.64"/>
	<line x1="641.77" y1="2009.14" x2="685.82" y2="2009.14" stroke-linecap="round" style="stroke:#A0A0A0;stroke-opacity:0.75;stroke-width:8.64"/>
	<line x1="641.77" y1="2269.03" x2="685.82" y2="2269.03" stroke-linecap="round" style="stroke:#A0A0A0;stroke-opacity:0.75;stroke-width:8.64"/>
	<line x1="2229.73" y1="2132.16" x2="2229.73" y2="1722.16" style="stroke:#A0A0A0;stroke-opacity:0.75;stroke-width:8.64"/>
	<line x1="2207.70" y1="1722.16" x2="2251.76" y2="1722.16" stroke-linecap="round" style="stroke:#A0A0A0;stroke-opacity:0.75;stroke-width:8.64"/>
	<line x1="2207.70" y1="2132.16" x2="2251.76" y2="2132.16" stroke-linecap="round" style="stroke:#A0A0A0;stroke-opacity:0.75;stroke-width:8.64"/>
	<line x1="3795.66" y1="2077.46" x2="3795.66" y2="1566.11" style="stroke:#A0A0A0;stroke-opacity:0.75;stroke-width:8.64"/>
	<line x1="3773.63" y1="1566.11" x2="3817.69" y2="1566.11" stroke-linecap="round" style="stroke:#A0A0A0;stroke-opacity:0.75;stroke-width:8.64"/>
	<line x1="3773.63" y1="2077.46" x2="3817.69" y2="2077.46" stroke-linecap="round" style="stroke:#A0A0A0;stroke-opacity:0.75;stroke-width:8.64"/>
	<circle cx="608.85" cy="1578.23" r="26.35" style="fill:#202020"/>
	<circle cx="608.85" cy="1578.23" r="22.03" style="fill:none;stroke:#202020;stroke-width:8.64"/>
	<circle cx="2174.91" cy="914.79" r="26.35" style="fill:#202020"/>
	<circle cx="2174.91" cy="914.79" r="22.03" style="fill:none;stroke:#202020;stroke-width:8.64"/>
	<circle cx="3740.84" cy="578.67" r="26.35" style="fill:#202020"/>
	<circle cx="3740.84" cy="578.67" r="22.03" style="fill:none;stroke:#202020;stroke-width:8.64"/>
	<circle cx="554.03" cy="1865.09" r="26.35" style="fill:#606060"/>
	<circle cx="554.03" cy="1865.09" r="22.03" style="fill:none;stroke:#202020;stroke-width:8.64"/>
	<circle cx="2120.09" cy="1413.52" r="26.35" style="fill:#606060"/>
	<circle cx="2120.09" cy="1413.52" r="22.03" style="fill:none;stroke:#202020;stroke-width:8.64"/>
	<circle cx="3686.02" cy="1182.72" r="26.35" style="fill:#606060"/>
	<circle cx="3686.02" cy="1182.72" r="22.03" style="fill:none;stroke:#202020;stroke-width:8.64"/>
	<circle cx="663.67" cy="2139.09" r="26.35" style="fill:#A0A0A0"/>
	<circle cx="663.67" cy="2139.09" r="22.03" style="fill:none;stroke:#202020;stroke-width:8.64"/>
	<circle cx="2229.73" cy="1927.22" r="26.35" style="fill:#A0A0A0"/>
	<circle cx="2229.73" cy="1927.22" r="22.03" style="fill:none;stroke:#202020;stroke-width:8.64"/>
	<circle cx="3795.66" cy="1821.78" r="26.35" style="fill:#A0A0A0"/>
	<circle cx="3795.66" cy="1821.78" r="22.03" style="fill:none;stroke:#202020;stroke-width:8.64"/>
	<line x1="490.79" y1="2489.19" x2="490.79" y2="100.86" style="stroke:#000000;stroke-width:5.76"/>
	<line x1="490.79" y1="2425.82" x2="450.82" y2="2425.82" style="stroke:#000000;stroke-width:5.76"/>
	<text x="400.71" y="2425.82" style="font-family:'Helvetica';font-size:99.99px;fill:#000000" transform="rotate(-90 400.71,2425.82)" text-anchor="middle">0</text>
	<line x1="490.79" y1="1973.50" x2="450.82" y2="1973.50" style="stroke:#000000;stroke-width:5.76"/>
	<text x="400.71" y="1973.50" style="font-family:'Helvetica';font-size:99.99px;fill:#000000" transform="rotate(-90 400.71,1973.50)" text-anchor="middle">.01</text>
	<line x1="490.79" y1="1521.18" x2="450.82" y2="1521.18" style="stroke:#000000;stroke-width:5.76"/>
	<text x="400.71" y="1521.18" style="font-family:'Helvetica';font-size:99.99px;fill:#000000" transform="rotate(-90 400.71,1521.18)" text-anchor="middle">.02</text>
	<line x1="490.79" y1="1068.86" x2="450.82" y2="1068.86" style="stroke:#000000;stroke-width:5.76"/>
	<text x="400.71" y="1068.86" style="font-family:'Helvetica';font-size:99.99px;fill:#000000" transform="rotate(-90 400.71,1068.86)" text-anchor="middle">.03</text>
	<line x1="490.79" y1="616.54" x2="450.82" y2="616.54" style="stroke:#000000;stroke-width:5.76"/>
	<text x="400.71" y="616.54" style="font-family:'Helvetica';font-size:99.99px;fill:#000000" transform="rotate(-90 400.71,616.54)" text-anchor="middle">.04</text>
	<line x1="490.79" y1="164.22" x2="450.82" y2="164.22" style="stroke:#000000;stroke-width:5.76"/>
	<text x="400.71" y="164.22" style="font-family:'Helvetica';font-size:99.99px;fill:#000000" transform="rotate(-90 400.71,164.22)" text-anchor="middle">.05</text>
	<text x="190.71" y="1294.96" style="font-family:'Helvetica';font-size:99.99px;fill:#000000" transform="rotate(-90 190.71,1294.96)" text-anchor="middle">Standardized differences in the probability</text>
	<text x="290.70" y="1294.96" style="font-family:'Helvetica';font-size:99.99px;fill:#000000" transform="rotate(-90 290.70,1294.96)" text-anchor="middle">of imprisonment</text>
	<line x1="490.79" y1="2489.19" x2="3859.02" y2="2489.19" style="stroke:#000000;stroke-width:5.76"/>
	<line x1="608.97" y1="2489.19" x2="608.97" y2="2529.16" style="stroke:#000000;stroke-width:5.76"/>
	<text x="608.97" y="2619.14" style="font-family:'Helvetica';font-size:99.99px;fill:#000000" text-anchor="middle">1</text>
	<line x1="1391.94" y1="2489.19" x2="1391.94" y2="2529.16" style="stroke:#000000;stroke-width:5.76"/>
	<text x="1391.94" y="2619.14" style="font-family:'Helvetica';font-size:99.99px;fill:#000000" text-anchor="middle">2</text>
	<line x1="2174.91" y1="2489.19" x2="2174.91" y2="2529.16" style="stroke:#000000;stroke-width:5.76"/>
	<text x="2174.91" y="2619.14" style="font-family:'Helvetica';font-size:99.99px;fill:#000000" text-anchor="middle">3</text>
	<line x1="2957.87" y1="2489.19" x2="2957.87" y2="2529.16" style="stroke:#000000;stroke-width:5.76"/>
	<text x="2957.87" y="2619.14" style="font-family:'Helvetica';font-size:99.99px;fill:#000000" text-anchor="middle">4</text>
	<line x1="3740.96" y1="2489.19" x2="3740.96" y2="2529.16" style="stroke:#000000;stroke-width:5.76"/>
	<text x="3740.96" y="2619.14" style="font-family:'Helvetica';font-size:99.99px;fill:#000000" text-anchor="middle">5</text>
	<text x="2174.91" y="2729.16" style="font-family:'Helvetica';font-size:99.99px;fill:#000000" text-anchor="middle">Years from treatment outcome</text>
	<circle cx="590.53" cy="228.57" r="26.35" style="fill:#202020"/>
	<circle cx="590.53" cy="228.57" r="22.03" style="fill:none;stroke:#202020;stroke-width:8.64"/>
	<circle cx="590.53" cy="368.54" r="26.35" style="fill:#606060"/>
	<circle cx="590.53" cy="368.54" r="22.03" style="fill:none;stroke:#202020;stroke-width:8.64"/>
	<circle cx="590.53" cy="508.50" r="26.35" style="fill:#A0A0A0"/>
	<circle cx="590.53" cy="508.50" r="22.03" style="fill:none;stroke:#202020;stroke-width:8.64"/>
	<text x="672.58" y="263.60" style="font-family:'Helvetica';font-size:99.99px;fill:#000000">Early dropout vs. Tr. completion</text>
	<text x="672.58" y="403.57" style="font-family:'Helvetica';font-size:99.99px;fill:#000000">Late dropout vs. Tr. completion</text>
	<text x="672.58" y="543.53" style="font-family:'Helvetica';font-size:99.99px;fill:#000000">Late vs. early dropout</text>
</svg>
