<?xml version="1.0" encoding="UTF-8" standalone="no"?>
<!-- This is a Stata 16.1 generated SVG file (http://www.stata.com) -->

<svg version="1.1" width="5.50in" height="4.00in" viewBox="0 0 3960 2880" xmlns="http://www.w3.org/2000/svg" xmlns:xlink="http://www.w3.org/1999/xlink">
	<desc>Stata Graph - surv_diffs</desc>
	<rect x="0" y="0" width="3960" height="2880" style="fill:#FFFFFF;stroke:none"/>
	<rect x="0.00" y="0.00" width="3959.88" height="2880.00" style="fill:#FFFFFF"/>
	<rect x="2.88" y="2.88" width="3954.12" height="2874.24" style="fill:none;stroke:#FFFFFF;stroke-width:5.76"/>
	<rect x="390.80" y="636.34" width="3468.22" height="1852.84" style="fill:#FFFFFF"/>
	<rect x="393.68" y="639.22" width="3462.46" height="1847.08" style="fill:none;stroke:#FFFFFF;stroke-width:5.76"/>
	<line x1="390.80" y1="2425.82" x2="3859.02" y2="2425.82" style="stroke:#EAF2F3;stroke-width:8.64"/>
	<line x1="390.80" y1="2080.67" x2="3859.02" y2="2080.67" style="stroke:#EAF2F3;stroke-width:8.64"/>
	<line x1="390.80" y1="1735.40" x2="3859.02" y2="1735.40" style="stroke:#EAF2F3;stroke-width:8.64"/>
	<line x1="390.80" y1="1390.13" x2="3859.02" y2="1390.13" style="stroke:#EAF2F3;stroke-width:8.64"/>
	<line x1="390.80" y1="1044.85" x2="3859.02" y2="1044.85" style="stroke:#EAF2F3;stroke-width:8.64"/>
	<line x1="390.80" y1="699.70" x2="3859.02" y2="699.70" style="stroke:#EAF2F3;stroke-width:8.64"/>
	<defs>
		<path id="path_kWrnHtqn" d="M454.16 1735.40 L454.16 1735.40 L562.44 1671.42 L670.73 1624.52 L887.29 1551.25 L995.57 1521.80 L1103.85 1496.80 L1212.13 1475.52 L1320.54 1456.83 L1753.66 1396.56 L1861.94 1384.68 L1970.22 1374.29 L2078.51 1365.38 L2186.79 1357.70 L2295.07 1351.14 L2403.35 1345.58 L2511.63 1340.75 L2620.03 1336.79 L2836.60 1330.48 L2944.88 1328.00 L3053.16 1326.02 L3269.72 1322.93 L3378.00 1321.82 L3378.00 882.37 L3269.72 890.41 L3053.16 907.73 L2944.88 917.02 L2836.60 926.92 L2620.03 948.82 L2511.63 961.07 L2403.35 974.31 L2295.07 988.79 L2186.79 1004.76 L2078.51 1022.33 L1970.22 1041.88 L1861.94 1063.66 L1753.66 1087.43 L1320.54 1199.42 L1212.13 1231.85 L1103.85 1268.35 L995.57 1311.30 L887.29 1362.04 L670.73 1491.11 L562.44 1579.84 L454.16 1735.40 L454.16 1735.40 Z" stroke-linejoin="round"/>
	</defs>
	<defs>
		<clipPath id="clipPath_WqgyDOUg">
			<use xlink:href="#path_kWrnHtqn"/>
		</clipPath>
	</defs>
	<use xlink:href="#path_kWrnHtqn" style="stroke:none;fill:#8D8D8D;fill-opacity:0.35"/>
	<use xlink:href="#path_kWrnHtqn" style="fill:none;stroke:#707070;stroke-opacity:0.35;stroke-width:17.28" clip-path="url(#clipPath_WqgyDOUg)"/>
	<path d=" M454.04 1735.40 L562.32 1625.75 L670.60 1557.94 L887.29 1456.71 L995.57 1416.61 L1103.85 1382.58 L1212.13 1353.74 L1320.41 1328.13 L1753.54 1242.12 L1861.82 1224.17 L1970.22 1208.21 L2078.51 1193.85 L2186.79 1181.23 L2295.07 1169.97 L2403.35 1159.94 L2511.63 1151.03 L2619.91 1142.87 L2836.47 1128.76 L2944.76 1122.57 L3053.04 1116.88 L3269.72 1106.73 L3378.00 1102.15" stroke-linejoin="round" style="fill:none;stroke:#707070;stroke-width:23.04"/>
	<defs>
		<path id="path_SWnWiwLX" d="M454.16 1735.40 L454.16 1735.40 L670.73 1758.29 L779.01 1757.55 L995.57 1752.85 L1428.82 1742.21 L1537.10 1739.98 L1645.38 1738.12 L1753.66 1736.39 L2186.79 1732.43 L2295.07 1732.18 L3053.16 1735.52 L3161.44 1736.64 L3161.44 1408.94 L3053.16 1414.01 L2295.07 1456.21 L2186.79 1463.64 L1753.66 1499.90 L1645.38 1510.54 L1537.10 1521.68 L1428.82 1532.94 L995.57 1585.78 L779.01 1624.64 L670.73 1648.90 L454.16 1735.40 L454.16 1735.40 Z" stroke-linejoin="round"/>
	</defs>
	<defs>
		<clipPath id="clipPath_JDDWMKaO">
			<use xlink:href="#path_SWnWiwLX"/>
		</clipPath>
	</defs>
	<use xlink:href="#path_SWnWiwLX" style="stroke:none;fill:#4D4D4D;fill-opacity:0.35"/>
	<use xlink:href="#path_SWnWiwLX" style="fill:none;stroke:#202020;stroke-opacity:0.35;stroke-width:17.28" clip-path="url(#clipPath_JDDWMKaO)"/>
	<path d=" M454.04 1735.40 L670.60 1703.60 L779.01 1691.10 L995.57 1669.32 L1428.69 1637.63 L1536.97 1630.83 L1645.26 1624.39 L1753.54 1618.21 L2186.79 1598.16 L2295.07 1594.20 L3053.04 1574.89 L3161.32 1572.91" stroke-linejoin="round" style="fill:none;stroke:#202020;stroke-width:23.04"/>
	<defs>
		<path id="path_zTPDdQAU" d="M454.16 1735.40 L454.16 1735.40 L670.73 1926.85 L779.01 1977.96 L995.57 2056.54 L1428.82 2155.67 L1537.10 2175.72 L1645.38 2194.77 L1753.66 2212.84 L2186.79 2271.13 L2295.07 2282.39 L3053.16 2342.04 L3161.44 2348.72 L3161.44 1905.44 L3053.16 1906.18 L2295.07 1904.82 L2186.79 1903.09 L1753.66 1889.35 L1645.38 1884.03 L1537.10 1877.84 L1428.82 1871.03 L995.57 1832.30 L779.01 1800.99 L670.73 1781.93 L454.16 1735.40 L454.16 1735.40 Z" stroke-linejoin="round"/>
	</defs>
	<defs>
		<clipPath id="clipPath_oadiGikk">
			<use xlink:href="#path_zTPDdQAU"/>
		</clipPath>
	</defs>
	<use xlink:href="#path_zTPDdQAU" style="stroke:none;fill:#B3B3B3;fill-opacity:0.25"/>
	<use xlink:href="#path_zTPDdQAU" style="fill:none;stroke:#A0A0A0;stroke-opacity:0.25;stroke-width:17.28" clip-path="url(#clipPath_oadiGikk)"/>
	<path d=" M454.04 1735.40 L670.60 1854.45 L779.01 1889.47 L995.57 1944.54 L1428.69 2013.48 L1536.97 2026.84 L1645.26 2039.46 L1753.54 2051.22 L2186.79 2087.11 L2295.07 2093.67 L3053.04 2124.11 L3161.32 2127.08" stroke-linejoin="round" style="fill:none;stroke:#A0A0A0;stroke-width:23.04"/>
	<path d=" M454.04 1735.40 L562.32 1735.40 L670.60 1735.40 L779.01 1735.40 L887.29 1735.40 L995.57 1735.40 L1103.85 1735.40 L1212.13 1735.40 L1320.41 1735.40 L1428.69 1735.40 L1536.97 1735.40 L1645.26 1735.40 L1753.54 1735.40 L1861.82 1735.40 L1970.22 1735.40 L2078.51 1735.40 L2186.79 1735.40 L2295.07 1735.40 L2403.35 1735.40 L2511.63 1735.40 L2619.91 1735.40 L2728.19 1735.40 L2836.47 1735.40 L2944.76 1735.40 L3053.04 1735.40 L3161.32 1735.40 L3269.72 1735.40 L3378.00 1735.40" stroke-linejoin="round" style="fill:none;stroke:#000000;stroke-opacity:0.20;stroke-width:23.04"/>
	<line x1="390.80" y1="2489.19" x2="390.80" y2="636.34" style="stroke:#000000;stroke-width:5.76"/>
	<line x1="390.80" y1="2425.82" x2="350.83" y2="2425.82" style="stroke:#000000;stroke-width:5.76"/>
	<text x="300.72" y="2425.82" style="font-family:'Helvetica';font-size:99.99px;fill:#000000" transform="rotate(-90 300.72,2425.82)" text-anchor="middle">-.02</text>
	<line x1="390.80" y1="2080.67" x2="350.83" y2="2080.67" style="stroke:#000000;stroke-width:5.76"/>
	<text x="300.72" y="2080.67" style="font-family:'Helvetica';font-size:99.99px;fill:#000000" transform="rotate(-90 300.72,2080.67)" text-anchor="middle">-.01</text>
	<line x1="390.80" y1="1735.40" x2="350.83" y2="1735.40" style="stroke:#000000;stroke-width:5.76"/>
	<text x="300.72" y="1735.40" style="font-family:'Helvetica';font-size:99.99px;fill:#000000" transform="rotate(-90 300.72,1735.40)" text-anchor="middle">0</text>
	<line x1="390.80" y1="1390.13" x2="350.83" y2="1390.13" style="stroke:#000000;stroke-width:5.76"/>
	<text x="300.72" y="1390.13" style="font-family:'Helvetica';font-size:99.99px;fill:#000000" transform="rotate(-90 300.72,1390.13)" text-anchor="middle">.01</text>
	<line x1="390.80" y1="1044.85" x2="350.83" y2="1044.85" style="stroke:#000000;stroke-width:5.76"/>
	<text x="300.72" y="1044.85" style="font-family:'Helvetica';font-size:99.99px;fill:#000000" transform="rotate(-90 300.72,1044.85)" text-anchor="middle">.02</text>
	<line x1="390.80" y1="699.70" x2="350.83" y2="699.70" style="stroke:#000000;stroke-width:5.76"/>
	<text x="300.72" y="699.70" style="font-family:'Helvetica';font-size:99.99px;fill:#000000" transform="rotate(-90 300.72,699.70)" text-anchor="middle">.03</text>
	<text x="190.71" y="1562.76" style="font-family:'Helvetica';font-size:99.99px;fill:#000000" transform="rotate(-90 190.71,1562.76)" text-anchor="middle">Differences  of avoiding sentence (standardized)</text>
	<line x1="390.80" y1="2489.19" x2="3859.02" y2="2489.19" style="stroke:#000000;stroke-width:5.76"/>
	<line x1="454.16" y1="2489.19" x2="454.16" y2="2529.16" style="stroke:#000000;stroke-width:5.76"/>
	<text x="454.16" y="2619.14" style="font-family:'Helvetica';font-size:99.99px;fill:#000000" text-anchor="middle">0</text>
	<line x1="1289.47" y1="2489.19" x2="1289.47" y2="2529.16" style="stroke:#000000;stroke-width:5.76"/>
	<text x="1289.47" y="2619.14" style="font-family:'Helvetica';font-size:99.99px;fill:#000000" text-anchor="middle">2</text>
	<line x1="2124.91" y1="2489.19" x2="2124.91" y2="2529.16" style="stroke:#000000;stroke-width:5.76"/>
	<text x="2124.91" y="2619.14" style="font-family:'Helvetica';font-size:99.99px;fill:#000000" text-anchor="middle">4</text>
	<line x1="2960.35" y1="2489.19" x2="2960.35" y2="2529.16" style="stroke:#000000;stroke-width:5.76"/>
	<text x="2960.35" y="2619.14" style="font-family:'Helvetica';font-size:99.99px;fill:#000000" text-anchor="middle">6</text>
	<line x1="3795.66" y1="2489.19" x2="3795.66" y2="2529.16" style="stroke:#000000;stroke-width:5.76"/>
	<text x="3795.66" y="2619.14" style="font-family:'Helvetica';font-size:99.99px;fill:#000000" text-anchor="middle">8</text>
	<text x="2124.91" y="2729.16" style="font-family:'Helvetica';font-size:99.99px;fill:#000000" text-anchor="middle">Years from treatment outcome</text>
	<line x1="1946.96" y1="228.57" x2="2321.43" y2="228.57" style="stroke:#707070;stroke-width:23.04"/>
	<line x1="1946.96" y1="368.54" x2="2321.43" y2="368.54" style="stroke:#202020;stroke-width:23.04"/>
	<line x1="1946.96" y1="508.50" x2="2321.43" y2="508.50" style="stroke:#A0A0A0;stroke-width:23.04"/>
	<text x="2381.32" y="263.60" style="font-family:'Helvetica';font-size:99.99px;fill:#000000">Early vs. tr. completion</text>
	<text x="2381.32" y="403.57" style="font-family:'Helvetica';font-size:99.99px;fill:#000000">Late dropout vs. tr. completion</text>
	<text x="2381.32" y="543.53" style="font-family:'Helvetica';font-size:99.99px;fill:#000000">Late vs. early dropout</text>
</svg>
