<?xml version="1.0" encoding="UTF-8" standalone="no"?>
<!-- This is a Stata 16.1 generated SVG file (http://www.stata.com) -->

<svg version="1.1" width="5.50in" height="4.00in" viewBox="0 0 3960 2880" xmlns="http://www.w3.org/2000/svg" xmlns:xlink="http://www.w3.org/1999/xlink">
	<desc>Stata Graph - RMSTdiff_fin_abc</desc>
	<rect x="0" y="0" width="3960" height="2880" style="fill:#FFFFFF;stroke:none"/>
	<rect x="0.00" y="0.00" width="3959.88" height="2880.00" style="fill:#FFFFFF"/>
	<rect x="2.88" y="2.88" width="3954.12" height="2874.24" style="fill:none;stroke:#FFFFFF;stroke-width:5.76"/>
	<rect x="390.80" y="100.86" width="3468.22" height="2388.33" style="fill:#FFFFFF"/>
	<rect x="393.68" y="103.74" width="3462.46" height="2382.57" style="fill:none;stroke:#FFFFFF;stroke-width:5.76"/>
	<line x1="390.80" y1="2425.82" x2="3859.02" y2="2425.82" style="stroke:#EAF2F3;stroke-width:8.64"/>
	<line x1="390.80" y1="1671.91" x2="3859.02" y2="1671.91" style="stroke:#EAF2F3;stroke-width:8.64"/>
	<line x1="390.80" y1="918.01" x2="3859.02" y2="918.01" style="stroke:#EAF2F3;stroke-width:8.64"/>
	<line x1="390.80" y1="164.22" x2="3859.02" y2="164.22" style="stroke:#EAF2F3;stroke-width:8.64"/>
	<defs>
		<path id="path_gPLRivLI" d="M562.44 176.97 L562.44 176.97 L670.73 206.92 L887.29 298.87 L995.57 356.16 L1103.85 419.03 L1212.13 486.85 L1320.54 558.62 L1753.66 876.05 L1861.94 960.95 L1970.22 1047.70 L2078.51 1135.81 L2186.79 1225.29 L2295.07 1315.87 L2403.35 1407.58 L2511.63 1500.14 L2620.03 1593.70 L2728.32 1687.88 L2836.60 1782.92 L2944.88 1878.58 L3053.16 1974.86 L3269.72 2168.91 L3378.00 2266.80 L3378.00 1846.28 L3269.72 1771.17 L3053.16 1620.56 L2944.88 1545.31 L2836.60 1470.07 L2728.32 1394.95 L2620.03 1320.08 L2511.63 1245.46 L2403.35 1171.08 L2295.07 1097.20 L2186.79 1023.94 L2078.51 951.30 L1970.22 879.39 L1861.94 808.61 L1753.66 739.06 L1320.54 479.05 L1212.13 420.39 L1103.85 365.32 L995.57 314.46 L887.29 268.55 L670.73 196.27 L562.44 173.50 L562.44 176.97 Z" stroke-linejoin="round"/>
	</defs>
	<defs>
		<clipPath id="clipPath_TsnkVzUe">
			<use xlink:href="#path_gPLRivLI"/>
		</clipPath>
	</defs>
	<use xlink:href="#path_gPLRivLI" style="stroke:none;fill:#4D4D4D;fill-opacity:0.35"/>
	<use xlink:href="#path_gPLRivLI" style="fill:none;stroke:#202020;stroke-opacity:0.35;stroke-width:17.28" clip-path="url(#clipPath_TsnkVzUe)"/>
	<path d=" M454.04 164.22 L562.32 175.24 L670.60 201.60 L887.29 283.77 L995.57 335.37 L1103.85 392.30 L1212.13 453.68 L1320.41 518.90 L1753.54 807.62 L1861.82 884.84 L1970.22 963.67 L2078.51 1043.62 L2186.79 1124.68 L2295.07 1206.60 L2403.35 1289.39 L2511.63 1372.80 L2619.91 1456.95 L2728.19 1541.48 L2836.47 1626.62 L2944.76 1712.01 L3053.04 1797.77 L3269.72 1970.16 L3378.00 2056.67" stroke-linejoin="round" style="fill:none;stroke:#202020;stroke-width:8.64"/>
	<defs>
		<path id="path_KRaYRiZc" d="M670.73 221.15 L670.73 221.15 L779.01 274.61 L995.57 410.99 L1428.82 753.17 L1537.10 847.34 L1645.38 943.99 L1753.66 1042.50 L2186.79 1451.39 L2295.07 1556.33 L2728.32 1983.77 L3053.16 2309.99 L3161.44 2419.51 L3161.44 1966.33 L3053.16 1882.54 L2728.32 1629.84 L2295.07 1291.74 L2186.79 1207.59 L1753.66 876.30 L1645.38 795.86 L1537.10 716.91 L1428.82 639.68 L995.57 360.00 L779.01 250.11 L670.73 207.78 L670.73 221.15 Z" stroke-linejoin="round"/>
	</defs>
	<defs>
		<clipPath id="clipPath_tVjMGLhr">
			<use xlink:href="#path_KRaYRiZc"/>
		</clipPath>
	</defs>
	<use xlink:href="#path_KRaYRiZc" style="stroke:none;fill:#808080;fill-opacity:0.35"/>
	<use xlink:href="#path_KRaYRiZc" style="fill:none;stroke:#606060;stroke-opacity:0.35;stroke-width:17.28" clip-path="url(#clipPath_tVjMGLhr)"/>
	<path d=" M454.04 164.22 L670.60 214.47 L779.01 262.48 L995.57 385.62 L1428.69 696.49 L1536.97 782.12 L1645.26 869.99 L1753.54 959.46 L2186.79 1329.61 L2295.07 1424.16 L2728.19 1806.93 L3053.04 2096.27 L3161.32 2192.92" stroke-linejoin="round" style="fill:none;stroke:#606060;stroke-width:8.64"/>
	<defs>
		<path id="path_CMryicFJ" d="M562.44 171.28 L562.44 171.28 L779.01 203.45 L887.29 223.87 L1103.85 269.04 L1212.13 292.93 L1320.54 317.55 L1428.82 342.43 L1537.10 367.67 L1645.38 393.17 L1861.94 444.28 L1970.22 469.89 L2078.51 495.63 L2403.35 572.73 L2511.63 598.35 L2620.03 623.97 L2728.32 649.58 L2836.60 675.08 L2944.88 700.69 L3161.44 751.56 L3269.72 776.93 L3378.00 802.30 L3378.00 358.89 L3269.72 355.92 L3161.44 352.33 L2944.88 343.91 L2836.60 338.96 L2728.32 333.64 L2620.03 327.82 L2511.63 321.51 L2403.35 314.71 L2078.51 291.81 L1970.22 283.40 L1861.94 274.61 L1645.38 255.92 L1537.10 246.15 L1428.82 236.25 L1320.54 226.22 L1212.13 216.07 L1103.85 206.17 L887.29 187.36 L779.01 179.07 L562.44 166.57 L562.44 171.28 Z" stroke-linejoin="round"/>
	</defs>
	<defs>
		<clipPath id="clipPath_hyQDnjUV">
			<use xlink:href="#path_CMryicFJ"/>
		</clipPath>
	</defs>
	<use xlink:href="#path_CMryicFJ" style="stroke:none;fill:#B3B3B3;fill-opacity:0.35"/>
	<use xlink:href="#path_CMryicFJ" style="fill:none;stroke:#A0A0A0;stroke-opacity:0.35;stroke-width:17.28" clip-path="url(#clipPath_hyQDnjUV)"/>
	<path d=" M562.32 168.92 L779.01 191.32 L887.29 205.68 L1103.85 237.61 L1212.13 254.56 L1320.41 271.89 L1428.69 289.46 L1536.97 307.03 L1645.26 324.61 L1861.82 359.50 L1970.22 376.71 L2078.51 393.78 L2403.35 443.78 L2511.63 459.99 L2619.91 475.96 L2728.19 491.67 L2836.47 507.14 L2944.76 522.37 L3161.32 552.07 L3269.72 566.42 L3378.00 580.65" stroke-linejoin="round" style="fill:none;stroke:#A0A0A0;stroke-width:8.64"/>
	<path d=" M454.04 164.22 L562.32 164.22 L670.60 164.22 L779.01 164.22 L887.29 164.22 L995.57 164.22 L1103.85 164.22 L1212.13 164.22 L1320.41 164.22 L1428.69 164.22 L1536.97 164.22 L1645.26 164.22 L1753.54 164.22 L1861.82 164.22 L1970.22 164.22 L2078.51 164.22 L2186.79 164.22 L2295.07 164.22 L2403.35 164.22 L2511.63 164.22 L2619.91 164.22 L2728.19 164.22 L2836.47 164.22 L2944.76 164.22 L3053.04 164.22 L3161.32 164.22 L3269.72 164.22 L3378.00 164.22" stroke-linejoin="round" style="fill:none;stroke:#000000;stroke-opacity:0.20;stroke-width:23.04"/>
	<line x1="390.80" y1="2489.19" x2="390.80" y2="100.86" style="stroke:#000000;stroke-width:5.76"/>
	<line x1="390.80" y1="2425.82" x2="350.83" y2="2425.82" style="stroke:#000000;stroke-width:5.76"/>
	<text x="300.72" y="2425.82" style="font-family:'Helvetica';font-size:99.99px;fill:#000000" transform="rotate(-90 300.72,2425.82)" text-anchor="middle">-0.60</text>
	<line x1="390.80" y1="1671.91" x2="350.83" y2="1671.91" style="stroke:#000000;stroke-width:5.76"/>
	<text x="300.72" y="1671.91" style="font-family:'Helvetica';font-size:99.99px;fill:#000000" transform="rotate(-90 300.72,1671.91)" text-anchor="middle">-0.40</text>
	<line x1="390.80" y1="918.01" x2="350.83" y2="918.01" style="stroke:#000000;stroke-width:5.76"/>
	<text x="300.72" y="918.01" style="font-family:'Helvetica';font-size:99.99px;fill:#000000" transform="rotate(-90 300.72,918.01)" text-anchor="middle">-0.20</text>
	<line x1="390.80" y1="164.22" x2="350.83" y2="164.22" style="stroke:#000000;stroke-width:5.76"/>
	<text x="300.72" y="164.22" style="font-family:'Helvetica';font-size:99.99px;fill:#000000" transform="rotate(-90 300.72,164.22)" text-anchor="middle">0.00</text>
	<text x="190.71" y="1294.96" style="font-family:'Helvetica';font-size:99.99px;fill:#000000" transform="rotate(-90 190.71,1294.96)" text-anchor="middle">Difference in RMST (years)</text>
	<line x1="390.80" y1="2489.19" x2="3859.02" y2="2489.19" style="stroke:#000000;stroke-width:5.76"/>
	<line x1="454.16" y1="2489.19" x2="454.16" y2="2529.16" style="stroke:#000000;stroke-width:5.76"/>
	<text x="454.16" y="2619.14" style="font-family:'Helvetica';font-size:99.99px;fill:#000000" text-anchor="middle">0</text>
	<line x1="1289.47" y1="2489.19" x2="1289.47" y2="2529.16" style="stroke:#000000;stroke-width:5.76"/>
	<text x="1289.47" y="2619.14" style="font-family:'Helvetica';font-size:99.99px;fill:#000000" text-anchor="middle">2</text>
	<line x1="2124.91" y1="2489.19" x2="2124.91" y2="2529.16" style="stroke:#000000;stroke-width:5.76"/>
	<text x="2124.91" y="2619.14" style="font-family:'Helvetica';font-size:99.99px;fill:#000000" text-anchor="middle">4</text>
	<line x1="2960.35" y1="2489.19" x2="2960.35" y2="2529.16" style="stroke:#000000;stroke-width:5.76"/>
	<text x="2960.35" y="2619.14" style="font-family:'Helvetica';font-size:99.99px;fill:#000000" text-anchor="middle">6</text>
	<line x1="3795.66" y1="2489.19" x2="3795.66" y2="2529.16" style="stroke:#000000;stroke-width:5.76"/>
	<text x="3795.66" y="2619.14" style="font-family:'Helvetica';font-size:99.99px;fill:#000000" text-anchor="middle">8</text>
	<text x="2124.91" y="2729.16" style="font-family:'Helvetica';font-size:99.99px;fill:#000000" text-anchor="middle">Years from baseline treatment outcome</text>
	<rect x="468.52" y="2031.42" width="374.47" height="99.99" style="fill:#4D4D4D;fill-opacity:0.35"/>
	<rect x="472.84" y="2035.74" width="365.83" height="91.35" style="fill:none;stroke:#202020;stroke-opacity:0.35;stroke-width:8.64"/>
	<rect x="468.52" y="2171.51" width="374.47" height="99.99" style="fill:#808080;fill-opacity:0.35"/>
	<rect x="472.84" y="2175.83" width="365.83" height="91.35" style="fill:none;stroke:#606060;stroke-opacity:0.35;stroke-width:8.64"/>
	<rect x="468.52" y="2311.47" width="374.47" height="99.99" style="fill:#B3B3B3;fill-opacity:0.35"/>
	<rect x="472.84" y="2315.79" width="365.83" height="91.35" style="fill:none;stroke:#A0A0A0;stroke-opacity:0.35;stroke-width:8.64"/>
	<text x="902.88" y="2116.44" style="font-family:'Helvetica';font-size:99.99px;fill:#000000">Late dropout vs. Tr. completion</text>
	<text x="902.88" y="2256.53" style="font-family:'Helvetica';font-size:99.99px;fill:#000000">Early dropout vs. Tr. completion</text>
	<text x="902.88" y="2396.50" style="font-family:'Helvetica';font-size:99.99px;fill:#000000">Early vs. late dropout</text>
</svg>
