<?xml version="1.0" encoding="UTF-8" standalone="no"?>
<!-- This is a Stata 16.1 generated SVG file (http://www.stata.com) -->

<svg version="1.1" width="5.50in" height="4.00in" viewBox="0 0 3960 2880" xmlns="http://www.w3.org/2000/svg" xmlns:xlink="http://www.w3.org/1999/xlink">
	<desc>Stata Graph - rmst_std_fin_a</desc>
	<rect x="0" y="0" width="3960" height="2880" style="fill:#FFFFFF;stroke:none"/>
	<rect x="0.00" y="0.00" width="3959.88" height="2880.00" style="fill:#FFFFFF"/>
	<rect x="2.88" y="2.88" width="3954.12" height="2874.24" style="fill:none;stroke:#FFFFFF;stroke-width:5.76"/>
	<rect x="390.80" y="100.86" width="3468.22" height="2388.33" style="fill:#FFFFFF"/>
	<rect x="393.68" y="103.74" width="3462.46" height="2382.57" style="fill:none;stroke:#FFFFFF;stroke-width:5.76"/>
	<line x1="390.80" y1="2425.82" x2="3859.02" y2="2425.82" style="stroke:#EAF2F3;stroke-width:8.64"/>
	<line x1="390.80" y1="1860.39" x2="3859.02" y2="1860.39" style="stroke:#EAF2F3;stroke-width:8.64"/>
	<line x1="390.80" y1="1294.96" x2="3859.02" y2="1294.96" style="stroke:#EAF2F3;stroke-width:8.64"/>
	<line x1="390.80" y1="729.53" x2="3859.02" y2="729.53" style="stroke:#EAF2F3;stroke-width:8.64"/>
	<defs>
		<path id="path_RYRgRycV" d="M562.44 2352.81 L562.44 2352.81 L670.73 2280.04 L887.29 2135.37 L995.57 2063.35 L1103.85 1991.57 L1212.13 1919.92 L1320.54 1848.64 L1753.66 1565.73 L1861.94 1495.57 L1970.22 1425.64 L2078.51 1355.97 L2186.79 1286.42 L2295.07 1217.00 L2403.35 1147.82 L2511.63 1078.76 L2620.03 1009.83 L2728.32 941.15 L2836.60 872.46 L2944.88 803.91 L3053.16 735.59 L3269.72 599.09 L3378.00 530.90 L3378.00 513.08 L3269.72 582.14 L3053.16 720.62 L2944.88 790.04 L2836.60 859.47 L2728.32 929.14 L2620.03 998.82 L2511.63 1068.61 L2403.35 1138.54 L2295.07 1208.58 L2186.79 1278.75 L2078.51 1349.04 L1970.22 1419.46 L1861.94 1490.12 L1753.66 1560.91 L1320.54 1845.91 L1212.13 1917.69 L1103.85 1989.71 L995.57 2061.86 L887.29 2134.26 L670.73 2279.67 L562.44 2352.68 L562.44 2352.81 Z" stroke-linejoin="round"/>
	</defs>
	<defs>
		<clipPath id="clipPath_YnfifmIK">
			<use xlink:href="#path_RYRgRycV"/>
		</clipPath>
	</defs>
	<use xlink:href="#path_RYRgRycV" style="stroke:none;fill:#8D8D8D;fill-opacity:0.35"/>
	<use xlink:href="#path_RYRgRycV" style="fill:none;stroke:#707070;stroke-opacity:0.35;stroke-width:17.28" clip-path="url(#clipPath_YnfifmIK)"/>
	<defs>
		<path id="path_GzHlSyCY" d="M562.44 2352.93 L562.44 2352.93 L670.73 2280.54 L887.29 2136.98 L995.57 2065.82 L1103.85 1995.04 L1212.13 1924.50 L1320.54 1854.20 L1753.66 1576.13 L1861.94 1507.20 L1970.22 1438.51 L2078.51 1369.96 L2186.79 1301.77 L2295.07 1233.70 L2403.35 1165.76 L2511.63 1098.07 L2620.03 1030.50 L2728.32 963.18 L2836.60 895.98 L2944.88 828.90 L3053.16 762.08 L3269.72 628.79 L3378.00 562.46 L3378.00 553.18 L3269.72 620.01 L3053.16 754.28 L2944.88 821.60 L2836.60 889.05 L2728.32 956.74 L2620.03 1024.43 L2511.63 1092.38 L2403.35 1160.56 L2295.07 1228.88 L2186.79 1297.31 L2078.51 1366.00 L1970.22 1434.80 L1861.94 1503.86 L1753.66 1573.16 L1320.54 1852.60 L1212.13 1923.14 L1103.85 1993.92 L995.57 2064.96 L887.29 2136.36 L670.73 2280.29 L562.44 2352.81 L562.44 2352.93 Z" stroke-linejoin="round"/>
	</defs>
	<defs>
		<clipPath id="clipPath_LxCpItij">
			<use xlink:href="#path_GzHlSyCY"/>
		</clipPath>
	</defs>
	<use xlink:href="#path_GzHlSyCY" style="stroke:none;fill:#4D4D4D;fill-opacity:0.35"/>
	<use xlink:href="#path_GzHlSyCY" style="fill:none;stroke:#202020;stroke-opacity:0.35;stroke-width:17.28" clip-path="url(#clipPath_LxCpItij)"/>
	<path d=" M454.04 2425.95 L562.32 2352.81 L670.60 2279.92 L887.29 2134.88 L995.57 2062.73 L1103.85 1990.70 L1212.13 1918.93 L1320.41 1847.27 L1753.54 1563.38 L1861.82 1492.97 L1970.22 1422.67 L2078.51 1352.51 L2186.79 1282.59 L2295.07 1212.91 L2403.35 1143.24 L2511.63 1073.81 L2619.91 1004.39 L2728.19 935.21 L2836.47 866.03 L2944.76 797.10 L3053.04 728.17 L3269.72 590.68 L3378.00 522.12" stroke-linejoin="round" style="fill:none;stroke:#707070;stroke-width:23.04"/>
	<path d=" M454.04 2425.95 L562.32 2352.93 L670.60 2280.41 L887.29 2136.73 L995.57 2065.45 L1103.85 1994.54 L1212.13 1923.88 L1320.41 1853.46 L1753.54 1574.77 L1861.82 1505.59 L1970.22 1436.78 L2078.51 1368.10 L2186.79 1299.54 L2295.07 1231.35 L2403.35 1163.16 L2511.63 1095.35 L2619.91 1027.53 L2728.19 959.96 L2836.47 892.64 L2944.76 825.31 L3053.04 758.24 L3269.72 624.46 L3378.00 557.88" stroke-linejoin="round" style="fill:none;stroke:#202020;stroke-width:23.04"/>
	<line x1="390.80" y1="2489.19" x2="390.80" y2="100.86" style="stroke:#000000;stroke-width:5.76"/>
	<line x1="390.80" y1="2425.82" x2="350.83" y2="2425.82" style="stroke:#000000;stroke-width:5.76"/>
	<text x="300.72" y="2425.82" style="font-family:'Helvetica';font-size:99.99px;fill:#000000" transform="rotate(-90 300.72,2425.82)" text-anchor="middle">0</text>
	<line x1="390.80" y1="1860.39" x2="350.83" y2="1860.39" style="stroke:#000000;stroke-width:5.76"/>
	<text x="300.72" y="1860.39" style="font-family:'Helvetica';font-size:99.99px;fill:#000000" transform="rotate(-90 300.72,1860.39)" text-anchor="middle">2</text>
	<line x1="390.80" y1="1294.96" x2="350.83" y2="1294.96" style="stroke:#000000;stroke-width:5.76"/>
	<text x="300.72" y="1294.96" style="font-family:'Helvetica';font-size:99.99px;fill:#000000" transform="rotate(-90 300.72,1294.96)" text-anchor="middle">4</text>
	<line x1="390.80" y1="729.53" x2="350.83" y2="729.53" style="stroke:#000000;stroke-width:5.76"/>
	<text x="300.72" y="729.53" style="font-family:'Helvetica';font-size:99.99px;fill:#000000" transform="rotate(-90 300.72,729.53)" text-anchor="middle">6</text>
	<line x1="390.80" y1="164.22" x2="350.83" y2="164.22" style="stroke:#000000;stroke-width:5.76"/>
	<text x="300.72" y="164.22" style="font-family:'Helvetica';font-size:99.99px;fill:#000000" transform="rotate(-90 300.72,164.22)" text-anchor="middle">8</text>
	<text x="190.71" y="1294.96" style="font-family:'Helvetica';font-size:99.99px;fill:#000000" transform="rotate(-90 190.71,1294.96)" text-anchor="middle">Restricted Mean Survival Times (standardized)</text>
	<line x1="390.80" y1="2489.19" x2="3859.02" y2="2489.19" style="stroke:#000000;stroke-width:5.76"/>
	<line x1="454.16" y1="2489.19" x2="454.16" y2="2529.16" style="stroke:#000000;stroke-width:5.76"/>
	<text x="454.16" y="2619.14" style="font-family:'Helvetica';font-size:99.99px;fill:#000000" text-anchor="middle">0</text>
	<line x1="1289.47" y1="2489.19" x2="1289.47" y2="2529.16" style="stroke:#000000;stroke-width:5.76"/>
	<text x="1289.47" y="2619.14" style="font-family:'Helvetica';font-size:99.99px;fill:#000000" text-anchor="middle">2</text>
	<line x1="2124.91" y1="2489.19" x2="2124.91" y2="2529.16" style="stroke:#000000;stroke-width:5.76"/>
	<text x="2124.91" y="2619.14" style="font-family:'Helvetica';font-size:99.99px;fill:#000000" text-anchor="middle">4</text>
	<line x1="2960.35" y1="2489.19" x2="2960.35" y2="2529.16" style="stroke:#000000;stroke-width:5.76"/>
	<text x="2960.35" y="2619.14" style="font-family:'Helvetica';font-size:99.99px;fill:#000000" text-anchor="middle">6</text>
	<line x1="3795.66" y1="2489.19" x2="3795.66" y2="2529.16" style="stroke:#000000;stroke-width:5.76"/>
	<text x="3795.66" y="2619.14" style="font-family:'Helvetica';font-size:99.99px;fill:#000000" text-anchor="middle">8</text>
	<text x="2124.91" y="2729.16" style="font-family:'Helvetica';font-size:99.99px;fill:#000000" text-anchor="middle">Years from treatment outcome</text>
	<rect x="2690.70" y="2171.51" width="374.34" height="99.99" style="fill:#8D8D8D;fill-opacity:0.35"/>
	<rect x="2695.02" y="2175.83" width="365.70" height="91.35" style="fill:none;stroke:#707070;stroke-opacity:0.35;stroke-width:8.64"/>
	<rect x="2690.70" y="2311.47" width="374.34" height="99.99" style="fill:#4D4D4D;fill-opacity:0.35"/>
	<rect x="2695.02" y="2315.79" width="365.70" height="91.35" style="fill:none;stroke:#202020;stroke-opacity:0.35;stroke-width:8.64"/>
	<text x="3125.06" y="2256.53" style="font-family:'Helvetica';font-size:99.99px;fill:#000000">Tr. completion</text>
	<text x="3125.06" y="2396.50" style="font-family:'Helvetica';font-size:99.99px;fill:#000000">Late dropout</text>
</svg>
