<?xml version="1.0" encoding="UTF-8" standalone="no"?>
<!-- This is a Stata 16.1 generated SVG file (http://www.stata.com) -->

<svg version="1.1" width="5.50in" height="4.00in" viewBox="0 0 3960 2880" xmlns="http://www.w3.org/2000/svg" xmlns:xlink="http://www.w3.org/1999/xlink">
	<desc>Stata Graph - s_diff_fin_ab</desc>
	<rect x="0" y="0" width="3960" height="2880" style="fill:#FFFFFF;stroke:none"/>
	<rect x="0.00" y="0.00" width="3959.88" height="2880.00" style="fill:#FFFFFF"/>
	<rect x="2.88" y="2.88" width="3954.12" height="2874.24" style="fill:none;stroke:#FFFFFF;stroke-width:5.76"/>
	<rect x="390.80" y="100.86" width="3468.22" height="2388.33" style="fill:#FFFFFF"/>
	<rect x="393.68" y="103.74" width="3462.46" height="2382.57" style="fill:none;stroke:#FFFFFF;stroke-width:5.76"/>
	<line x1="390.80" y1="2425.82" x2="3859.02" y2="2425.82" style="stroke:#EAF2F3;stroke-width:8.64"/>
	<line x1="390.80" y1="1973.50" x2="3859.02" y2="1973.50" style="stroke:#EAF2F3;stroke-width:8.64"/>
	<line x1="390.80" y1="1521.18" x2="3859.02" y2="1521.18" style="stroke:#EAF2F3;stroke-width:8.64"/>
	<line x1="390.80" y1="1068.86" x2="3859.02" y2="1068.86" style="stroke:#EAF2F3;stroke-width:8.64"/>
	<line x1="390.80" y1="616.54" x2="3859.02" y2="616.54" style="stroke:#EAF2F3;stroke-width:8.64"/>
	<line x1="390.80" y1="164.22" x2="3859.02" y2="164.22" style="stroke:#EAF2F3;stroke-width:8.64"/>
	<defs>
		<path id="path_psGmsIDY" d="M454.16 164.22 L454.16 164.22 L562.44 567.91 L670.73 823.46 L779.01 1017.50 L887.29 1170.59 L995.57 1297.81 L1103.85 1407.95 L1212.13 1505.71 L1320.54 1592.84 L1428.82 1670.68 L1537.10 1740.60 L1645.38 1803.34 L1753.66 1860.14 L1861.94 1911.75 L1970.22 1959.15 L2078.51 2002.83 L2186.79 2043.42 L2295.07 2081.29 L2403.35 2116.81 L2511.63 2150.10 L2620.03 2181.53 L2728.32 2211.23 L2836.60 2239.33 L2944.88 2266.18 L3053.16 2291.55 L3161.44 2315.81 L3269.72 2339.07 L3378.00 2361.22 L3378.00 1603.23 L3269.72 1595.68 L3161.44 1587.27 L3053.16 1577.86 L2944.88 1567.59 L2836.60 1556.08 L2728.32 1543.46 L2620.03 1529.35 L2511.63 1513.63 L2403.35 1496.18 L2295.07 1476.63 L2186.79 1454.73 L2078.51 1430.22 L1970.22 1402.63 L1861.94 1371.44 L1753.66 1336.05 L1645.38 1295.70 L1537.10 1249.42 L1428.82 1196.58 L1320.54 1136.06 L1212.13 1067.13 L1103.85 988.79 L995.57 899.69 L887.29 797.47 L779.01 677.18 L670.73 532.88 L562.44 360.62 L454.16 164.22 L454.16 164.22 Z" stroke-linejoin="round"/>
	</defs>
	<defs>
		<clipPath id="clipPath_DmYpihcC">
			<use xlink:href="#path_psGmsIDY"/>
		</clipPath>
	</defs>
	<use xlink:href="#path_psGmsIDY" style="stroke:none;fill:#3333FF;fill-opacity:0.20"/>
	<use xlink:href="#path_psGmsIDY" style="fill:none;stroke:#0000FF;stroke-opacity:0.20;stroke-width:17.28" clip-path="url(#clipPath_DmYpihcC)"/>
	<path d=" M454.04 164.22 L562.32 464.32 L670.60 678.29 L779.01 847.34 L887.29 984.09 L995.57 1098.81 L1103.85 1198.43 L1212.13 1286.42 L1320.41 1364.51 L1428.69 1433.69 L1536.97 1495.07 L1645.26 1549.52 L1753.54 1598.16 L1861.82 1641.60 L1970.22 1680.95 L2078.51 1716.59 L2186.79 1749.14 L2295.07 1779.09 L2403.35 1806.56 L2511.63 1831.93 L2619.91 1855.44 L2728.19 1877.35 L2836.47 1897.77 L2944.76 1916.95 L3053.04 1934.77 L3161.32 1951.60 L3269.72 1967.44 L3378.00 1982.29" stroke-linejoin="round" style="fill:none;stroke:#0000FF;stroke-width:8.64"/>
	<defs>
		<path id="path_tXVSfpiW" d="M454.16 164.22 L454.16 164.22 L562.44 164.22 L670.73 164.22 L779.01 164.22 L887.29 164.22 L995.57 164.22 L1103.85 164.22 L1212.13 164.22 L1320.54 164.22 L1428.82 164.22 L1537.10 164.22 L1645.38 164.22 L1753.66 164.22 L1861.94 164.22 L1970.22 164.22 L2078.51 164.22 L2186.79 164.22 L2295.07 164.22 L2403.35 164.22 L2511.63 164.22 L2620.03 164.22 L2728.32 164.22 L2836.60 164.22 L2944.88 164.22 L3053.16 164.22 L3161.44 164.22 L3269.72 164.22 L3378.00 164.22 L3378.00 164.22 L3269.72 164.22 L3161.44 164.22 L3053.16 164.22 L2944.88 164.22 L2836.60 164.22 L2728.32 164.22 L2620.03 164.22 L2511.63 164.22 L2403.35 164.22 L2295.07 164.22 L2186.79 164.22 L2078.51 164.22 L1970.22 164.22 L1861.94 164.22 L1753.66 164.22 L1645.38 164.22 L1537.10 164.22 L1428.82 164.22 L1320.54 164.22 L1212.13 164.22 L1103.85 164.22 L995.57 164.22 L887.29 164.22 L779.01 164.22 L670.73 164.22 L562.44 164.22 L454.16 164.22 L454.16 164.22 Z" stroke-linejoin="round"/>
	</defs>
	<defs>
		<clipPath id="clipPath_uAtQSQPe">
			<use xlink:href="#path_tXVSfpiW"/>
		</clipPath>
	</defs>
	<use xlink:href="#path_tXVSfpiW" style="stroke:none;fill:#FF3333;fill-opacity:0.20"/>
	<use xlink:href="#path_tXVSfpiW" style="fill:none;stroke:#FF0000;stroke-opacity:0.20;stroke-width:17.28" clip-path="url(#clipPath_uAtQSQPe)"/>
	<path d=" M454.04 164.22 L562.32 164.22 L670.60 164.22 L779.01 164.22 L887.29 164.22 L995.57 164.22 L1103.85 164.22 L1212.13 164.22 L1320.41 164.22 L1428.69 164.22 L1536.97 164.22 L1645.26 164.22 L1753.54 164.22 L1861.82 164.22 L1970.22 164.22 L2078.51 164.22 L2186.79 164.22 L2295.07 164.22 L2403.35 164.22 L2511.63 164.22 L2619.91 164.22 L2728.19 164.22 L2836.47 164.22 L2944.76 164.22 L3053.04 164.22 L3161.32 164.22 L3269.72 164.22 L3378.00 164.22" stroke-linejoin="round" style="fill:none;stroke:#FF0000;stroke-width:8.64"/>
	<path d=" M454.04 164.22 L562.32 164.22 L670.60 164.22 L779.01 164.22 L887.29 164.22 L995.57 164.22 L1103.85 164.22 L1212.13 164.22 L1320.41 164.22 L1428.69 164.22 L1536.97 164.22 L1645.26 164.22 L1753.54 164.22 L1861.82 164.22 L1970.22 164.22 L2078.51 164.22 L2186.79 164.22 L2295.07 164.22 L2403.35 164.22 L2511.63 164.22 L2619.91 164.22 L2728.19 164.22 L2836.47 164.22 L2944.76 164.22 L3053.04 164.22 L3161.32 164.22 L3269.72 164.22 L3378.00 164.22" stroke-linejoin="round" style="fill:none;stroke:#000000;stroke-opacity:0.20;stroke-width:23.04"/>
	<line x1="390.80" y1="2489.19" x2="390.80" y2="100.86" style="stroke:#000000;stroke-width:5.76"/>
	<line x1="390.80" y1="2425.82" x2="350.83" y2="2425.82" style="stroke:#000000;stroke-width:5.76"/>
	<text x="300.72" y="2425.82" style="font-family:'Helvetica';font-size:99.99px;fill:#000000" transform="rotate(-90 300.72,2425.82)" text-anchor="middle">-0.1</text>
	<line x1="390.80" y1="1973.50" x2="350.83" y2="1973.50" style="stroke:#000000;stroke-width:5.76"/>
	<text x="300.72" y="1973.50" style="font-family:'Helvetica';font-size:99.99px;fill:#000000" transform="rotate(-90 300.72,1973.50)" text-anchor="middle">-0.0</text>
	<line x1="390.80" y1="1521.18" x2="350.83" y2="1521.18" style="stroke:#000000;stroke-width:5.76"/>
	<text x="300.72" y="1521.18" style="font-family:'Helvetica';font-size:99.99px;fill:#000000" transform="rotate(-90 300.72,1521.18)" text-anchor="middle">-0.0</text>
	<line x1="390.80" y1="1068.86" x2="350.83" y2="1068.86" style="stroke:#000000;stroke-width:5.76"/>
	<text x="300.72" y="1068.86" style="font-family:'Helvetica';font-size:99.99px;fill:#000000" transform="rotate(-90 300.72,1068.86)" text-anchor="middle">-0.0</text>
	<line x1="390.80" y1="616.54" x2="350.83" y2="616.54" style="stroke:#000000;stroke-width:5.76"/>
	<text x="300.72" y="616.54" style="font-family:'Helvetica';font-size:99.99px;fill:#000000" transform="rotate(-90 300.72,616.54)" text-anchor="middle">-0.0</text>
	<line x1="390.80" y1="164.22" x2="350.83" y2="164.22" style="stroke:#000000;stroke-width:5.76"/>
	<text x="300.72" y="164.22" style="font-family:'Helvetica';font-size:99.99px;fill:#000000" transform="rotate(-90 300.72,164.22)" text-anchor="middle">0.0</text>
	<text x="190.71" y="1294.96" style="font-family:'Helvetica';font-size:99.99px;fill:#000000" transform="rotate(-90 190.71,1294.96)" text-anchor="middle">Difference in Survival (years)</text>
	<line x1="390.80" y1="2489.19" x2="3859.02" y2="2489.19" style="stroke:#000000;stroke-width:5.76"/>
	<line x1="454.16" y1="2489.19" x2="454.16" y2="2529.16" style="stroke:#000000;stroke-width:5.76"/>
	<text x="454.16" y="2619.14" style="font-family:'Helvetica';font-size:99.99px;fill:#000000" text-anchor="middle">0</text>
	<line x1="1289.47" y1="2489.19" x2="1289.47" y2="2529.16" style="stroke:#000000;stroke-width:5.76"/>
	<text x="1289.47" y="2619.14" style="font-family:'Helvetica';font-size:99.99px;fill:#000000" text-anchor="middle">2</text>
	<line x1="2124.91" y1="2489.19" x2="2124.91" y2="2529.16" style="stroke:#000000;stroke-width:5.76"/>
	<text x="2124.91" y="2619.14" style="font-family:'Helvetica';font-size:99.99px;fill:#000000" text-anchor="middle">4</text>
	<line x1="2960.35" y1="2489.19" x2="2960.35" y2="2529.16" style="stroke:#000000;stroke-width:5.76"/>
	<text x="2960.35" y="2619.14" style="font-family:'Helvetica';font-size:99.99px;fill:#000000" text-anchor="middle">6</text>
	<line x1="3795.66" y1="2489.19" x2="3795.66" y2="2529.16" style="stroke:#000000;stroke-width:5.76"/>
	<text x="3795.66" y="2619.14" style="font-family:'Helvetica';font-size:99.99px;fill:#000000" text-anchor="middle">8</text>
	<text x="2124.91" y="2729.16" style="font-family:'Helvetica';font-size:99.99px;fill:#000000" text-anchor="middle">Years from baseline treatment outcome</text>
	<rect x="1553.31" y="178.58" width="374.34" height="99.99" style="fill:#3333FF;fill-opacity:0.20"/>
	<rect x="1557.63" y="182.90" width="365.70" height="91.35" style="fill:none;stroke:#0000FF;stroke-opacity:0.20;stroke-width:8.64"/>
	<rect x="1553.31" y="318.54" width="374.34" height="99.99" style="fill:#FF3333;fill-opacity:0.20"/>
	<rect x="1557.63" y="322.86" width="365.70" height="91.35" style="fill:none;stroke:#FF0000;stroke-opacity:0.20;stroke-width:8.64"/>
	<text x="1987.67" y="263.60" style="font-family:'Helvetica';font-size:99.99px;fill:#000000">Late dropout vs. Early &amp; Tr. completion</text>
	<text x="1987.67" y="403.57" style="font-family:'Helvetica';font-size:99.99px;fill:#000000">Noncompletion vs. completion</text>
</svg>
