<?xml version="1.0" encoding="UTF-8" standalone="no"?>
<!-- This is a Stata 16.1 generated SVG file (http://www.stata.com) -->

<svg version="1.1" width="5.50in" height="4.00in" viewBox="0 0 3960 2880" xmlns="http://www.w3.org/2000/svg" xmlns:xlink="http://www.w3.org/1999/xlink">
	<desc>Stata Graph - surv_diffs</desc>
	<rect x="0" y="0" width="3960" height="2880" style="fill:#FFFFFF;stroke:none"/>
	<rect x="0.00" y="0.00" width="3959.88" height="2880.00" style="fill:#FFFFFF"/>
	<rect x="2.88" y="2.88" width="3954.12" height="2874.24" style="fill:none;stroke:#FFFFFF;stroke-width:5.76"/>
	<rect x="390.80" y="636.34" width="3468.22" height="1852.84" style="fill:#FFFFFF"/>
	<rect x="393.68" y="639.22" width="3462.46" height="1847.08" style="fill:none;stroke:#FFFFFF;stroke-width:5.76"/>
	<line x1="390.80" y1="2425.82" x2="3859.02" y2="2425.82" style="stroke:#EAF2F3;stroke-width:8.64"/>
	<line x1="390.80" y1="2080.67" x2="3859.02" y2="2080.67" style="stroke:#EAF2F3;stroke-width:8.64"/>
	<line x1="390.80" y1="1735.40" x2="3859.02" y2="1735.40" style="stroke:#EAF2F3;stroke-width:8.64"/>
	<line x1="390.80" y1="1390.13" x2="3859.02" y2="1390.13" style="stroke:#EAF2F3;stroke-width:8.64"/>
	<line x1="390.80" y1="1044.85" x2="3859.02" y2="1044.85" style="stroke:#EAF2F3;stroke-width:8.64"/>
	<line x1="390.80" y1="699.70" x2="3859.02" y2="699.70" style="stroke:#EAF2F3;stroke-width:8.64"/>
	<defs>
		<path id="path_WNdOLuIl" d="M454.16 1735.40 L454.16 1735.40 L562.44 1527.25 L670.73 1406.71 L887.29 1260.93 L995.57 1213.78 L1103.85 1177.27 L1212.13 1148.68 L1320.54 1126.16 L1645.38 1082.10 L1753.66 1072.95 L1861.94 1066.02 L1970.22 1061.31 L2078.51 1058.22 L2186.79 1056.61 L2295.07 1056.24 L2403.35 1056.73 L2511.63 1058.10 L2620.03 1059.95 L2728.32 1062.18 L2836.60 1064.90 L3053.16 1071.21 L3161.44 1074.68 L3269.72 1078.14 L3378.00 1081.86 L3378.00 723.09 L3269.72 722.97 L3161.44 722.97 L3053.16 723.22 L2836.60 724.70 L2728.32 725.94 L2620.03 727.67 L2511.63 730.15 L2403.35 733.24 L2295.07 737.33 L2186.79 742.65 L2078.51 749.45 L1970.22 757.99 L1861.94 768.76 L1753.66 782.12 L1645.38 798.21 L1320.54 866.52 L1212.13 898.70 L1103.85 938.43 L995.57 988.17 L887.29 1051.29 L670.73 1247.32 L562.44 1414.51 L454.16 1735.40 L454.16 1735.40 Z" stroke-linejoin="round"/>
	</defs>
	<defs>
		<clipPath id="clipPath_HMFRlObr">
			<use xlink:href="#path_WNdOLuIl"/>
		</clipPath>
	</defs>
	<use xlink:href="#path_WNdOLuIl" style="stroke:none;fill:#8D8D8D;fill-opacity:0.35"/>
	<use xlink:href="#path_WNdOLuIl" style="fill:none;stroke:#707070;stroke-opacity:0.35;stroke-width:17.28" clip-path="url(#clipPath_HMFRlObr)"/>
	<path d=" M454.04 1735.40 L562.32 1470.94 L670.60 1327.01 L887.29 1156.11 L995.57 1101.04 L1103.85 1057.85 L1212.13 1023.69 L1320.41 996.47 L1645.26 940.16 L1753.54 927.54 L1861.82 917.51 L1970.22 909.71 L2078.51 903.90 L2186.79 899.69 L2295.07 896.84 L2403.35 895.11 L2511.63 894.12 L2619.91 893.87 L2728.19 894.12 L2836.47 894.86 L3053.04 897.34 L3161.32 898.82 L3269.72 900.68 L3378.00 902.54" stroke-linejoin="round" style="fill:none;stroke:#707070;stroke-width:23.04"/>
	<defs>
		<path id="path_XGwIyxCK" d="M454.16 1735.40 L454.16 1735.40 L670.73 1632.93 L779.01 1578.85 L995.57 1489.13 L1428.82 1365.01 L1537.10 1341.86 L1645.38 1321.07 L1970.22 1271.32 L2078.51 1258.45 L2836.60 1202.52 L2944.88 1197.57 L3269.72 1185.31 L3378.00 1181.85 L3378.00 912.93 L3269.72 919.49 L2944.88 941.52 L2836.60 949.81 L2078.51 1030.99 L1970.22 1047.95 L1645.38 1111.43 L1537.10 1137.30 L1428.82 1165.64 L995.57 1317.36 L779.01 1432.33 L670.73 1507.69 L454.16 1735.40 L454.16 1735.40 Z" stroke-linejoin="round"/>
	</defs>
	<defs>
		<clipPath id="clipPath_vYWJrRSJ">
			<use xlink:href="#path_XGwIyxCK"/>
		</clipPath>
	</defs>
	<use xlink:href="#path_XGwIyxCK" style="stroke:none;fill:#4D4D4D;fill-opacity:0.35"/>
	<use xlink:href="#path_XGwIyxCK" style="fill:none;stroke:#202020;stroke-opacity:0.35;stroke-width:17.28" clip-path="url(#clipPath_vYWJrRSJ)"/>
	<path d=" M454.04 1735.40 L670.60 1570.44 L779.01 1505.71 L995.57 1403.37 L1428.69 1265.38 L1536.97 1239.64 L1645.26 1216.25 L1970.22 1159.70 L2078.51 1144.85 L2836.47 1076.16 L2944.76 1069.60 L3269.72 1052.40 L3378.00 1047.45" stroke-linejoin="round" style="fill:none;stroke:#202020;stroke-width:23.04"/>
	<defs>
		<path id="path_IYNwMwNy" d="M454.16 1735.40 L454.16 1735.40 L670.73 2048.99 L779.01 2106.91 L995.57 2171.01 L1428.82 2220.02 L1537.10 2225.34 L1645.38 2229.30 L1970.22 2234.25 L2078.51 2234.13 L2836.60 2223.36 L2944.88 2221.38 L3269.72 2215.07 L3378.00 2213.09 L3378.00 1849.25 L3269.72 1854.95 L2944.88 1872.27 L2836.60 1878.21 L2078.51 1920.17 L1970.22 1925.61 L1645.38 1939.47 L1537.10 1942.69 L1428.82 1945.16 L995.57 1936.87 L779.01 1908.53 L670.73 1880.07 L454.16 1735.40 L454.16 1735.40 Z" stroke-linejoin="round"/>
	</defs>
	<defs>
		<clipPath id="clipPath_lIOyqnVA">
			<use xlink:href="#path_IYNwMwNy"/>
		</clipPath>
	</defs>
	<use xlink:href="#path_IYNwMwNy" style="stroke:none;fill:#B3B3B3;fill-opacity:0.25"/>
	<use xlink:href="#path_IYNwMwNy" style="fill:none;stroke:#A0A0A0;stroke-opacity:0.25;stroke-width:17.28" clip-path="url(#clipPath_lIOyqnVA)"/>
	<path d=" M454.04 1735.40 L670.60 1964.59 L779.01 2007.78 L995.57 2053.94 L1428.69 2082.65 L1536.97 2084.14 L1645.26 2084.39 L1970.22 2079.93 L2078.51 2077.21 L2836.47 2050.85 L2944.76 2046.89 L3269.72 2035.13 L3378.00 2031.30" stroke-linejoin="round" style="fill:none;stroke:#A0A0A0;stroke-width:23.04"/>
	<path d=" M454.04 1735.40 L562.32 1735.40 L670.60 1735.40 L779.01 1735.40 L887.29 1735.40 L995.57 1735.40 L1103.85 1735.40 L1212.13 1735.40 L1320.41 1735.40 L1428.69 1735.40 L1536.97 1735.40 L1645.26 1735.40 L1753.54 1735.40 L1861.82 1735.40 L1970.22 1735.40 L2078.51 1735.40 L2186.79 1735.40 L2295.07 1735.40 L2403.35 1735.40 L2511.63 1735.40 L2619.91 1735.40 L2728.19 1735.40 L2836.47 1735.40 L2944.76 1735.40 L3053.04 1735.40 L3161.32 1735.40 L3269.72 1735.40 L3378.00 1735.40" stroke-linejoin="round" style="fill:none;stroke:#000000;stroke-opacity:0.20;stroke-width:23.04"/>
	<line x1="390.80" y1="2489.19" x2="390.80" y2="636.34" style="stroke:#000000;stroke-width:5.76"/>
	<line x1="390.80" y1="2425.82" x2="350.83" y2="2425.82" style="stroke:#000000;stroke-width:5.76"/>
	<text x="300.72" y="2425.82" style="font-family:'Helvetica';font-size:99.99px;fill:#000000" transform="rotate(-90 300.72,2425.82)" text-anchor="middle">-.04</text>
	<line x1="390.80" y1="2080.67" x2="350.83" y2="2080.67" style="stroke:#000000;stroke-width:5.76"/>
	<text x="300.72" y="2080.67" style="font-family:'Helvetica';font-size:99.99px;fill:#000000" transform="rotate(-90 300.72,2080.67)" text-anchor="middle">-.02</text>
	<line x1="390.80" y1="1735.40" x2="350.83" y2="1735.40" style="stroke:#000000;stroke-width:5.76"/>
	<text x="300.72" y="1735.40" style="font-family:'Helvetica';font-size:99.99px;fill:#000000" transform="rotate(-90 300.72,1735.40)" text-anchor="middle">0</text>
	<line x1="390.80" y1="1390.13" x2="350.83" y2="1390.13" style="stroke:#000000;stroke-width:5.76"/>
	<text x="300.72" y="1390.13" style="font-family:'Helvetica';font-size:99.99px;fill:#000000" transform="rotate(-90 300.72,1390.13)" text-anchor="middle">.02</text>
	<line x1="390.80" y1="1044.85" x2="350.83" y2="1044.85" style="stroke:#000000;stroke-width:5.76"/>
	<text x="300.72" y="1044.85" style="font-family:'Helvetica';font-size:99.99px;fill:#000000" transform="rotate(-90 300.72,1044.85)" text-anchor="middle">.04</text>
	<line x1="390.80" y1="699.70" x2="350.83" y2="699.70" style="stroke:#000000;stroke-width:5.76"/>
	<text x="300.72" y="699.70" style="font-family:'Helvetica';font-size:99.99px;fill:#000000" transform="rotate(-90 300.72,699.70)" text-anchor="middle">.06</text>
	<text x="190.71" y="1562.76" style="font-family:'Helvetica';font-size:99.99px;fill:#000000" transform="rotate(-90 190.71,1562.76)" text-anchor="middle">Differences  of avoiding sentence (standardized)</text>
	<line x1="390.80" y1="2489.19" x2="3859.02" y2="2489.19" style="stroke:#000000;stroke-width:5.76"/>
	<line x1="454.16" y1="2489.19" x2="454.16" y2="2529.16" style="stroke:#000000;stroke-width:5.76"/>
	<text x="454.16" y="2619.14" style="font-family:'Helvetica';font-size:99.99px;fill:#000000" text-anchor="middle">0</text>
	<line x1="1289.47" y1="2489.19" x2="1289.47" y2="2529.16" style="stroke:#000000;stroke-width:5.76"/>
	<text x="1289.47" y="2619.14" style="font-family:'Helvetica';font-size:99.99px;fill:#000000" text-anchor="middle">2</text>
	<line x1="2124.91" y1="2489.19" x2="2124.91" y2="2529.16" style="stroke:#000000;stroke-width:5.76"/>
	<text x="2124.91" y="2619.14" style="font-family:'Helvetica';font-size:99.99px;fill:#000000" text-anchor="middle">4</text>
	<line x1="2960.35" y1="2489.19" x2="2960.35" y2="2529.16" style="stroke:#000000;stroke-width:5.76"/>
	<text x="2960.35" y="2619.14" style="font-family:'Helvetica';font-size:99.99px;fill:#000000" text-anchor="middle">6</text>
	<line x1="3795.66" y1="2489.19" x2="3795.66" y2="2529.16" style="stroke:#000000;stroke-width:5.76"/>
	<text x="3795.66" y="2619.14" style="font-family:'Helvetica';font-size:99.99px;fill:#000000" text-anchor="middle">8</text>
	<text x="2124.91" y="2729.16" style="font-family:'Helvetica';font-size:99.99px;fill:#000000" text-anchor="middle">Years from treatment outcome</text>
	<line x1="1946.96" y1="228.57" x2="2321.43" y2="228.57" style="stroke:#707070;stroke-width:23.04"/>
	<line x1="1946.96" y1="368.54" x2="2321.43" y2="368.54" style="stroke:#202020;stroke-width:23.04"/>
	<line x1="1946.96" y1="508.50" x2="2321.43" y2="508.50" style="stroke:#A0A0A0;stroke-width:23.04"/>
	<text x="2381.32" y="263.60" style="font-family:'Helvetica';font-size:99.99px;fill:#000000">Early vs. tr. completion</text>
	<text x="2381.32" y="403.57" style="font-family:'Helvetica';font-size:99.99px;fill:#000000">Late dropout vs. tr. completion</text>
	<text x="2381.32" y="543.53" style="font-family:'Helvetica';font-size:99.99px;fill:#000000">Late vs. early dropout</text>
</svg>
