<?xml version="1.0" encoding="UTF-8" standalone="no"?>
<!-- This is a Stata 16.1 generated SVG file (http://www.stata.com) -->

<svg version="1.1" width="5.50in" height="4.00in" viewBox="0 0 3960 2880" xmlns="http://www.w3.org/2000/svg" xmlns:xlink="http://www.w3.org/1999/xlink">
	<desc>Stata Graph - surv_diffs</desc>
	<rect x="0" y="0" width="3960" height="2880" style="fill:#FFFFFF;stroke:none"/>
	<rect x="0.00" y="0.00" width="3959.88" height="2880.00" style="fill:#FFFFFF"/>
	<rect x="2.88" y="2.88" width="3954.12" height="2874.24" style="fill:none;stroke:#FFFFFF;stroke-width:5.76"/>
	<rect x="390.80" y="636.34" width="3468.22" height="1852.84" style="fill:#FFFFFF"/>
	<rect x="393.68" y="639.22" width="3462.46" height="1847.08" style="fill:none;stroke:#FFFFFF;stroke-width:5.76"/>
	<line x1="390.80" y1="2295.63" x2="3859.02" y2="2295.63" style="stroke:#EAF2F3;stroke-width:8.64"/>
	<line x1="390.80" y1="1896.65" x2="3859.02" y2="1896.65" style="stroke:#EAF2F3;stroke-width:8.64"/>
	<line x1="390.80" y1="1497.67" x2="3859.02" y2="1497.67" style="stroke:#EAF2F3;stroke-width:8.64"/>
	<line x1="390.80" y1="1098.69" x2="3859.02" y2="1098.69" style="stroke:#EAF2F3;stroke-width:8.64"/>
	<line x1="390.80" y1="699.70" x2="3859.02" y2="699.70" style="stroke:#EAF2F3;stroke-width:8.64"/>
	<defs>
		<path id="path_xFynbkiv" d="M454.16 1896.65 L454.16 1896.65 L507.25 1757.92 L560.46 1664.12 L666.76 1529.72 L719.98 1479.23 L773.07 1436.53 L826.28 1400.15 L879.49 1368.84 L1092.09 1277.51 L1145.18 1261.05 L1198.39 1246.70 L1251.61 1234.07 L1304.70 1222.81 L1357.91 1212.91 L1411.00 1204.00 L1464.21 1196.08 L1517.42 1188.90 L1570.51 1182.47 L1623.72 1176.65 L1676.81 1171.58 L1730.03 1167.12 L1836.33 1159.94 L1889.54 1157.10 L1942.63 1154.87 L1995.84 1153.14 L2048.93 1151.90 L2102.14 1151.03 L2261.66 1150.54 L2367.96 1151.53 L2421.17 1152.40 L2474.26 1153.39 L2527.47 1154.62 L2580.56 1155.86 L2633.77 1157.35 L2686.98 1158.95 L2740.07 1160.69 L2793.28 1162.42 L2846.37 1164.28 L2899.59 1166.26 L2952.68 1168.24 L3059.10 1172.44 L3112.19 1174.55 L3165.40 1176.78 L3218.49 1179.00 L3271.70 1181.23 L3324.91 1183.58 L3378.00 1185.81 L3378.00 786.83 L3324.91 786.46 L3271.70 786.21 L3218.49 785.84 L3165.40 785.59 L3112.19 785.47 L3059.10 785.34 L2952.68 785.34 L2899.59 785.47 L2846.37 785.59 L2793.28 785.96 L2740.07 786.33 L2686.98 786.95 L2633.77 787.69 L2580.56 788.44 L2527.47 789.55 L2474.26 790.79 L2421.17 792.15 L2367.96 793.88 L2261.66 797.96 L2102.14 806.88 L2048.93 810.71 L1995.84 815.04 L1942.63 819.99 L1889.54 825.56 L1836.33 831.75 L1730.03 846.23 L1676.81 854.52 L1623.72 863.55 L1570.51 873.45 L1517.42 884.22 L1464.21 895.73 L1411.00 908.11 L1357.91 921.72 L1304.70 936.45 L1251.61 952.78 L1198.39 970.85 L1145.18 991.14 L1092.09 1014.04 L879.49 1137.79 L826.28 1179.75 L773.07 1228.50 L719.98 1285.93 L666.76 1354.49 L560.46 1540.86 L507.25 1676.12 L454.16 1896.65 L454.16 1896.65 Z" stroke-linejoin="round"/>
	</defs>
	<defs>
		<clipPath id="clipPath_jVoBiTsl">
			<use xlink:href="#path_xFynbkiv"/>
		</clipPath>
	</defs>
	<use xlink:href="#path_xFynbkiv" style="stroke:none;fill:#8D8D8D;fill-opacity:0.35"/>
	<use xlink:href="#path_xFynbkiv" style="fill:none;stroke:#707070;stroke-opacity:0.35;stroke-width:17.28" clip-path="url(#clipPath_jVoBiTsl)"/>
	<path d=" M454.04 1896.65 L507.25 1717.08 L560.34 1602.61 L666.76 1442.10 L719.85 1382.58 L773.07 1332.58 L826.15 1290.01 L879.37 1253.38 L1091.97 1145.84 L1145.18 1126.16 L1198.39 1108.83 L1251.48 1093.49 L1304.70 1079.75 L1357.79 1067.38 L1411.00 1056.12 L1464.09 1045.97 L1517.30 1036.56 L1570.51 1028.02 L1623.60 1020.23 L1676.81 1013.05 L1729.90 1006.74 L1836.33 995.85 L1889.41 991.39 L1942.63 987.56 L1995.72 984.21 L2048.93 981.37 L2102.14 979.02 L2261.53 974.31 L2367.83 972.71 L2421.05 972.33 L2474.26 972.09 L2527.35 972.09 L2580.56 972.21 L2633.65 972.58 L2686.86 972.95 L2740.07 973.57 L2793.16 974.19 L2846.37 975.06 L2899.46 975.92 L2952.68 976.79 L3058.98 978.89 L3112.19 980.13 L3165.28 981.24 L3218.49 982.48 L3271.58 983.72 L3324.79 985.08 L3378.00 986.44" stroke-linejoin="round" style="fill:none;stroke:#707070;stroke-width:23.04"/>
	<defs>
		<path id="path_gEnUcBVp" d="M454.16 1896.65 L454.16 1896.65 L560.46 1837.37 L613.68 1800.37 L719.98 1730.57 L932.58 1615.48 L985.79 1591.23 L1038.88 1568.33 L1092.09 1546.92 L1304.70 1474.40 L1357.91 1458.81 L1730.03 1370.45 L1783.24 1360.30 L1942.63 1333.20 L1995.84 1325.28 L2048.93 1317.85 L2102.14 1310.92 L2155.35 1304.49 L2208.44 1298.43 L2261.66 1292.73 L2314.74 1287.41 L2474.26 1273.06 L2527.47 1268.85 L2740.07 1254.25 L3005.89 1239.89 L3005.89 955.38 L2740.07 978.89 L2527.47 1001.17 L2474.26 1007.23 L2314.74 1027.53 L2261.66 1034.83 L2208.44 1042.63 L2155.35 1050.92 L2102.14 1059.46 L2048.93 1068.61 L1995.84 1078.27 L1942.63 1088.54 L1783.24 1122.94 L1730.03 1135.69 L1357.91 1243.73 L1304.70 1262.29 L1092.09 1349.54 L1038.88 1375.40 L985.79 1403.12 L932.58 1433.07 L719.98 1580.71 L613.68 1680.45 L560.46 1740.10 L454.16 1896.65 L454.16 1896.65 Z" stroke-linejoin="round"/>
	</defs>
	<defs>
		<clipPath id="clipPath_VcNRziHv">
			<use xlink:href="#path_gEnUcBVp"/>
		</clipPath>
	</defs>
	<use xlink:href="#path_gEnUcBVp" style="stroke:none;fill:#4D4D4D;fill-opacity:0.35"/>
	<use xlink:href="#path_gEnUcBVp" style="fill:none;stroke:#202020;stroke-opacity:0.35;stroke-width:17.28" clip-path="url(#clipPath_VcNRziHv)"/>
	<path d=" M454.04 1896.65 L560.34 1788.86 L613.55 1740.47 L719.85 1655.70 L932.58 1524.40 L985.67 1497.30 L1038.88 1471.93 L1091.97 1448.29 L1304.70 1368.35 L1357.79 1351.39 L1729.90 1253.13 L1783.11 1241.62 L1942.63 1210.93 L1995.72 1201.90 L2048.93 1193.36 L2102.14 1185.31 L2155.23 1177.77 L2208.44 1170.59 L2261.53 1163.91 L2314.74 1157.47 L2474.26 1140.27 L2527.35 1135.07 L2740.07 1116.63 L3005.89 1097.70" stroke-linejoin="round" style="fill:none;stroke:#202020;stroke-width:23.04"/>
	<defs>
		<path id="path_zJAGIbLr" d="M454.16 1896.65 L454.16 1896.65 L560.46 2134.51 L613.68 2193.66 L719.98 2272.99 L932.58 2354.91 L985.79 2367.29 L1038.88 2377.68 L1092.09 2386.47 L1304.70 2408.75 L1357.91 2412.21 L1730.03 2424.83 L1783.24 2425.45 L1942.63 2425.82 L1995.84 2425.58 L2048.93 2425.08 L2102.14 2424.46 L2155.35 2423.60 L2208.44 2422.73 L2261.66 2421.74 L2314.74 2420.63 L2474.26 2417.04 L2527.47 2415.80 L2740.07 2410.35 L3005.89 2403.30 L3005.89 2012.73 L2740.07 2030.43 L2527.47 2045.03 L2474.26 2048.75 L2314.74 2059.76 L2261.66 2063.47 L2208.44 2067.18 L2155.35 2070.77 L2102.14 2074.36 L2048.93 2077.95 L1995.84 2081.42 L1942.63 2084.76 L1783.24 2094.41 L1730.03 2097.50 L1357.91 2113.22 L1304.70 2114.46 L1092.09 2113.96 L1038.88 2111.98 L985.79 2108.89 L932.58 2104.68 L719.98 2069.16 L613.68 2031.05 L560.46 2002.46 L454.16 1896.65 L454.16 1896.65 Z" stroke-linejoin="round"/>
	</defs>
	<defs>
		<clipPath id="clipPath_bjvHmzmt">
			<use xlink:href="#path_zJAGIbLr"/>
		</clipPath>
	</defs>
	<use xlink:href="#path_zJAGIbLr" style="stroke:none;fill:#B3B3B3;fill-opacity:0.25"/>
	<use xlink:href="#path_zJAGIbLr" style="fill:none;stroke:#A0A0A0;stroke-opacity:0.25;stroke-width:17.28" clip-path="url(#clipPath_bjvHmzmt)"/>
	<path d=" M454.04 1896.65 L560.34 2068.55 L613.55 2112.48 L719.85 2171.14 L932.58 2229.92 L985.67 2238.21 L1038.88 2244.90 L1091.97 2250.22 L1304.70 2261.60 L1357.79 2262.72 L1729.90 2261.23 L1783.11 2259.99 L1942.63 2255.41 L1995.72 2253.56 L2048.93 2251.58 L2102.14 2249.47 L2155.23 2247.25 L2208.44 2245.02 L2261.53 2242.67 L2314.74 2240.32 L2474.26 2233.01 L2527.35 2230.42 L2740.07 2220.52 L3005.89 2208.14" stroke-linejoin="round" style="fill:none;stroke:#A0A0A0;stroke-width:23.04"/>
	<path d=" M454.04 1896.65 L507.25 1896.65 L560.34 1896.65 L613.55 1896.65 L666.76 1896.65 L719.85 1896.65 L773.07 1896.65 L826.15 1896.65 L879.37 1896.65 L932.58 1896.65 L985.67 1896.65 L1038.88 1896.65 L1091.97 1896.65 L1145.18 1896.65 L1198.39 1896.65 L1251.48 1896.65 L1304.70 1896.65 L1357.79 1896.65 L1411.00 1896.65 L1464.09 1896.65 L1517.30 1896.65 L1570.51 1896.65 L1623.60 1896.65 L1676.81 1896.65 L1729.90 1896.65 L1783.11 1896.65 L1836.33 1896.65 L1889.41 1896.65 L1942.63 1896.65 L1995.72 1896.65 L2048.93 1896.65 L2102.14 1896.65 L2155.23 1896.65 L2208.44 1896.65 L2261.53 1896.65 L2314.74 1896.65 L2367.83 1896.65 L2421.05 1896.65 L2474.26 1896.65 L2527.35 1896.65 L2580.56 1896.65 L2633.65 1896.65 L2686.86 1896.65 L2740.07 1896.65 L2793.16 1896.65 L2846.37 1896.65 L2899.46 1896.65 L2952.68 1896.65 L3005.89 1896.65 L3058.98 1896.65 L3112.19 1896.65 L3165.28 1896.65 L3218.49 1896.65 L3271.58 1896.65 L3324.79 1896.65 L3378.00 1896.65" stroke-linejoin="round" style="fill:none;stroke:#000000;stroke-opacity:0.20;stroke-width:23.04"/>
	<line x1="390.80" y1="2489.19" x2="390.80" y2="636.34" style="stroke:#000000;stroke-width:5.76"/>
	<line x1="390.80" y1="2295.63" x2="350.83" y2="2295.63" style="stroke:#000000;stroke-width:5.76"/>
	<text x="300.72" y="2295.63" style="font-family:'Helvetica';font-size:99.99px;fill:#000000" transform="rotate(-90 300.72,2295.63)" text-anchor="middle">-.02</text>
	<line x1="390.80" y1="1896.65" x2="350.83" y2="1896.65" style="stroke:#000000;stroke-width:5.76"/>
	<text x="300.72" y="1896.65" style="font-family:'Helvetica';font-size:99.99px;fill:#000000" transform="rotate(-90 300.72,1896.65)" text-anchor="middle">0</text>
	<line x1="390.80" y1="1497.67" x2="350.83" y2="1497.67" style="stroke:#000000;stroke-width:5.76"/>
	<text x="300.72" y="1497.67" style="font-family:'Helvetica';font-size:99.99px;fill:#000000" transform="rotate(-90 300.72,1497.67)" text-anchor="middle">.02</text>
	<line x1="390.80" y1="1098.69" x2="350.83" y2="1098.69" style="stroke:#000000;stroke-width:5.76"/>
	<text x="300.72" y="1098.69" style="font-family:'Helvetica';font-size:99.99px;fill:#000000" transform="rotate(-90 300.72,1098.69)" text-anchor="middle">.04</text>
	<line x1="390.80" y1="699.70" x2="350.83" y2="699.70" style="stroke:#000000;stroke-width:5.76"/>
	<text x="300.72" y="699.70" style="font-family:'Helvetica';font-size:99.99px;fill:#000000" transform="rotate(-90 300.72,699.70)" text-anchor="middle">.06</text>
	<text x="190.71" y="1562.76" style="font-family:'Helvetica';font-size:99.99px;fill:#000000" transform="rotate(-90 190.71,1562.76)" text-anchor="middle">Differences  of avoiding sentence (standardized)</text>
	<line x1="390.80" y1="2489.19" x2="3859.02" y2="2489.19" style="stroke:#000000;stroke-width:5.76"/>
	<line x1="454.16" y1="2489.19" x2="454.16" y2="2529.16" style="stroke:#000000;stroke-width:5.76"/>
	<text x="454.16" y="2619.14" style="font-family:'Helvetica';font-size:99.99px;fill:#000000" text-anchor="middle">0</text>
	<line x1="1289.47" y1="2489.19" x2="1289.47" y2="2529.16" style="stroke:#000000;stroke-width:5.76"/>
	<text x="1289.47" y="2619.14" style="font-family:'Helvetica';font-size:99.99px;fill:#000000" text-anchor="middle">2</text>
	<line x1="2124.91" y1="2489.19" x2="2124.91" y2="2529.16" style="stroke:#000000;stroke-width:5.76"/>
	<text x="2124.91" y="2619.14" style="font-family:'Helvetica';font-size:99.99px;fill:#000000" text-anchor="middle">4</text>
	<line x1="2960.35" y1="2489.19" x2="2960.35" y2="2529.16" style="stroke:#000000;stroke-width:5.76"/>
	<text x="2960.35" y="2619.14" style="font-family:'Helvetica';font-size:99.99px;fill:#000000" text-anchor="middle">6</text>
	<line x1="3795.66" y1="2489.19" x2="3795.66" y2="2529.16" style="stroke:#000000;stroke-width:5.76"/>
	<text x="3795.66" y="2619.14" style="font-family:'Helvetica';font-size:99.99px;fill:#000000" text-anchor="middle">8</text>
	<text x="2124.91" y="2729.16" style="font-family:'Helvetica';font-size:99.99px;fill:#000000" text-anchor="middle">Years from treatment outcome</text>
	<line x1="1946.96" y1="228.57" x2="2321.43" y2="228.57" style="stroke:#707070;stroke-width:23.04"/>
	<line x1="1946.96" y1="368.54" x2="2321.43" y2="368.54" style="stroke:#202020;stroke-width:23.04"/>
	<line x1="1946.96" y1="508.50" x2="2321.43" y2="508.50" style="stroke:#A0A0A0;stroke-width:23.04"/>
	<text x="2381.32" y="263.60" style="font-family:'Helvetica';font-size:99.99px;fill:#000000">Early vs. tr. completion</text>
	<text x="2381.32" y="403.57" style="font-family:'Helvetica';font-size:99.99px;fill:#000000">Late dropout vs. tr. completion</text>
	<text x="2381.32" y="543.53" style="font-family:'Helvetica';font-size:99.99px;fill:#000000">Late vs. early dropout</text>
</svg>
