<?xml version="1.0" encoding="UTF-8" standalone="no"?>
<!-- This is a Stata 16.1 generated SVG file (http://www.stata.com) -->

<svg version="1.1" width="3.58in" height="2.60in" viewBox="0 0 2574 1872" xmlns="http://www.w3.org/2000/svg" xmlns:xlink="http://www.w3.org/1999/xlink">
	<desc>Stata Graph - msaj_12_23</desc>
	<rect x="0" y="0" width="2574" height="1872" style="fill:#F0F0F0;stroke:none"/>
	<rect x="0.00" y="0.00" width="2573.92" height="1872.00" style="fill:#FFFFFF"/>
	<rect x="1.87" y="1.87" width="2570.18" height="1868.26" style="fill:none;stroke:#FFFFFF;stroke-width:3.74"/>
	<rect x="227.96" y="139.97" width="2280.40" height="1442.61" style="fill:#FFFFFF"/>
	<rect x="229.83" y="141.84" width="2276.66" height="1438.87" style="fill:none;stroke:#FFFFFF;stroke-width:3.74"/>
	<line x1="227.96" y1="1541.39" x2="2508.36" y2="1541.39" style="stroke:#E8E8E8;stroke-width:5.62"/>
	<line x1="227.96" y1="1405.37" x2="2508.36" y2="1405.37" style="stroke:#E8E8E8;stroke-width:5.62"/>
	<line x1="227.96" y1="1269.34" x2="2508.36" y2="1269.34" style="stroke:#E8E8E8;stroke-width:5.62"/>
	<line x1="227.96" y1="1133.32" x2="2508.36" y2="1133.32" style="stroke:#E8E8E8;stroke-width:5.62"/>
	<line x1="227.96" y1="997.30" x2="2508.36" y2="997.30" style="stroke:#E8E8E8;stroke-width:5.62"/>
	<line x1="227.96" y1="861.27" x2="2508.36" y2="861.27" style="stroke:#E8E8E8;stroke-width:5.62"/>
	<line x1="227.96" y1="725.25" x2="2508.36" y2="725.25" style="stroke:#E8E8E8;stroke-width:5.62"/>
	<line x1="227.96" y1="589.22" x2="2508.36" y2="589.22" style="stroke:#E8E8E8;stroke-width:5.62"/>
	<line x1="227.96" y1="453.20" x2="2508.36" y2="453.20" style="stroke:#E8E8E8;stroke-width:5.62"/>
	<line x1="227.96" y1="317.17" x2="2508.36" y2="317.17" style="stroke:#E8E8E8;stroke-width:5.62"/>
	<rect x="469.43" y="1491.28" width="123.31" height="50.11" style="fill:#595959;fill-opacity:0.70"/>
	<rect x="471.31" y="1493.15" width="119.57" height="46.37" style="fill:none;stroke:#000000;stroke-opacity:0.00;stroke-width:3.74"/>
	<rect x="679.05" y="1301.44" width="123.23" height="239.95" style="fill:#595959;fill-opacity:0.70"/>
	<rect x="680.93" y="1303.31" width="119.49" height="236.21" style="fill:none;stroke:#000000;stroke-opacity:0.00;stroke-width:3.74"/>
	<rect x="1496.94" y="1173.86" width="123.23" height="367.53" style="fill:#595959;fill-opacity:0.70"/>
	<rect x="1498.81" y="1175.73" width="119.49" height="363.79" style="fill:none;stroke:#000000;stroke-opacity:0.00;stroke-width:3.74"/>
	<rect x="2282.09" y="1202.26" width="123.23" height="339.14" style="fill:#595959;fill-opacity:0.70"/>
	<rect x="2283.96" y="1204.13" width="119.49" height="335.39" style="fill:none;stroke:#000000;stroke-opacity:0.00;stroke-width:3.74"/>
	<rect x="371.38" y="1541.31" width="123.23" height="0.08" style="fill:#595959;fill-opacity:0.70"/>
	<rect x="373.25" y="1539.52" width="119.49" height="3.66" style="fill:none;stroke:#000000;stroke-opacity:0.00;stroke-width:3.74"/>
	<rect x="531.13" y="1502.54" width="123.31" height="38.85" style="fill:#8D8D8D;fill-opacity:0.70"/>
	<rect x="533.00" y="1504.41" width="119.57" height="35.11" style="fill:none;stroke:#707070;stroke-opacity:0.00;stroke-width:3.74"/>
	<rect x="740.67" y="1343.35" width="123.31" height="198.04" style="fill:#8D8D8D;fill-opacity:0.70"/>
	<rect x="742.54" y="1345.22" width="119.57" height="194.30" style="fill:none;stroke:#707070;stroke-opacity:0.00;stroke-width:3.74"/>
	<rect x="1558.64" y="1220.92" width="123.31" height="320.47" style="fill:#8D8D8D;fill-opacity:0.70"/>
	<rect x="1560.51" y="1222.79" width="119.57" height="316.73" style="fill:none;stroke:#707070;stroke-opacity:0.00;stroke-width:3.74"/>
	<rect x="2343.95" y="1249.56" width="123.23" height="291.84" style="fill:#8D8D8D;fill-opacity:0.70"/>
	<rect x="2345.82" y="1251.43" width="119.49" height="288.09" style="fill:none;stroke:#707070;stroke-opacity:0.00;stroke-width:3.74"/>
	<line x1="531.05" y1="1493.53" x2="531.05" y2="1489.11" style="stroke:#303030;stroke-opacity:0.70;stroke-width:5.62"/>
	<line x1="516.73" y1="1489.11" x2="545.37" y2="1489.11" stroke-linecap="round" style="stroke:#303030;stroke-opacity:0.70;stroke-width:5.62"/>
	<line x1="516.73" y1="1493.53" x2="545.37" y2="1493.53" stroke-linecap="round" style="stroke:#303030;stroke-opacity:0.70;stroke-width:5.62"/>
	<line x1="740.67" y1="1305.86" x2="740.67" y2="1296.93" style="stroke:#303030;stroke-opacity:0.70;stroke-width:5.62"/>
	<line x1="726.35" y1="1296.93" x2="754.99" y2="1296.93" stroke-linecap="round" style="stroke:#303030;stroke-opacity:0.70;stroke-width:5.62"/>
	<line x1="726.35" y1="1305.86" x2="754.99" y2="1305.86" stroke-linecap="round" style="stroke:#303030;stroke-opacity:0.70;stroke-width:5.62"/>
	<line x1="1558.56" y1="1179.25" x2="1558.56" y2="1168.39" style="stroke:#303030;stroke-opacity:0.70;stroke-width:5.62"/>
	<line x1="1544.24" y1="1168.39" x2="1572.87" y2="1168.39" stroke-linecap="round" style="stroke:#303030;stroke-opacity:0.70;stroke-width:5.62"/>
	<line x1="1544.24" y1="1179.25" x2="1572.87" y2="1179.25" stroke-linecap="round" style="stroke:#303030;stroke-opacity:0.70;stroke-width:5.62"/>
	<line x1="2343.71" y1="1207.89" x2="2343.71" y2="1196.63" style="stroke:#303030;stroke-opacity:0.70;stroke-width:5.62"/>
	<line x1="2329.39" y1="1196.63" x2="2358.03" y2="1196.63" stroke-linecap="round" style="stroke:#303030;stroke-opacity:0.70;stroke-width:5.62"/>
	<line x1="2329.39" y1="1207.89" x2="2358.03" y2="1207.89" stroke-linecap="round" style="stroke:#303030;stroke-opacity:0.70;stroke-width:5.62"/>
	<line x1="433.00" y1="1541.39" x2="433.00" y2="1541.23" style="stroke:#303030;stroke-opacity:0.70;stroke-width:5.62"/>
	<line x1="418.68" y1="1541.23" x2="447.31" y2="1541.23" stroke-linecap="round" style="stroke:#303030;stroke-opacity:0.70;stroke-width:5.62"/>
	<line x1="418.68" y1="1541.39" x2="447.31" y2="1541.39" stroke-linecap="round" style="stroke:#303030;stroke-opacity:0.70;stroke-width:5.62"/>
	<line x1="592.74" y1="1504.39" x2="592.74" y2="1500.69" style="stroke:#707070;stroke-opacity:0.70;stroke-width:5.62"/>
	<line x1="578.43" y1="1500.69" x2="607.06" y2="1500.69" stroke-linecap="round" style="stroke:#707070;stroke-opacity:0.70;stroke-width:5.62"/>
	<line x1="578.43" y1="1504.39" x2="607.06" y2="1504.39" stroke-linecap="round" style="stroke:#707070;stroke-opacity:0.70;stroke-width:5.62"/>
	<line x1="802.28" y1="1347.29" x2="802.28" y2="1339.41" style="stroke:#707070;stroke-opacity:0.70;stroke-width:5.62"/>
	<line x1="787.97" y1="1339.41" x2="816.60" y2="1339.41" stroke-linecap="round" style="stroke:#707070;stroke-opacity:0.70;stroke-width:5.62"/>
	<line x1="787.97" y1="1347.29" x2="816.60" y2="1347.29" stroke-linecap="round" style="stroke:#707070;stroke-opacity:0.70;stroke-width:5.62"/>
	<line x1="1620.25" y1="1225.83" x2="1620.25" y2="1216.09" style="stroke:#707070;stroke-opacity:0.70;stroke-width:5.62"/>
	<line x1="1605.93" y1="1216.09" x2="1634.57" y2="1216.09" stroke-linecap="round" style="stroke:#707070;stroke-opacity:0.70;stroke-width:5.62"/>
	<line x1="1605.93" y1="1225.83" x2="1634.57" y2="1225.83" stroke-linecap="round" style="stroke:#707070;stroke-opacity:0.70;stroke-width:5.62"/>
	<line x1="2405.56" y1="1254.38" x2="2405.56" y2="1244.65" style="stroke:#707070;stroke-opacity:0.70;stroke-width:5.62"/>
	<line x1="2391.25" y1="1244.65" x2="2419.88" y2="1244.65" stroke-linecap="round" style="stroke:#707070;stroke-opacity:0.70;stroke-width:5.62"/>
	<line x1="2391.25" y1="1254.38" x2="2419.88" y2="1254.38" stroke-linecap="round" style="stroke:#707070;stroke-opacity:0.70;stroke-width:5.62"/>
	<line x1="494.29" y1="1541.39" x2="494.29" y2="1541.39" style="stroke:#707070;stroke-opacity:0.70;stroke-width:5.62"/>
	<line x1="479.97" y1="1541.39" x2="508.61" y2="1541.39" stroke-linecap="round" style="stroke:#707070;stroke-opacity:0.70;stroke-width:5.62"/>
	<line x1="479.97" y1="1541.39" x2="508.61" y2="1541.39" stroke-linecap="round" style="stroke:#707070;stroke-opacity:0.70;stroke-width:5.62"/>
	<line x1="227.96" y1="1582.58" x2="227.96" y2="139.97" style="stroke:#000000;stroke-width:3.74"/>
	<line x1="227.96" y1="1541.39" x2="201.98" y2="1541.39" style="stroke:#000000;stroke-width:3.74"/>
	<text x="173.32" y="1541.39" style="font-family:'Helvetica';font-size:51.96px;fill:#000000" transform="rotate(-90 173.32,1541.39)" text-anchor="middle">0</text>
	<line x1="227.96" y1="1405.37" x2="201.98" y2="1405.37" style="stroke:#000000;stroke-width:3.74"/>
	<text x="173.32" y="1405.37" style="font-family:'Helvetica';font-size:51.96px;fill:#000000" transform="rotate(-90 173.32,1405.37)" text-anchor="middle">.1</text>
	<line x1="227.96" y1="1269.34" x2="201.98" y2="1269.34" style="stroke:#000000;stroke-width:3.74"/>
	<text x="173.32" y="1269.34" style="font-family:'Helvetica';font-size:51.96px;fill:#000000" transform="rotate(-90 173.32,1269.34)" text-anchor="middle">.2</text>
	<line x1="227.96" y1="1133.32" x2="201.98" y2="1133.32" style="stroke:#000000;stroke-width:3.74"/>
	<text x="173.32" y="1133.32" style="font-family:'Helvetica';font-size:51.96px;fill:#000000" transform="rotate(-90 173.32,1133.32)" text-anchor="middle">.3</text>
	<line x1="227.96" y1="997.30" x2="201.98" y2="997.30" style="stroke:#000000;stroke-width:3.74"/>
	<text x="173.32" y="997.30" style="font-family:'Helvetica';font-size:51.96px;fill:#000000" transform="rotate(-90 173.32,997.30)" text-anchor="middle">.4</text>
	<line x1="227.96" y1="861.27" x2="201.98" y2="861.27" style="stroke:#000000;stroke-width:3.74"/>
	<text x="173.32" y="861.27" style="font-family:'Helvetica';font-size:51.96px;fill:#000000" transform="rotate(-90 173.32,861.27)" text-anchor="middle">.5</text>
	<line x1="227.96" y1="725.25" x2="201.98" y2="725.25" style="stroke:#000000;stroke-width:3.74"/>
	<text x="173.32" y="725.25" style="font-family:'Helvetica';font-size:51.96px;fill:#000000" transform="rotate(-90 173.32,725.25)" text-anchor="middle">.6</text>
	<line x1="227.96" y1="589.22" x2="201.98" y2="589.22" style="stroke:#000000;stroke-width:3.74"/>
	<text x="173.32" y="589.22" style="font-family:'Helvetica';font-size:51.96px;fill:#000000" transform="rotate(-90 173.32,589.22)" text-anchor="middle">.7</text>
	<line x1="227.96" y1="453.20" x2="201.98" y2="453.20" style="stroke:#000000;stroke-width:3.74"/>
	<text x="173.32" y="453.20" style="font-family:'Helvetica';font-size:51.96px;fill:#000000" transform="rotate(-90 173.32,453.20)" text-anchor="middle">.8</text>
	<line x1="227.96" y1="317.17" x2="201.98" y2="317.17" style="stroke:#000000;stroke-width:3.74"/>
	<text x="173.32" y="317.17" style="font-family:'Helvetica';font-size:51.96px;fill:#000000" transform="rotate(-90 173.32,317.17)" text-anchor="middle">.9</text>
	<line x1="227.96" y1="181.15" x2="201.98" y2="181.15" style="stroke:#000000;stroke-width:3.74"/>
	<text x="173.32" y="181.15" style="font-family:'Helvetica';font-size:51.96px;fill:#000000" transform="rotate(-90 173.32,181.15)" text-anchor="middle">1</text>
	<text x="114.84" y="861.27" style="font-family:'Helvetica';font-size:51.96px;fill:#000000" transform="rotate(-90 114.84,861.27)" text-anchor="middle">Transition Probabilities</text>
	<line x1="227.96" y1="1582.58" x2="2508.36" y2="1582.58" style="stroke:#000000;stroke-width:3.74"/>
	<line x1="329.71" y1="1582.58" x2="329.71" y2="1608.56" style="stroke:#000000;stroke-width:3.74"/>
	<text x="329.71" y="1657.84" style="font-family:'Helvetica';font-size:51.96px;fill:#000000" text-anchor="middle">0</text>
	<line x1="452.94" y1="1582.58" x2="452.94" y2="1608.56" style="stroke:#000000;stroke-width:3.74"/>
	<text x="452.94" y="1657.84" style="font-family:'Helvetica';font-size:51.96px;fill:#000000" text-anchor="middle">.3</text>
	<line x1="576.25" y1="1582.58" x2="576.25" y2="1608.56" style="stroke:#000000;stroke-width:3.74"/>
	<text x="576.25" y="1657.84" style="font-family:'Helvetica';font-size:51.96px;fill:#000000" text-anchor="middle">.6</text>
	<line x1="699.56" y1="1582.58" x2="699.56" y2="1608.56" style="stroke:#000000;stroke-width:3.74"/>
	<text x="699.56" y="1657.84" style="font-family:'Helvetica';font-size:51.96px;fill:#000000" text-anchor="middle">.9</text>
	<line x1="822.88" y1="1582.58" x2="822.88" y2="1608.56" style="stroke:#000000;stroke-width:3.74"/>
	<text x="822.88" y="1657.84" style="font-family:'Helvetica';font-size:51.96px;fill:#000000" text-anchor="middle">1.2</text>
	<line x1="946.11" y1="1582.58" x2="946.11" y2="1608.56" style="stroke:#000000;stroke-width:3.74"/>
	<text x="946.11" y="1657.84" style="font-family:'Helvetica';font-size:51.96px;fill:#000000" text-anchor="middle">1.5</text>
	<line x1="1069.42" y1="1582.58" x2="1069.42" y2="1608.56" style="stroke:#000000;stroke-width:3.74"/>
	<text x="1069.42" y="1657.84" style="font-family:'Helvetica';font-size:51.96px;fill:#000000" text-anchor="middle">1.8</text>
	<line x1="1192.73" y1="1582.58" x2="1192.73" y2="1608.56" style="stroke:#000000;stroke-width:3.74"/>
	<text x="1192.73" y="1657.84" style="font-family:'Helvetica';font-size:51.96px;fill:#000000" text-anchor="middle">2.1</text>
	<line x1="1316.04" y1="1582.58" x2="1316.04" y2="1608.56" style="stroke:#000000;stroke-width:3.74"/>
	<text x="1316.04" y="1657.84" style="font-family:'Helvetica';font-size:51.96px;fill:#000000" text-anchor="middle">2.4</text>
	<line x1="1439.35" y1="1582.58" x2="1439.35" y2="1608.56" style="stroke:#000000;stroke-width:3.74"/>
	<text x="1439.35" y="1657.84" style="font-family:'Helvetica';font-size:51.96px;fill:#000000" text-anchor="middle">2.7</text>
	<line x1="1562.58" y1="1582.58" x2="1562.58" y2="1608.56" style="stroke:#000000;stroke-width:3.74"/>
	<text x="1562.58" y="1657.84" style="font-family:'Helvetica';font-size:51.96px;fill:#000000" text-anchor="middle">3</text>
	<line x1="1685.89" y1="1582.58" x2="1685.89" y2="1608.56" style="stroke:#000000;stroke-width:3.74"/>
	<text x="1685.89" y="1657.84" style="font-family:'Helvetica';font-size:51.96px;fill:#000000" text-anchor="middle">3.3</text>
	<line x1="1809.20" y1="1582.58" x2="1809.20" y2="1608.56" style="stroke:#000000;stroke-width:3.74"/>
	<text x="1809.20" y="1657.84" style="font-family:'Helvetica';font-size:51.96px;fill:#000000" text-anchor="middle">3.6</text>
	<line x1="1932.51" y1="1582.58" x2="1932.51" y2="1608.56" style="stroke:#000000;stroke-width:3.74"/>
	<text x="1932.51" y="1657.84" style="font-family:'Helvetica';font-size:51.96px;fill:#000000" text-anchor="middle">3.9</text>
	<line x1="2055.74" y1="1582.58" x2="2055.74" y2="1608.56" style="stroke:#000000;stroke-width:3.74"/>
	<text x="2055.74" y="1657.84" style="font-family:'Helvetica';font-size:51.96px;fill:#000000" text-anchor="middle">4.2</text>
	<line x1="2179.05" y1="1582.58" x2="2179.05" y2="1608.56" style="stroke:#000000;stroke-width:3.74"/>
	<text x="2179.05" y="1657.84" style="font-family:'Helvetica';font-size:51.96px;fill:#000000" text-anchor="middle">4.5</text>
	<line x1="2302.36" y1="1582.58" x2="2302.36" y2="1608.56" style="stroke:#000000;stroke-width:3.74"/>
	<text x="2302.36" y="1657.84" style="font-family:'Helvetica';font-size:51.96px;fill:#000000" text-anchor="middle">4.8</text>
	<line x1="2425.67" y1="1582.58" x2="2425.67" y2="1608.56" style="stroke:#000000;stroke-width:3.74"/>
	<text x="2425.67" y="1657.84" style="font-family:'Helvetica';font-size:51.96px;fill:#000000" text-anchor="middle">5.1</text>
	<text x="1368.16" y="1716.40" style="font-family:'Helvetica';font-size:51.96px;fill:#000000" text-anchor="middle">Time since entering the study</text>
	<rect x="2018.34" y="162.41" width="467.58" height="186.14" style="fill:#FFFFFF"/>
	<rect x="2020.21" y="164.28" width="463.84" height="182.39" style="fill:none;stroke:#000000;stroke-width:3.74"/>
	<line x1="2046.41" y1="216.54" x2="2137.39" y2="216.54" style="stroke:#303030;stroke-opacity:0.70;stroke-width:5.62"/>
	<line x1="2046.41" y1="230.78" x2="2046.41" y2="202.23" style="stroke:#303030;stroke-opacity:0.70;stroke-width:5.62"/>
	<line x1="2137.39" y1="230.78" x2="2137.39" y2="202.23" style="stroke:#303030;stroke-opacity:0.70;stroke-width:5.62"/>
	<line x1="2046.41" y1="294.49" x2="2137.39" y2="294.49" style="stroke:#707070;stroke-opacity:0.70;stroke-width:5.62"/>
	<line x1="2046.41" y1="308.81" x2="2046.41" y2="280.17" style="stroke:#707070;stroke-opacity:0.70;stroke-width:5.62"/>
	<line x1="2137.39" y1="308.81" x2="2137.39" y2="280.17" style="stroke:#707070;stroke-opacity:0.70;stroke-width:5.62"/>
	<text x="2156.13" y="234.75" style="font-family:'Helvetica';font-size:51.96px;fill:#000000">No Polysubs</text>
	<text x="2156.13" y="312.70" style="font-family:'Helvetica';font-size:51.96px;fill:#000000">Polysubs</text>
	<text x="239.22" y="1783.52" style="font-family:'Helvetica';font-style:italic;font-size:39.01px;fill:#000000">Note. Means and 95% CI's</text>
	<text x="1368.16" y="113.07" style="font-family:'Helvetica';font-size:51.96px;fill:#000000" text-anchor="middle">Transition Probabilities from Admission to Treatment completion with CIs</text>
</svg>
