<?xml version="1.0" encoding="UTF-8" standalone="no"?>
<!-- This is a Stata 16.1 generated SVG file (http://www.stata.com) -->

<svg version="1.1" width="5.50in" height="4.00in" viewBox="0 0 3960 2880" xmlns="http://www.w3.org/2000/svg" xmlns:xlink="http://www.w3.org/1999/xlink">
	<desc>Stata Graph - s_diff</desc>
	<rect x="0" y="0" width="3960" height="2880" style="fill:#FFFFFF;stroke:none"/>
	<rect x="0.00" y="0.00" width="3959.88" height="2880.00" style="fill:#FFFFFF"/>
	<rect x="2.88" y="2.88" width="3954.12" height="2874.24" style="fill:none;stroke:#FFFFFF;stroke-width:5.76"/>
	<rect x="390.80" y="100.86" width="3468.22" height="2388.33" style="fill:#FFFFFF"/>
	<rect x="393.68" y="103.74" width="3462.46" height="2382.57" style="fill:none;stroke:#FFFFFF;stroke-width:5.76"/>
	<line x1="390.80" y1="1860.39" x2="3859.02" y2="1860.39" style="stroke:#EAF2F3;stroke-width:8.64"/>
	<line x1="390.80" y1="1294.96" x2="3859.02" y2="1294.96" style="stroke:#EAF2F3;stroke-width:8.64"/>
	<line x1="390.80" y1="729.53" x2="3859.02" y2="729.53" style="stroke:#EAF2F3;stroke-width:8.64"/>
	<defs>
		<path id="path_vRlIDOyJ" d="M454.16 729.53 L454.16 729.53 L562.44 1093.49 L670.73 1300.28 L779.01 1446.81 L887.29 1556.33 L995.57 1640.73 L1103.85 1708.17 L1212.13 1764.11 L1320.54 1811.51 L1428.82 1851.98 L1537.10 1886.26 L1645.38 1914.97 L1753.66 1938.85 L1861.94 1958.65 L1970.22 1975.11 L2078.51 1988.85 L2186.79 2000.48 L2295.07 2010.38 L2403.35 2018.67 L2511.63 2025.73 L2620.03 2031.79 L2728.32 2036.99 L2836.60 2041.32 L2944.88 2045.03 L3053.16 2048.25 L3161.44 2050.85 L3269.72 2053.08 L3378.00 2054.93 L3378.00 1754.83 L3269.72 1758.17 L3161.44 1761.14 L3053.16 1763.74 L2944.88 1765.97 L2836.60 1767.70 L2728.32 1768.81 L2620.03 1769.31 L2511.63 1768.94 L2403.35 1767.58 L2295.07 1765.10 L2186.79 1761.27 L2078.51 1755.57 L1970.22 1747.90 L1861.94 1737.75 L1753.66 1724.39 L1645.38 1707.18 L1537.10 1685.40 L1428.82 1658.43 L1320.54 1625.38 L1212.13 1585.66 L1103.85 1538.01 L995.57 1479.72 L887.29 1406.22 L779.01 1311.05 L670.73 1185.07 L562.44 1011.81 L454.16 729.53 L454.16 729.53 Z" stroke-linejoin="round"/>
	</defs>
	<defs>
		<clipPath id="clipPath_fPBVRwAB">
			<use xlink:href="#path_vRlIDOyJ"/>
		</clipPath>
	</defs>
	<use xlink:href="#path_vRlIDOyJ" style="stroke:none;fill:#3333FF;fill-opacity:0.20"/>
	<use xlink:href="#path_vRlIDOyJ" style="fill:none;stroke:#0000FF;stroke-opacity:0.20;stroke-width:17.28" clip-path="url(#clipPath_fPBVRwAB)"/>
	<path d=" M454.04 729.65 L562.32 1052.77 L670.60 1242.74 L779.01 1378.99 L887.29 1481.33 L995.57 1560.29 L1103.85 1623.16 L1212.13 1674.88 L1320.41 1718.57 L1428.69 1755.32 L1536.97 1785.89 L1645.26 1811.14 L1753.54 1831.68 L1861.82 1848.26 L1970.22 1861.63 L2078.51 1872.27 L2186.79 1880.94 L2295.07 1887.74 L2403.35 1893.19 L2511.63 1897.39 L2619.91 1900.61 L2728.19 1902.96 L2836.47 1904.57 L2944.76 1905.56 L3053.04 1906.06 L3161.32 1906.06 L3269.72 1905.69 L3378.00 1904.94" stroke-linejoin="round" style="fill:none;stroke:#0000FF;stroke-width:8.64"/>
	<defs>
		<path id="path_SDLFkEUg" d="M454.16 729.53 L454.16 729.53 L562.44 1016.14 L670.73 1193.48 L779.01 1324.54 L887.29 1425.64 L995.57 1505.84 L1103.85 1571.55 L1212.13 1627.36 L1320.54 1675.63 L1428.82 1717.70 L1537.10 1754.09 L1645.38 1785.40 L1753.66 1812.25 L1861.94 1835.27 L1970.22 1855.07 L2078.51 1872.27 L2186.79 1887.37 L2295.07 1900.74 L2403.35 1912.62 L2511.63 1923.14 L2620.03 1932.54 L2728.32 1941.08 L2836.60 1948.88 L2944.88 1955.81 L3053.16 1962.12 L3161.44 1967.93 L3269.72 1973.26 L3378.00 1978.08 L3378.00 1717.83 L3269.72 1717.70 L3161.44 1717.21 L3053.16 1716.34 L2944.88 1714.86 L2836.60 1712.88 L2728.32 1710.28 L2620.03 1706.81 L2511.63 1702.48 L2403.35 1697.16 L2295.07 1690.60 L2186.79 1682.56 L2078.51 1672.90 L1970.22 1661.02 L1861.94 1646.79 L1753.66 1629.47 L1645.38 1608.55 L1537.10 1583.18 L1428.82 1553.11 L1320.54 1517.59 L1212.13 1476.01 L1103.85 1427.50 L995.57 1369.83 L887.29 1299.29 L779.01 1211.18 L670.73 1098.44 L562.44 950.18 L454.16 729.53 L454.16 729.53 Z" stroke-linejoin="round"/>
	</defs>
	<defs>
		<clipPath id="clipPath_ICEIgafF">
			<use xlink:href="#path_SDLFkEUg"/>
		</clipPath>
	</defs>
	<use xlink:href="#path_SDLFkEUg" style="stroke:none;fill:#FF3333;fill-opacity:0.20"/>
	<use xlink:href="#path_SDLFkEUg" style="fill:none;stroke:#FF0000;stroke-opacity:0.20;stroke-width:17.28" clip-path="url(#clipPath_ICEIgafF)"/>
	<path d=" M454.04 729.65 L562.32 983.22 L670.60 1146.08 L779.01 1267.86 L887.29 1362.53 L995.57 1437.90 L1103.85 1499.65 L1212.13 1551.75 L1320.41 1596.67 L1428.69 1635.41 L1536.97 1668.70 L1645.26 1697.04 L1753.54 1720.92 L1861.82 1741.09 L1970.22 1758.17 L2078.51 1772.65 L2186.79 1785.03 L2295.07 1795.79 L2403.35 1804.95 L2511.63 1812.87 L2619.91 1819.80 L2728.19 1825.74 L2836.47 1830.94 L2944.76 1835.39 L3053.04 1839.35 L3161.32 1842.70 L3269.72 1845.54 L3378.00 1848.02" stroke-linejoin="round" style="fill:none;stroke:#FF0000;stroke-width:8.64"/>
	<defs>
		<path id="path_ZTNDFReD" d="M454.16 729.53 L454.16 729.53 L562.44 699.09 L670.73 686.34 L779.01 680.40 L887.29 678.42 L995.57 678.91 L1103.85 681.27 L1212.13 684.61 L1320.54 688.94 L1428.82 693.76 L1537.10 698.96 L1645.38 704.65 L1753.66 710.47 L1861.94 716.41 L1970.22 722.48 L2078.51 728.42 L2186.79 734.48 L2295.07 740.42 L2403.35 746.24 L2511.63 752.05 L2620.03 757.87 L2728.32 763.44 L2836.60 768.88 L2944.88 774.33 L3053.16 779.65 L3161.44 784.85 L3269.72 789.92 L3378.00 794.87 L3378.00 550.33 L3269.72 548.97 L3161.44 547.49 L3053.16 546.00 L2944.88 544.52 L2836.60 542.91 L2728.32 541.30 L2620.03 539.69 L2511.63 538.08 L2403.35 536.35 L2295.07 534.74 L2186.79 533.01 L2078.51 531.40 L1970.22 529.79 L1861.94 528.43 L1753.66 527.19 L1645.38 526.20 L1537.10 525.71 L1428.82 525.83 L1320.54 526.57 L1212.13 528.18 L1103.85 530.90 L995.57 535.48 L887.29 543.16 L779.01 556.52 L670.73 579.42 L562.44 621.12 L454.16 729.53 L454.16 729.53 Z" stroke-linejoin="round"/>
	</defs>
	<defs>
		<clipPath id="clipPath_eerLGSaU">
			<use xlink:href="#path_ZTNDFReD"/>
		</clipPath>
	</defs>
	<use xlink:href="#path_ZTNDFReD" style="stroke:none;fill:#339933;fill-opacity:0.20"/>
	<use xlink:href="#path_ZTNDFReD" style="fill:none;stroke:#008000;stroke-opacity:0.20;stroke-width:17.28" clip-path="url(#clipPath_eerLGSaU)"/>
	<path d=" M454.04 729.65 L562.32 660.10 L670.60 632.88 L779.01 618.52 L887.29 610.85 L995.57 607.26 L1103.85 606.15 L1212.13 606.52 L1320.41 607.76 L1428.69 609.86 L1536.97 612.46 L1645.26 615.55 L1753.54 618.89 L1861.82 622.48 L1970.22 626.19 L2078.51 630.03 L2186.79 633.74 L2295.07 637.58 L2403.35 641.42 L2511.63 645.13 L2619.91 648.84 L2728.19 652.43 L2836.47 656.02 L2944.76 659.48 L3053.04 662.83 L3161.32 666.17 L3269.72 669.51 L3378.00 672.73" stroke-linejoin="round" style="fill:none;stroke:#008000;stroke-width:8.64"/>
	<path d=" M454.04 729.65 L562.32 729.65 L670.60 729.65 L779.01 729.65 L887.29 729.65 L995.57 729.65 L1103.85 729.65 L1212.13 729.65 L1320.41 729.65 L1428.69 729.65 L1536.97 729.65 L1645.26 729.65 L1753.54 729.65 L1861.82 729.65 L1970.22 729.65 L2078.51 729.65 L2186.79 729.65 L2295.07 729.65 L2403.35 729.65 L2511.63 729.65 L2619.91 729.65 L2728.19 729.65 L2836.47 729.65 L2944.76 729.65 L3053.04 729.65 L3161.32 729.65 L3269.72 729.65 L3378.00 729.65" stroke-linejoin="round" style="fill:none;stroke:#000000;stroke-opacity:0.20;stroke-width:23.04"/>
	<line x1="390.80" y1="2489.19" x2="390.80" y2="100.86" style="stroke:#000000;stroke-width:5.76"/>
	<line x1="390.80" y1="2425.82" x2="350.83" y2="2425.82" style="stroke:#000000;stroke-width:5.76"/>
	<text x="300.72" y="2425.82" style="font-family:'Helvetica';font-size:99.99px;fill:#000000" transform="rotate(-90 300.72,2425.82)" text-anchor="middle">-0.1</text>
	<line x1="390.80" y1="1860.39" x2="350.83" y2="1860.39" style="stroke:#000000;stroke-width:5.76"/>
	<text x="300.72" y="1860.39" style="font-family:'Helvetica';font-size:99.99px;fill:#000000" transform="rotate(-90 300.72,1860.39)" text-anchor="middle">-0.1</text>
	<line x1="390.80" y1="1294.96" x2="350.83" y2="1294.96" style="stroke:#000000;stroke-width:5.76"/>
	<text x="300.72" y="1294.96" style="font-family:'Helvetica';font-size:99.99px;fill:#000000" transform="rotate(-90 300.72,1294.96)" text-anchor="middle">-0.1</text>
	<line x1="390.80" y1="729.53" x2="350.83" y2="729.53" style="stroke:#000000;stroke-width:5.76"/>
	<text x="300.72" y="729.53" style="font-family:'Helvetica';font-size:99.99px;fill:#000000" transform="rotate(-90 300.72,729.53)" text-anchor="middle">0.0</text>
	<line x1="390.80" y1="164.22" x2="350.83" y2="164.22" style="stroke:#000000;stroke-width:5.76"/>
	<text x="300.72" y="164.22" style="font-family:'Helvetica';font-size:99.99px;fill:#000000" transform="rotate(-90 300.72,164.22)" text-anchor="middle">0.1</text>
	<text x="190.71" y="1294.96" style="font-family:'Helvetica';font-size:99.99px;fill:#000000" transform="rotate(-90 190.71,1294.96)" text-anchor="middle">Difference in Survival (years)</text>
	<line x1="390.80" y1="2489.19" x2="3859.02" y2="2489.19" style="stroke:#000000;stroke-width:5.76"/>
	<line x1="454.16" y1="2489.19" x2="454.16" y2="2529.16" style="stroke:#000000;stroke-width:5.76"/>
	<text x="454.16" y="2619.14" style="font-family:'Helvetica';font-size:99.99px;fill:#000000" text-anchor="middle">0</text>
	<line x1="1289.47" y1="2489.19" x2="1289.47" y2="2529.16" style="stroke:#000000;stroke-width:5.76"/>
	<text x="1289.47" y="2619.14" style="font-family:'Helvetica';font-size:99.99px;fill:#000000" text-anchor="middle">2</text>
	<line x1="2124.91" y1="2489.19" x2="2124.91" y2="2529.16" style="stroke:#000000;stroke-width:5.76"/>
	<text x="2124.91" y="2619.14" style="font-family:'Helvetica';font-size:99.99px;fill:#000000" text-anchor="middle">4</text>
	<line x1="2960.35" y1="2489.19" x2="2960.35" y2="2529.16" style="stroke:#000000;stroke-width:5.76"/>
	<text x="2960.35" y="2619.14" style="font-family:'Helvetica';font-size:99.99px;fill:#000000" text-anchor="middle">6</text>
	<line x1="3795.66" y1="2489.19" x2="3795.66" y2="2529.16" style="stroke:#000000;stroke-width:5.76"/>
	<text x="3795.66" y="2619.14" style="font-family:'Helvetica';font-size:99.99px;fill:#000000" text-anchor="middle">8</text>
	<text x="2124.91" y="2729.16" style="font-family:'Helvetica';font-size:99.99px;fill:#000000" text-anchor="middle">Years from baseline treatment outcome</text>
	<rect x="468.52" y="2031.42" width="374.47" height="99.99" style="fill:#3333FF;fill-opacity:0.20"/>
	<rect x="472.84" y="2035.74" width="365.83" height="91.35" style="fill:none;stroke:#0000FF;stroke-opacity:0.20;stroke-width:8.64"/>
	<rect x="468.52" y="2171.51" width="374.47" height="99.99" style="fill:#FF3333;fill-opacity:0.20"/>
	<rect x="472.84" y="2175.83" width="365.83" height="91.35" style="fill:none;stroke:#FF0000;stroke-opacity:0.20;stroke-width:8.64"/>
	<rect x="468.52" y="2311.47" width="374.47" height="99.99" style="fill:#339933;fill-opacity:0.20"/>
	<rect x="472.84" y="2315.79" width="365.83" height="91.35" style="fill:none;stroke:#008000;stroke-opacity:0.20;stroke-width:8.64"/>
	<text x="902.88" y="2116.44" style="font-family:'Helvetica';font-size:99.99px;fill:#000000">Early vs. Tr. completion</text>
	<text x="902.88" y="2256.53" style="font-family:'Helvetica';font-size:99.99px;fill:#000000">Late vs. Tr. completion</text>
	<text x="902.88" y="2396.50" style="font-family:'Helvetica';font-size:99.99px;fill:#000000">Late vs. Early dropout</text>
</svg>
