<?xml version="1.0" encoding="UTF-8" standalone="no"?>
<!-- This is a Stata 16.1 generated SVG file (http://www.stata.com) -->

<svg version="1.1" width="5.50in" height="4.00in" viewBox="0 0 3960 2880" xmlns="http://www.w3.org/2000/svg" xmlns:xlink="http://www.w3.org/1999/xlink">
	<desc>Stata Graph - RMSTdiff_fin_ab</desc>
	<rect x="0" y="0" width="3960" height="2880" style="fill:#FFFFFF;stroke:none"/>
	<rect x="0.00" y="0.00" width="3959.88" height="2880.00" style="fill:#FFFFFF"/>
	<rect x="2.88" y="2.88" width="3954.12" height="2874.24" style="fill:none;stroke:#FFFFFF;stroke-width:5.76"/>
	<rect x="390.80" y="100.86" width="3468.22" height="2388.33" style="fill:#FFFFFF"/>
	<rect x="393.68" y="103.74" width="3462.46" height="2382.57" style="fill:none;stroke:#FFFFFF;stroke-width:5.76"/>
	<line x1="390.80" y1="2367.78" x2="3859.02" y2="2367.78" style="stroke:#EAF2F3;stroke-width:8.64"/>
	<line x1="390.80" y1="1633.18" x2="3859.02" y2="1633.18" style="stroke:#EAF2F3;stroke-width:8.64"/>
	<line x1="390.80" y1="898.70" x2="3859.02" y2="898.70" style="stroke:#EAF2F3;stroke-width:8.64"/>
	<line x1="390.80" y1="164.22" x2="3859.02" y2="164.22" style="stroke:#EAF2F3;stroke-width:8.64"/>
	<defs>
		<path id="path_xekAxMnS" d="M562.44 169.17 L562.44 169.17 L670.73 180.93 L779.01 197.39 L887.29 217.56 L995.57 240.70 L1103.85 266.19 L1212.13 294.04 L1320.54 323.74 L1428.82 355.17 L1537.10 388.09 L1645.38 422.37 L1753.66 458.01 L1861.94 494.64 L1970.22 532.39 L2078.51 571.12 L2186.79 610.73 L2295.07 651.07 L2403.35 692.28 L2511.63 734.11 L2620.03 776.80 L2728.32 819.99 L2836.60 863.93 L2944.88 908.35 L3053.16 953.40 L3161.44 998.94 L3269.72 1045.10 L3378.00 1091.76 L3378.00 762.32 L3269.72 732.62 L3161.44 703.17 L3053.16 673.84 L2944.88 644.76 L2836.60 615.80 L2728.32 587.09 L2620.03 558.75 L2511.63 530.53 L2403.35 502.81 L2295.07 475.46 L2186.79 448.61 L2078.51 422.12 L1970.22 396.26 L1861.94 371.01 L1753.66 346.51 L1645.38 322.75 L1537.10 299.98 L1428.82 278.32 L1320.54 257.78 L1212.13 238.72 L1103.85 221.15 L995.57 205.43 L887.29 191.57 L779.01 180.19 L670.73 171.52 L562.44 165.95 L562.44 169.17 Z" stroke-linejoin="round"/>
	</defs>
	<defs>
		<clipPath id="clipPath_WntLWqtf">
			<use xlink:href="#path_xekAxMnS"/>
		</clipPath>
	</defs>
	<use xlink:href="#path_xekAxMnS" style="stroke:none;fill:#3333FF;fill-opacity:0.20"/>
	<use xlink:href="#path_xekAxMnS" style="fill:none;stroke:#0000FF;stroke-opacity:0.20;stroke-width:17.28" clip-path="url(#clipPath_WntLWqtf)"/>
	<path d=" M454.04 164.22 L562.32 167.69 L670.60 176.23 L779.01 188.85 L887.29 204.69 L995.57 223.13 L1103.85 243.80 L1212.13 266.44 L1320.41 290.82 L1428.69 316.81 L1536.97 344.16 L1645.26 372.62 L1753.54 402.32 L1861.82 432.89 L1970.22 464.45 L2078.51 496.62 L2186.79 529.67 L2295.07 563.33 L2403.35 597.61 L2511.63 632.38 L2619.91 667.78 L2728.19 703.66 L2836.47 739.92 L2944.76 776.56 L3053.04 813.68 L3161.32 851.18 L3269.72 888.92 L3378.00 927.04" stroke-linejoin="round" style="fill:none;stroke:#0000FF;stroke-width:8.64"/>
	<defs>
		<path id="path_lxtjHXVG" d="M562.44 178.82 L562.44 178.82 L670.73 212.73 L779.01 259.51 L887.29 315.94 L995.57 379.68 L1103.85 449.23 L1212.13 523.73 L1320.54 602.56 L1428.82 684.85 L1537.10 770.12 L1645.38 857.99 L1753.66 947.95 L1861.94 1039.78 L1970.22 1133.09 L2078.51 1227.89 L2186.79 1323.80 L2295.07 1420.69 L2403.35 1518.46 L2511.63 1617.09 L2620.03 1716.47 L2728.32 1816.34 L2836.60 1916.82 L2944.88 2017.93 L3053.16 2119.28 L3161.44 2221.13 L3269.72 2323.36 L3378.00 2425.82 L3378.00 2022.39 L3269.72 1941.57 L3161.44 1860.52 L3053.16 1779.33 L2944.88 1698.03 L2836.60 1616.60 L2728.32 1535.29 L2620.03 1453.86 L2511.63 1372.68 L2403.35 1291.62 L2295.07 1210.81 L2186.79 1130.62 L2078.51 1050.79 L1970.22 971.84 L1861.94 893.63 L1753.66 816.65 L1645.38 741.04 L1537.10 667.16 L1428.82 595.50 L1320.54 526.33 L1212.13 460.24 L1103.85 397.87 L995.57 339.83 L887.29 286.99 L779.01 240.58 L670.73 202.59 L562.44 175.48 L562.44 178.82 Z" stroke-linejoin="round"/>
	</defs>
	<defs>
		<clipPath id="clipPath_smXsiRfh">
			<use xlink:href="#path_lxtjHXVG"/>
		</clipPath>
	</defs>
	<use xlink:href="#path_lxtjHXVG" style="stroke:none;fill:#FF3333;fill-opacity:0.20"/>
	<use xlink:href="#path_lxtjHXVG" style="fill:none;stroke:#FF0000;stroke-opacity:0.20;stroke-width:17.28" clip-path="url(#clipPath_smXsiRfh)"/>
	<path d=" M454.04 164.22 L562.32 177.22 L670.60 207.66 L779.01 250.11 L887.29 301.46 L995.57 359.75 L1103.85 423.61 L1212.13 492.05 L1320.41 564.44 L1428.69 640.18 L1536.97 718.76 L1645.26 799.57 L1753.54 882.37 L1861.82 966.77 L1970.22 1052.53 L2078.51 1139.40 L2186.79 1227.27 L2295.07 1315.87 L2403.35 1405.10 L2511.63 1494.95 L2619.91 1585.16 L2728.19 1675.87 L2836.47 1766.83 L2944.76 1858.04 L3053.04 1949.37 L3161.32 2040.95 L3269.72 2132.53 L3378.00 2224.23" stroke-linejoin="round" style="fill:none;stroke:#FF0000;stroke-width:8.64"/>
	<path d=" M454.04 164.22 L562.32 164.22 L670.60 164.22 L779.01 164.22 L887.29 164.22 L995.57 164.22 L1103.85 164.22 L1212.13 164.22 L1320.41 164.22 L1428.69 164.22 L1536.97 164.22 L1645.26 164.22 L1753.54 164.22 L1861.82 164.22 L1970.22 164.22 L2078.51 164.22 L2186.79 164.22 L2295.07 164.22 L2403.35 164.22 L2511.63 164.22 L2619.91 164.22 L2728.19 164.22 L2836.47 164.22 L2944.76 164.22 L3053.04 164.22 L3161.32 164.22 L3269.72 164.22 L3378.00 164.22" stroke-linejoin="round" style="fill:none;stroke:#000000;stroke-opacity:0.20;stroke-width:23.04"/>
	<line x1="390.80" y1="2489.19" x2="390.80" y2="100.86" style="stroke:#000000;stroke-width:5.76"/>
	<line x1="390.80" y1="2367.78" x2="350.83" y2="2367.78" style="stroke:#000000;stroke-width:5.76"/>
	<text x="300.72" y="2367.78" style="font-family:'Helvetica';font-size:99.99px;fill:#000000" transform="rotate(-90 300.72,2367.78)" text-anchor="middle">-0.6</text>
	<line x1="390.80" y1="1633.18" x2="350.83" y2="1633.18" style="stroke:#000000;stroke-width:5.76"/>
	<text x="300.72" y="1633.18" style="font-family:'Helvetica';font-size:99.99px;fill:#000000" transform="rotate(-90 300.72,1633.18)" text-anchor="middle">-0.4</text>
	<line x1="390.80" y1="898.70" x2="350.83" y2="898.70" style="stroke:#000000;stroke-width:5.76"/>
	<text x="300.72" y="898.70" style="font-family:'Helvetica';font-size:99.99px;fill:#000000" transform="rotate(-90 300.72,898.70)" text-anchor="middle">-0.2</text>
	<line x1="390.80" y1="164.22" x2="350.83" y2="164.22" style="stroke:#000000;stroke-width:5.76"/>
	<text x="300.72" y="164.22" style="font-family:'Helvetica';font-size:99.99px;fill:#000000" transform="rotate(-90 300.72,164.22)" text-anchor="middle">0.0</text>
	<text x="190.71" y="1294.96" style="font-family:'Helvetica';font-size:99.99px;fill:#000000" transform="rotate(-90 190.71,1294.96)" text-anchor="middle">Difference in RMST (years)</text>
	<line x1="390.80" y1="2489.19" x2="3859.02" y2="2489.19" style="stroke:#000000;stroke-width:5.76"/>
	<line x1="454.16" y1="2489.19" x2="454.16" y2="2529.16" style="stroke:#000000;stroke-width:5.76"/>
	<text x="454.16" y="2619.14" style="font-family:'Helvetica';font-size:99.99px;fill:#000000" text-anchor="middle">0</text>
	<line x1="1289.47" y1="2489.19" x2="1289.47" y2="2529.16" style="stroke:#000000;stroke-width:5.76"/>
	<text x="1289.47" y="2619.14" style="font-family:'Helvetica';font-size:99.99px;fill:#000000" text-anchor="middle">2</text>
	<line x1="2124.91" y1="2489.19" x2="2124.91" y2="2529.16" style="stroke:#000000;stroke-width:5.76"/>
	<text x="2124.91" y="2619.14" style="font-family:'Helvetica';font-size:99.99px;fill:#000000" text-anchor="middle">4</text>
	<line x1="2960.35" y1="2489.19" x2="2960.35" y2="2529.16" style="stroke:#000000;stroke-width:5.76"/>
	<text x="2960.35" y="2619.14" style="font-family:'Helvetica';font-size:99.99px;fill:#000000" text-anchor="middle">6</text>
	<line x1="3795.66" y1="2489.19" x2="3795.66" y2="2529.16" style="stroke:#000000;stroke-width:5.76"/>
	<text x="3795.66" y="2619.14" style="font-family:'Helvetica';font-size:99.99px;fill:#000000" text-anchor="middle">8</text>
	<text x="2124.91" y="2729.16" style="font-family:'Helvetica';font-size:99.99px;fill:#000000" text-anchor="middle">Years from baseline treatment outcome</text>
	<rect x="468.52" y="2171.51" width="374.47" height="99.99" style="fill:#3333FF;fill-opacity:0.20"/>
	<rect x="472.84" y="2175.83" width="365.83" height="91.35" style="fill:none;stroke:#0000FF;stroke-opacity:0.20;stroke-width:8.64"/>
	<rect x="468.52" y="2311.47" width="374.47" height="99.99" style="fill:#FF3333;fill-opacity:0.20"/>
	<rect x="472.84" y="2315.79" width="365.83" height="91.35" style="fill:none;stroke:#FF0000;stroke-opacity:0.20;stroke-width:8.64"/>
	<text x="902.88" y="2256.53" style="font-family:'Helvetica';font-size:99.99px;fill:#000000">Late dropout vs. Early &amp; Tr. completion</text>
	<text x="902.88" y="2396.50" style="font-family:'Helvetica';font-size:99.99px;fill:#000000">Noncompletion vs. completion</text>
</svg>
