<?xml version="1.0" encoding="UTF-8" standalone="no"?>
<!-- This is a Stata 16.1 generated SVG file (http://www.stata.com) -->

<svg version="1.1" width="5.50in" height="4.00in" viewBox="0 0 3960 2880" xmlns="http://www.w3.org/2000/svg" xmlns:xlink="http://www.w3.org/1999/xlink">
	<desc>Stata Graph - RMSTdiff</desc>
	<rect x="0" y="0" width="3960" height="2880" style="fill:#FFFFFF;stroke:none"/>
	<rect x="0.00" y="0.00" width="3959.88" height="2880.00" style="fill:#FFFFFF"/>
	<rect x="2.88" y="2.88" width="3954.12" height="2874.24" style="fill:none;stroke:#FFFFFF;stroke-width:5.76"/>
	<rect x="390.80" y="100.86" width="3468.22" height="2388.33" style="fill:#FFFFFF"/>
	<rect x="393.68" y="103.74" width="3462.46" height="2382.57" style="fill:none;stroke:#FFFFFF;stroke-width:5.76"/>
	<line x1="390.80" y1="2215.44" x2="3859.02" y2="2215.44" style="stroke:#EAF2F3;stroke-width:8.64"/>
	<line x1="390.80" y1="1702.61" x2="3859.02" y2="1702.61" style="stroke:#EAF2F3;stroke-width:8.64"/>
	<line x1="390.80" y1="1189.77" x2="3859.02" y2="1189.77" style="stroke:#EAF2F3;stroke-width:8.64"/>
	<line x1="390.80" y1="676.93" x2="3859.02" y2="676.93" style="stroke:#EAF2F3;stroke-width:8.64"/>
	<line x1="390.80" y1="164.22" x2="3859.02" y2="164.22" style="stroke:#EAF2F3;stroke-width:8.64"/>
	<defs>
		<path id="path_GVYgxOIP" d="M562.44 689.31 L562.44 689.31 L670.73 717.15 L779.01 755.15 L887.29 800.56 L995.57 851.67 L1103.85 907.12 L1212.13 966.15 L1320.54 1028.15 L1428.82 1092.75 L1537.10 1159.45 L1645.38 1227.89 L1753.66 1297.93 L1861.94 1369.21 L1970.22 1441.49 L2078.51 1514.62 L2186.79 1588.38 L2295.07 1662.88 L2403.35 1737.88 L2511.63 1813.24 L2620.03 1888.98 L2728.32 1965.09 L2836.60 2041.44 L2944.88 2117.92 L3053.16 2194.65 L3161.44 2271.63 L3269.72 2348.72 L3378.00 2425.82 L3378.00 2108.27 L3269.72 2047.26 L3161.44 1986.00 L3053.16 1924.62 L2944.88 1863.11 L2836.60 1801.36 L2728.32 1739.73 L2620.03 1677.98 L2511.63 1616.23 L2403.35 1554.60 L2295.07 1492.97 L2186.79 1431.71 L2078.51 1370.70 L1970.22 1310.06 L1861.94 1250.04 L1753.66 1190.64 L1645.38 1132.22 L1537.10 1075.05 L1428.82 1019.36 L1320.54 965.40 L1212.13 913.55 L1103.85 864.42 L995.57 818.38 L887.29 776.31 L779.01 739.06 L670.73 708.37 L562.44 686.34 L562.44 689.31 Z" stroke-linejoin="round"/>
	</defs>
	<defs>
		<clipPath id="clipPath_bWXjxbac">
			<use xlink:href="#path_GVYgxOIP"/>
		</clipPath>
	</defs>
	<use xlink:href="#path_GVYgxOIP" style="stroke:none;fill:#3333FF;fill-opacity:0.20"/>
	<use xlink:href="#path_GVYgxOIP" style="fill:none;stroke:#0000FF;stroke-opacity:0.20;stroke-width:17.28" clip-path="url(#clipPath_bWXjxbac)"/>
	<path d=" M454.04 677.06 L562.32 687.95 L670.60 712.82 L779.01 747.23 L887.29 788.56 L995.57 835.09 L1103.85 885.83 L1212.13 939.91 L1320.41 996.84 L1428.69 1056.12 L1536.97 1117.25 L1645.26 1180.12 L1753.54 1244.35 L1861.82 1309.69 L1970.22 1375.77 L2078.51 1442.72 L2186.79 1510.17 L2295.07 1577.99 L2403.35 1646.30 L2511.63 1714.73 L2619.91 1783.54 L2728.19 1852.47 L2836.47 1921.53 L2944.76 1990.58 L3053.04 2059.76 L3161.32 2128.94 L3269.72 2197.99 L3378.00 2267.17" stroke-linejoin="round" style="fill:none;stroke:#0000FF;stroke-width:8.64"/>
	<defs>
		<path id="path_HfHVuwNn" d="M562.44 686.46 L562.44 686.46 L670.73 708.86 L779.01 740.05 L887.29 778.04 L995.57 821.35 L1103.85 868.88 L1212.13 919.86 L1320.54 973.94 L1428.82 1030.50 L1537.10 1089.41 L1645.38 1150.29 L1753.66 1212.91 L1861.94 1276.77 L1970.22 1341.99 L2078.51 1408.20 L2186.79 1475.39 L2295.07 1543.33 L2403.35 1612.14 L2511.63 1681.44 L2620.03 1751.36 L2728.32 1821.66 L2836.60 1892.57 L2944.88 1963.85 L3053.16 2035.50 L3161.44 2107.53 L3269.72 2179.92 L3378.00 2252.57 L3378.00 1981.55 L3269.72 1922.89 L3161.44 1864.10 L3053.16 1805.45 L2944.88 1746.91 L2836.60 1688.50 L2728.32 1630.09 L2620.03 1572.05 L2511.63 1514.13 L2403.35 1456.58 L2295.07 1399.41 L2186.79 1342.61 L2078.51 1286.42 L1970.22 1230.86 L1861.94 1176.03 L1753.66 1122.20 L1645.38 1069.60 L1537.10 1018.37 L1428.82 968.75 L1320.54 921.10 L1212.13 875.81 L1103.85 833.11 L995.57 793.63 L887.29 757.87 L779.01 726.81 L670.73 701.68 L562.44 684.11 L562.44 686.46 Z" stroke-linejoin="round"/>
	</defs>
	<defs>
		<clipPath id="clipPath_DZtddINh">
			<use xlink:href="#path_HfHVuwNn"/>
		</clipPath>
	</defs>
	<use xlink:href="#path_HfHVuwNn" style="stroke:none;fill:#FF3333;fill-opacity:0.20"/>
	<use xlink:href="#path_HfHVuwNn" style="fill:none;stroke:#FF0000;stroke-opacity:0.20;stroke-width:17.28" clip-path="url(#clipPath_DZtddINh)"/>
	<path d=" M454.04 677.06 L562.32 685.35 L670.60 705.27 L779.01 733.49 L887.29 768.02 L995.57 807.62 L1103.85 851.06 L1212.13 897.96 L1320.41 947.58 L1428.69 999.68 L1536.97 1054.01 L1645.26 1110.07 L1753.54 1167.62 L1861.82 1226.52 L1970.22 1286.42 L2078.51 1347.43 L2186.79 1409.06 L2295.07 1471.43 L2403.35 1534.42 L2511.63 1597.79 L2619.91 1661.77 L2728.19 1726.00 L2836.47 1790.59 L2944.76 1855.44 L3053.04 1920.54 L3161.32 1985.88 L3269.72 2051.47 L3378.00 2117.06" stroke-linejoin="round" style="fill:none;stroke:#FF0000;stroke-width:8.64"/>
	<defs>
		<path id="path_TtqimAbP" d="M562.44 675.94 L562.44 675.94 L670.73 673.72 L779.01 670.87 L887.29 667.90 L995.57 664.81 L1103.85 661.71 L1212.13 658.74 L1320.54 656.02 L1428.82 653.54 L1537.10 651.32 L1645.38 649.34 L1753.66 647.73 L1861.94 646.37 L1970.22 645.38 L2078.51 644.63 L2186.79 644.39 L2295.07 644.39 L2403.35 644.63 L2511.63 645.25 L2620.03 646.24 L2728.32 647.60 L2836.60 649.21 L2944.88 651.07 L3053.16 653.30 L3161.44 655.90 L3269.72 658.74 L3378.00 661.84 L3378.00 392.05 L3269.72 402.08 L3161.44 412.10 L3053.16 422.37 L2944.88 432.64 L2836.60 443.04 L2728.32 453.43 L2620.03 464.08 L2511.63 474.72 L2403.35 485.61 L2295.07 496.50 L2186.79 507.51 L2078.51 518.65 L1970.22 529.91 L1861.94 541.30 L1753.66 552.81 L1645.38 564.32 L1537.10 576.07 L1428.82 587.71 L1320.54 599.46 L1212.13 611.10 L1103.85 622.73 L995.57 634.11 L887.29 645.25 L779.01 655.77 L670.73 665.30 L562.44 672.97 L562.44 675.94 Z" stroke-linejoin="round"/>
	</defs>
	<defs>
		<clipPath id="clipPath_zuCbgRCp">
			<use xlink:href="#path_TtqimAbP"/>
		</clipPath>
	</defs>
	<use xlink:href="#path_TtqimAbP" style="stroke:none;fill:#339933;fill-opacity:0.20"/>
	<use xlink:href="#path_TtqimAbP" style="fill:none;stroke:#008000;stroke-opacity:0.20;stroke-width:17.28" clip-path="url(#clipPath_zuCbgRCp)"/>
	<path d=" M454.04 677.06 L562.32 674.58 L670.60 669.51 L779.01 663.44 L887.29 656.64 L995.57 649.46 L1103.85 642.28 L1212.13 634.98 L1320.41 627.80 L1428.69 620.75 L1536.97 613.70 L1645.26 606.89 L1753.54 600.33 L1861.82 593.89 L1970.22 587.71 L2078.51 581.77 L2186.79 575.95 L2295.07 570.51 L2403.35 565.18 L2511.63 560.11 L2619.91 555.28 L2728.19 550.58 L2836.47 546.13 L2944.76 541.92 L3053.04 537.96 L3161.32 534.12 L3269.72 530.41 L3378.00 527.07" stroke-linejoin="round" style="fill:none;stroke:#008000;stroke-width:8.64"/>
	<path d=" M454.04 677.06 L562.32 677.06 L670.60 677.06 L779.01 677.06 L887.29 677.06 L995.57 677.06 L1103.85 677.06 L1212.13 677.06 L1320.41 677.06 L1428.69 677.06 L1536.97 677.06 L1645.26 677.06 L1753.54 677.06 L1861.82 677.06 L1970.22 677.06 L2078.51 677.06 L2186.79 677.06 L2295.07 677.06 L2403.35 677.06 L2511.63 677.06 L2619.91 677.06 L2728.19 677.06 L2836.47 677.06 L2944.76 677.06 L3053.04 677.06 L3161.32 677.06 L3269.72 677.06 L3378.00 677.06" stroke-linejoin="round" style="fill:none;stroke:#000000;stroke-opacity:0.20;stroke-width:23.04"/>
	<line x1="390.80" y1="2489.19" x2="390.80" y2="100.86" style="stroke:#000000;stroke-width:5.76"/>
	<line x1="390.80" y1="2215.44" x2="350.83" y2="2215.44" style="stroke:#000000;stroke-width:5.76"/>
	<text x="300.72" y="2215.44" style="font-family:'Helvetica';font-size:99.99px;fill:#000000" transform="rotate(-90 300.72,2215.44)" text-anchor="middle">-0.6</text>
	<line x1="390.80" y1="1702.61" x2="350.83" y2="1702.61" style="stroke:#000000;stroke-width:5.76"/>
	<text x="300.72" y="1702.61" style="font-family:'Helvetica';font-size:99.99px;fill:#000000" transform="rotate(-90 300.72,1702.61)" text-anchor="middle">-0.4</text>
	<line x1="390.80" y1="1189.77" x2="350.83" y2="1189.77" style="stroke:#000000;stroke-width:5.76"/>
	<text x="300.72" y="1189.77" style="font-family:'Helvetica';font-size:99.99px;fill:#000000" transform="rotate(-90 300.72,1189.77)" text-anchor="middle">-0.2</text>
	<line x1="390.80" y1="676.93" x2="350.83" y2="676.93" style="stroke:#000000;stroke-width:5.76"/>
	<text x="300.72" y="676.93" style="font-family:'Helvetica';font-size:99.99px;fill:#000000" transform="rotate(-90 300.72,676.93)" text-anchor="middle">0.0</text>
	<line x1="390.80" y1="164.22" x2="350.83" y2="164.22" style="stroke:#000000;stroke-width:5.76"/>
	<text x="300.72" y="164.22" style="font-family:'Helvetica';font-size:99.99px;fill:#000000" transform="rotate(-90 300.72,164.22)" text-anchor="middle">0.2</text>
	<text x="190.71" y="1294.96" style="font-family:'Helvetica';font-size:99.99px;fill:#000000" transform="rotate(-90 190.71,1294.96)" text-anchor="middle">Difference in RMST (years)</text>
	<line x1="390.80" y1="2489.19" x2="3859.02" y2="2489.19" style="stroke:#000000;stroke-width:5.76"/>
	<line x1="454.16" y1="2489.19" x2="454.16" y2="2529.16" style="stroke:#000000;stroke-width:5.76"/>
	<text x="454.16" y="2619.14" style="font-family:'Helvetica';font-size:99.99px;fill:#000000" text-anchor="middle">0</text>
	<line x1="1289.47" y1="2489.19" x2="1289.47" y2="2529.16" style="stroke:#000000;stroke-width:5.76"/>
	<text x="1289.47" y="2619.14" style="font-family:'Helvetica';font-size:99.99px;fill:#000000" text-anchor="middle">2</text>
	<line x1="2124.91" y1="2489.19" x2="2124.91" y2="2529.16" style="stroke:#000000;stroke-width:5.76"/>
	<text x="2124.91" y="2619.14" style="font-family:'Helvetica';font-size:99.99px;fill:#000000" text-anchor="middle">4</text>
	<line x1="2960.35" y1="2489.19" x2="2960.35" y2="2529.16" style="stroke:#000000;stroke-width:5.76"/>
	<text x="2960.35" y="2619.14" style="font-family:'Helvetica';font-size:99.99px;fill:#000000" text-anchor="middle">6</text>
	<line x1="3795.66" y1="2489.19" x2="3795.66" y2="2529.16" style="stroke:#000000;stroke-width:5.76"/>
	<text x="3795.66" y="2619.14" style="font-family:'Helvetica';font-size:99.99px;fill:#000000" text-anchor="middle">8</text>
	<text x="2124.91" y="2729.16" style="font-family:'Helvetica';font-size:99.99px;fill:#000000" text-anchor="middle">Years from baseline treatment outcome</text>
	<rect x="468.52" y="2031.42" width="374.47" height="99.99" style="fill:#3333FF;fill-opacity:0.20"/>
	<rect x="472.84" y="2035.74" width="365.83" height="91.35" style="fill:none;stroke:#0000FF;stroke-opacity:0.20;stroke-width:8.64"/>
	<rect x="468.52" y="2171.51" width="374.47" height="99.99" style="fill:#FF3333;fill-opacity:0.20"/>
	<rect x="472.84" y="2175.83" width="365.83" height="91.35" style="fill:none;stroke:#FF0000;stroke-opacity:0.20;stroke-width:8.64"/>
	<rect x="468.52" y="2311.47" width="374.47" height="99.99" style="fill:#339933;fill-opacity:0.20"/>
	<rect x="472.84" y="2315.79" width="365.83" height="91.35" style="fill:none;stroke:#008000;stroke-opacity:0.20;stroke-width:8.64"/>
	<text x="902.88" y="2116.44" style="font-family:'Helvetica';font-size:99.99px;fill:#000000">Early vs. Tr. completion</text>
	<text x="902.88" y="2256.53" style="font-family:'Helvetica';font-size:99.99px;fill:#000000">Late vs. Tr. completion</text>
	<text x="902.88" y="2396.50" style="font-family:'Helvetica';font-size:99.99px;fill:#000000">Late vs. Early dropout</text>
</svg>
