<?xml version="1.0" encoding="UTF-8" standalone="no"?>
<!-- This is a Stata 16.1 generated SVG file (http://www.stata.com) -->

<svg version="1.1" width="5.50in" height="4.00in" viewBox="0 0 3960 2880" xmlns="http://www.w3.org/2000/svg" xmlns:xlink="http://www.w3.org/1999/xlink">
	<desc>Stata Graph - RMSTdiff</desc>
	<rect x="0" y="0" width="3960" height="2880" style="fill:#FFFFFF;stroke:none"/>
	<rect x="0.00" y="0.00" width="3959.88" height="2880.00" style="fill:#FFFFFF"/>
	<rect x="2.88" y="2.88" width="3954.12" height="2874.24" style="fill:none;stroke:#FFFFFF;stroke-width:5.76"/>
	<rect x="390.80" y="100.86" width="3468.22" height="2388.33" style="fill:#FFFFFF"/>
	<rect x="393.68" y="103.74" width="3462.46" height="2382.57" style="fill:none;stroke:#FFFFFF;stroke-width:5.76"/>
	<line x1="390.80" y1="2425.82" x2="3859.02" y2="2425.82" style="stroke:#EAF2F3;stroke-width:8.64"/>
	<line x1="390.80" y1="1973.50" x2="3859.02" y2="1973.50" style="stroke:#EAF2F3;stroke-width:8.64"/>
	<line x1="390.80" y1="1521.18" x2="3859.02" y2="1521.18" style="stroke:#EAF2F3;stroke-width:8.64"/>
	<line x1="390.80" y1="1068.86" x2="3859.02" y2="1068.86" style="stroke:#EAF2F3;stroke-width:8.64"/>
	<line x1="390.80" y1="616.54" x2="3859.02" y2="616.54" style="stroke:#EAF2F3;stroke-width:8.64"/>
	<line x1="390.80" y1="164.22" x2="3859.02" y2="164.22" style="stroke:#EAF2F3;stroke-width:8.64"/>
	<defs>
		<path id="path_xKXCPDkJ" d="M562.44 627.43 L562.44 627.43 L670.73 652.18 L779.01 685.97 L887.29 726.31 L995.57 771.73 L1103.85 821.11 L1212.13 873.58 L1320.54 928.65 L1428.82 986.07 L1537.10 1045.47 L1645.38 1106.36 L1753.66 1168.61 L1861.94 1232.09 L1970.22 1296.45 L2078.51 1361.42 L2186.79 1427.25 L2295.07 1493.46 L2403.35 1560.17 L2511.63 1627.36 L2620.03 1694.81 L2728.32 1762.50 L2836.60 1830.44 L2944.88 1898.63 L3053.16 1966.94 L3161.44 2035.50 L3269.72 2104.06 L3378.00 2172.87 L3378.00 1893.68 L3269.72 1839.11 L3161.44 1784.41 L3053.16 1729.46 L2944.88 1674.51 L2836.60 1619.44 L2728.32 1564.37 L2620.03 1509.18 L2511.63 1454.11 L2403.35 1399.04 L2295.07 1344.09 L2186.79 1289.39 L2078.51 1234.94 L1970.22 1180.86 L1861.94 1127.27 L1753.66 1074.31 L1645.38 1022.21 L1537.10 971.22 L1428.82 921.47 L1320.54 873.45 L1212.13 827.29 L1103.85 783.49 L995.57 742.40 L887.29 704.90 L779.01 671.74 L670.73 644.39 L562.44 624.83 L562.44 627.43 Z" stroke-linejoin="round"/>
	</defs>
	<defs>
		<clipPath id="clipPath_AJsalqST">
			<use xlink:href="#path_xKXCPDkJ"/>
		</clipPath>
	</defs>
	<use xlink:href="#path_xKXCPDkJ" style="stroke:none;fill:#3333FF;fill-opacity:0.20"/>
	<use xlink:href="#path_xKXCPDkJ" style="fill:none;stroke:#0000FF;stroke-opacity:0.20;stroke-width:17.28" clip-path="url(#clipPath_AJsalqST)"/>
	<path d=" M454.04 616.54 L562.32 626.19 L670.60 648.35 L779.01 678.91 L887.29 715.67 L995.57 757.13 L1103.85 802.30 L1212.13 850.44 L1320.41 901.05 L1428.69 953.89 L1536.97 1008.35 L1645.26 1064.41 L1753.54 1121.58 L1861.82 1179.75 L1970.22 1238.65 L2078.51 1298.30 L2186.79 1358.32 L2295.07 1418.84 L2403.35 1479.72 L2511.63 1540.74 L2619.91 1601.99 L2728.19 1663.50 L2836.47 1725.01 L2944.76 1786.63 L3053.04 1848.26 L3161.32 1910.02 L3269.72 1971.65 L3378.00 2033.28" stroke-linejoin="round" style="fill:none;stroke:#0000FF;stroke-width:8.64"/>
	<defs>
		<path id="path_MuOvsabk" d="M562.44 624.83 L562.44 624.83 L670.73 644.51 L779.01 672.11 L887.29 705.64 L995.57 743.88 L1103.85 785.84 L1212.13 830.88 L1320.54 878.65 L1428.82 928.77 L1537.10 980.87 L1645.38 1034.58 L1753.66 1089.90 L1861.94 1146.46 L1970.22 1204.13 L2078.51 1262.66 L2186.79 1322.19 L2295.07 1382.33 L2403.35 1443.09 L2511.63 1504.35 L2620.03 1566.23 L2728.32 1628.60 L2836.60 1691.22 L2944.88 1754.33 L3053.16 1817.82 L3161.44 1881.55 L3269.72 1945.53 L3378.00 2009.89 L3378.00 1771.66 L3269.72 1719.68 L3161.44 1667.58 L3053.16 1615.61 L2944.88 1563.63 L2836.60 1511.78 L2728.32 1460.17 L2620.03 1408.69 L2511.63 1357.33 L2403.35 1306.35 L2295.07 1255.61 L2186.79 1205.36 L2078.51 1155.61 L1970.22 1106.36 L1861.94 1057.85 L1753.66 1010.20 L1645.38 963.67 L1537.10 918.25 L1428.82 874.44 L1320.54 832.24 L1212.13 792.15 L1103.85 754.53 L995.57 719.50 L887.29 687.95 L779.01 660.47 L670.73 638.32 L562.44 622.73 L562.44 624.83 Z" stroke-linejoin="round"/>
	</defs>
	<defs>
		<clipPath id="clipPath_SSeKRkwS">
			<use xlink:href="#path_MuOvsabk"/>
		</clipPath>
	</defs>
	<use xlink:href="#path_MuOvsabk" style="stroke:none;fill:#FF3333;fill-opacity:0.20"/>
	<use xlink:href="#path_MuOvsabk" style="fill:none;stroke:#FF0000;stroke-opacity:0.20;stroke-width:17.28" clip-path="url(#clipPath_SSeKRkwS)"/>
	<path d=" M454.04 616.54 L562.32 623.84 L670.60 641.54 L779.01 666.41 L887.29 696.86 L995.57 731.76 L1103.85 770.24 L1212.13 811.58 L1320.41 855.51 L1428.69 901.67 L1536.97 949.56 L1645.26 999.19 L1753.54 1050.18 L1861.82 1102.28 L1970.22 1155.37 L2078.51 1209.20 L2186.79 1263.77 L2295.07 1318.97 L2403.35 1374.78 L2511.63 1430.97 L2619.91 1487.52 L2728.19 1544.45 L2836.47 1601.62 L2944.76 1659.04 L3053.04 1716.71 L3161.32 1774.63 L3269.72 1832.67 L3378.00 1890.84" stroke-linejoin="round" style="fill:none;stroke:#FF0000;stroke-width:8.64"/>
	<defs>
		<path id="path_ipOUhuAW" d="M562.44 615.43 L562.44 615.43 L670.73 613.32 L779.01 610.60 L887.29 607.63 L995.57 604.66 L1103.85 601.57 L1212.13 598.72 L1320.54 595.87 L1428.82 593.28 L1537.10 590.92 L1645.38 588.82 L1753.66 586.96 L1861.94 585.36 L1970.22 583.99 L2078.51 583.00 L2186.79 582.26 L2295.07 581.89 L2403.35 581.64 L2511.63 581.77 L2620.03 582.26 L2728.32 583.00 L2836.60 583.99 L2944.88 585.23 L3053.16 586.72 L3161.44 588.57 L3269.72 590.55 L3378.00 592.90 L3378.00 355.17 L3269.72 364.46 L3161.44 373.74 L3053.16 383.14 L2944.88 392.67 L2836.60 402.20 L2728.32 411.85 L2620.03 421.63 L2511.63 431.53 L2403.35 441.43 L2295.07 451.58 L2186.79 461.73 L2078.51 471.87 L1970.22 482.27 L1861.94 492.66 L1753.66 503.31 L1645.38 513.83 L1537.10 524.59 L1428.82 535.24 L1320.54 546.00 L1212.13 556.64 L1103.85 567.16 L995.57 577.68 L887.29 587.71 L779.01 597.36 L670.73 605.90 L562.44 612.95 L562.44 615.43 Z" stroke-linejoin="round"/>
	</defs>
	<defs>
		<clipPath id="clipPath_TAEOgDbu">
			<use xlink:href="#path_ipOUhuAW"/>
		</clipPath>
	</defs>
	<use xlink:href="#path_ipOUhuAW" style="stroke:none;fill:#339933;fill-opacity:0.20"/>
	<use xlink:href="#path_ipOUhuAW" style="fill:none;stroke:#008000;stroke-opacity:0.20;stroke-width:17.28" clip-path="url(#clipPath_TAEOgDbu)"/>
	<path d=" M454.04 616.54 L562.32 614.19 L670.60 609.74 L779.01 604.04 L887.29 597.73 L995.57 591.17 L1103.85 584.49 L1212.13 577.68 L1320.41 571.00 L1428.69 564.32 L1536.97 557.76 L1645.26 551.45 L1753.54 545.14 L1861.82 539.07 L1970.22 533.26 L2078.51 527.56 L2186.79 521.99 L2295.07 516.80 L2403.35 511.60 L2511.63 506.77 L2619.91 502.07 L2728.19 497.49 L2836.47 493.16 L2944.76 488.95 L3053.04 484.99 L3161.32 481.16 L3269.72 477.57 L3378.00 474.10" stroke-linejoin="round" style="fill:none;stroke:#008000;stroke-width:8.64"/>
	<path d=" M454.04 616.54 L562.32 616.54 L670.60 616.54 L779.01 616.54 L887.29 616.54 L995.57 616.54 L1103.85 616.54 L1212.13 616.54 L1320.41 616.54 L1428.69 616.54 L1536.97 616.54 L1645.26 616.54 L1753.54 616.54 L1861.82 616.54 L1970.22 616.54 L2078.51 616.54 L2186.79 616.54 L2295.07 616.54 L2403.35 616.54 L2511.63 616.54 L2619.91 616.54 L2728.19 616.54 L2836.47 616.54 L2944.76 616.54 L3053.04 616.54 L3161.32 616.54 L3269.72 616.54 L3378.00 616.54" stroke-linejoin="round" style="fill:none;stroke:#000000;stroke-opacity:0.20;stroke-width:23.04"/>
	<line x1="390.80" y1="2489.19" x2="390.80" y2="100.86" style="stroke:#000000;stroke-width:5.76"/>
	<line x1="390.80" y1="2425.82" x2="350.83" y2="2425.82" style="stroke:#000000;stroke-width:5.76"/>
	<text x="300.72" y="2425.82" style="font-family:'Helvetica';font-size:99.99px;fill:#000000" transform="rotate(-90 300.72,2425.82)" text-anchor="middle">-0.8</text>
	<line x1="390.80" y1="1973.50" x2="350.83" y2="1973.50" style="stroke:#000000;stroke-width:5.76"/>
	<text x="300.72" y="1973.50" style="font-family:'Helvetica';font-size:99.99px;fill:#000000" transform="rotate(-90 300.72,1973.50)" text-anchor="middle">-0.6</text>
	<line x1="390.80" y1="1521.18" x2="350.83" y2="1521.18" style="stroke:#000000;stroke-width:5.76"/>
	<text x="300.72" y="1521.18" style="font-family:'Helvetica';font-size:99.99px;fill:#000000" transform="rotate(-90 300.72,1521.18)" text-anchor="middle">-0.4</text>
	<line x1="390.80" y1="1068.86" x2="350.83" y2="1068.86" style="stroke:#000000;stroke-width:5.76"/>
	<text x="300.72" y="1068.86" style="font-family:'Helvetica';font-size:99.99px;fill:#000000" transform="rotate(-90 300.72,1068.86)" text-anchor="middle">-0.2</text>
	<line x1="390.80" y1="616.54" x2="350.83" y2="616.54" style="stroke:#000000;stroke-width:5.76"/>
	<text x="300.72" y="616.54" style="font-family:'Helvetica';font-size:99.99px;fill:#000000" transform="rotate(-90 300.72,616.54)" text-anchor="middle">0.0</text>
	<line x1="390.80" y1="164.22" x2="350.83" y2="164.22" style="stroke:#000000;stroke-width:5.76"/>
	<text x="300.72" y="164.22" style="font-family:'Helvetica';font-size:99.99px;fill:#000000" transform="rotate(-90 300.72,164.22)" text-anchor="middle">0.2</text>
	<text x="190.71" y="1294.96" style="font-family:'Helvetica';font-size:99.99px;fill:#000000" transform="rotate(-90 190.71,1294.96)" text-anchor="middle">Difference in RMST (years)</text>
	<line x1="390.80" y1="2489.19" x2="3859.02" y2="2489.19" style="stroke:#000000;stroke-width:5.76"/>
	<line x1="454.16" y1="2489.19" x2="454.16" y2="2529.16" style="stroke:#000000;stroke-width:5.76"/>
	<text x="454.16" y="2619.14" style="font-family:'Helvetica';font-size:99.99px;fill:#000000" text-anchor="middle">0</text>
	<line x1="1289.47" y1="2489.19" x2="1289.47" y2="2529.16" style="stroke:#000000;stroke-width:5.76"/>
	<text x="1289.47" y="2619.14" style="font-family:'Helvetica';font-size:99.99px;fill:#000000" text-anchor="middle">2</text>
	<line x1="2124.91" y1="2489.19" x2="2124.91" y2="2529.16" style="stroke:#000000;stroke-width:5.76"/>
	<text x="2124.91" y="2619.14" style="font-family:'Helvetica';font-size:99.99px;fill:#000000" text-anchor="middle">4</text>
	<line x1="2960.35" y1="2489.19" x2="2960.35" y2="2529.16" style="stroke:#000000;stroke-width:5.76"/>
	<text x="2960.35" y="2619.14" style="font-family:'Helvetica';font-size:99.99px;fill:#000000" text-anchor="middle">6</text>
	<line x1="3795.66" y1="2489.19" x2="3795.66" y2="2529.16" style="stroke:#000000;stroke-width:5.76"/>
	<text x="3795.66" y="2619.14" style="font-family:'Helvetica';font-size:99.99px;fill:#000000" text-anchor="middle">8</text>
	<text x="2124.91" y="2729.16" style="font-family:'Helvetica';font-size:99.99px;fill:#000000" text-anchor="middle">Years from baseline treatment outcome</text>
	<rect x="468.52" y="2031.42" width="374.47" height="99.99" style="fill:#3333FF;fill-opacity:0.20"/>
	<rect x="472.84" y="2035.74" width="365.83" height="91.35" style="fill:none;stroke:#0000FF;stroke-opacity:0.20;stroke-width:8.64"/>
	<rect x="468.52" y="2171.51" width="374.47" height="99.99" style="fill:#FF3333;fill-opacity:0.20"/>
	<rect x="472.84" y="2175.83" width="365.83" height="91.35" style="fill:none;stroke:#FF0000;stroke-opacity:0.20;stroke-width:8.64"/>
	<rect x="468.52" y="2311.47" width="374.47" height="99.99" style="fill:#339933;fill-opacity:0.20"/>
	<rect x="472.84" y="2315.79" width="365.83" height="91.35" style="fill:none;stroke:#008000;stroke-opacity:0.20;stroke-width:8.64"/>
	<text x="902.88" y="2116.44" style="font-family:'Helvetica';font-size:99.99px;fill:#000000">Early vs. Tr. completion</text>
	<text x="902.88" y="2256.53" style="font-family:'Helvetica';font-size:99.99px;fill:#000000">Late vs. Tr. completion</text>
	<text x="902.88" y="2396.50" style="font-family:'Helvetica';font-size:99.99px;fill:#000000">Late vs. Early dropout</text>
</svg>
