<?xml version="1.0" encoding="UTF-8" standalone="no"?>
<!-- This is a Stata 16.1 generated SVG file (http://www.stata.com) -->

<svg version="1.1" width="5.50in" height="4.00in" viewBox="0 0 3960 2880" xmlns="http://www.w3.org/2000/svg" xmlns:xlink="http://www.w3.org/1999/xlink">
	<desc>Stata Graph - s_diff_fin_ab</desc>
	<rect x="0" y="0" width="3960" height="2880" style="fill:#FFFFFF;stroke:none"/>
	<rect x="0.00" y="0.00" width="3959.88" height="2880.00" style="fill:#FFFFFF"/>
	<rect x="2.88" y="2.88" width="3954.12" height="2874.24" style="fill:none;stroke:#FFFFFF;stroke-width:5.76"/>
	<rect x="390.80" y="100.86" width="3468.22" height="2388.33" style="fill:#FFFFFF"/>
	<rect x="393.68" y="103.74" width="3462.46" height="2382.57" style="fill:none;stroke:#FFFFFF;stroke-width:5.76"/>
	<line x1="390.80" y1="2276.20" x2="3859.02" y2="2276.20" style="stroke:#EAF2F3;stroke-width:8.64"/>
	<line x1="390.80" y1="1853.83" x2="3859.02" y2="1853.83" style="stroke:#EAF2F3;stroke-width:8.64"/>
	<line x1="390.80" y1="1431.46" x2="3859.02" y2="1431.46" style="stroke:#EAF2F3;stroke-width:8.64"/>
	<line x1="390.80" y1="1008.97" x2="3859.02" y2="1008.97" style="stroke:#EAF2F3;stroke-width:8.64"/>
	<line x1="390.80" y1="586.59" x2="3859.02" y2="586.59" style="stroke:#EAF2F3;stroke-width:8.64"/>
	<line x1="390.80" y1="164.22" x2="3859.02" y2="164.22" style="stroke:#EAF2F3;stroke-width:8.64"/>
	<defs>
		<path id="path_OQrtZpHl" d="M454.16 164.22 L454.16 164.22 L562.44 351.83 L670.73 470.76 L779.01 561.22 L887.29 632.63 L995.57 692.16 L1103.85 743.64 L1212.13 789.30 L1320.54 830.02 L1428.82 866.52 L1537.10 899.20 L1645.38 928.65 L1753.66 955.26 L1861.94 979.39 L1970.22 1001.66 L2078.51 1022.08 L2186.79 1041.14 L2295.07 1058.96 L2403.35 1075.54 L2511.63 1091.26 L2620.03 1105.99 L2728.32 1119.97 L2836.60 1133.21 L2944.88 1145.71 L3053.16 1157.72 L3161.44 1169.10 L3269.72 1179.99 L3378.00 1190.51 L3378.00 836.45 L3269.72 832.86 L3161.44 828.90 L3053.16 824.45 L2944.88 819.50 L2836.60 814.05 L2728.32 808.11 L2620.03 801.43 L2511.63 794.00 L2403.35 785.71 L2295.07 776.56 L2186.79 766.28 L2078.51 754.65 L1970.22 741.66 L1861.94 727.05 L1753.66 710.35 L1645.38 691.54 L1537.10 669.88 L1428.82 645.01 L1320.54 616.79 L1212.13 584.49 L1103.85 547.73 L995.57 506.15 L887.29 458.38 L779.01 402.20 L670.73 335.00 L562.44 254.93 L454.16 164.22 L454.16 164.22 Z" stroke-linejoin="round"/>
	</defs>
	<defs>
		<clipPath id="clipPath_qVPgeFnw">
			<use xlink:href="#path_OQrtZpHl"/>
		</clipPath>
	</defs>
	<use xlink:href="#path_OQrtZpHl" style="stroke:none;fill:#3333FF;fill-opacity:0.20"/>
	<use xlink:href="#path_OQrtZpHl" style="fill:none;stroke:#0000FF;stroke-opacity:0.20;stroke-width:17.28" clip-path="url(#clipPath_qVPgeFnw)"/>
	<path d=" M454.04 164.22 L562.32 303.44 L670.60 402.94 L779.01 481.77 L887.29 545.63 L995.57 599.22 L1103.85 645.75 L1212.13 686.96 L1320.41 723.47 L1428.69 755.89 L1536.97 784.60 L1645.26 810.09 L1753.54 832.86 L1861.82 853.28 L1970.22 871.72 L2078.51 888.43 L2186.79 903.77 L2295.07 917.76 L2403.35 930.75 L2511.63 942.63 L2619.91 953.77 L2728.19 964.04 L2836.47 973.70 L2944.76 982.73 L3053.04 991.14 L3161.32 999.06 L3269.72 1006.49 L3378.00 1013.54" stroke-linejoin="round" style="fill:none;stroke:#0000FF;stroke-width:8.64"/>
	<defs>
		<path id="path_UGhLOHcE" d="M454.16 164.22 L454.16 164.22 L562.44 726.56 L670.73 1062.06 L779.01 1304.98 L887.29 1487.15 L995.57 1631.08 L1103.85 1750.00 L1212.13 1850.86 L1320.54 1936.62 L1428.82 2009.64 L1537.10 2071.64 L1645.38 2123.99 L1753.66 2168.42 L1861.94 2206.28 L1970.22 2238.83 L2078.51 2266.92 L2186.79 2291.30 L2295.07 2312.59 L2403.35 2331.28 L2511.63 2347.73 L2620.03 2362.21 L2728.32 2374.96 L2836.60 2386.22 L2944.88 2396.25 L3053.16 2405.03 L3161.44 2412.95 L3269.72 2419.76 L3378.00 2425.82 L3378.00 1969.67 L3269.72 1974.00 L3161.44 1977.59 L3053.16 1980.31 L2944.88 1982.04 L2836.60 1982.66 L2728.32 1982.04 L2620.03 1980.06 L2511.63 1976.23 L2403.35 1970.53 L2295.07 1962.49 L2186.79 1951.85 L2078.51 1937.99 L1970.22 1920.29 L1861.94 1898.26 L1753.66 1870.79 L1645.38 1836.88 L1537.10 1795.05 L1428.82 1743.82 L1320.54 1681.82 L1212.13 1607.32 L1103.85 1518.58 L995.57 1413.02 L887.29 1284.81 L779.01 1122.94 L670.73 910.46 L562.44 622.73 L454.16 164.22 L454.16 164.22 Z" stroke-linejoin="round"/>
	</defs>
	<defs>
		<clipPath id="clipPath_RmYnJZKT">
			<use xlink:href="#path_UGhLOHcE"/>
		</clipPath>
	</defs>
	<use xlink:href="#path_UGhLOHcE" style="stroke:none;fill:#FF3333;fill-opacity:0.20"/>
	<use xlink:href="#path_UGhLOHcE" style="fill:none;stroke:#FF0000;stroke-opacity:0.20;stroke-width:17.28" clip-path="url(#clipPath_RmYnJZKT)"/>
	<path d=" M454.04 164.22 L562.32 674.71 L670.60 986.32 L779.01 1214.03 L887.29 1386.04 L995.57 1522.17 L1103.85 1634.29 L1212.13 1729.09 L1320.41 1809.28 L1428.69 1876.85 L1536.97 1933.41 L1645.26 1980.56 L1753.54 2019.66 L1861.82 2052.33 L1970.22 2079.68 L2078.51 2102.45 L2186.79 2121.64 L2295.07 2137.60 L2403.35 2150.97 L2511.63 2162.10 L2619.91 2171.14 L2728.19 2178.56 L2836.47 2184.50 L2944.76 2189.21 L3053.04 2192.79 L3161.32 2195.27 L3269.72 2197.00 L3378.00 2197.87" stroke-linejoin="round" style="fill:none;stroke:#FF0000;stroke-width:8.64"/>
	<path d=" M454.04 164.22 L562.32 164.22 L670.60 164.22 L779.01 164.22 L887.29 164.22 L995.57 164.22 L1103.85 164.22 L1212.13 164.22 L1320.41 164.22 L1428.69 164.22 L1536.97 164.22 L1645.26 164.22 L1753.54 164.22 L1861.82 164.22 L1970.22 164.22 L2078.51 164.22 L2186.79 164.22 L2295.07 164.22 L2403.35 164.22 L2511.63 164.22 L2619.91 164.22 L2728.19 164.22 L2836.47 164.22 L2944.76 164.22 L3053.04 164.22 L3161.32 164.22 L3269.72 164.22 L3378.00 164.22" stroke-linejoin="round" style="fill:none;stroke:#000000;stroke-opacity:0.20;stroke-width:23.04"/>
	<line x1="390.80" y1="2489.19" x2="390.80" y2="100.86" style="stroke:#000000;stroke-width:5.76"/>
	<line x1="390.80" y1="2276.20" x2="350.83" y2="2276.20" style="stroke:#000000;stroke-width:5.76"/>
	<text x="300.72" y="2276.20" style="font-family:'Helvetica';font-size:99.99px;fill:#000000" transform="rotate(-90 300.72,2276.20)" text-anchor="middle">-0.1</text>
	<line x1="390.80" y1="1853.83" x2="350.83" y2="1853.83" style="stroke:#000000;stroke-width:5.76"/>
	<text x="300.72" y="1853.83" style="font-family:'Helvetica';font-size:99.99px;fill:#000000" transform="rotate(-90 300.72,1853.83)" text-anchor="middle">-0.1</text>
	<line x1="390.80" y1="1431.46" x2="350.83" y2="1431.46" style="stroke:#000000;stroke-width:5.76"/>
	<text x="300.72" y="1431.46" style="font-family:'Helvetica';font-size:99.99px;fill:#000000" transform="rotate(-90 300.72,1431.46)" text-anchor="middle">-0.1</text>
	<line x1="390.80" y1="1008.97" x2="350.83" y2="1008.97" style="stroke:#000000;stroke-width:5.76"/>
	<text x="300.72" y="1008.97" style="font-family:'Helvetica';font-size:99.99px;fill:#000000" transform="rotate(-90 300.72,1008.97)" text-anchor="middle">-0.0</text>
	<line x1="390.80" y1="586.59" x2="350.83" y2="586.59" style="stroke:#000000;stroke-width:5.76"/>
	<text x="300.72" y="586.59" style="font-family:'Helvetica';font-size:99.99px;fill:#000000" transform="rotate(-90 300.72,586.59)" text-anchor="middle">-0.0</text>
	<line x1="390.80" y1="164.22" x2="350.83" y2="164.22" style="stroke:#000000;stroke-width:5.76"/>
	<text x="300.72" y="164.22" style="font-family:'Helvetica';font-size:99.99px;fill:#000000" transform="rotate(-90 300.72,164.22)" text-anchor="middle">0.0</text>
	<text x="190.71" y="1294.96" style="font-family:'Helvetica';font-size:99.99px;fill:#000000" transform="rotate(-90 190.71,1294.96)" text-anchor="middle">Difference in Survival (years)</text>
	<line x1="390.80" y1="2489.19" x2="3859.02" y2="2489.19" style="stroke:#000000;stroke-width:5.76"/>
	<line x1="454.16" y1="2489.19" x2="454.16" y2="2529.16" style="stroke:#000000;stroke-width:5.76"/>
	<text x="454.16" y="2619.14" style="font-family:'Helvetica';font-size:99.99px;fill:#000000" text-anchor="middle">0</text>
	<line x1="1289.47" y1="2489.19" x2="1289.47" y2="2529.16" style="stroke:#000000;stroke-width:5.76"/>
	<text x="1289.47" y="2619.14" style="font-family:'Helvetica';font-size:99.99px;fill:#000000" text-anchor="middle">2</text>
	<line x1="2124.91" y1="2489.19" x2="2124.91" y2="2529.16" style="stroke:#000000;stroke-width:5.76"/>
	<text x="2124.91" y="2619.14" style="font-family:'Helvetica';font-size:99.99px;fill:#000000" text-anchor="middle">4</text>
	<line x1="2960.35" y1="2489.19" x2="2960.35" y2="2529.16" style="stroke:#000000;stroke-width:5.76"/>
	<text x="2960.35" y="2619.14" style="font-family:'Helvetica';font-size:99.99px;fill:#000000" text-anchor="middle">6</text>
	<line x1="3795.66" y1="2489.19" x2="3795.66" y2="2529.16" style="stroke:#000000;stroke-width:5.76"/>
	<text x="3795.66" y="2619.14" style="font-family:'Helvetica';font-size:99.99px;fill:#000000" text-anchor="middle">8</text>
	<text x="2124.91" y="2729.16" style="font-family:'Helvetica';font-size:99.99px;fill:#000000" text-anchor="middle">Years from baseline treatment outcome</text>
	<rect x="1553.31" y="178.58" width="374.34" height="99.99" style="fill:#3333FF;fill-opacity:0.20"/>
	<rect x="1557.63" y="182.90" width="365.70" height="91.35" style="fill:none;stroke:#0000FF;stroke-opacity:0.20;stroke-width:8.64"/>
	<rect x="1553.31" y="318.54" width="374.34" height="99.99" style="fill:#FF3333;fill-opacity:0.20"/>
	<rect x="1557.63" y="322.86" width="365.70" height="91.35" style="fill:none;stroke:#FF0000;stroke-opacity:0.20;stroke-width:8.64"/>
	<text x="1987.67" y="263.60" style="font-family:'Helvetica';font-size:99.99px;fill:#000000">Late dropout vs. Early &amp; Tr. completion</text>
	<text x="1987.67" y="403.57" style="font-family:'Helvetica';font-size:99.99px;fill:#000000">Noncompletion vs. completion</text>
</svg>
